<svg width="233" height="68" viewBox="0 0 233 68" fill="none" xmlns="http://www.w3.org/2000/svg">
<g filter="url(#filter0_d_1503_4203)">
<rect x="10" y="6" width="194.25" height="48" rx="8" fill="url(#paint0_linear_1503_4203)"/>
<path d="M34.478 34.43C34.79 34.43 35.048 34.538 35.252 34.754C35.468 34.958 35.576 35.198 35.576 35.474C35.576 35.774 35.468 36.02 35.252 36.212C35.048 36.404 34.79 36.5 34.478 36.5H28.448C28.136 36.5 27.872 36.398 27.656 36.194C27.452 35.978 27.35 35.714 27.35 35.402V24.998C27.35 24.686 27.452 24.428 27.656 24.224C27.872 24.008 28.136 23.9 28.448 23.9H34.478C34.79 23.9 35.048 24.002 35.252 24.206C35.468 24.398 35.576 24.65 35.576 24.962C35.576 25.262 35.474 25.508 35.27 25.7C35.066 25.88 34.802 25.97 34.478 25.97H29.6V29.03H33.668C33.98 29.03 34.238 29.132 34.442 29.336C34.658 29.528 34.766 29.78 34.766 30.092C34.766 30.392 34.664 30.638 34.46 30.83C34.256 31.01 33.992 31.1 33.668 31.1H29.6V34.43H34.478ZM48.8468 34.844C48.9908 35.036 49.0628 35.258 49.0628 35.51C49.0628 35.822 48.9488 36.08 48.7208 36.284C48.4928 36.488 48.2468 36.59 47.9828 36.59C47.6348 36.59 47.3408 36.434 47.1008 36.122L43.8968 31.856L40.7828 36.086C40.5428 36.422 40.2428 36.59 39.8828 36.59C39.6188 36.59 39.3908 36.494 39.1988 36.302C39.0068 36.11 38.9108 35.888 38.9108 35.636C38.9108 35.372 39.0008 35.126 39.1808 34.898L42.6548 30.2L39.1808 25.592C39.0248 25.4 38.9468 25.184 38.9468 24.944C38.9468 24.644 39.0608 24.386 39.2888 24.17C39.5168 23.954 39.7688 23.846 40.0448 23.846C40.3928 23.846 40.6868 24.002 40.9268 24.314L44.0948 28.526L47.1908 24.404C47.3108 24.236 47.4488 24.11 47.6048 24.026C47.7608 23.93 47.9168 23.882 48.0728 23.882C48.3368 23.882 48.5708 23.99 48.7748 24.206C48.9788 24.41 49.0808 24.638 49.0808 24.89C49.0808 25.118 49.0028 25.334 48.8468 25.538L45.3368 30.164L48.8468 34.844ZM58.2477 23.9C58.8597 23.9 59.4417 24.086 59.9937 24.458C60.5457 24.818 60.9897 25.31 61.3257 25.934C61.6617 26.546 61.8297 27.218 61.8297 27.95C61.8297 28.67 61.6617 29.342 61.3257 29.966C60.9897 30.59 60.5457 31.088 59.9937 31.46C59.4417 31.82 58.8597 32 58.2477 32H55.1157V35.402C55.1157 35.726 55.0197 35.99 54.8277 36.194C54.6357 36.398 54.3837 36.5 54.0717 36.5C53.7717 36.5 53.5257 36.398 53.3337 36.194C53.1417 35.978 53.0457 35.714 53.0457 35.402V24.998C53.0457 24.686 53.1477 24.428 53.3517 24.224C53.5677 24.008 53.8317 23.9 54.1437 23.9H58.2477ZM58.2477 29.948C58.4757 29.948 58.6977 29.852 58.9137 29.66C59.1417 29.468 59.3217 29.222 59.4537 28.922C59.5977 28.61 59.6697 28.286 59.6697 27.95C59.6697 27.614 59.5977 27.296 59.4537 26.996C59.3217 26.684 59.1417 26.438 58.9137 26.258C58.6977 26.066 58.4757 25.97 58.2477 25.97H55.1157V29.948H58.2477ZM72.6394 34.394C72.9514 34.394 73.2094 34.496 73.4134 34.7C73.6294 34.892 73.7374 35.144 73.7374 35.456C73.7374 35.756 73.6294 36.008 73.4134 36.212C73.2094 36.404 72.9514 36.5 72.6394 36.5H66.7894C66.4774 36.5 66.2134 36.398 65.9974 36.194C65.7934 35.978 65.6914 35.714 65.6914 35.402V24.998C65.6914 24.686 65.7994 24.428 66.0154 24.224C66.2314 24.008 66.5074 23.9 66.8434 23.9C67.1434 23.9 67.4014 24.008 67.6174 24.224C67.8334 24.428 67.9414 24.686 67.9414 24.998V34.394H72.6394ZM89.015 30.2C89.015 31.388 88.751 32.48 88.223 33.476C87.695 34.46 86.963 35.24 86.027 35.816C85.103 36.392 84.059 36.68 82.895 36.68C81.731 36.68 80.681 36.392 79.745 35.816C78.821 35.24 78.095 34.46 77.567 33.476C77.051 32.48 76.793 31.388 76.793 30.2C76.793 29.012 77.051 27.926 77.567 26.942C78.095 25.946 78.821 25.16 79.745 24.584C80.681 24.008 81.731 23.72 82.895 23.72C84.059 23.72 85.103 24.008 86.027 24.584C86.963 25.16 87.695 25.946 88.223 26.942C88.751 27.926 89.015 29.012 89.015 30.2ZM86.675 30.2C86.675 29.396 86.513 28.67 86.189 28.022C85.865 27.362 85.415 26.84 84.839 26.456C84.263 26.072 83.615 25.88 82.895 25.88C82.163 25.88 81.509 26.072 80.933 26.456C80.369 26.828 79.925 27.344 79.601 28.004C79.289 28.664 79.133 29.396 79.133 30.2C79.133 31.004 79.289 31.736 79.601 32.396C79.925 33.056 80.369 33.578 80.933 33.962C81.509 34.334 82.163 34.52 82.895 34.52C83.615 34.52 84.263 34.328 84.839 33.944C85.415 33.56 85.865 33.044 86.189 32.396C86.513 31.736 86.675 31.004 86.675 30.2ZM102.763 34.736C102.919 34.832 103.039 34.958 103.123 35.114C103.219 35.27 103.267 35.432 103.267 35.6C103.267 35.816 103.195 36.014 103.051 36.194C102.871 36.41 102.595 36.518 102.223 36.518C101.935 36.518 101.671 36.452 101.431 36.32C100.567 35.828 100.135 34.826 100.135 33.314C100.135 32.882 99.9913 32.54 99.7033 32.288C99.4273 32.036 99.0253 31.91 98.4973 31.91H95.1313V35.402C95.1313 35.726 95.0413 35.99 94.8613 36.194C94.6933 36.398 94.4653 36.5 94.1772 36.5C93.8293 36.5 93.5233 36.398 93.2593 36.194C93.0073 35.978 92.8813 35.714 92.8813 35.402V24.998C92.8813 24.686 92.9833 24.428 93.1873 24.224C93.4033 24.008 93.6673 23.9 93.9793 23.9H99.1633C99.7873 23.9 100.375 24.068 100.927 24.404C101.479 24.74 101.917 25.202 102.241 25.79C102.577 26.378 102.745 27.038 102.745 27.77C102.745 28.37 102.583 28.958 102.259 29.534C101.935 30.098 101.515 30.548 100.999 30.884C101.755 31.412 102.169 32.12 102.241 33.008C102.277 33.2 102.295 33.386 102.295 33.566C102.343 33.938 102.391 34.208 102.439 34.376C102.487 34.532 102.595 34.652 102.763 34.736ZM99.0733 30.056C99.2893 30.056 99.4993 29.954 99.7033 29.75C99.9073 29.546 100.075 29.276 100.207 28.94C100.339 28.592 100.405 28.22 100.405 27.824C100.405 27.488 100.339 27.182 100.207 26.906C100.075 26.618 99.9073 26.39 99.7033 26.222C99.4993 26.054 99.2893 25.97 99.0733 25.97H95.1313V30.056H99.0733ZM114.167 34.43C114.479 34.43 114.737 34.538 114.941 34.754C115.157 34.958 115.265 35.198 115.265 35.474C115.265 35.774 115.157 36.02 114.941 36.212C114.737 36.404 114.479 36.5 114.167 36.5H108.137C107.825 36.5 107.561 36.398 107.345 36.194C107.141 35.978 107.039 35.714 107.039 35.402V24.998C107.039 24.686 107.141 24.428 107.345 24.224C107.561 24.008 107.825 23.9 108.137 23.9H114.167C114.479 23.9 114.737 24.002 114.941 24.206C115.157 24.398 115.265 24.65 115.265 24.962C115.265 25.262 115.163 25.508 114.959 25.7C114.755 25.88 114.491 25.97 114.167 25.97H109.289V29.03H113.357C113.669 29.03 113.927 29.132 114.131 29.336C114.347 29.528 114.455 29.78 114.455 30.092C114.455 30.392 114.353 30.638 114.149 30.83C113.945 31.01 113.681 31.1 113.357 31.1H109.289V34.43H114.167ZM135.542 23.9C135.83 23.9 136.064 23.996 136.244 24.188C136.424 24.38 136.514 24.62 136.514 24.908V35.402C136.514 35.714 136.406 35.978 136.19 36.194C135.986 36.398 135.728 36.5 135.416 36.5C135.248 36.5 135.08 36.476 134.912 36.428C134.756 36.368 134.642 36.29 134.57 36.194L127.964 27.806V35.492C127.964 35.78 127.868 36.02 127.676 36.212C127.496 36.404 127.256 36.5 126.956 36.5C126.668 36.5 126.434 36.404 126.254 36.212C126.074 36.02 125.984 35.78 125.984 35.492V24.998C125.984 24.686 126.086 24.428 126.29 24.224C126.506 24.008 126.77 23.9 127.082 23.9C127.262 23.9 127.436 23.936 127.604 24.008C127.784 24.08 127.916 24.176 128 24.296L134.552 32.648V24.908C134.552 24.62 134.642 24.38 134.822 24.188C135.014 23.996 135.254 23.9 135.542 23.9ZM152.613 30.2C152.613 31.388 152.349 32.48 151.821 33.476C151.293 34.46 150.561 35.24 149.625 35.816C148.701 36.392 147.657 36.68 146.493 36.68C145.329 36.68 144.279 36.392 143.343 35.816C142.419 35.24 141.693 34.46 141.165 33.476C140.649 32.48 140.391 31.388 140.391 30.2C140.391 29.012 140.649 27.926 141.165 26.942C141.693 25.946 142.419 25.16 143.343 24.584C144.279 24.008 145.329 23.72 146.493 23.72C147.657 23.72 148.701 24.008 149.625 24.584C150.561 25.16 151.293 25.946 151.821 26.942C152.349 27.926 152.613 29.012 152.613 30.2ZM150.273 30.2C150.273 29.396 150.111 28.67 149.787 28.022C149.463 27.362 149.013 26.84 148.437 26.456C147.861 26.072 147.213 25.88 146.493 25.88C145.761 25.88 145.107 26.072 144.531 26.456C143.967 26.828 143.523 27.344 143.199 28.004C142.887 28.664 142.731 29.396 142.731 30.2C142.731 31.004 142.887 31.736 143.199 32.396C143.523 33.056 143.967 33.578 144.531 33.962C145.107 34.334 145.761 34.52 146.493 34.52C147.213 34.52 147.861 34.328 148.437 33.944C149.013 33.56 149.463 33.044 149.787 32.396C150.111 31.736 150.273 31.004 150.273 30.2ZM170.557 23.846C170.845 23.846 171.109 23.96 171.349 24.188C171.601 24.404 171.727 24.68 171.727 25.016C171.727 25.124 171.709 25.244 171.673 25.376L168.127 35.816C168.055 36.02 167.929 36.182 167.749 36.302C167.569 36.422 167.371 36.488 167.155 36.5C166.939 36.5 166.735 36.44 166.543 36.32C166.351 36.2 166.201 36.026 166.093 35.798L163.537 29.984L160.963 35.798C160.855 36.026 160.705 36.2 160.513 36.32C160.321 36.44 160.117 36.5 159.901 36.5C159.685 36.488 159.487 36.422 159.307 36.302C159.127 36.182 159.001 36.02 158.929 35.816L155.383 25.376C155.347 25.244 155.329 25.124 155.329 25.016C155.329 24.68 155.449 24.404 155.689 24.188C155.941 23.96 156.217 23.846 156.517 23.846C156.757 23.846 156.973 23.912 157.165 24.044C157.357 24.164 157.489 24.332 157.561 24.548L160.243 32.684L162.583 27.068C162.679 26.852 162.817 26.684 162.997 26.564C163.177 26.432 163.381 26.372 163.609 26.384C163.837 26.372 164.035 26.432 164.203 26.564C164.383 26.684 164.521 26.852 164.617 27.068L166.831 32.63L169.495 24.548C169.567 24.332 169.699 24.164 169.891 24.044C170.095 23.912 170.317 23.846 170.557 23.846Z" fill="white"/>
</g>
<g filter="url(#filter1_d_1503_4203)">
<circle cx="204.25" cy="30" r="18" fill="url(#paint1_linear_1503_4203)"/>
</g>
<path d="M209.569 28.2761C210.884 29.0494 210.884 30.9506 209.569 31.7239L202.764 35.727C201.431 36.5113 199.75 35.55 199.75 34.0032L199.75 25.9968C199.75 24.45 201.431 23.4887 202.764 24.273L209.569 28.2761Z" fill="white"/>
<defs>
<filter id="filter0_d_1503_4203" x="0" y="0" width="214.25" height="68" filterUnits="userSpaceOnUse" color-interpolation-filters="sRGB">
<feFlood flood-opacity="0" result="BackgroundImageFix"/>
<feColorMatrix in="SourceAlpha" type="matrix" values="0 0 0 0 0 0 0 0 0 0 0 0 0 0 0 0 0 0 127 0" result="hardAlpha"/>
<feOffset dy="4"/>
<feGaussianBlur stdDeviation="5"/>
<feComposite in2="hardAlpha" operator="out"/>
<feColorMatrix type="matrix" values="0 0 0 0 0 0 0 0 0 0 0 0 0 0 0 0 0 0 0.1 0"/>
<feBlend mode="normal" in2="BackgroundImageFix" result="effect1_dropShadow_1503_4203"/>
<feBlend mode="normal" in="SourceGraphic" in2="effect1_dropShadow_1503_4203" result="shape"/>
</filter>
<filter id="filter1_d_1503_4203" x="176.25" y="6" width="56" height="56" filterUnits="userSpaceOnUse" color-interpolation-filters="sRGB">
<feFlood flood-opacity="0" result="BackgroundImageFix"/>
<feColorMatrix in="SourceAlpha" type="matrix" values="0 0 0 0 0 0 0 0 0 0 0 0 0 0 0 0 0 0 127 0" result="hardAlpha"/>
<feOffset dy="4"/>
<feGaussianBlur stdDeviation="5"/>
<feComposite in2="hardAlpha" operator="out"/>
<feColorMatrix type="matrix" values="0 0 0 0 0.980392 0 0 0 0 0.262745 0 0 0 0 0.262745 0 0 0 0.25 0"/>
<feBlend mode="normal" in2="BackgroundImageFix" result="effect1_dropShadow_1503_4203"/>
<feBlend mode="normal" in="SourceGraphic" in2="effect1_dropShadow_1503_4203" result="shape"/>
</filter>
<linearGradient id="paint0_linear_1503_4203" x1="10" y1="6" x2="147.049" y2="121.735" gradientUnits="userSpaceOnUse">
<stop stop-color="#2CB5C8"/>
<stop offset="1" stop-color="#63D1DF"/>
</linearGradient>
<linearGradient id="paint1_linear_1503_4203" x1="186.25" y1="12" x2="224.382" y2="14.4209" gradientUnits="userSpaceOnUse">
<stop stop-color="#FF4234"/>
<stop offset="1" stop-color="#FF7A70"/>
</linearGradient>
</defs>
</svg>
