<svg width="303" height="84" viewBox="0 0 303 84" fill="none" xmlns="http://www.w3.org/2000/svg">
<g filter="url(#filter0_d_107_231)">
<rect x="10" y="6" width="259" height="64" rx="12" fill="url(#paint0_linear_107_231)"/>
<path d="M45.304 44.24C45.72 44.24 46.064 44.384 46.336 44.672C46.624 44.944 46.768 45.264 46.768 45.632C46.768 46.032 46.624 46.36 46.336 46.616C46.064 46.872 45.72 47 45.304 47H37.264C36.848 47 36.496 46.864 36.208 46.592C35.936 46.304 35.8 45.952 35.8 45.536V31.664C35.8 31.248 35.936 30.904 36.208 30.632C36.496 30.344 36.848 30.2 37.264 30.2H45.304C45.72 30.2 46.064 30.336 46.336 30.608C46.624 30.864 46.768 31.2 46.768 31.616C46.768 32.016 46.632 32.344 46.36 32.6C46.088 32.84 45.736 32.96 45.304 32.96H38.8V37.04H44.224C44.64 37.04 44.984 37.176 45.256 37.448C45.544 37.704 45.688 38.04 45.688 38.456C45.688 38.856 45.552 39.184 45.28 39.44C45.008 39.68 44.656 39.8 44.224 39.8H38.8V44.24H45.304ZM64.4624 44.792C64.6544 45.048 64.7504 45.344 64.7504 45.68C64.7504 46.096 64.5984 46.44 64.2944 46.712C63.9904 46.984 63.6624 47.12 63.3104 47.12C62.8464 47.12 62.4544 46.912 62.1344 46.496L57.8624 40.808L53.7104 46.448C53.3904 46.896 52.9904 47.12 52.5104 47.12C52.1584 47.12 51.8544 46.992 51.5984 46.736C51.3424 46.48 51.2144 46.184 51.2144 45.848C51.2144 45.496 51.3344 45.168 51.5744 44.864L56.2064 38.6L51.5744 32.456C51.3664 32.2 51.2624 31.912 51.2624 31.592C51.2624 31.192 51.4144 30.848 51.7184 30.56C52.0224 30.272 52.3584 30.128 52.7264 30.128C53.1904 30.128 53.5824 30.336 53.9024 30.752L58.1264 36.368L62.2544 30.872C62.4144 30.648 62.5984 30.48 62.8064 30.368C63.0144 30.24 63.2224 30.176 63.4304 30.176C63.7824 30.176 64.0944 30.32 64.3664 30.608C64.6384 30.88 64.7744 31.184 64.7744 31.52C64.7744 31.824 64.6704 32.112 64.4624 32.384L59.7824 38.552L64.4624 44.792ZM76.9969 30.2C77.8129 30.2 78.5889 30.448 79.3249 30.944C80.0609 31.424 80.6529 32.08 81.1009 32.912C81.5489 33.728 81.7729 34.624 81.7729 35.6C81.7729 36.56 81.5489 37.456 81.1009 38.288C80.6529 39.12 80.0609 39.784 79.3249 40.28C78.5889 40.76 77.8129 41 76.9969 41H72.8209V45.536C72.8209 45.968 72.6929 46.32 72.4369 46.592C72.1809 46.864 71.8449 47 71.4289 47C71.0289 47 70.7009 46.864 70.4449 46.592C70.1889 46.304 70.0609 45.952 70.0609 45.536V31.664C70.0609 31.248 70.1969 30.904 70.4689 30.632C70.7569 30.344 71.1089 30.2 71.5249 30.2H76.9969ZM76.9969 38.264C77.3009 38.264 77.5969 38.136 77.8849 37.88C78.1889 37.624 78.4289 37.296 78.6049 36.896C78.7969 36.48 78.8929 36.048 78.8929 35.6C78.8929 35.152 78.7969 34.728 78.6049 34.328C78.4289 33.912 78.1889 33.584 77.8849 33.344C77.5969 33.088 77.3009 32.96 76.9969 32.96H72.8209V38.264H76.9969ZM96.1859 44.192C96.6019 44.192 96.9459 44.328 97.2179 44.6C97.5059 44.856 97.6499 45.192 97.6499 45.608C97.6499 46.008 97.5059 46.344 97.2179 46.616C96.9459 46.872 96.6019 47 96.1859 47H88.3859C87.9699 47 87.6179 46.864 87.3299 46.592C87.0579 46.304 86.9219 45.952 86.9219 45.536V31.664C86.9219 31.248 87.0659 30.904 87.3539 30.632C87.6419 30.344 88.0099 30.2 88.4579 30.2C88.8579 30.2 89.2019 30.344 89.4899 30.632C89.7779 30.904 89.9219 31.248 89.9219 31.664V44.192H96.1859ZM118.02 38.6C118.02 40.184 117.668 41.64 116.964 42.968C116.26 44.28 115.284 45.32 114.036 46.088C112.804 46.856 111.412 47.24 109.86 47.24C108.308 47.24 106.908 46.856 105.66 46.088C104.428 45.32 103.46 44.28 102.756 42.968C102.068 41.64 101.724 40.184 101.724 38.6C101.724 37.016 102.068 35.568 102.756 34.256C103.46 32.928 104.428 31.88 105.66 31.112C106.908 30.344 108.308 29.96 109.86 29.96C111.412 29.96 112.804 30.344 114.036 31.112C115.284 31.88 116.26 32.928 116.964 34.256C117.668 35.568 118.02 37.016 118.02 38.6ZM114.9 38.6C114.9 37.528 114.684 36.56 114.252 35.696C113.82 34.816 113.22 34.12 112.452 33.608C111.684 33.096 110.82 32.84 109.86 32.84C108.884 32.84 108.012 33.096 107.244 33.608C106.492 34.104 105.9 34.792 105.468 35.672C105.052 36.552 104.844 37.528 104.844 38.6C104.844 39.672 105.052 40.648 105.468 41.528C105.9 42.408 106.492 43.104 107.244 43.616C108.012 44.112 108.884 44.36 109.86 44.36C110.82 44.36 111.684 44.104 112.452 43.592C113.22 43.08 113.82 42.392 114.252 41.528C114.684 40.648 114.9 39.672 114.9 38.6ZM136.351 44.648C136.559 44.776 136.719 44.944 136.831 45.152C136.959 45.36 137.023 45.576 137.023 45.8C137.023 46.088 136.927 46.352 136.735 46.592C136.495 46.88 136.127 47.024 135.631 47.024C135.247 47.024 134.895 46.936 134.575 46.76C133.423 46.104 132.847 44.768 132.847 42.752C132.847 42.176 132.655 41.72 132.271 41.384C131.903 41.048 131.367 40.88 130.663 40.88H126.175V45.536C126.175 45.968 126.055 46.32 125.815 46.592C125.591 46.864 125.287 47 124.903 47C124.439 47 124.031 46.864 123.679 46.592C123.343 46.304 123.175 45.952 123.175 45.536V31.664C123.175 31.248 123.311 30.904 123.583 30.632C123.871 30.344 124.223 30.2 124.639 30.2H131.551C132.383 30.2 133.167 30.424 133.903 30.872C134.639 31.32 135.223 31.936 135.655 32.72C136.103 33.504 136.327 34.384 136.327 35.36C136.327 36.16 136.111 36.944 135.679 37.712C135.247 38.464 134.687 39.064 133.999 39.512C135.007 40.216 135.559 41.16 135.655 42.344C135.703 42.6 135.727 42.848 135.727 43.088C135.791 43.584 135.855 43.944 135.919 44.168C135.983 44.376 136.127 44.536 136.351 44.648ZM131.431 38.408C131.719 38.408 131.999 38.272 132.271 38C132.543 37.728 132.767 37.368 132.943 36.92C133.119 36.456 133.207 35.96 133.207 35.432C133.207 34.984 133.119 34.576 132.943 34.208C132.767 33.824 132.543 33.52 132.271 33.296C131.999 33.072 131.719 32.96 131.431 32.96H126.175V38.408H131.431ZM151.556 44.24C151.972 44.24 152.316 44.384 152.588 44.672C152.876 44.944 153.02 45.264 153.02 45.632C153.02 46.032 152.876 46.36 152.588 46.616C152.316 46.872 151.972 47 151.556 47H143.516C143.1 47 142.748 46.864 142.46 46.592C142.188 46.304 142.052 45.952 142.052 45.536V31.664C142.052 31.248 142.188 30.904 142.46 30.632C142.748 30.344 143.1 30.2 143.516 30.2H151.556C151.972 30.2 152.316 30.336 152.588 30.608C152.876 30.864 153.02 31.2 153.02 31.616C153.02 32.016 152.884 32.344 152.612 32.6C152.34 32.84 151.988 32.96 151.556 32.96H145.052V37.04H150.476C150.892 37.04 151.236 37.176 151.508 37.448C151.796 37.704 151.94 38.04 151.94 38.456C151.94 38.856 151.804 39.184 151.532 39.44C151.26 39.68 150.908 39.8 150.476 39.8H145.052V44.24H151.556ZM180.056 30.2C180.44 30.2 180.752 30.328 180.992 30.584C181.232 30.84 181.352 31.16 181.352 31.544V45.536C181.352 45.952 181.208 46.304 180.92 46.592C180.648 46.864 180.304 47 179.888 47C179.664 47 179.44 46.968 179.216 46.904C179.008 46.824 178.856 46.72 178.76 46.592L169.952 35.408V45.656C169.952 46.04 169.824 46.36 169.568 46.616C169.328 46.872 169.008 47 168.608 47C168.224 47 167.912 46.872 167.672 46.616C167.432 46.36 167.312 46.04 167.312 45.656V31.664C167.312 31.248 167.448 30.904 167.72 30.632C168.008 30.344 168.36 30.2 168.776 30.2C169.016 30.2 169.248 30.248 169.472 30.344C169.712 30.44 169.888 30.568 170 30.728L178.736 41.864V31.544C178.736 31.16 178.856 30.84 179.096 30.584C179.352 30.328 179.672 30.2 180.056 30.2ZM202.817 38.6C202.817 40.184 202.465 41.64 201.761 42.968C201.057 44.28 200.081 45.32 198.833 46.088C197.601 46.856 196.209 47.24 194.657 47.24C193.105 47.24 191.705 46.856 190.457 46.088C189.225 45.32 188.257 44.28 187.553 42.968C186.865 41.64 186.521 40.184 186.521 38.6C186.521 37.016 186.865 35.568 187.553 34.256C188.257 32.928 189.225 31.88 190.457 31.112C191.705 30.344 193.105 29.96 194.657 29.96C196.209 29.96 197.601 30.344 198.833 31.112C200.081 31.88 201.057 32.928 201.761 34.256C202.465 35.568 202.817 37.016 202.817 38.6ZM199.697 38.6C199.697 37.528 199.481 36.56 199.049 35.696C198.617 34.816 198.017 34.12 197.249 33.608C196.481 33.096 195.617 32.84 194.657 32.84C193.681 32.84 192.809 33.096 192.041 33.608C191.289 34.104 190.697 34.792 190.265 35.672C189.849 36.552 189.641 37.528 189.641 38.6C189.641 39.672 189.849 40.648 190.265 41.528C190.697 42.408 191.289 43.104 192.041 43.616C192.809 44.112 193.681 44.36 194.657 44.36C195.617 44.36 196.481 44.104 197.249 43.592C198.017 43.08 198.617 42.392 199.049 41.528C199.481 40.648 199.697 39.672 199.697 38.6ZM226.743 30.128C227.127 30.128 227.479 30.28 227.799 30.584C228.135 30.872 228.303 31.24 228.303 31.688C228.303 31.832 228.279 31.992 228.231 32.168L223.503 46.088C223.407 46.36 223.239 46.576 222.999 46.736C222.759 46.896 222.495 46.984 222.207 47C221.919 47 221.647 46.92 221.391 46.76C221.135 46.6 220.935 46.368 220.791 46.064L217.383 38.312L213.951 46.064C213.807 46.368 213.607 46.6 213.351 46.76C213.095 46.92 212.823 47 212.535 47C212.247 46.984 211.983 46.896 211.743 46.736C211.503 46.576 211.335 46.36 211.239 46.088L206.511 32.168C206.463 31.992 206.439 31.832 206.439 31.688C206.439 31.24 206.599 30.872 206.919 30.584C207.255 30.28 207.623 30.128 208.023 30.128C208.343 30.128 208.631 30.216 208.887 30.392C209.143 30.552 209.319 30.776 209.415 31.064L212.991 41.912L216.111 34.424C216.239 34.136 216.423 33.912 216.663 33.752C216.903 33.576 217.175 33.496 217.479 33.512C217.783 33.496 218.047 33.576 218.271 33.752C218.511 33.912 218.695 34.136 218.823 34.424L221.775 41.84L225.327 31.064C225.423 30.776 225.599 30.552 225.855 30.392C226.127 30.216 226.423 30.128 226.743 30.128Z" fill="white"/>
</g>
<g filter="url(#filter1_d_107_231)">
<circle cx="269" cy="38" r="24" fill="url(#paint1_linear_107_231)"/>
</g>
<path d="M277.069 36.2761C278.384 37.0494 278.384 38.9506 277.069 39.7239L266.014 46.227C264.681 47.0113 263 46.05 263 44.5032L263 31.4968C263 29.95 264.681 28.9887 266.014 29.773L277.069 36.2761Z" fill="white"/>
<defs>
<filter id="filter0_d_107_231" x="0" y="0" width="279" height="84" filterUnits="userSpaceOnUse" color-interpolation-filters="sRGB">
<feFlood flood-opacity="0" result="BackgroundImageFix"/>
<feColorMatrix in="SourceAlpha" type="matrix" values="0 0 0 0 0 0 0 0 0 0 0 0 0 0 0 0 0 0 127 0" result="hardAlpha"/>
<feOffset dy="4"/>
<feGaussianBlur stdDeviation="5"/>
<feComposite in2="hardAlpha" operator="out"/>
<feColorMatrix type="matrix" values="0 0 0 0 0 0 0 0 0 0 0 0 0 0 0 0 0 0 0.1 0"/>
<feBlend mode="normal" in2="BackgroundImageFix" result="effect1_dropShadow_107_231"/>
<feBlend mode="normal" in="SourceGraphic" in2="effect1_dropShadow_107_231" result="shape"/>
</filter>
<filter id="filter1_d_107_231" x="235" y="8" width="68" height="68" filterUnits="userSpaceOnUse" color-interpolation-filters="sRGB">
<feFlood flood-opacity="0" result="BackgroundImageFix"/>
<feColorMatrix in="SourceAlpha" type="matrix" values="0 0 0 0 0 0 0 0 0 0 0 0 0 0 0 0 0 0 127 0" result="hardAlpha"/>
<feOffset dy="4"/>
<feGaussianBlur stdDeviation="5"/>
<feComposite in2="hardAlpha" operator="out"/>
<feColorMatrix type="matrix" values="0 0 0 0 0.980392 0 0 0 0 0.262745 0 0 0 0 0.262745 0 0 0 0.25 0"/>
<feBlend mode="normal" in2="BackgroundImageFix" result="effect1_dropShadow_107_231"/>
<feBlend mode="normal" in="SourceGraphic" in2="effect1_dropShadow_107_231" result="shape"/>
</filter>
<linearGradient id="paint0_linear_107_231" x1="10" y1="6" x2="192.733" y2="160.313" gradientUnits="userSpaceOnUse">
<stop stop-color="#2CB5C8"/>
<stop offset="1" stop-color="#63D1DF"/>
</linearGradient>
<linearGradient id="paint1_linear_107_231" x1="245" y1="14" x2="295.842" y2="17.2279" gradientUnits="userSpaceOnUse">
<stop stop-color="#FF4234"/>
<stop offset="1" stop-color="#FF7A70"/>
</linearGradient>
</defs>
</svg>
