<svg width="24" height="40" viewBox="0 0 24 40" fill="none" xmlns="http://www.w3.org/2000/svg">
<path fill-rule="evenodd" clip-rule="evenodd" d="M22 12V28C22 33.5228 17.5228 38 12 38C6.47715 38 2 33.5228 2 28V12C2 6.47715 6.47715 2 12 2C17.5228 2 22 6.47715 22 12ZM0 12C0 5.37258 5.37258 0 12 0C18.6274 0 24 5.37258 24 12V28C24 34.6274 18.6274 40 12 40C5.37258 40 0 34.6274 0 28V12ZM12 25C10.8954 25 10 25.8954 10 27V31C10 32.1046 10.8954 33 12 33C13.1046 33 14 32.1046 14 31V27C14 25.8954 13.1046 25 12 25Z" fill="white"/>
</svg>
