<svg width="40" height="40" viewBox="0 0 40 40" fill="none" xmlns="http://www.w3.org/2000/svg">
<path fill-rule="evenodd" clip-rule="evenodd" d="M20 40C31.0457 40 40 31.0457 40 20C40 8.9543 31.0457 0 20 0C8.9543 0 0 8.9543 0 20C0 31.0457 8.9543 40 20 40Z" fill="url(#paint0_linear_107_253)"/>
<path d="M20.5146 12.5172L25.1715 17.0954C25.4557 17.3748 25.4557 17.8278 25.1715 18.1071C24.8874 18.3865 24.4267 18.3865 24.1425 18.1071L20.7277 14.7501L20.7277 26.977C20.7277 27.372 20.4019 27.6923 20 27.6923C19.5983 27.6923 19.2724 27.372 19.2724 26.977L19.2724 14.7501L15.8576 18.107C15.5734 18.3864 15.1127 18.3864 14.8285 18.107C14.6865 17.9674 14.6154 17.7842 14.6154 17.6012C14.6154 17.4181 14.6865 17.235 14.8285 17.0953L19.4855 12.5172C19.7697 12.2379 20.2304 12.2379 20.5146 12.5172Z" fill="white"/>
<defs>
<linearGradient id="paint0_linear_107_253" x1="0" y1="0" x2="46.3295" y2="9.66776" gradientUnits="userSpaceOnUse">
<stop stop-color="#2CB5C8"/>
<stop offset="1" stop-color="#63D1DF"/>
</linearGradient>
</defs>
</svg>
