<svg width="14" height="18" viewBox="0 0 14 18" fill="none" xmlns="http://www.w3.org/2000/svg">
<path d="M12 0H2C1.45 0 1 0.45 1 1C1 1.55 1.45 2 2 2H12C12.55 2 13 1.55 13 1C13 0.45 12.55 0 12 0Z" fill="white"/>
<path d="M12 3H2C0.9 3 0 3.9 0 5V16C0 17.1 0.9 18 2 18H12C13.1 18 14 17.1 14 16V5C14 3.9 13.1 3 12 3ZM9.5 12H8.5V13C8.5 13.83 7.83 14.5 7 14.5C6.17 14.5 5.5 13.83 5.5 13V12H4.5C3.67 12 3 11.33 3 10.5C3 9.67 3.67 9 4.5 9H5.5V8C5.5 7.17 6.17 6.5 7 6.5C7.83 6.5 8.5 7.17 8.5 8V9H9.5C10.33 9 11 9.67 11 10.5C11 11.33 10.33 12 9.5 12Z" fill="white"/>
</svg>
