<svg width="46" height="61" viewBox="0 0 46 61" fill="none" xmlns="http://www.w3.org/2000/svg">
<path d="M20.9829 60.0725C22.0456 61.3092 23.9544 61.3092 25.017 60.0725L45.3478 36.4129C46.8374 34.6793 45.6109 31.9901 43.3307 31.9901L35.4326 31.9901L35.4326 16.9425C35.4326 15.4651 34.2398 14.2674 32.7684 14.2674L13.2316 14.2674C11.7602 14.2674 10.5674 15.4651 10.5674 16.9425L10.5674 31.9901L2.66929 31.9901C0.389067 31.9901 -0.837389 34.6793 0.652232 36.4129L20.9829 60.0725Z" fill="url(#paint0_linear_363_3917)"/>
<path d="M33.6565 7.13369C34.6374 7.13369 35.4326 7.93211 35.4326 8.91711C35.4326 9.90211 34.6374 10.7005 33.6565 10.7005L12.3435 10.7005C11.3626 10.7005 10.5674 9.90211 10.5674 8.91711C10.5674 7.93211 11.3626 7.13369 12.3435 7.13369L33.6565 7.13369Z" fill="url(#paint1_linear_363_3917)"/>
<path d="M35.4326 1.78342C35.4326 0.798425 34.6374 -4.96675e-07 33.6565 -5.39552e-07L12.3435 -1.47117e-06C11.3626 -1.51405e-06 10.5674 0.798424 10.5674 1.78342C10.5674 2.76842 11.3626 3.56684 12.3435 3.56684L33.6565 3.56684C34.6374 3.56684 35.4326 2.76842 35.4326 1.78342Z" fill="url(#paint2_linear_363_3917)"/>
<defs>
<linearGradient id="paint0_linear_363_3917" x1="46" y1="0" x2="27.0489" y2="68.485" gradientUnits="userSpaceOnUse">
<stop stop-color="#2CB5C8"/>
<stop offset="1" stop-color="#63D1DF"/>
</linearGradient>
<linearGradient id="paint1_linear_363_3917" x1="46" y1="0" x2="27.0489" y2="68.485" gradientUnits="userSpaceOnUse">
<stop stop-color="#2CB5C8"/>
<stop offset="1" stop-color="#63D1DF"/>
</linearGradient>
<linearGradient id="paint2_linear_363_3917" x1="46" y1="0" x2="27.0489" y2="68.485" gradientUnits="userSpaceOnUse">
<stop stop-color="#2CB5C8"/>
<stop offset="1" stop-color="#63D1DF"/>
</linearGradient>
</defs>
</svg>
