<svg width="173" height="179" viewBox="0 0 173 179" fill="none" xmlns="http://www.w3.org/2000/svg">
<path d="M120.509 120.183C128.683 109.429 133.076 96.2806 133.005 82.7782C133.005 50.304 108.502 23.9766 78.2727 23.9766C57.1927 23.9766 38.8942 36.779 29.75 55.5501L29.8875 55.194C29.8875 55.194 23.0358 70.7289 24.3348 80.4681C25.6339 90.2073 32.995 88.1923 28.0995 100.12C23.1122 112.22 21.9864 113.07 23.7897 116.234C25.5931 119.399 30.4938 118.387 30.9217 119.522C31.3496 120.656 29.0928 124.758 30.4123 126.259C31.7317 127.76 32.5467 128.004 32.5467 128.004C32.5467 128.004 30.1932 130.803 32.6282 133.159C35.0633 135.514 36.9736 136.405 36.938 139.448C36.9023 142.491 37.1316 151.38 46.8106 150.566C56.4897 149.752 61.3954 148.215 63.428 150.322C65.4606 152.428 70.7128 164.61 63.4841 179L120.978 178.603C120.978 178.603 104.401 142.348 121.222 118.972L120.509 120.183Z" fill="url(#paint0_radial_22_1834)" style="mix-blend-mode:screen"/>
<g style="mix-blend-mode:overlay">
<path d="M29.7501 55.5501L29.8825 55.194C29.2254 56.7815 28.6344 58.3946 28.0792 60.0229C27.5239 61.6511 26.9992 63.2794 26.5509 64.9332C25.5806 68.219 24.9222 71.5889 24.5845 74.998C24.5024 75.8436 24.4633 76.6927 24.4673 77.5422C24.4673 77.9646 24.4673 78.392 24.4673 78.8143L24.5743 80.0763C24.7629 81.7519 25.2313 83.3842 25.96 84.9052C26.6935 86.4317 27.7888 87.714 28.772 89.1743C29.2748 89.9215 29.6501 90.7469 29.8825 91.6168C29.9485 91.8335 29.9995 92.0546 30.0354 92.2783L30.1016 92.9499C30.1449 93.3967 30.1449 93.8465 30.1016 94.2933C30.0808 94.7369 30.0211 95.1779 29.9233 95.6112L29.8061 96.2625C29.7603 96.4813 29.694 96.6848 29.6329 96.8985L29.2763 98.1656L28.8229 99.3868C28.5275 100.211 28.1912 101 27.8652 101.794L26.8464 104.175L24.9054 108.933C24.5845 109.726 24.2585 110.515 23.9936 111.309C23.7011 112.066 23.5292 112.865 23.4842 113.675C23.5116 114.458 23.7453 115.22 24.1617 115.883C24.5234 116.567 25.0898 117.12 25.7817 117.466C26.5115 117.821 27.2914 118.063 28.0944 118.183C28.5071 118.26 28.9248 118.316 29.3578 118.382C29.8302 118.439 30.2938 118.553 30.7384 118.723C30.8902 118.789 31.0298 118.88 31.151 118.992C31.2896 119.131 31.3836 119.309 31.421 119.501C31.4387 119.58 31.4523 119.66 31.4617 119.74V119.944C31.4623 120.07 31.4521 120.196 31.4312 120.32C31.3617 120.765 31.2647 121.205 31.1408 121.638C30.9007 122.443 30.7068 123.26 30.5601 124.086C30.4955 124.464 30.4835 124.849 30.5244 125.231C30.5343 125.315 30.5496 125.398 30.5702 125.48L30.6467 125.699C30.6823 125.765 30.7282 125.816 30.7587 125.877C30.8145 125.954 30.8758 126.027 30.9421 126.096C31.2151 126.395 31.5078 126.675 31.8183 126.935C31.9687 127.057 32.1252 127.171 32.287 127.276L32.5264 127.419L32.7251 127.505L33.423 127.75L32.9798 128.314C32.523 128.879 32.2148 129.549 32.0832 130.263C31.9655 130.951 32.1248 131.657 32.5264 132.227C33.0121 132.826 33.5584 133.374 34.1566 133.861C34.7892 134.398 35.3929 134.969 35.9651 135.57C36.5852 136.225 37.0303 137.024 37.259 137.896C37.3658 138.324 37.4205 138.763 37.422 139.204C37.422 139.646 37.422 140.018 37.422 140.425C37.4271 142 37.6728 143.565 38.1505 145.065C38.6049 146.541 39.5075 147.839 40.7333 148.78C42.0087 149.658 43.5147 150.141 45.0634 150.169C45.8559 150.194 46.6491 150.163 47.4373 150.077L49.8571 149.859C51.4719 149.696 53.0817 149.513 54.6966 149.324C56.3115 149.136 57.9365 148.948 59.5922 148.917C60.4396 148.887 61.2871 148.977 62.1087 149.187C62.3176 149.263 62.5264 149.329 62.7251 149.421C62.9253 149.526 63.1177 149.645 63.3008 149.777C63.6415 150.056 63.937 150.385 64.177 150.754C65.047 152.163 65.7222 153.683 66.1841 155.273C66.6625 156.843 67.0034 158.452 67.203 160.081C67.5624 163.334 67.4146 166.623 66.7649 169.831C66.1073 173.018 65.0136 176.1 63.5147 178.99C64.9141 176.062 65.9196 172.961 66.5051 169.77C67.0767 166.588 67.1506 163.337 66.7241 160.132C66.4975 158.539 66.1415 156.966 65.6594 155.43C65.1933 153.905 64.5252 152.449 63.6726 151.1C63.4665 150.792 63.2139 150.517 62.9238 150.286C62.776 150.182 62.6211 150.089 62.4602 150.006C62.2921 149.93 62.1087 149.879 61.9508 149.813C61.1901 149.635 60.4081 149.565 59.6278 149.604C58.0384 149.655 56.4286 149.874 54.8189 150.077C53.2091 150.281 51.5891 150.495 49.9742 150.678C49.1642 150.764 48.3543 150.856 47.5392 150.927C46.7123 151.02 45.8798 151.054 45.0481 151.029C43.3266 151.003 41.6507 150.472 40.2289 149.502C38.848 148.46 37.8261 147.014 37.3048 145.366C36.7804 143.776 36.5055 142.114 36.4898 140.44C36.4898 140.033 36.4898 139.59 36.4898 139.224C36.4883 138.853 36.4421 138.484 36.3522 138.125C36.1526 137.413 35.7778 136.762 35.262 136.232C34.7111 135.662 34.1313 135.12 33.5249 134.609C33.2159 134.341 32.9102 134.066 32.6079 133.784C32.4493 133.641 32.2979 133.49 32.1546 133.332C31.9942 133.178 31.8508 133.007 31.7266 132.823L31.5331 132.538L31.3853 132.217C31.2855 132.004 31.2087 131.78 31.1561 131.551C31.0545 131.094 31.039 130.623 31.1102 130.161C31.2573 129.265 31.6308 128.421 32.1953 127.709L32.45 128.518C32.3135 128.479 32.1819 128.424 32.0578 128.355C31.9474 128.3 31.8403 128.239 31.7368 128.172C31.5376 128.047 31.347 127.91 31.1663 127.76C30.815 127.47 30.4847 127.155 30.178 126.818C30.1016 126.722 30.0354 126.671 29.9487 126.544C29.8621 126.416 29.7857 126.299 29.7195 126.172L29.582 125.785C29.5484 125.66 29.5245 125.533 29.5106 125.404C29.4589 124.931 29.4743 124.453 29.5565 123.984C29.7131 123.125 29.9172 122.276 30.1678 121.44C30.2827 121.049 30.3745 120.651 30.4429 120.249C30.452 120.161 30.452 120.073 30.4429 119.985V119.863C30.4414 119.837 30.4414 119.812 30.4429 119.786C30.4429 119.71 30.4429 119.786 30.4429 119.74C30.4035 119.707 30.3587 119.682 30.3104 119.664C29.9487 119.532 29.5725 119.443 29.1897 119.399C28.772 119.328 28.339 119.267 27.906 119.186C27.0056 119.047 26.1325 118.769 25.3181 118.361C24.465 117.922 23.7665 117.234 23.316 116.387C22.8261 115.582 22.5573 114.663 22.5366 113.721C22.5812 112.811 22.7721 111.914 23.1021 111.065C23.3823 110.235 23.7134 109.436 24.0445 108.637L26.0822 103.89L27.1011 101.519C27.4322 100.725 27.7735 99.9363 28.0588 99.1425L28.4714 97.901L28.8331 96.6899C28.8891 96.4915 28.9605 96.2879 29.0063 96.0844L29.1235 95.4738C29.221 95.0694 29.2841 94.6574 29.312 94.2424C29.3585 93.8353 29.367 93.4248 29.3374 93.0161L29.2865 92.4055C29.2573 92.2061 29.2148 92.0089 29.1591 91.8152C28.959 91.0184 28.6248 90.2614 28.1709 89.5763C27.259 88.1719 26.1332 86.8031 25.3843 85.2054C24.646 83.6098 24.1811 81.9019 24.0089 80.1526L23.9172 78.8703C23.8815 78.4327 23.9172 78.0002 23.9172 77.5677C23.9246 76.7006 23.9756 75.8345 24.07 74.9726C24.1413 74.1076 24.3094 73.2578 24.4266 72.4029C24.5438 71.5481 24.7424 70.7085 24.936 69.8587C25.1296 69.009 25.3181 68.1796 25.5575 67.3502L25.8988 66.1035L26.2707 64.867C27.2744 61.5739 28.4789 58.3452 29.8774 55.199L29.7501 55.5501Z" fill="url(#paint1_radial_22_1834)" style="mix-blend-mode:overlay"/>
</g>
<path style="mix-blend-mode:overlay" d="M95.2058 37.3642C87.223 37.3642 79.4195 39.7286 72.7821 44.1586C66.1446 48.5885 60.9714 54.8849 57.9165 62.2516C54.8616 69.6183 54.0623 77.7243 55.6197 85.5448C57.177 93.3652 61.0211 100.549 66.6658 106.187C72.3105 111.825 79.5023 115.665 87.3317 117.22C95.1611 118.776 103.276 117.978 110.652 114.926C118.027 111.875 124.33 106.708 128.765 100.078C133.2 93.4478 135.568 85.6533 135.568 77.6796C135.566 66.9877 131.313 56.7341 123.744 49.1738C116.175 41.6135 105.91 37.3655 95.2058 37.3642ZM95.2058 106.567C89.4807 106.568 83.8839 104.873 79.1232 101.696C74.3625 98.5201 70.6516 94.0049 68.46 88.722C66.2684 83.439 65.6945 77.6256 66.8108 72.0168C67.9271 66.408 70.6835 61.2559 74.7314 57.2119C78.7793 53.1679 83.9369 50.4138 89.5519 49.2978C95.1669 48.1818 100.987 48.754 106.277 50.9422C111.566 53.1303 116.087 56.8361 119.268 61.5908C122.448 66.3455 124.146 71.9356 124.146 77.6542C124.15 81.4529 123.405 85.2152 121.952 88.7259C120.499 92.2366 118.368 95.4269 115.681 98.1144C112.993 100.802 109.801 102.934 106.288 104.389C102.775 105.843 99.0089 106.592 95.2058 106.592V106.567Z" fill="url(#paint2_linear_22_1834)"/>
<path style="mix-blend-mode:overlay" d="M95.2058 43.2057C88.3783 43.2047 81.7037 45.2261 76.0264 49.0143C70.3491 52.8025 65.924 58.1874 63.3107 64.4878C60.6974 70.7882 60.0134 77.7212 61.3452 84.41C62.6769 91.0988 65.9646 97.2428 70.7924 102.065C75.6202 106.887 81.7713 110.171 88.4677 111.502C95.1642 112.832 102.105 112.148 108.413 109.538C114.72 106.928 120.111 102.508 123.904 96.8371C127.697 91.1662 129.72 84.4994 129.719 77.6796C129.718 68.537 126.081 59.7692 119.609 53.3044C113.137 46.8395 104.359 43.207 95.2058 43.2057ZM95.2058 97.1428C91.3487 97.1438 87.578 96.0023 84.3704 93.8625C81.1628 91.7228 78.6626 88.6811 77.1858 85.122C75.7091 81.5628 75.3222 77.6462 76.0741 73.8674C76.8259 70.0887 78.6828 66.6175 81.4098 63.8928C84.1368 61.1682 87.6115 59.3126 91.3945 58.5606C95.1774 57.8086 99.0986 58.194 102.662 59.6682C106.226 61.1423 109.272 63.6389 111.415 66.8422C113.558 70.0455 114.701 73.8117 114.701 77.6644C114.704 80.2232 114.201 82.7573 113.222 85.1219C112.243 87.4866 110.808 89.6355 108.997 91.4458C107.187 93.2561 105.037 94.6923 102.67 95.6724C100.304 96.6526 97.7676 97.1574 95.2058 97.1581V97.1428Z" fill="url(#paint3_linear_22_1834)"/>
<g opacity="0.66">
<g style="mix-blend-mode:overlay" opacity="0.93">
<path d="M120.015 75.5985C119.753 72.7357 118.958 69.9469 117.672 67.3756L122.715 64.465C124.502 67.9265 125.568 71.7139 125.848 75.5985H120.015Z" fill="white"/>
</g>
<g style="mix-blend-mode:overlay" opacity="0.93">
<path d="M110.214 96.522C112.631 94.8444 114.705 92.722 116.327 90.2683L121.37 93.1789C119.223 96.509 116.416 99.3646 113.122 101.57L110.214 96.522Z" fill="white"/>
</g>
<g style="mix-blend-mode:overlay" opacity="0.93">
<path d="M117.967 87.3425C119.194 84.7022 119.908 81.8531 120.071 78.9466H125.893C125.718 82.8734 124.741 86.7229 123.02 90.2582L117.967 87.3425Z" fill="white"/>
</g>
<g style="mix-blend-mode:overlay" opacity="0.93">
<path d="M115.95 64.5007C114.311 62.1733 112.256 60.1687 109.887 58.5879L112.801 53.5453C116.045 55.6513 118.834 58.385 121.003 61.585L115.95 64.5007Z" fill="white"/>
</g>
</g>
<path style="mix-blend-mode:overlay" d="M95.206 44.1165C88.5562 44.1165 82.0557 46.0861 76.5266 49.7763C70.9975 53.4665 66.6881 58.7115 64.1433 64.8481C61.5986 70.9847 60.9327 77.7372 62.23 84.2518C63.5274 90.7663 66.7295 96.7503 71.4317 101.447C76.1338 106.144 82.1247 109.342 88.6467 110.638C95.1687 111.934 101.929 111.269 108.073 108.727C114.216 106.185 119.467 101.881 123.162 96.358C126.856 90.8352 128.828 84.3422 128.828 77.7C128.828 68.7931 125.286 60.251 118.98 53.9529C112.675 47.6547 104.123 44.1165 95.206 44.1165ZM95.206 110.642C88.6789 110.643 82.2981 108.711 76.8705 105.09C71.4429 101.468 67.2124 96.3205 64.7139 90.2974C62.2154 84.2744 61.5611 77.6465 62.8339 71.252C64.1066 64.8576 67.2492 58.9837 71.8642 54.3733C76.4792 49.7628 82.3594 46.6229 88.761 45.3507C95.1626 44.0784 101.798 44.7308 107.828 47.2256C113.859 49.7203 119.013 53.9452 122.639 59.366C126.266 64.7868 128.201 71.16 128.201 77.6796C128.201 86.421 124.725 94.8044 118.538 100.986C112.35 107.168 103.957 110.641 95.206 110.642Z" fill="url(#paint4_linear_22_1834)"/>
<path opacity="0.1" d="M75.5573 68.6324C77.5193 64.7339 80.6864 61.5704 84.5894 59.6107L53.1223 17.8094C45.4747 22.9863 38.8828 29.569 33.6979 37.2064C28.2115 45.2885 24.4311 54.4023 22.5874 63.9918L74.4366 71.3293C74.7414 70.4034 75.1161 69.5018 75.5573 68.6324Z" fill="#2CB5C8"/>
<path opacity="0.15" d="M93.6775 57.4685C95.8478 57.4631 98.0048 57.8068 100.066 58.4862C100.99 58.7902 101.891 59.1627 102.761 59.6005L134.223 17.8094C118.305 7.08203 98.7814 3.08816 79.9231 6.70143L87.2843 58.5167C89.3452 57.8267 91.5039 57.4728 93.6775 57.4685Z" fill="#2CB5C8"/>
<path opacity="0.4" d="M93.6776 97.9518C91.5074 97.9568 89.3504 97.6132 87.2894 96.9342C86.3641 96.6297 85.4632 96.2555 84.5946 95.8147L53.1223 137.616C69.0415 148.349 88.5718 152.34 107.432 148.714L100.061 96.924C98.0019 97.6063 95.8467 97.9534 93.6776 97.9518Z" fill="#2CB5C8"/>
<path opacity="0.15" d="M164.763 63.9918C162.917 54.4004 159.135 45.2849 153.647 37.2014L111.793 68.6325C112.232 69.5019 112.605 70.4035 112.908 71.3293C114.281 75.4711 114.281 79.9442 112.908 84.0859C112.605 85.0134 112.232 85.9166 111.793 86.7879L153.647 118.214C164.381 102.318 168.377 82.8229 164.763 63.9918Z" fill="#2CB5C8"/>
<path opacity="0.3" d="M164.6 130.228C158.257 144.638 133.988 159.354 114.798 162.529L101.915 96.3185C105.731 95.8096 110.412 90.4312 110.412 90.4312L164.6 130.228Z" fill="#2CB5C8"/>
<g filter="url(#filter0_d_22_1834)">
<path d="M138.059 82.9388C139.021 82.7756 139.724 81.9424 139.724 80.967V74.4038C139.724 73.4255 139.017 72.5909 138.052 72.4307L131.909 71.4116C131.078 71.2736 130.428 70.6283 130.243 69.8063C130.033 68.8736 129.785 67.9496 129.5 67.0368C129.25 66.2332 129.49 65.3501 130.139 64.8148L134.943 60.8559C135.697 60.2342 135.892 59.1583 135.403 58.312L132.119 52.6283C131.631 51.7829 130.603 51.4137 129.689 51.7548L123.836 53.9372C123.049 54.2305 122.167 53.9977 121.597 53.3813C120.948 52.6797 120.272 52.004 119.57 51.3558C118.952 50.7856 118.718 49.9018 119.013 49.1142L121.195 43.2762C121.537 42.3605 121.167 41.3315 120.32 40.8433L114.626 37.5611C113.781 37.0742 112.708 37.2674 112.086 38.0186L108.12 42.8107C107.584 43.4574 106.704 43.6957 105.902 43.4463C104.986 43.1614 104.059 42.9134 103.122 42.703C102.3 42.5182 101.655 41.8682 101.517 41.037L100.497 34.9043C100.336 33.9396 99.5017 33.2324 98.5237 33.2324H91.9389C90.961 33.2324 90.1265 33.9396 89.966 34.9043L88.946 41.0377C88.8078 41.8686 88.1627 42.5184 87.3411 42.7034C86.4063 42.9139 85.4803 43.1618 84.5654 43.4464C83.764 43.6958 82.8835 43.4577 82.3481 42.8112L78.3661 38.0028C77.7442 37.2519 76.6716 37.0588 75.8269 37.5457L70.1326 40.828C69.2856 41.3162 68.9157 42.3452 69.258 43.261L71.4394 49.0976C71.7341 49.8859 71.4999 50.7703 70.8812 51.3408C70.1792 51.9881 69.5034 52.6631 68.8554 53.3644C68.2852 53.9815 67.4024 54.215 66.6152 53.9215L60.7632 51.7393C59.8488 51.3983 58.8217 51.7671 58.3331 52.612L55.0456 58.2964C54.5561 59.1429 54.7503 60.2192 55.5049 60.8411L60.3077 64.7992C60.9575 65.3347 61.1969 66.2181 60.9466 67.022C60.6629 67.9334 60.4165 68.856 60.208 69.7874C60.0236 70.6112 59.3727 71.2586 58.54 71.3968L52.4007 72.4155C51.4356 72.5756 50.728 73.4103 50.728 74.3885V80.9453C50.728 81.9236 51.4356 82.7582 52.4007 82.9184L58.5407 83.9371C59.3731 84.0752 60.0238 84.7222 60.2084 85.5456C60.4172 86.4768 60.6638 87.3991 60.9477 88.3103C61.1976 89.1124 60.9599 89.9939 60.3129 90.5299L55.4989 94.5176C54.7473 95.1402 54.5548 96.2143 55.0434 97.0591L58.3331 102.747C58.8217 103.592 59.8488 103.961 60.7632 103.62L66.6138 101.438C67.4017 101.144 68.2852 101.379 68.8556 101.997C69.5027 102.697 70.1778 103.372 70.8795 104.018C71.4989 104.589 71.7338 105.474 71.4389 106.263L69.2577 112.099C68.9156 113.014 69.2851 114.043 70.1316 114.532L75.8248 117.817C76.6703 118.304 77.7446 118.111 78.3663 117.358L82.3284 112.561C82.8658 111.911 83.7521 111.673 84.5569 111.927C85.4704 112.215 86.3954 112.466 87.3294 112.679C88.1491 112.865 88.7923 113.515 88.9302 114.344L89.9507 120.48C90.1112 121.445 90.9457 122.152 91.9236 122.152H98.4932C99.4711 122.152 100.306 121.445 100.466 120.48L101.485 114.351C101.624 113.518 102.272 112.867 103.096 112.684C104.03 112.475 104.955 112.228 105.869 111.944C106.672 111.695 107.554 111.934 108.089 112.582L112.056 117.383C112.677 118.136 113.752 118.33 114.597 117.842L120.29 114.557C121.137 114.069 121.506 113.04 121.164 112.124L118.982 106.287C118.688 105.499 118.922 104.614 119.541 104.044C120.243 103.397 120.919 102.722 121.567 102.02C122.137 101.403 123.02 101.17 123.807 101.463L129.658 103.645C130.573 103.986 131.6 103.617 132.089 102.772L135.372 97.088C135.861 96.2416 135.667 95.1658 134.912 94.5441L130.109 90.5851C129.459 90.0498 129.219 89.1668 129.47 88.3633C129.755 87.4499 130.002 86.5256 130.213 85.5924C130.398 84.7735 131.044 84.1299 131.872 83.9894L138.059 82.9388ZM121.411 77.6796C121.412 82.8539 119.876 87.9123 116.999 92.215C114.122 96.5177 110.032 99.8714 105.246 101.852C100.46 103.833 95.1938 104.351 90.1131 103.342C85.0323 102.333 80.3653 99.8411 76.7024 96.1823C73.0394 92.5235 70.545 87.8619 69.5346 82.7869C68.5243 77.712 69.0433 72.4518 71.0262 67.6716C73.009 62.8913 76.3666 58.8058 80.6742 55.9318C84.9818 53.0577 90.046 51.5242 95.2262 51.5252C102.17 51.5266 108.83 54.2825 113.74 59.1872C118.65 64.0918 121.409 70.7435 121.411 77.6796Z" fill="white"/>
</g>
<g style="mix-blend-mode:overlay">
<path d="M116.5 69.0802L110.84 62.8418L104.253 59.9821V59.9516H104.162L103.988 59.687V59.8346L98.9706 56.2422L99.0113 56.115L91.37 57.7178L91.3394 57.5804L91.207 57.7534L91.0592 57.784H91.0847L80.0862 62.3635L80.0506 62.3381L80.0149 62.3941H79.9538V62.4602L73.6471 72.0111L73.7082 72.062L74.7271 79.9185C74.7271 79.9185 74.7271 79.944 74.7271 79.9491V80.005L74.7576 80.0457C74.7652 80.0689 74.7755 80.0911 74.7882 80.1119L74.8188 80.3409L74.8646 80.2645C75.5523 81.6231 79.2508 89.0828 81.3343 93.296H80.6619L81.4413 93.5097L81.5024 93.6267L81.5686 93.5453L98.7719 98.3437H98.8229L105.374 93.7641L105.532 93.6572L114.192 88.35L114.294 88.4518L114.32 88.2737L114.508 88.1567L114.345 88.1109L115.873 78.0562V78.0918V77.8017L115.924 77.7712L115.883 77.7102V77.6186L116.393 69.1108L116.5 69.0802ZM88.777 85.0426L96.6323 91.2148L89.7194 93.2501L88.777 85.0426ZM100.932 81.0227L103.392 77.6949H103.423V77.6287L104.951 79.1298L103.708 85.0426L100.932 81.0227ZM86.7393 74.708L94.3807 78.2241L88.777 84.5897L86.7393 74.708ZM103.683 66.5004L103.484 70.968L99.5921 70.6525L101.63 65.9559L103.683 66.5004ZM101.737 65.732L103.943 60.6742L103.693 66.2714L101.737 65.732ZM107.621 67.6758L111.431 71.6397L106.846 71.2682L107.621 67.6758ZM106.602 71.2377L103.708 71.0036L103.907 66.5767L107.391 67.5079L106.602 71.2377ZM97.8193 84.8288L94.8086 78.448L100.56 81.1194L97.8193 84.8288ZM94.6965 78.1071L94.1871 71.7465L94.3858 71.8738L100.499 80.7886L94.778 78.1325L94.6965 78.1071ZM96.4846 64.7653L99.2406 70.6525L94.2126 70.9985L96.4846 64.7653ZM94.0292 70.8052L93.0664 66.0628L96.2655 64.6737L94.0292 70.8052ZM93.8203 70.9985L93.4077 70.9731L88.7261 67.9557L92.8422 66.1646L93.8203 70.9985ZM93.9273 71.5939L94.4367 77.99L86.9329 74.5299L93.7184 71.4769L93.9273 71.5939ZM94.559 78.3971L97.6155 84.951V84.9764L88.9553 84.7016L94.559 78.3971ZM100.81 80.809L94.9105 72.2198L103.209 77.5677L100.81 80.809ZM103.127 77.2471L94.559 71.7262L94.238 71.253L99.4342 70.8917L103.51 71.2224L103.24 77.2471H103.127ZM99.4291 70.4795L96.6782 64.6228L101.406 65.8796L99.4291 70.4795ZM93.0307 65.8389L91.5024 58.3437L96.2299 64.4498L93.0307 65.8389ZM91.2732 58.3895L92.8015 65.9356L88.7261 67.7013L91.2732 58.3895ZM88.6904 67.915V67.9557V67.915ZM92.9186 70.968L87.9568 70.6271L88.5834 68.1847L92.9186 70.968ZM93.3364 71.2377L93.4994 71.3446L86.7902 74.3671L87.8906 70.8663L93.3364 71.2377ZM97.6104 85.2664L96.7342 91.0062L89.0928 84.9764L97.6104 85.2664ZM98.0129 85.0324L100.805 81.2568L103.545 85.2563L98.0129 85.0324ZM103.647 77.5168L105.308 77.5677L105.028 78.8907L103.647 77.5168ZM103.464 77.2726L103.713 71.2377L106.571 71.4718L105.338 77.3133L103.464 77.2726ZM106.831 71.5125L111.706 71.9094L115.629 77.6593L105.603 77.3387L106.831 71.5125ZM107.498 67.1822V67.284L103.973 66.3477L104.238 60.4554L111.339 71.1665L107.498 67.1822ZM101.523 65.7015L96.6323 64.3989L98.1606 59.1782L103.953 60.1959L101.523 65.7015ZM96.4286 64.2971L91.5534 58.0078L97.8804 59.0968L96.4286 64.2971ZM88.4866 67.8183L85.2263 65.7168L91.0338 58.4098L88.4866 67.8183ZM88.4204 68.0575L87.7021 70.7034L86.5508 74.3671L80.5498 71.599L85.0786 65.9051L88.4204 68.0575ZM80.4326 71.3039L80.2136 62.7553L84.8544 65.7422L80.4326 71.3039ZM86.3674 74.5248C83.7592 75.7053 81.7368 76.6314 80.1677 77.354L77.9823 75.4662L80.3766 71.7669L86.3674 74.5248ZM88.181 84.5642L75.104 79.9847C75.7103 79.6641 77.6512 78.7533 80.1321 77.6135L88.181 84.5642ZM80.3715 77.527C82.2513 76.6619 84.4112 75.6799 86.5152 74.7284L88.5121 84.5337L80.3715 77.527ZM97.8499 85.2461H98.1657L103.698 85.47L105.119 93.4588L96.9685 91.1741L97.8499 85.2461ZM105.165 79.3435L108.222 82.3966L103.943 85.0782L105.165 79.3435ZM105.226 79.0637L105.547 77.5372L115.456 77.8526L108.451 82.2592L105.226 79.0637ZM115.7 77.9951L114.172 87.9684L108.604 82.4322L115.7 77.9951ZM112.017 71.7465L116.276 69.2023L115.766 77.3896L112.017 71.7465ZM116.133 69.009L111.884 71.5532L111.844 71.5023L110.906 63.2591L116.133 69.009ZM111.548 71.0443L104.416 60.318L110.616 63.0098L111.548 71.0443ZM103.611 59.8499L98.2014 58.9238L98.9044 56.4864L103.611 59.8499ZM97.9619 58.8831L91.9252 57.8654L98.67 56.4457L97.9619 58.8831ZM90.9013 58.1503L85.0022 65.5641L80.3409 62.562L90.9013 58.1503ZM79.9792 62.9385L80.1983 71.5888L80.1524 71.6499L77.7836 75.3084L73.9629 72.0162L79.9792 62.9385ZM77.6665 75.5221L74.9461 79.7201L73.9935 72.3572L77.6665 75.5221ZM77.8498 75.6799L79.9283 77.471C77.157 78.7533 75.8529 79.3741 75.2569 79.6845L77.8498 75.6799ZM88.4663 84.9306L81.5279 93.2552C80.6415 91.4692 75.965 82.0149 75.0786 80.2594L88.4663 84.9306ZM88.5681 85.1901L89.4953 93.2807L81.7622 93.3519L88.5681 85.1901ZM82.3633 93.5911L89.5259 93.5249V93.5555L89.6176 93.53L97.9365 97.8653L82.3633 93.5911ZM98.8585 98.074L89.9538 93.4333L96.8769 91.398L96.9431 91.4489V91.4132L105.094 93.7081L98.8585 98.074ZM105.445 93.4944L105.374 93.5453L103.953 85.5361L113.973 88.2839L105.445 93.4944ZM104.055 85.3173L108.41 82.5849L113.861 88.004L104.055 85.3173Z" fill="white"/>
</g>
<path style="mix-blend-mode:color-dodge" d="M94.0596 57.8501C94.0596 58.4016 93.8959 58.9407 93.5891 59.3993C93.2824 59.8579 92.8464 60.2153 92.3363 60.4263C91.8262 60.6374 91.2649 60.6926 90.7234 60.585C90.1818 60.4774 89.6844 60.2118 89.294 59.8218C88.9036 59.4319 88.6377 58.935 88.53 58.3941C88.4222 57.8532 88.4775 57.2925 88.6888 56.783C88.9001 56.2735 89.2579 55.838 89.717 55.5316C90.1761 55.2252 90.7158 55.0617 91.268 55.0617C92.0084 55.0617 92.7184 55.3554 93.242 55.8784C93.7655 56.4013 94.0596 57.1106 94.0596 57.8501Z" fill="url(#paint5_radial_22_1834)"/>
<path style="mix-blend-mode:color-dodge" d="M83.6318 71.6448C83.6318 72.3052 83.4357 72.9508 83.0682 73.4998C82.7008 74.0488 82.1786 74.4767 81.5676 74.7292C80.9567 74.9817 80.2845 75.0475 79.6361 74.9183C78.9877 74.7891 78.3923 74.4706 77.9251 74.0033C77.458 73.536 77.1401 72.9407 77.0117 72.2929C76.8833 71.645 76.9503 70.9737 77.204 70.3639C77.4577 69.754 77.8868 69.233 78.437 68.8669C78.9873 68.5007 79.6339 68.3058 80.295 68.3068C80.7337 68.3068 81.168 68.3932 81.5731 68.561C81.9783 68.7288 82.3464 68.9748 82.6563 69.2848C82.9662 69.5948 83.2119 69.9628 83.3793 70.3678C83.5466 70.7727 83.6325 71.2067 83.6318 71.6448Z" fill="url(#paint6_radial_22_1834)"/>
<path style="mix-blend-mode:color-dodge" d="M99.7907 91.2708C99.7907 91.8436 99.6205 92.4036 99.3018 92.8798C98.9831 93.3561 98.5301 93.7272 98.0001 93.9462C97.4702 94.1652 96.8871 94.2222 96.3247 94.1101C95.7623 93.9979 95.2458 93.7217 94.8406 93.3163C94.4354 92.9108 94.1598 92.3945 94.0485 91.8325C93.9372 91.2705 93.9953 90.6882 94.2155 90.1593C94.4357 89.6303 94.808 89.1785 95.2854 88.8609C95.7627 88.5434 96.3236 88.3745 96.8971 88.3755C97.2775 88.3755 97.6542 88.4504 98.0056 88.596C98.357 88.7415 98.6762 88.9549 98.945 89.2238C99.2137 89.4927 99.4268 89.8119 99.5719 90.1632C99.717 90.5144 99.7913 90.8908 99.7907 91.2708Z" fill="url(#paint7_radial_22_1834)"/>
<path style="mix-blend-mode:color-dodge" d="M83.4383 93.2756C83.4383 93.7103 83.3092 94.1353 83.0674 94.4968C82.8256 94.8583 82.4819 95.1401 82.0798 95.3064C81.6776 95.4728 81.2351 95.5164 80.8082 95.4315C80.3813 95.3467 79.9892 95.1374 79.6814 94.8299C79.3737 94.5225 79.1641 94.1308 79.0792 93.7044C78.9942 93.278 79.0378 92.836 79.2044 92.4344C79.371 92.0327 79.653 91.6894 80.0149 91.4479C80.3768 91.2063 80.8023 91.0774 81.2376 91.0774C81.8212 91.0774 82.381 91.309 82.7937 91.7212C83.2064 92.1335 83.4383 92.6926 83.4383 93.2756Z" fill="url(#paint8_radial_22_1834)"/>
<path style="mix-blend-mode:color-dodge" d="M75.0224 72.174C75.0224 72.4759 74.9327 72.771 74.7648 73.0221C74.5969 73.2731 74.3582 73.4688 74.0789 73.5843C73.7997 73.6998 73.4924 73.7301 73.1959 73.6712C72.8995 73.6123 72.6272 73.4669 72.4134 73.2534C72.1997 73.0399 72.0542 72.7679 71.9952 72.4718C71.9362 72.1757 71.9665 71.8687 72.0822 71.5898C72.1978 71.3109 72.3937 71.0725 72.645 70.9047C72.8964 70.737 73.1918 70.6474 73.4941 70.6474C73.8994 70.6474 74.2882 70.8083 74.5748 71.0946C74.8614 71.3808 75.0224 71.7691 75.0224 72.174Z" fill="url(#paint9_radial_22_1834)"/>
<path style="mix-blend-mode:color-dodge" d="M87.804 72.1536C88.5777 72.1536 89.2049 71.5271 89.2049 70.7543C89.2049 69.9815 88.5777 69.355 87.804 69.355C87.0303 69.355 86.4031 69.9815 86.4031 70.7543C86.4031 71.5271 87.0303 72.1536 87.804 72.1536Z" fill="url(#paint10_radial_22_1834)"/>
<path d="M94.5742 82.3813C96.8953 82.3813 98.777 80.5018 98.777 78.1834C98.777 75.8649 96.8953 73.9854 94.5742 73.9854C92.2531 73.9854 90.3715 75.8649 90.3715 78.1834C90.3715 80.5018 92.2531 82.3813 94.5742 82.3813Z" fill="url(#paint11_radial_22_1834)" style="mix-blend-mode:color-dodge"/>
<path style="mix-blend-mode:color-dodge" d="M84.6811 79.888C84.6811 80.2906 84.5616 80.6841 84.3377 81.0188C84.1138 81.3535 83.7956 81.6144 83.4232 81.7684C83.0509 81.9225 82.6412 81.9628 82.2459 81.8843C81.8506 81.8057 81.4875 81.6119 81.2025 81.3272C80.9176 81.0426 80.7235 80.6799 80.6449 80.2851C80.5662 79.8903 80.6066 79.481 80.7608 79.1091C80.9151 78.7372 81.1762 78.4193 81.5113 78.1956C81.8464 77.972 82.2404 77.8526 82.6434 77.8526C83.1839 77.8526 83.7021 78.0671 84.0843 78.4488C84.4664 78.8305 84.6811 79.3482 84.6811 79.888Z" fill="url(#paint12_radial_22_1834)"/>
<path d="M98.8737 86.1416C98.6341 86.3613 98.3347 86.5051 98.0133 86.5549C97.6918 86.6047 97.3629 86.5582 97.0679 86.4213C96.7729 86.2844 96.5252 86.0633 96.356 85.7858C96.1867 85.5084 96.1036 85.1871 96.1171 84.8625C96.1307 84.5379 96.2402 84.2245 96.4319 83.9621C96.6236 83.6996 96.8888 83.4998 97.1942 83.3878C97.4995 83.2759 97.8312 83.2568 98.1474 83.3331C98.4635 83.4093 98.75 83.5775 98.9705 83.8163C99.2657 84.1378 99.4212 84.5631 99.4031 84.9989C99.385 85.4348 99.1946 85.8457 98.8737 86.1416Z" fill="url(#paint13_radial_22_1834)" style="mix-blend-mode:color-dodge"/>
<path style="mix-blend-mode:color-dodge" d="M79.9384 66.1798C82.0035 66.1798 83.6776 64.5077 83.6776 62.4449C83.6776 60.3822 82.0035 58.7101 79.9384 58.7101C77.8733 58.7101 76.1992 60.3822 76.1992 62.4449C76.1992 64.5077 77.8733 66.1798 79.9384 66.1798Z" fill="url(#paint14_radial_22_1834)"/>
<path d="M116.734 88.2839C116.735 88.7953 116.584 89.2956 116.301 89.7213C116.017 90.1471 115.613 90.4792 115.14 90.6756C114.667 90.8721 114.147 90.924 113.645 90.8248C113.142 90.7256 112.681 90.4799 112.318 90.1186C111.956 89.7573 111.709 89.2967 111.609 88.7951C111.508 88.2936 111.559 87.7736 111.755 87.3009C111.951 86.8283 112.282 86.4243 112.708 86.14C113.134 85.8558 113.634 85.704 114.146 85.704C114.486 85.7034 114.822 85.7696 115.136 85.899C115.45 86.0283 115.736 86.2182 115.976 86.4579C116.216 86.6975 116.407 86.9821 116.537 87.2954C116.667 87.6088 116.734 87.9447 116.734 88.2839Z" fill="url(#paint15_radial_22_1834)" style="mix-blend-mode:color-dodge"/>
<path style="mix-blend-mode:color-dodge" d="M98.8228 100.806C100.249 100.806 101.406 99.6514 101.406 98.2266C101.406 96.8018 100.249 95.6468 98.8228 95.6468C97.3963 95.6468 96.24 96.8018 96.24 98.2266C96.24 99.6514 97.3963 100.806 98.8228 100.806Z" fill="url(#paint16_radial_22_1834)"/>
<path style="mix-blend-mode:color-dodge" d="M89.7398 84.8441C89.7408 85.0557 89.6789 85.2628 89.562 85.4392C89.4451 85.6156 89.2783 85.7533 89.0829 85.835C88.8876 85.9166 88.6723 85.9385 88.4644 85.8979C88.2566 85.8572 88.0655 85.7558 87.9154 85.6066C87.7652 85.4574 87.6628 85.267 87.6212 85.0595C87.5795 84.8521 87.6003 84.637 87.6812 84.4415C87.762 84.2459 87.8991 84.0787 88.0751 83.9611C88.2512 83.8434 88.4582 83.7806 88.67 83.7806C88.9529 83.7806 89.2242 83.8925 89.4247 84.0918C89.6251 84.2911 89.7385 84.5616 89.7398 84.8441Z" fill="url(#paint17_radial_22_1834)"/>
<path d="M75.0429 82.5085C76.52 82.5085 77.7174 81.3125 77.7174 79.8371C77.7174 78.3617 76.52 77.1657 75.0429 77.1657C73.5658 77.1657 72.3684 78.3617 72.3684 79.8371C72.3684 81.3125 73.5658 82.5085 75.0429 82.5085Z" fill="url(#paint18_radial_22_1834)" style="mix-blend-mode:color-dodge"/>
<path d="M116.296 69.9402C116.794 69.9402 117.198 69.5369 117.198 69.0395C117.198 68.5421 116.794 68.1389 116.296 68.1389C115.798 68.1389 115.394 68.5421 115.394 69.0395C115.394 69.5369 115.798 69.9402 116.296 69.9402Z" fill="url(#paint19_radial_22_1834)" style="mix-blend-mode:color-dodge"/>
<path style="mix-blend-mode:color-dodge" d="M111.721 72.9016C112.456 72.9016 113.051 72.307 113.051 71.5735C113.051 70.8401 112.456 70.2455 111.721 70.2455C110.987 70.2455 110.392 70.8401 110.392 71.5735C110.392 72.307 110.987 72.9016 111.721 72.9016Z" fill="url(#paint20_radial_22_1834)"/>
<path d="M82.0067 90.1615C83.9368 90.1615 85.5014 88.5987 85.5014 86.6709C85.5014 84.743 83.9368 83.1802 82.0067 83.1802C80.0767 83.1802 78.5121 84.743 78.5121 86.6709C78.5121 88.5987 80.0767 90.1615 82.0067 90.1615Z" fill="url(#paint21_radial_22_1834)" style="mix-blend-mode:color-dodge"/>
<path style="mix-blend-mode:color-dodge" d="M106.704 85.3173C106.704 85.8962 106.532 86.4621 106.21 86.9434C105.887 87.4246 105.43 87.7996 104.894 88.0209C104.359 88.2422 103.769 88.2999 103.201 88.1866C102.633 88.0732 102.111 87.7941 101.701 87.3844C101.292 86.9747 101.013 86.4529 100.901 85.885C100.788 85.3171 100.847 84.7287 101.07 84.1941C101.292 83.6596 101.668 83.203 102.151 82.8821C102.633 82.5612 103.2 82.3905 103.78 82.3915C104.164 82.3915 104.545 82.4672 104.9 82.6143C105.255 82.7614 105.577 82.977 105.849 83.2487C106.121 83.5205 106.336 83.8431 106.482 84.198C106.629 84.553 106.704 84.9333 106.704 85.3173Z" fill="url(#paint22_radial_22_1834)"/>
<path d="M113.036 62.7451C113.036 63.1588 112.913 63.5631 112.683 63.907C112.453 64.2509 112.126 64.519 111.743 64.6773C111.361 64.8356 110.94 64.877 110.534 64.7963C110.128 64.7156 109.754 64.5164 109.462 64.2239C109.169 63.9315 108.969 63.5588 108.889 63.1531C108.808 62.7475 108.849 62.327 109.008 61.9448C109.166 61.5627 109.435 61.2361 109.779 61.0063C110.123 60.7765 110.528 60.6538 110.942 60.6538C111.497 60.6538 112.03 60.8741 112.423 61.2663C112.815 61.6586 113.036 62.1905 113.036 62.7451Z" fill="url(#paint23_radial_22_1834)" style="mix-blend-mode:color-dodge"/>
<path style="mix-blend-mode:color-dodge" d="M109.332 67.4367C109.332 67.8082 109.222 68.1715 109.015 68.4803C108.808 68.7892 108.514 69.0299 108.171 69.1718C107.827 69.3138 107.449 69.3507 107.084 69.2778C106.719 69.205 106.384 69.0256 106.121 68.7625C105.859 68.4994 105.68 68.1644 105.608 67.7998C105.536 67.4353 105.574 67.0576 105.717 66.7146C105.86 66.3716 106.102 66.0787 106.412 65.873C106.722 65.6673 107.085 65.558 107.457 65.559C107.704 65.559 107.948 65.6076 108.176 65.7021C108.404 65.7965 108.611 65.9349 108.785 66.1093C108.959 66.2837 109.097 66.4907 109.191 66.7185C109.285 66.9463 109.333 67.1903 109.332 67.4367Z" fill="url(#paint24_radial_22_1834)"/>
<path d="M98.6445 58.0536C99.5082 58.0536 100.208 57.3542 100.208 56.4915C100.208 55.6287 99.5082 54.9294 98.6445 54.9294C97.7808 54.9294 97.0806 55.6287 97.0806 56.4915C97.0806 57.3542 97.7808 58.0536 98.6445 58.0536Z" fill="url(#paint25_radial_22_1834)" style="mix-blend-mode:color-dodge"/>
<path d="M119.38 78.6266C119.9 76.4362 118.543 74.2398 116.35 73.7208C114.157 73.2018 111.958 74.5568 111.439 76.7471C110.919 78.9375 112.276 81.1339 114.469 81.6529C116.661 82.1718 118.86 80.8169 119.38 78.6266Z" fill="url(#paint26_radial_22_1834)" style="mix-blend-mode:color-dodge"/>
<path d="M107.498 60.089C107.499 60.7315 107.309 61.3599 106.953 61.8945C106.596 62.4292 106.088 62.8461 105.494 63.0924C104.9 63.3387 104.246 63.4035 103.615 63.2784C102.984 63.1533 102.405 62.844 101.95 62.3896C101.495 61.9353 101.185 61.3564 101.06 60.7262C100.935 60.096 101 59.4428 101.246 58.8494C101.493 58.256 101.91 57.749 102.446 57.3927C102.981 57.0364 103.61 56.8467 104.253 56.8477C105.113 56.849 105.938 57.191 106.546 57.7985C107.155 58.4061 107.497 59.2298 107.498 60.089Z" fill="url(#paint27_radial_22_1834)" style="mix-blend-mode:color-dodge"/>
<path style="mix-blend-mode:color-dodge" d="M108.451 93.6267C108.451 94.2559 108.264 94.871 107.914 95.3941C107.564 95.9172 107.066 96.3248 106.484 96.5653C105.902 96.8059 105.262 96.8686 104.644 96.7455C104.026 96.6223 103.459 96.3189 103.014 95.8737C102.569 95.4284 102.266 94.8613 102.144 94.244C102.021 93.6268 102.085 92.9872 102.327 92.4061C102.569 91.8251 102.977 91.3288 103.502 90.9799C104.026 90.6311 104.642 90.4454 105.272 90.4464C105.69 90.4464 106.104 90.5287 106.49 90.6886C106.876 90.8485 107.226 91.0828 107.522 91.3782C107.817 91.6736 108.051 92.0242 108.21 92.41C108.37 92.7959 108.451 93.2093 108.451 93.6267Z" fill="url(#paint28_radial_22_1834)"/>
<path d="M92.8014 93.3926C92.8014 94.0216 92.6147 94.6365 92.2648 95.1595C91.915 95.6825 91.4177 96.0901 90.8359 96.3308C90.2541 96.5715 89.614 96.6345 88.9963 96.5118C88.3787 96.3891 87.8114 96.0862 87.3661 95.6414C86.9209 95.1966 86.6176 94.63 86.4948 94.0131C86.3719 93.3962 86.435 92.7567 86.676 92.1756C86.9169 91.5945 87.325 91.0978 87.8486 90.7483C88.3722 90.3989 88.9878 90.2124 89.6175 90.2124C90.4619 90.2124 91.2718 90.5474 91.8689 91.1439C92.466 91.7403 92.8014 92.5492 92.8014 93.3926Z" fill="url(#paint29_radial_22_1834)" style="mix-blend-mode:color-dodge"/>
<path style="mix-blend-mode:color-dodge" d="M107.493 71.2682C107.494 71.4468 107.442 71.6216 107.343 71.7705C107.245 71.9194 107.104 72.0356 106.939 72.1044C106.774 72.1732 106.592 72.1915 106.417 72.1569C106.241 72.1223 106.08 72.0364 105.954 71.9102C105.828 71.7839 105.742 71.623 105.707 71.4478C105.672 71.2726 105.691 71.0911 105.759 70.9263C105.828 70.7615 105.945 70.6209 106.094 70.5223C106.243 70.4238 106.418 70.3717 106.597 70.3727C106.834 70.3727 107.062 70.467 107.231 70.635C107.399 70.8029 107.493 71.0307 107.493 71.2682Z" fill="url(#paint30_radial_22_1834)"/>
<path style="mix-blend-mode:color-dodge" d="M87.0805 77.8017C88.2059 77.8017 89.1182 76.8905 89.1182 75.7664C89.1182 74.6423 88.2059 73.731 87.0805 73.731C85.9552 73.731 85.0428 74.6423 85.0428 75.7664C85.0428 76.8905 85.9552 77.8017 87.0805 77.8017Z" fill="url(#paint31_radial_22_1834)"/>
<path style="mix-blend-mode:color-dodge" d="M96.4642 65.8389C97.2323 65.8389 97.8549 65.217 97.8549 64.4498C97.8549 63.6826 97.2323 63.0606 96.4642 63.0606C95.6961 63.0606 95.0735 63.6826 95.0735 64.4498C95.0735 65.217 95.6961 65.8389 96.4642 65.8389Z" fill="url(#paint32_radial_22_1834)"/>
<path style="mix-blend-mode:color-dodge" d="M106.714 77.5372C106.714 78.1873 106.521 78.8228 106.159 79.3634C105.798 79.9039 105.284 80.3253 104.682 80.5741C104.081 80.8228 103.419 80.8879 102.781 80.7611C102.143 80.6343 101.556 80.3212 101.096 79.8615C100.636 79.4018 100.322 78.8161 100.195 78.1784C100.068 77.5408 100.134 76.8799 100.383 76.2792C100.632 75.6786 101.053 75.1652 101.595 74.804C102.136 74.4428 102.772 74.25 103.423 74.25C103.855 74.25 104.283 74.3351 104.682 74.5003C105.082 74.6654 105.444 74.9076 105.75 75.2128C106.056 75.518 106.298 75.8804 106.463 76.2792C106.629 76.678 106.714 77.1055 106.714 77.5372Z" fill="url(#paint33_radial_22_1834)"/>
<path style="mix-blend-mode:color-dodge" d="M96.2859 71.2377C96.2869 71.6938 96.1524 72.14 95.8995 72.5197C95.6465 72.8994 95.2865 73.1957 94.8649 73.3709C94.4433 73.5461 93.9791 73.5925 93.5311 73.5042C93.0832 73.4158 92.6715 73.1967 92.3483 72.8745C92.025 72.5523 91.8047 72.1416 91.7152 71.6944C91.6258 71.2471 91.6712 70.7834 91.8457 70.3619C92.0202 69.9404 92.316 69.5801 92.6956 69.3266C93.0752 69.0731 93.5216 68.9377 93.9782 68.9377C94.5894 68.9377 95.1756 69.1799 95.6082 69.6111C96.0408 70.0423 96.2846 70.6272 96.2859 71.2377Z" fill="url(#paint34_radial_22_1834)"/>
<path style="mix-blend-mode:color-dodge" d="M101.375 70.7594C101.375 71.1481 101.259 71.528 101.043 71.8511C100.827 72.1742 100.519 72.426 100.16 72.5745C99.8002 72.723 99.4046 72.7616 99.023 72.6854C98.6414 72.6092 98.2911 72.4216 98.0163 72.1464C97.7415 71.8712 97.5546 71.5208 97.4793 71.1394C97.404 70.7581 97.4437 70.363 97.5933 70.0042C97.7429 69.6454 97.9957 69.339 98.3198 69.1238C98.6438 68.9086 99.0245 68.7943 99.4136 68.7953C99.6716 68.7953 99.9271 68.8461 100.165 68.9449C100.404 69.0436 100.62 69.1884 100.802 69.3709C100.984 69.5533 101.129 69.7699 101.227 70.0081C101.325 70.2464 101.376 70.5017 101.375 70.7594Z" fill="url(#paint35_radial_22_1834)"/>
<path d="M86.5456 65.5743C86.5456 65.9336 86.439 66.2848 86.2391 66.5835C86.0393 66.8823 85.7553 67.1151 85.4229 67.2526C85.0906 67.3901 84.725 67.4261 84.3722 67.356C84.0194 67.2859 83.6953 67.1129 83.441 66.8588C83.1866 66.6048 83.0134 66.2811 82.9433 65.9287C82.8731 65.5763 82.9091 65.2111 83.0468 64.8791C83.1844 64.5472 83.4175 64.2635 83.7166 64.0639C84.0157 63.8643 84.3673 63.7578 84.727 63.7578C85.2093 63.7578 85.6719 63.9491 86.013 64.2898C86.354 64.6305 86.5456 65.0925 86.5456 65.5743Z" fill="url(#paint36_radial_22_1834)" style="mix-blend-mode:color-dodge"/>
<path style="mix-blend-mode:color-dodge" d="M89.6787 67.8539C89.6787 68.0612 89.6171 68.2639 89.5018 68.4363C89.3865 68.6086 89.2226 68.743 89.0308 68.8223C88.8391 68.9017 88.6281 68.9224 88.4245 68.882C88.221 68.8415 88.034 68.7417 87.8872 68.5951C87.7404 68.4485 87.6405 68.2617 87.6 68.0584C87.5595 67.8551 87.5803 67.6443 87.6597 67.4528C87.7391 67.2612 87.8737 67.0975 88.0462 66.9824C88.2188 66.8672 88.4217 66.8057 88.6292 66.8057C88.9076 66.8057 89.1745 66.9161 89.3713 67.1127C89.5681 67.3093 89.6787 67.5759 89.6787 67.8539Z" fill="url(#paint37_radial_22_1834)"/>
<path style="mix-blend-mode:color-dodge" d="M101.747 81.0838C101.748 81.2722 101.693 81.4566 101.589 81.6138C101.485 81.7709 101.336 81.8937 101.162 81.9665C100.988 82.0393 100.797 82.0589 100.611 82.0227C100.426 81.9866 100.256 81.8964 100.122 81.7635C99.9886 81.6306 99.8974 81.4611 99.8602 81.2764C99.8231 81.0917 99.8416 80.9001 99.9136 80.7259C99.9855 80.5517 100.108 80.4028 100.264 80.298C100.421 80.1933 100.606 80.1373 100.794 80.1373C101.046 80.1373 101.287 80.2369 101.466 80.4142C101.644 80.5916 101.745 80.8323 101.747 81.0838Z" fill="url(#paint38_radial_22_1834)"/>
<path d="M95.2059 18.4658C83.4807 18.4699 72.02 21.9465 62.2729 28.4563C52.5259 34.966 44.9301 44.2164 40.4461 55.0379C35.9621 65.8594 34.7912 77.7659 37.0815 89.2521C39.3718 100.738 45.0205 111.288 53.3132 119.568C61.6059 127.847 72.1703 133.485 83.6706 135.768C95.1709 138.051 107.091 136.876 117.923 132.392C128.755 127.909 138.012 120.318 144.525 110.579C151.038 100.84 154.514 89.3914 154.513 77.6796C154.513 69.9014 152.979 62.1994 149.998 55.0136C147.017 47.8278 142.648 41.299 137.141 35.8001C131.633 30.3013 125.095 25.9402 117.9 22.9659C110.705 19.9916 102.993 18.4625 95.2059 18.4658ZM95.2059 136.385C83.5825 136.382 72.221 132.936 62.5579 126.484C52.8949 120.031 45.3643 110.862 40.9183 100.134C36.4723 89.4073 35.3106 77.6041 37.5801 66.2175C39.8495 54.8309 45.4482 44.3721 53.6683 36.1636C61.8884 27.955 72.3606 22.3655 83.7609 20.1016C95.1612 17.8376 106.978 19.0011 117.716 23.4448C128.454 27.8885 137.632 35.4128 144.09 45.0665C150.547 54.7201 153.993 66.0695 153.993 77.6796C153.989 93.2447 147.797 108.171 136.778 119.177C125.758 130.183 110.814 136.367 95.2314 136.369L95.2059 136.385Z" fill="white"/>
<path d="M95.2313 3.94351C80.6304 3.94653 66.3582 8.27407 54.2195 16.3789C42.0808 24.4838 32.6208 36.0019 27.0356 49.4769C21.4504 62.9519 19.9909 77.7786 22.8416 92.0821C25.6923 106.386 32.7252 119.524 43.0511 129.835C53.3769 140.146 66.5319 147.167 80.8526 150.011C95.1733 152.854 110.017 151.392 123.506 145.81C136.994 140.227 148.523 130.775 156.634 118.648C164.745 106.521 169.073 92.2638 169.072 77.6796C169.072 67.9948 167.162 58.4047 163.451 49.4573C159.74 40.5099 154.301 32.3804 147.444 25.5331C140.587 18.6858 132.446 13.2549 123.488 9.5505C114.529 5.84611 104.927 3.94084 95.2313 3.94351ZM95.2313 150.78C80.7565 150.782 66.6061 146.496 54.5697 138.465C42.5334 130.434 33.1516 119.018 27.6109 105.661C22.0703 92.3037 20.6195 77.6054 23.4422 63.4248C26.2648 49.2441 33.2341 36.2179 43.4687 25.9937C53.7032 15.7694 66.7433 8.80632 80.9399 5.98491C95.1365 3.1635 109.852 4.61053 123.225 10.143C136.598 15.6755 148.029 25.0449 156.071 37.0664C164.113 49.0878 168.405 63.2214 168.405 77.6796C168.405 97.0652 160.696 115.657 146.974 129.366C133.251 143.074 114.639 150.777 95.2313 150.78Z" fill="url(#paint39_linear_22_1834)" style="mix-blend-mode:overlay"/>
<path d="M92.8626 0C77.0128 0 61.5191 4.6946 48.3405 13.4901C35.162 22.2857 24.8905 34.7871 18.8251 49.4136C12.7597 64.04 11.1727 80.1345 14.2648 95.6619C17.357 111.189 24.9893 125.452 36.1968 136.647C47.4042 147.841 61.6833 155.465 77.2285 158.553C92.7737 161.642 108.887 160.057 123.53 153.998C138.173 147.94 150.689 137.68 159.494 124.517C168.3 111.353 173 95.8773 173 80.0457C173 58.8163 164.557 38.4563 149.528 23.4449C134.5 8.43337 114.116 0 92.8626 0ZM92.8626 159.399C77.1422 159.407 61.773 154.756 48.6989 146.037C35.6249 137.318 25.4334 124.922 19.4138 110.416C13.3942 95.9107 11.8168 79.9478 14.8812 64.5467C17.9456 49.1456 25.5141 34.9983 36.6294 23.8944C47.7446 12.7904 61.9072 5.22878 77.3255 2.1659C92.7439 -0.896977 108.725 0.676545 123.248 6.68742C137.771 12.6983 150.183 22.8765 158.914 35.9344C167.645 48.9924 172.302 64.3434 172.297 80.0457C172.29 101.088 163.92 121.266 149.024 136.146C134.129 151.026 113.929 159.39 92.8626 159.399Z" fill="url(#paint40_linear_22_1834)" style="mix-blend-mode:overlay"/>
<path d="M95.2058 29.065C85.5797 29.065 76.1698 31.9162 68.166 37.258C60.1622 42.5999 53.924 50.1924 50.2402 59.0756C46.5565 67.9588 45.5927 77.7336 47.4706 87.1639C49.3486 96.5942 53.984 105.257 60.7907 112.055C67.5973 118.854 76.2696 123.484 85.7107 125.36C95.1518 127.236 104.938 126.273 113.831 122.594C122.725 118.914 130.326 112.683 135.674 104.688C141.022 96.6938 143.876 87.2947 143.876 77.6796C143.876 64.7862 138.748 52.4209 129.621 43.3039C120.494 34.1869 108.114 29.065 95.2058 29.065ZM95.2058 125.872C85.6631 125.873 76.3345 123.047 68.3995 117.753C60.4646 112.458 54.2798 104.931 50.6272 96.1256C46.9747 87.3197 46.0185 77.6296 47.8796 68.2809C49.7407 58.9322 54.3354 50.3446 61.0827 43.6043C67.8301 36.864 76.427 32.2736 85.7862 30.4137C95.1455 28.5538 104.847 29.5078 113.663 33.1553C122.479 36.8027 130.015 42.9796 135.317 50.9049C140.619 58.8302 143.448 68.1479 143.448 77.6796C143.448 90.4601 138.366 102.717 129.319 111.755C120.272 120.793 108.001 125.871 95.2058 125.872Z" fill="white"/>
<path d="M45.4655 55.1596C47.2123 53.2708 47.0954 50.3251 45.2044 48.5804C43.3134 46.8356 40.3644 46.9523 38.6176 48.8412C36.8708 50.73 36.9877 53.6756 38.8787 55.4204C40.7697 57.1652 43.7187 57.0484 45.4655 55.1596Z" fill="url(#paint41_radial_22_1834)" style="mix-blend-mode:color-dodge"/>
<path d="M17.7021 62.0226C21.6578 62.0226 24.8646 58.8195 24.8646 54.8683C24.8646 50.9171 21.6578 47.714 17.7021 47.714C13.7463 47.714 10.5396 50.9171 10.5396 54.8683C10.5396 58.8195 13.7463 62.0226 17.7021 62.0226Z" fill="url(#paint42_radial_22_1834)" style="mix-blend-mode:color-dodge"/>
<path style="mix-blend-mode:color-dodge" d="M37.6511 27.4316C40.5912 27.4316 42.9746 25.0509 42.9746 22.1142C42.9746 19.1775 40.5912 16.7968 37.6511 16.7968C34.711 16.7968 32.3276 19.1775 32.3276 22.1142C32.3276 25.0509 34.711 27.4316 37.6511 27.4316Z" fill="url(#paint43_radial_22_1834)"/>
<path style="mix-blend-mode:color-dodge" d="M70.6109 6.93041C72.389 6.93041 73.8305 5.49062 73.8305 3.71454C73.8305 1.93846 72.389 0.498665 70.6109 0.498665C68.8328 0.498665 67.3914 1.93846 67.3914 3.71454C67.3914 5.49062 68.8328 6.93041 70.6109 6.93041Z" fill="url(#paint44_radial_22_1834)"/>
<path d="M124.299 136.865C127.662 135.487 129.269 131.646 127.889 128.287C126.509 124.928 122.664 123.322 119.302 124.701C115.939 126.079 114.331 129.92 115.711 133.279C117.091 136.638 120.936 138.243 124.299 136.865Z" fill="url(#paint45_radial_22_1834)" style="mix-blend-mode:color-dodge"/>
<path d="M153.79 89.902C156.702 89.902 159.062 87.5441 159.062 84.6355C159.062 81.7269 156.702 79.369 153.79 79.369C150.878 79.369 148.517 81.7269 148.517 84.6355C148.517 87.5441 150.878 89.902 153.79 89.902Z" fill="url(#paint46_radial_22_1834)" style="mix-blend-mode:color-dodge"/>
<path d="M89.1437 26.4953C89.1467 27.2105 88.9372 27.9105 88.5416 28.5066C88.146 29.1027 87.5822 29.5682 86.9215 29.844C86.2609 30.1197 85.5332 30.1935 84.8306 30.0558C84.128 29.9181 83.4821 29.5753 82.9747 29.0706C82.4673 28.566 82.1213 27.9223 81.9805 27.221C81.8397 26.5198 81.9105 25.7926 82.1838 25.1316C82.4571 24.4706 82.9206 23.9054 83.5158 23.5078C84.1109 23.1101 84.8108 22.8978 85.5268 22.8978C86.4834 22.8978 87.4011 23.2764 88.079 23.9506C88.7568 24.6248 89.1397 25.5398 89.1437 26.4953Z" fill="url(#paint47_radial_22_1834)" style="mix-blend-mode:color-dodge"/>
<path d="M128.842 33.3604C132.4 32.2137 134.355 28.4027 133.207 24.8483C132.059 21.2938 128.243 19.3419 124.685 20.4886C121.126 21.6353 119.172 25.4463 120.32 29.0008C121.468 32.5552 125.283 34.5071 128.842 33.3604Z" fill="url(#paint48_radial_22_1834)" style="mix-blend-mode:color-dodge"/>
<path style="mix-blend-mode:color-dodge" d="M129.669 46.0857C131.238 46.0857 132.511 44.8145 132.511 43.2464C132.511 41.6783 131.238 40.407 129.669 40.407C128.099 40.407 126.826 41.6783 126.826 43.2464C126.826 44.8145 128.099 46.0857 129.669 46.0857Z" fill="url(#paint49_radial_22_1834)"/>
<path d="M141.574 71.7211C144.908 71.7211 147.61 69.0215 147.61 65.6914C147.61 62.3612 144.908 59.6616 141.574 59.6616C138.24 59.6616 135.537 62.3612 135.537 65.6914C135.537 69.0215 138.24 71.7211 141.574 71.7211Z" fill="url(#paint50_radial_22_1834)" style="mix-blend-mode:color-dodge"/>
<path d="M61.7671 117.481C64.2824 117.481 66.3214 115.444 66.3214 112.932C66.3214 110.42 64.2824 108.383 61.7671 108.383C59.2519 108.383 57.2129 110.42 57.2129 112.932C57.2129 115.444 59.2519 117.481 61.7671 117.481Z" fill="url(#paint51_radial_22_1834)" style="mix-blend-mode:color-dodge"/>
<path d="M65.6236 44.2335C65.6236 44.945 65.4123 45.6406 65.0166 46.2322C64.6208 46.8238 64.0583 47.2849 63.4002 47.5572C62.7421 47.8295 62.0179 47.9007 61.3193 47.7619C60.6206 47.6231 59.9789 47.2805 59.4752 46.7773C58.9715 46.2742 58.6285 45.6332 58.4895 44.9354C58.3505 44.2375 58.4218 43.5142 58.6944 42.8568C58.967 42.1995 59.4287 41.6376 60.021 41.2423C60.6132 40.847 61.3096 40.636 62.0219 40.636C62.4951 40.6354 62.9637 40.7279 63.401 40.9085C63.8383 41.0891 64.2356 41.354 64.5702 41.6882C64.9047 42.0224 65.17 42.4193 65.3508 42.856C65.5315 43.2928 65.6242 43.7609 65.6236 44.2335Z" fill="url(#paint52_radial_22_1834)" style="mix-blend-mode:color-dodge"/>
<path d="M97.6664 13.3316C97.6663 13.9245 97.49 14.5039 97.1597 14.9965C96.8294 15.4891 96.3601 15.8725 95.8113 16.0982C95.2625 16.3239 94.6589 16.3816 94.0771 16.2641C93.4954 16.1466 92.9617 15.8591 92.5438 15.4381C92.126 15.0171 91.8427 14.4816 91.73 13.8996C91.6173 13.3175 91.6803 12.7152 91.9109 12.1689C92.1416 11.6227 92.5294 11.1572 93.0254 10.8315C93.5213 10.5058 94.1029 10.3346 94.6964 10.3396C95.4868 10.345 96.243 10.6628 96.7995 11.2235C97.3561 11.7841 97.6677 12.5421 97.6664 13.3316Z" fill="url(#paint53_radial_22_1834)" style="mix-blend-mode:color-dodge"/>
<path style="mix-blend-mode:color-dodge" d="M151.66 103.254C151.661 103.83 151.491 104.393 151.172 104.872C150.852 105.352 150.397 105.726 149.865 105.947C149.333 106.168 148.747 106.226 148.181 106.114C147.615 106.003 147.096 105.726 146.688 105.319C146.28 104.912 146.002 104.393 145.889 103.829C145.776 103.264 145.833 102.679 146.054 102.146C146.274 101.614 146.648 101.159 147.127 100.839C147.606 100.519 148.17 100.348 148.746 100.348C149.518 100.348 150.259 100.654 150.805 101.199C151.351 101.744 151.659 102.483 151.66 103.254Z" fill="url(#paint54_radial_22_1834)"/>
<path d="M88.6699 136.115C88.6699 136.747 88.4822 137.365 88.1307 137.89C87.7792 138.416 87.2795 138.825 86.695 139.067C86.1104 139.309 85.4671 139.372 84.8465 139.249C84.226 139.126 83.6559 138.821 83.2085 138.374C82.7611 137.928 82.4564 137.358 82.333 136.738C82.2095 136.118 82.2729 135.476 82.515 134.892C82.7572 134.308 83.1672 133.809 83.6933 133.458C84.2194 133.107 84.8379 132.919 85.4707 132.919C86.3192 132.919 87.1329 133.256 87.7328 133.855C88.3328 134.455 88.6699 135.267 88.6699 136.115Z" fill="url(#paint55_radial_22_1834)" style="mix-blend-mode:color-dodge"/>
<path d="M70.8095 130.309C70.8095 130.758 70.6762 131.197 70.4265 131.57C70.1769 131.943 69.822 132.234 69.4069 132.406C68.9917 132.577 68.5349 132.622 68.0942 132.535C67.6534 132.447 67.2486 132.231 66.9308 131.914C66.6131 131.596 66.3967 131.192 66.309 130.752C66.2214 130.312 66.2664 129.855 66.4383 129.441C66.6103 129.026 66.9015 128.671 67.2751 128.422C67.6488 128.173 68.088 128.04 68.5374 128.04C69.14 128.04 69.7179 128.279 70.144 128.704C70.5701 129.13 70.8095 129.707 70.8095 130.309Z" fill="url(#paint56_radial_22_1834)" style="mix-blend-mode:color-dodge"/>
<path style="mix-blend-mode:color-dodge" d="M84.9104 124.625C84.9104 124.955 84.8124 125.278 84.6288 125.553C84.4452 125.827 84.1843 126.041 83.879 126.167C83.5736 126.294 83.2377 126.327 82.9135 126.262C82.5894 126.198 82.2917 126.039 82.058 125.805C81.8243 125.572 81.6652 125.275 81.6007 124.951C81.5362 124.627 81.5693 124.292 81.6958 123.987C81.8223 123.682 82.0364 123.421 82.3112 123.238C82.586 123.054 82.909 122.956 83.2395 122.956C83.6827 122.956 84.1077 123.132 84.421 123.445C84.7344 123.758 84.9104 124.183 84.9104 124.625Z" fill="url(#paint57_radial_22_1834)"/>
<path d="M153.535 128.182C156.866 128.182 159.567 125.485 159.567 122.157C159.567 118.83 156.866 116.133 153.535 116.133C150.204 116.133 147.503 118.83 147.503 122.157C147.503 125.485 150.204 128.182 153.535 128.182Z" fill="url(#paint58_radial_22_1834)" style="mix-blend-mode:color-dodge"/>
<path style="mix-blend-mode:color-dodge" d="M112.292 156.825C116.712 156.825 120.295 153.246 120.295 148.831C120.295 144.416 116.712 140.837 112.292 140.837C107.872 140.837 104.289 144.416 104.289 148.831C104.289 153.246 107.872 156.825 112.292 156.825Z" fill="url(#paint59_radial_22_1834)"/>
<path style="mix-blend-mode:color-dodge" d="M12.1571 140.946C14.252 138.853 14.252 135.461 12.1571 133.368C10.0622 131.276 6.66579 131.276 4.57092 133.368C2.47606 135.461 2.47606 138.853 4.57092 140.946C6.66579 143.038 10.0622 143.038 12.1571 140.946Z" fill="url(#paint60_radial_22_1834)"/>
<path style="mix-blend-mode:color-dodge" d="M66.4183 170.075C66.4183 170.859 66.1855 171.625 65.7495 172.277C65.3134 172.929 64.6936 173.437 63.9685 173.737C63.2434 174.037 62.4455 174.116 61.6757 173.963C60.9059 173.81 60.1988 173.432 59.6438 172.878C59.0888 172.323 58.7108 171.617 58.5577 170.848C58.4046 170.079 58.4832 169.282 58.7835 168.558C59.0839 167.834 59.5925 167.215 60.2451 166.779C60.8977 166.343 61.665 166.111 62.4499 166.111C63.5024 166.111 64.5117 166.529 65.256 167.272C66.0002 168.015 66.4183 169.024 66.4183 170.075Z" fill="url(#paint61_radial_22_1834)"/>
<defs>
<filter id="filter0_d_22_1834" x="40.728" y="27.2324" width="108.996" height="108.92" filterUnits="userSpaceOnUse" color-interpolation-filters="sRGB">
<feFlood flood-opacity="0" result="BackgroundImageFix"/>
<feColorMatrix in="SourceAlpha" type="matrix" values="0 0 0 0 0 0 0 0 0 0 0 0 0 0 0 0 0 0 127 0" result="hardAlpha"/>
<feOffset dy="4"/>
<feGaussianBlur stdDeviation="5"/>
<feComposite in2="hardAlpha" operator="out"/>
<feColorMatrix type="matrix" values="0 0 0 0 0.980392 0 0 0 0 0.262745 0 0 0 0 0.262745 0 0 0 0.25 0"/>
<feBlend mode="normal" in2="BackgroundImageFix" result="effect1_dropShadow_22_1834"/>
<feBlend mode="normal" in="SourceGraphic" in2="effect1_dropShadow_22_1834" result="shape"/>
</filter>
<radialGradient id="paint0_radial_22_1834" cx="0" cy="0" r="1" gradientUnits="userSpaceOnUse" gradientTransform="translate(40.5753 99.9719) scale(74.488 74.4027)">
<stop stop-color="#5CC3D5"/>
<stop offset="0.15" stop-color="#5CC3D5"/>
<stop offset="1" stop-color="#005F8C"/>
</radialGradient>
<radialGradient id="paint1_radial_22_1834" cx="0" cy="0" r="1" gradientUnits="userSpaceOnUse" gradientTransform="translate(45.0939 117.094) scale(46.8008 46.7472)">
<stop stop-color="white" stop-opacity="0"/>
<stop offset="0.07" stop-color="white" stop-opacity="0.13"/>
<stop offset="0.24" stop-color="white" stop-opacity="0.45"/>
<stop offset="0.48" stop-color="white" stop-opacity="0.96"/>
<stop offset="0.5" stop-color="white"/>
<stop offset="1" stop-color="white" stop-opacity="0"/>
</radialGradient>
<linearGradient id="paint2_linear_22_1834" x1="123.132" y1="105.559" x2="68.0353" y2="50.3985" gradientUnits="userSpaceOnUse">
<stop stop-color="white" stop-opacity="0"/>
<stop offset="0.11" stop-color="white" stop-opacity="0.02"/>
<stop offset="0.23" stop-color="white" stop-opacity="0.07"/>
<stop offset="0.36" stop-color="white" stop-opacity="0.17"/>
<stop offset="0.5" stop-color="white" stop-opacity="0.3"/>
<stop offset="0.65" stop-color="white" stop-opacity="0.46"/>
<stop offset="0.79" stop-color="white" stop-opacity="0.66"/>
<stop offset="0.94" stop-color="white" stop-opacity="0.9"/>
<stop offset="1" stop-color="white"/>
</linearGradient>
<linearGradient id="paint3_linear_22_1834" x1="12083.5" y1="11045.5" x2="9127.97" y2="14003.7" gradientUnits="userSpaceOnUse">
<stop stop-color="white" stop-opacity="0"/>
<stop offset="0.11" stop-color="white" stop-opacity="0.02"/>
<stop offset="0.23" stop-color="white" stop-opacity="0.07"/>
<stop offset="0.36" stop-color="white" stop-opacity="0.17"/>
<stop offset="0.5" stop-color="white" stop-opacity="0.3"/>
<stop offset="0.65" stop-color="white" stop-opacity="0.46"/>
<stop offset="0.79" stop-color="white" stop-opacity="0.66"/>
<stop offset="0.94" stop-color="white" stop-opacity="0.9"/>
<stop offset="1" stop-color="white"/>
</linearGradient>
<linearGradient id="paint4_linear_22_1834" x1="9811.3" y1="12719.2" x2="15349.2" y2="7174.93" gradientUnits="userSpaceOnUse">
<stop stop-color="white" stop-opacity="0"/>
<stop offset="0.11" stop-color="white" stop-opacity="0.02"/>
<stop offset="0.23" stop-color="white" stop-opacity="0.07"/>
<stop offset="0.36" stop-color="white" stop-opacity="0.17"/>
<stop offset="0.5" stop-color="white" stop-opacity="0.3"/>
<stop offset="0.65" stop-color="white" stop-opacity="0.46"/>
<stop offset="0.79" stop-color="white" stop-opacity="0.66"/>
<stop offset="0.94" stop-color="white" stop-opacity="0.9"/>
<stop offset="1" stop-color="white"/>
</linearGradient>
<radialGradient id="paint5_radial_22_1834" cx="0" cy="0" r="1" gradientUnits="userSpaceOnUse" gradientTransform="translate(91.268 57.8501) scale(2.79165 2.78845)">
<stop stop-color="white"/>
<stop offset="0.06" stop-color="#E5E5E5"/>
<stop offset="0.21" stop-color="#AAAAAA"/>
<stop offset="0.35" stop-color="#767676"/>
<stop offset="0.5" stop-color="#4B4B4B"/>
<stop offset="0.64" stop-color="#2B2B2B"/>
<stop offset="0.77" stop-color="#131313"/>
<stop offset="0.89" stop-color="#050505"/>
<stop offset="1"/>
</radialGradient>
<radialGradient id="paint6_radial_22_1834" cx="0" cy="0" r="1" gradientUnits="userSpaceOnUse" gradientTransform="translate(1091.06 1008.22) scale(43.8449 43.7945)">
<stop stop-color="white"/>
<stop offset="0.06" stop-color="#E5E5E5"/>
<stop offset="0.21" stop-color="#AAAAAA"/>
<stop offset="0.35" stop-color="#767676"/>
<stop offset="0.5" stop-color="#4B4B4B"/>
<stop offset="0.64" stop-color="#2B2B2B"/>
<stop offset="0.77" stop-color="#131313"/>
<stop offset="0.89" stop-color="#050505"/>
<stop offset="1"/>
</radialGradient>
<radialGradient id="paint7_radial_22_1834" cx="0" cy="0" r="1" gradientUnits="userSpaceOnUse" gradientTransform="translate(1162.31 1127.04) scale(32.9284 32.8907)">
<stop stop-color="white"/>
<stop offset="0.06" stop-color="#E5E5E5"/>
<stop offset="0.21" stop-color="#AAAAAA"/>
<stop offset="0.35" stop-color="#767676"/>
<stop offset="0.5" stop-color="#4B4B4B"/>
<stop offset="0.64" stop-color="#2B2B2B"/>
<stop offset="0.77" stop-color="#131313"/>
<stop offset="0.89" stop-color="#050505"/>
<stop offset="1"/>
</radialGradient>
<radialGradient id="paint8_radial_22_1834" cx="0" cy="0" r="1" gradientUnits="userSpaceOnUse" gradientTransform="translate(755.008 896.979) scale(19.0142 18.9924)">
<stop stop-color="white"/>
<stop offset="0.06" stop-color="#E5E5E5"/>
<stop offset="0.21" stop-color="#AAAAAA"/>
<stop offset="0.35" stop-color="#767676"/>
<stop offset="0.5" stop-color="#4B4B4B"/>
<stop offset="0.64" stop-color="#2B2B2B"/>
<stop offset="0.77" stop-color="#131313"/>
<stop offset="0.89" stop-color="#050505"/>
<stop offset="1"/>
</radialGradient>
<radialGradient id="paint9_radial_22_1834" cx="0" cy="0" r="1" gradientUnits="userSpaceOnUse" gradientTransform="translate(494.994 503.692) scale(9.10856 9.09808)">
<stop stop-color="white"/>
<stop offset="0.06" stop-color="#E5E5E5"/>
<stop offset="0.21" stop-color="#AAAAAA"/>
<stop offset="0.35" stop-color="#767676"/>
<stop offset="0.5" stop-color="#4B4B4B"/>
<stop offset="0.64" stop-color="#2B2B2B"/>
<stop offset="0.77" stop-color="#131313"/>
<stop offset="0.89" stop-color="#050505"/>
<stop offset="1"/>
</radialGradient>
<radialGradient id="paint10_radial_22_1834" cx="0" cy="0" r="1" gradientUnits="userSpaceOnUse" gradientTransform="translate(552.824 458.503) scale(7.70504 7.69621)">
<stop stop-color="white"/>
<stop offset="0.06" stop-color="#E5E5E5"/>
<stop offset="0.21" stop-color="#AAAAAA"/>
<stop offset="0.35" stop-color="#767676"/>
<stop offset="0.5" stop-color="#4B4B4B"/>
<stop offset="0.64" stop-color="#2B2B2B"/>
<stop offset="0.77" stop-color="#131313"/>
<stop offset="0.89" stop-color="#050505"/>
<stop offset="1"/>
</radialGradient>
<radialGradient id="paint11_radial_22_1834" cx="0" cy="0" r="1" gradientUnits="userSpaceOnUse" gradientTransform="translate(94.5738 78.182) rotate(47.2372) scale(4.20016 4.20053)">
<stop stop-color="#6FF6FF"/>
<stop offset="1" stop-color="#4AF4FF" stop-opacity="0"/>
</radialGradient>
<radialGradient id="paint12_radial_22_1834" cx="0" cy="0" r="1" gradientUnits="userSpaceOnUse" gradientTransform="translate(717.837 716.998) scale(16.2201 16.2015)">
<stop stop-color="white"/>
<stop offset="0.06" stop-color="#E5E5E5"/>
<stop offset="0.21" stop-color="#AAAAAA"/>
<stop offset="0.35" stop-color="#767676"/>
<stop offset="0.5" stop-color="#4B4B4B"/>
<stop offset="0.64" stop-color="#2B2B2B"/>
<stop offset="0.77" stop-color="#131313"/>
<stop offset="0.89" stop-color="#050505"/>
<stop offset="1"/>
</radialGradient>
<radialGradient id="paint13_radial_22_1834" cx="0" cy="0" r="1" gradientUnits="userSpaceOnUse" gradientTransform="translate(97.7599 84.9302) rotate(47.2554) scale(1.64394)">
<stop stop-color="#6FF6FF"/>
<stop offset="1" stop-color="#4AF4FF" stop-opacity="0"/>
</radialGradient>
<radialGradient id="paint14_radial_22_1834" cx="0" cy="0" r="1" gradientUnits="userSpaceOnUse" gradientTransform="translate(1205.66 975.402) scale(54.8912 54.8282)">
<stop stop-color="white"/>
<stop offset="0.06" stop-color="#E5E5E5"/>
<stop offset="0.21" stop-color="#AAAAAA"/>
<stop offset="0.35" stop-color="#767676"/>
<stop offset="0.5" stop-color="#4B4B4B"/>
<stop offset="0.64" stop-color="#2B2B2B"/>
<stop offset="0.77" stop-color="#131313"/>
<stop offset="0.89" stop-color="#050505"/>
<stop offset="1"/>
</radialGradient>
<radialGradient id="paint15_radial_22_1834" cx="0" cy="0" r="1" gradientUnits="userSpaceOnUse" gradientTransform="translate(114.146 88.2881) rotate(47.2374) scale(2.58627 2.5865)">
<stop stop-color="#6FF6FF"/>
<stop offset="1" stop-color="#4AF4FF" stop-opacity="0"/>
</radialGradient>
<radialGradient id="paint16_radial_22_1834" cx="0" cy="0" r="1" gradientUnits="userSpaceOnUse" gradientTransform="translate(1067.88 1091.66) scale(26.1893 26.1594)">
<stop stop-color="white"/>
<stop offset="0.06" stop-color="#E5E5E5"/>
<stop offset="0.21" stop-color="#AAAAAA"/>
<stop offset="0.35" stop-color="#767676"/>
<stop offset="0.5" stop-color="#4B4B4B"/>
<stop offset="0.64" stop-color="#2B2B2B"/>
<stop offset="0.77" stop-color="#131313"/>
<stop offset="0.89" stop-color="#050505"/>
<stop offset="1"/>
</radialGradient>
<radialGradient id="paint17_radial_22_1834" cx="0" cy="0" r="1" gradientUnits="userSpaceOnUse" gradientTransform="translate(447.416 440.126) scale(4.47175 4.4666)">
<stop stop-color="white"/>
<stop offset="0.06" stop-color="#E5E5E5"/>
<stop offset="0.21" stop-color="#AAAAAA"/>
<stop offset="0.35" stop-color="#767676"/>
<stop offset="0.5" stop-color="#4B4B4B"/>
<stop offset="0.64" stop-color="#2B2B2B"/>
<stop offset="0.77" stop-color="#131313"/>
<stop offset="0.89" stop-color="#050505"/>
<stop offset="1"/>
</radialGradient>
<radialGradient id="paint18_radial_22_1834" cx="0" cy="0" r="1" gradientUnits="userSpaceOnUse" gradientTransform="translate(75.0426 79.8363) rotate(47.2373) scale(2.67283 2.67307)">
<stop stop-color="#6FF6FF"/>
<stop offset="1" stop-color="#4AF4FF" stop-opacity="0"/>
</radialGradient>
<radialGradient id="paint19_radial_22_1834" cx="0" cy="0" r="1" gradientUnits="userSpaceOnUse" gradientTransform="translate(116.296 69.0392) rotate(47.2368) scale(0.901129)">
<stop stop-color="#6FF6FF"/>
<stop offset="1" stop-color="#4AF4FF" stop-opacity="0"/>
</radialGradient>
<radialGradient id="paint20_radial_22_1834" cx="0" cy="0" r="1" gradientUnits="userSpaceOnUse" gradientTransform="translate(677.916 443.86) scale(6.94048 6.93255)">
<stop stop-color="white"/>
<stop offset="0.06" stop-color="#E5E5E5"/>
<stop offset="0.21" stop-color="#AAAAAA"/>
<stop offset="0.35" stop-color="#767676"/>
<stop offset="0.5" stop-color="#4B4B4B"/>
<stop offset="0.64" stop-color="#2B2B2B"/>
<stop offset="0.77" stop-color="#131313"/>
<stop offset="0.89" stop-color="#050505"/>
<stop offset="1"/>
</radialGradient>
<radialGradient id="paint21_radial_22_1834" cx="0" cy="0" r="1" gradientUnits="userSpaceOnUse" gradientTransform="translate(82.0064 86.6697) rotate(47.2372) scale(3.49249 3.49281)">
<stop stop-color="#6FF6FF"/>
<stop offset="1" stop-color="#4AF4FF" stop-opacity="0"/>
</radialGradient>
<radialGradient id="paint22_radial_22_1834" cx="0" cy="0" r="1" gradientUnits="userSpaceOnUse" gradientTransform="translate(1259.81 1063.54) scale(33.6857 33.6471)">
<stop stop-color="white"/>
<stop offset="0.06" stop-color="#E5E5E5"/>
<stop offset="0.21" stop-color="#AAAAAA"/>
<stop offset="0.35" stop-color="#767676"/>
<stop offset="0.5" stop-color="#4B4B4B"/>
<stop offset="0.64" stop-color="#2B2B2B"/>
<stop offset="0.77" stop-color="#131313"/>
<stop offset="0.89" stop-color="#050505"/>
<stop offset="1"/>
</radialGradient>
<radialGradient id="paint23_radial_22_1834" cx="0" cy="0" r="1" gradientUnits="userSpaceOnUse" gradientTransform="translate(110.942 62.7445) rotate(47.2374) scale(2.09244 2.09262)">
<stop stop-color="#6FF6FF"/>
<stop offset="1" stop-color="#4AF4FF" stop-opacity="0"/>
</radialGradient>
<radialGradient id="paint24_radial_22_1834" cx="0" cy="0" r="1" gradientUnits="userSpaceOnUse" gradientTransform="translate(876.467 563.241) scale(13.8727 13.8568)">
<stop stop-color="white"/>
<stop offset="0.06" stop-color="#E5E5E5"/>
<stop offset="0.21" stop-color="#AAAAAA"/>
<stop offset="0.35" stop-color="#767676"/>
<stop offset="0.5" stop-color="#4B4B4B"/>
<stop offset="0.64" stop-color="#2B2B2B"/>
<stop offset="0.77" stop-color="#131313"/>
<stop offset="0.89" stop-color="#050505"/>
<stop offset="1"/>
</radialGradient>
<radialGradient id="paint25_radial_22_1834" cx="0" cy="0" r="1" gradientUnits="userSpaceOnUse" gradientTransform="translate(98.6443 56.491) rotate(47.2373) scale(1.56297 1.56311)">
<stop stop-color="#6FF6FF"/>
<stop offset="1" stop-color="#4AF4FF" stop-opacity="0"/>
</radialGradient>
<radialGradient id="paint26_radial_22_1834" cx="0" cy="0" r="1" gradientUnits="userSpaceOnUse" gradientTransform="translate(115.408 77.687) rotate(-29.372) scale(4.07936 4.07694)">
<stop stop-color="#6FF6FF"/>
<stop offset="1" stop-color="#4AF4FF" stop-opacity="0"/>
</radialGradient>
<radialGradient id="paint27_radial_22_1834" cx="0" cy="0" r="1" gradientUnits="userSpaceOnUse" gradientTransform="translate(104.248 60.0931) rotate(47.2372) scale(3.24812 3.24842)">
<stop stop-color="#6FF6FF"/>
<stop offset="1" stop-color="#4AF4FF" stop-opacity="0"/>
</radialGradient>
<radialGradient id="paint28_radial_22_1834" cx="0" cy="0" r="1" gradientUnits="userSpaceOnUse" gradientTransform="translate(1380.29 1260.78) scale(39.7988 39.7532)">
<stop stop-color="white"/>
<stop offset="0.06" stop-color="#E5E5E5"/>
<stop offset="0.21" stop-color="#AAAAAA"/>
<stop offset="0.35" stop-color="#767676"/>
<stop offset="0.5" stop-color="#4B4B4B"/>
<stop offset="0.64" stop-color="#2B2B2B"/>
<stop offset="0.77" stop-color="#131313"/>
<stop offset="0.89" stop-color="#050505"/>
<stop offset="1"/>
</radialGradient>
<radialGradient id="paint29_radial_22_1834" cx="0" cy="0" r="1" gradientUnits="userSpaceOnUse" gradientTransform="translate(89.6172 93.3916) rotate(47.2372) scale(3.18193 3.18222)">
<stop stop-color="#6FF6FF"/>
<stop offset="1" stop-color="#4AF4FF" stop-opacity="0"/>
</radialGradient>
<radialGradient id="paint30_radial_22_1834" cx="0" cy="0" r="1" gradientUnits="userSpaceOnUse" gradientTransform="translate(472.421 322.662) scale(3.17391 3.17027)">
<stop stop-color="white"/>
<stop offset="0.06" stop-color="#E5E5E5"/>
<stop offset="0.21" stop-color="#AAAAAA"/>
<stop offset="0.35" stop-color="#767676"/>
<stop offset="0.5" stop-color="#4B4B4B"/>
<stop offset="0.64" stop-color="#2B2B2B"/>
<stop offset="0.77" stop-color="#131313"/>
<stop offset="0.89" stop-color="#050505"/>
<stop offset="1"/>
</radialGradient>
<radialGradient id="paint31_radial_22_1834" cx="0" cy="0" r="1" gradientUnits="userSpaceOnUse" gradientTransform="translate(757.685 679.862) scale(16.3015 16.2829)">
<stop stop-color="white"/>
<stop offset="0.06" stop-color="#E5E5E5"/>
<stop offset="0.21" stop-color="#AAAAAA"/>
<stop offset="0.35" stop-color="#767676"/>
<stop offset="0.5" stop-color="#4B4B4B"/>
<stop offset="0.64" stop-color="#2B2B2B"/>
<stop offset="0.77" stop-color="#131313"/>
<stop offset="0.89" stop-color="#050505"/>
<stop offset="1"/>
</radialGradient>
<radialGradient id="paint32_radial_22_1834" cx="0" cy="0" r="1" gradientUnits="userSpaceOnUse" gradientTransform="translate(605.387 414.958) scale(7.59337 7.58471)">
<stop stop-color="white"/>
<stop offset="0.06" stop-color="#E5E5E5"/>
<stop offset="0.21" stop-color="#AAAAAA"/>
<stop offset="0.35" stop-color="#767676"/>
<stop offset="0.5" stop-color="#4B4B4B"/>
<stop offset="0.64" stop-color="#2B2B2B"/>
<stop offset="0.77" stop-color="#131313"/>
<stop offset="0.89" stop-color="#050505"/>
<stop offset="1"/>
</radialGradient>
<radialGradient id="paint33_radial_22_1834" cx="0" cy="0" r="1" gradientUnits="userSpaceOnUse" gradientTransform="translate(1397.59 1076.03) scale(42.518 42.4696)">
<stop stop-color="white"/>
<stop offset="0.06" stop-color="#E5E5E5"/>
<stop offset="0.21" stop-color="#AAAAAA"/>
<stop offset="0.35" stop-color="#767676"/>
<stop offset="0.5" stop-color="#4B4B4B"/>
<stop offset="0.64" stop-color="#2B2B2B"/>
<stop offset="0.77" stop-color="#131313"/>
<stop offset="0.89" stop-color="#050505"/>
<stop offset="1"/>
</radialGradient>
<radialGradient id="paint34_radial_22_1834" cx="0" cy="0" r="1" gradientUnits="userSpaceOnUse" gradientTransform="translate(915.934 714.165) scale(20.9077 20.8837)">
<stop stop-color="white"/>
<stop offset="0.06" stop-color="#E5E5E5"/>
<stop offset="0.21" stop-color="#AAAAAA"/>
<stop offset="0.35" stop-color="#767676"/>
<stop offset="0.5" stop-color="#4B4B4B"/>
<stop offset="0.64" stop-color="#2B2B2B"/>
<stop offset="0.77" stop-color="#131313"/>
<stop offset="0.89" stop-color="#050505"/>
<stop offset="1"/>
</radialGradient>
<radialGradient id="paint35_radial_22_1834" cx="0" cy="0" r="1" gradientUnits="userSpaceOnUse" gradientTransform="translate(841.758 615.057) scale(15.1412 15.1237)">
<stop stop-color="white"/>
<stop offset="0.06" stop-color="#E5E5E5"/>
<stop offset="0.21" stop-color="#AAAAAA"/>
<stop offset="0.35" stop-color="#767676"/>
<stop offset="0.5" stop-color="#4B4B4B"/>
<stop offset="0.64" stop-color="#2B2B2B"/>
<stop offset="0.77" stop-color="#131313"/>
<stop offset="0.89" stop-color="#050505"/>
<stop offset="1"/>
</radialGradient>
<radialGradient id="paint36_radial_22_1834" cx="0" cy="0" r="1" gradientUnits="userSpaceOnUse" gradientTransform="translate(84.7268 65.5737) rotate(47.2372) scale(1.81752 1.81769)">
<stop stop-color="#6FF6FF"/>
<stop offset="1" stop-color="#4AF4FF" stop-opacity="0"/>
</radialGradient>
<radialGradient id="paint37_radial_22_1834" cx="0" cy="0" r="1" gradientUnits="userSpaceOnUse" gradientTransform="translate(440.372 346.364) scale(4.32359 4.31864)">
<stop stop-color="white"/>
<stop offset="0.06" stop-color="#E5E5E5"/>
<stop offset="0.21" stop-color="#AAAAAA"/>
<stop offset="0.35" stop-color="#767676"/>
<stop offset="0.5" stop-color="#4B4B4B"/>
<stop offset="0.64" stop-color="#2B2B2B"/>
<stop offset="0.77" stop-color="#131313"/>
<stop offset="0.89" stop-color="#050505"/>
<stop offset="1"/>
</radialGradient>
<radialGradient id="paint38_radial_22_1834" cx="0" cy="0" r="1" gradientUnits="userSpaceOnUse" gradientTransform="translate(465.59 383.389) scale(3.54374 3.53968)">
<stop stop-color="white"/>
<stop offset="0.06" stop-color="#E5E5E5"/>
<stop offset="0.21" stop-color="#AAAAAA"/>
<stop offset="0.35" stop-color="#767676"/>
<stop offset="0.5" stop-color="#4B4B4B"/>
<stop offset="0.64" stop-color="#2B2B2B"/>
<stop offset="0.77" stop-color="#131313"/>
<stop offset="0.89" stop-color="#050505"/>
<stop offset="1"/>
</radialGradient>
<linearGradient id="paint39_linear_22_1834" x1="28039.8" y1="23551" x2="48205.6" y2="39753.9" gradientUnits="userSpaceOnUse">
<stop stop-color="white" stop-opacity="0"/>
<stop offset="0.11" stop-color="white" stop-opacity="0.02"/>
<stop offset="0.23" stop-color="white" stop-opacity="0.07"/>
<stop offset="0.36" stop-color="white" stop-opacity="0.17"/>
<stop offset="0.5" stop-color="white" stop-opacity="0.3"/>
<stop offset="0.65" stop-color="white" stop-opacity="0.46"/>
<stop offset="0.79" stop-color="white" stop-opacity="0.66"/>
<stop offset="0.94" stop-color="white" stop-opacity="0.9"/>
<stop offset="1" stop-color="white"/>
</linearGradient>
<linearGradient id="paint40_linear_22_1834" x1="17933.1" y1="15071" x2="8935.72" y2="6260.47" gradientUnits="userSpaceOnUse">
<stop stop-color="white" stop-opacity="0"/>
<stop offset="0.11" stop-color="white" stop-opacity="0.02"/>
<stop offset="0.23" stop-color="white" stop-opacity="0.07"/>
<stop offset="0.36" stop-color="white" stop-opacity="0.17"/>
<stop offset="0.5" stop-color="white" stop-opacity="0.3"/>
<stop offset="0.65" stop-color="white" stop-opacity="0.46"/>
<stop offset="0.79" stop-color="white" stop-opacity="0.66"/>
<stop offset="0.94" stop-color="white" stop-opacity="0.9"/>
<stop offset="1" stop-color="white"/>
</linearGradient>
<radialGradient id="paint41_radial_22_1834" cx="0" cy="0" r="1" gradientUnits="userSpaceOnUse" gradientTransform="translate(42.0401 51.9997) scale(4.66123 4.65589)">
<stop stop-color="#6FF6FF"/>
<stop offset="1" stop-color="#4AF4FF" stop-opacity="0"/>
</radialGradient>
<radialGradient id="paint42_radial_22_1834" cx="0" cy="0" r="1" gradientUnits="userSpaceOnUse" gradientTransform="translate(17.7013 54.866) rotate(47.2373) scale(7.15808 7.15872)">
<stop stop-color="#6FF6FF"/>
<stop offset="1" stop-color="#4AF4FF" stop-opacity="0"/>
</radialGradient>
<radialGradient id="paint43_radial_22_1834" cx="0" cy="0" r="1" gradientUnits="userSpaceOnUse" gradientTransform="translate(756.535 478.984) scale(111.261 111.133)">
<stop stop-color="white"/>
<stop offset="0.07" stop-color="#F9F9F9"/>
<stop offset="0.17" stop-color="#E8E8E8"/>
<stop offset="0.28" stop-color="#CDCDCD"/>
<stop offset="0.4" stop-color="#A7A7A7"/>
<stop offset="0.53" stop-color="#757575"/>
<stop offset="0.66" stop-color="#3A3A3A"/>
<stop offset="0.77"/>
</radialGradient>
<radialGradient id="paint44_radial_22_1834" cx="0" cy="0" r="1" gradientUnits="userSpaceOnUse" gradientTransform="translate(921.992 47.4504) scale(40.6953 40.6486)">
<stop stop-color="white"/>
<stop offset="0.07" stop-color="#F9F9F9"/>
<stop offset="0.17" stop-color="#E8E8E8"/>
<stop offset="0.28" stop-color="#CDCDCD"/>
<stop offset="0.4" stop-color="#A7A7A7"/>
<stop offset="0.53" stop-color="#757575"/>
<stop offset="0.66" stop-color="#3A3A3A"/>
<stop offset="0.77"/>
</radialGradient>
<radialGradient id="paint45_radial_22_1834" cx="0" cy="0" r="1" gradientUnits="userSpaceOnUse" gradientTransform="translate(121.799 130.781) rotate(24.9349) scale(6.58042 6.57557)">
<stop stop-color="#6FF6FF"/>
<stop offset="1" stop-color="#4AF4FF" stop-opacity="0"/>
</radialGradient>
<radialGradient id="paint46_radial_22_1834" cx="0" cy="0" r="1" gradientUnits="userSpaceOnUse" gradientTransform="translate(153.789 84.6338) rotate(47.2373) scale(5.26928 5.26976)">
<stop stop-color="#6FF6FF"/>
<stop offset="1" stop-color="#4AF4FF" stop-opacity="0"/>
</radialGradient>
<radialGradient id="paint47_radial_22_1834" cx="0" cy="0" r="1" gradientUnits="userSpaceOnUse" gradientTransform="translate(85.5264 26.5094) rotate(47.2372) scale(3.61468 3.61501)">
<stop stop-color="#6FF6FF"/>
<stop offset="1" stop-color="#4AF4FF" stop-opacity="0"/>
</radialGradient>
<radialGradient id="paint48_radial_22_1834" cx="0" cy="0" r="1" gradientUnits="userSpaceOnUse" gradientTransform="translate(126.762 26.9227) rotate(29.362) scale(6.76837 6.76435)">
<stop stop-color="#6FF6FF"/>
<stop offset="1" stop-color="#4AF4FF" stop-opacity="0"/>
</radialGradient>
<radialGradient id="paint49_radial_22_1834" cx="0" cy="0" r="1" gradientUnits="userSpaceOnUse" gradientTransform="translate(1540.44 523.036) scale(31.7232 31.6869)">
<stop stop-color="white"/>
<stop offset="0.07" stop-color="#F9F9F9"/>
<stop offset="0.17" stop-color="#E8E8E8"/>
<stop offset="0.28" stop-color="#CDCDCD"/>
<stop offset="0.4" stop-color="#A7A7A7"/>
<stop offset="0.53" stop-color="#757575"/>
<stop offset="0.66" stop-color="#3A3A3A"/>
<stop offset="0.77"/>
</radialGradient>
<radialGradient id="paint50_radial_22_1834" cx="0" cy="0" r="1" gradientUnits="userSpaceOnUse" gradientTransform="translate(141.573 65.6894) rotate(47.2373) scale(6.03294 6.03349)">
<stop stop-color="#6FF6FF"/>
<stop offset="1" stop-color="#4AF4FF" stop-opacity="0"/>
</radialGradient>
<radialGradient id="paint51_radial_22_1834" cx="0" cy="0" r="1" gradientUnits="userSpaceOnUse" gradientTransform="translate(61.7667 112.931) rotate(47.2373) scale(4.55144 4.55185)">
<stop stop-color="#6FF6FF"/>
<stop offset="1" stop-color="#4AF4FF" stop-opacity="0"/>
</radialGradient>
<radialGradient id="paint52_radial_22_1834" cx="0" cy="0" r="1" gradientUnits="userSpaceOnUse" gradientTransform="translate(62.0215 44.2324) rotate(47.2372) scale(3.59941 3.59973)">
<stop stop-color="#6FF6FF"/>
<stop offset="1" stop-color="#4AF4FF" stop-opacity="0"/>
</radialGradient>
<radialGradient id="paint53_radial_22_1834" cx="0" cy="0" r="1" gradientUnits="userSpaceOnUse" gradientTransform="translate(94.6706 13.3306) rotate(47.2373) scale(2.99356 2.99383)">
<stop stop-color="#6FF6FF"/>
<stop offset="1" stop-color="#4AF4FF" stop-opacity="0"/>
</radialGradient>
<radialGradient id="paint54_radial_22_1834" cx="0" cy="0" r="1" gradientUnits="userSpaceOnUse" gradientTransform="translate(1813.17 1281.57) scale(33.2768 33.2386)">
<stop stop-color="white"/>
<stop offset="0.07" stop-color="#F9F9F9"/>
<stop offset="0.17" stop-color="#E8E8E8"/>
<stop offset="0.28" stop-color="#CDCDCD"/>
<stop offset="0.4" stop-color="#A7A7A7"/>
<stop offset="0.53" stop-color="#757575"/>
<stop offset="0.66" stop-color="#3A3A3A"/>
<stop offset="0.77"/>
</radialGradient>
<radialGradient id="paint55_radial_22_1834" cx="0" cy="0" r="1" gradientUnits="userSpaceOnUse" gradientTransform="translate(85.4703 136.114) rotate(47.2372) scale(3.19721 3.1975)">
<stop stop-color="#6FF6FF"/>
<stop offset="1" stop-color="#4AF4FF" stop-opacity="0"/>
</radialGradient>
<radialGradient id="paint56_radial_22_1834" cx="0" cy="0" r="1" gradientUnits="userSpaceOnUse" gradientTransform="translate(68.5372 130.308) rotate(47.237) scale(2.27062 2.27083)">
<stop stop-color="#6FF6FF"/>
<stop offset="1" stop-color="#4AF4FF" stop-opacity="0"/>
</radialGradient>
<radialGradient id="paint57_radial_22_1834" cx="0" cy="0" r="1" gradientUnits="userSpaceOnUse" gradientTransform="translate(607.941 940.499) scale(10.9612 10.9486)">
<stop stop-color="white"/>
<stop offset="0.07" stop-color="#F9F9F9"/>
<stop offset="0.17" stop-color="#E8E8E8"/>
<stop offset="0.28" stop-color="#CDCDCD"/>
<stop offset="0.4" stop-color="#A7A7A7"/>
<stop offset="0.53" stop-color="#757575"/>
<stop offset="0.66" stop-color="#3A3A3A"/>
<stop offset="0.77"/>
</radialGradient>
<radialGradient id="paint58_radial_22_1834" cx="0" cy="0" r="1" gradientUnits="userSpaceOnUse" gradientTransform="translate(153.534 122.155) rotate(47.2373) scale(6.02787 6.02841)">
<stop stop-color="#6FF6FF"/>
<stop offset="1" stop-color="#4AF4FF" stop-opacity="0"/>
</radialGradient>
<radialGradient id="paint59_radial_22_1834" cx="0" cy="0" r="1" gradientUnits="userSpaceOnUse" gradientTransform="translate(3538.24 4817.11) scale(251.456 251.168)">
<stop stop-color="white"/>
<stop offset="0.07" stop-color="#F9F9F9"/>
<stop offset="0.17" stop-color="#E8E8E8"/>
<stop offset="0.28" stop-color="#CDCDCD"/>
<stop offset="0.4" stop-color="#A7A7A7"/>
<stop offset="0.53" stop-color="#757575"/>
<stop offset="0.66" stop-color="#3A3A3A"/>
<stop offset="0.77"/>
</radialGradient>
<radialGradient id="paint60_radial_22_1834" cx="0" cy="0" r="1" gradientUnits="userSpaceOnUse" gradientTransform="translate(115.971 3020.24) scale(112.971 112.842)">
<stop stop-color="white"/>
<stop offset="0.07" stop-color="#F9F9F9"/>
<stop offset="0.17" stop-color="#E8E8E8"/>
<stop offset="0.28" stop-color="#CDCDCD"/>
<stop offset="0.4" stop-color="#A7A7A7"/>
<stop offset="0.53" stop-color="#757575"/>
<stop offset="0.66" stop-color="#3A3A3A"/>
<stop offset="0.77"/>
</radialGradient>
<radialGradient id="paint61_radial_22_1834" cx="0" cy="0" r="1" gradientUnits="userSpaceOnUse" gradientTransform="translate(984.71 2815.89) scale(61.828 61.7573)">
<stop stop-color="white"/>
<stop offset="0.07" stop-color="#F9F9F9"/>
<stop offset="0.17" stop-color="#E8E8E8"/>
<stop offset="0.28" stop-color="#CDCDCD"/>
<stop offset="0.4" stop-color="#A7A7A7"/>
<stop offset="0.53" stop-color="#757575"/>
<stop offset="0.66" stop-color="#3A3A3A"/>
<stop offset="0.77"/>
</radialGradient>
</defs>
</svg>
