<?xml version="1.0" standalone="no"?>
<!DOCTYPE svg PUBLIC "-//W3C//DTD SVG 20010904//EN"
 "http://www.w3.org/TR/2001/REC-SVG-20010904/DTD/svg10.dtd">
<svg version="1.0" xmlns="http://www.w3.org/2000/svg"
 width="789.000000pt" height="416.000000pt" viewBox="0 0 789.000000 416.000000"
 preserveAspectRatio="xMidYMid meet">

<g transform="translate(0.000000,416.000000) scale(0.100000,-0.100000)"
fill="#000000" stroke="none">
<path d="M0 3759 c0 -335 2 -400 13 -390 8 6 16 8 20 5 3 -3 3 3 0 15 -3 14 0
23 11 27 9 3 16 14 16 24 0 10 7 20 15 23 8 4 21 22 29 40 8 19 19 38 25 41 6
4 11 16 11 27 0 12 7 19 20 19 22 0 60 33 60 53 0 7 23 32 50 56 28 24 50 50
50 58 0 7 5 19 10 26 6 7 19 24 31 40 11 15 28 27 37 27 10 0 23 9 29 19 8 13
19 18 33 14 25 -7 51 13 43 33 -3 10 0 12 10 8 20 -7 35 35 16 47 -11 7 -11 9
2 9 9 0 37 19 61 43 24 24 50 48 59 53 8 5 28 26 43 47 l28 37 -361 0 -361 0
0 -401z"/>
<path d="M3528 4081 c-29 -62 -24 -163 11 -237 36 -76 140 -189 230 -248 83
-55 227 -128 307 -155 185 -62 549 -137 612 -125 18 4 43 2 55 -4 12 -5 62
-28 111 -51 93 -43 107 -62 34 -43 -24 6 -106 21 -183 32 -77 12 -176 28 -220
35 -44 8 -125 19 -180 25 -55 6 -154 20 -220 31 -66 10 -124 19 -130 19 -5 0
35 -21 90 -45 55 -25 104 -50 109 -55 6 -6 24 -10 42 -10 35 0 148 -32 264
-75 50 -19 107 -31 170 -36 52 -4 115 -14 140 -21 53 -15 119 -54 139 -81 9
-13 21 -17 39 -14 54 10 242 -73 242 -108 0 -11 5 -12 26 -5 42 16 69 11 109
-20 21 -16 46 -30 56 -30 23 0 88 -66 96 -98 4 -18 8 -20 19 -11 19 16 17 33
-6 54 -42 38 -21 85 42 96 35 6 28 7 -35 6 l-79 -1 -44 46 c-32 34 -44 55 -44
77 0 16 5 33 10 36 6 3 10 15 10 25 0 10 20 36 45 56 24 21 43 39 41 41 -2 2
-38 -3 -80 -12 -89 -19 -150 -9 -161 26 -4 12 -12 18 -21 15 -8 -3 -14 1 -14
8 0 15 -84 96 -99 96 -6 0 -18 11 -27 25 -9 14 -21 25 -28 25 -18 1 -69 58
-62 69 9 14 -12 53 -25 46 -5 -4 -14 6 -20 22 -8 21 -7 30 3 38 8 5 12 18 10
29 -2 10 1 23 7 29 17 17 13 27 -8 27 -11 0 -22 4 -25 9 -3 4 -20 11 -38 15
-24 5 -29 9 -20 18 9 9 15 9 24 0 7 -7 21 -12 33 -11 12 0 15 3 6 6 -7 3 -22
14 -32 24 -11 11 -25 19 -33 19 -8 0 -17 7 -20 16 -4 10 -12 14 -22 10 -8 -3
-24 -1 -35 4 -11 6 -24 8 -31 4 -6 -4 -25 -8 -42 -10 -17 -2 -69 -7 -116 -12
-119 -12 -139 -10 -188 21 -24 16 -51 26 -60 23 -9 -3 -30 1 -46 9 -15 8 -34
15 -42 15 -14 0 -119 39 -191 71 -24 10 -55 19 -70 19 -16 0 -41 7 -58 16 -22
12 -57 16 -127 16 -71 0 -101 4 -109 14 -6 8 -20 14 -31 14 -11 0 -38 18 -60
40 -39 39 -40 41 -33 90 4 27 5 50 3 50 -1 0 -11 -18 -20 -39z"/>
<path d="M867 3603 c-14 -24 -17 -98 -6 -148 10 -43 10 -58 1 -64 -8 -4 4 -17
32 -35 25 -15 47 -34 50 -41 8 -22 117 -80 201 -108 137 -45 570 -151 840
-207 235 -48 352 -79 455 -120 126 -49 236 -85 340 -110 97 -22 297 -76 321
-85 11 -4 22 3 34 22 26 42 56 63 91 63 48 0 226 -56 241 -76 13 -17 9 -75 -8
-121 -8 -21 -7 -21 29 -6 68 28 102 20 191 -47 36 -27 61 -68 61 -100 0 -11 3
-20 6 -20 3 0 40 24 82 53 155 108 266 159 329 150 43 -7 133 -120 133 -166 0
-31 0 -31 23 13 25 50 25 59 0 39 -15 -12 -16 -12 -10 3 3 10 2 18 -2 18 -5 0
-8 19 -7 43 2 23 -2 49 -7 58 -8 12 -3 25 16 51 15 19 27 43 26 54 0 14 -5 10
-16 -13 -19 -39 -37 -44 -23 -8 21 56 -11 66 -72 23 -23 -16 -35 -18 -77 -10
-46 8 -146 0 -159 -13 -17 -16 22 -23 103 -16 50 4 97 4 105 0 8 -4 23 -10 33
-13 9 -3 17 -12 17 -21 0 -12 -14 -15 -67 -16 -38 0 -95 -4 -128 -8 -69 -10
-97 5 -94 49 1 14 -3 36 -8 50 -6 14 -12 34 -15 45 -3 18 -10 20 -73 16 -39
-2 -86 -5 -105 -7 -87 -10 -95 -9 -95 10 0 12 16 28 43 43 35 20 42 21 42 8 0
-15 1 -15 16 -1 17 17 39 22 29 7 -8 -15 13 -24 41 -17 30 8 32 26 2 27 -22 0
-22 1 -3 8 27 12 51 41 59 73 5 24 3 27 -21 30 -16 2 -47 -2 -70 -8 -23 -6
-44 -10 -47 -7 -2 3 -14 0 -25 -7 -12 -6 -47 -14 -79 -18 -36 -5 -56 -12 -54
-20 1 -7 -9 -12 -22 -12 -16 0 -27 -7 -31 -20 -4 -11 -12 -19 -18 -18 -16 3
-77 -25 -77 -35 0 -26 -162 -24 -194 3 -7 5 -25 11 -41 13 -17 2 -30 8 -30 14
0 19 -61 62 -118 83 -61 23 -68 35 -42 80 17 30 18 40 6 40 -6 0 -18 -13 -28
-30 -18 -31 -40 -42 -30 -15 11 26 -12 26 -35 0 -25 -29 -41 -31 -82 -10 -15
8 -34 15 -41 15 -8 0 -17 9 -20 21 -4 13 -12 18 -22 15 -9 -4 -17 1 -20 14 -6
24 -7 24 -34 8 -16 -10 -23 -10 -26 -2 -2 7 -13 10 -23 7 -11 -3 -20 0 -20 6
0 9 -5 9 -20 1 -17 -9 -20 -8 -20 10 0 12 -4 19 -9 15 -5 -3 -12 -1 -16 5 -3
6 1 13 9 16 36 14 13 24 -41 18 -41 -5 -54 -4 -49 4 5 8 0 12 -13 12 -12 0
-21 5 -21 11 0 5 -14 2 -30 -8 -26 -15 -32 -15 -39 -4 -5 8 -23 14 -40 15 -17
0 -31 6 -31 13 0 6 -4 15 -10 18 -10 6 -206 45 -218 44 -22 -3 -32 3 -32 21 0
11 -4 20 -10 20 -5 0 -10 15 -10 33 l0 32 -19 -24 -19 -24 -48 20 c-27 12 -69
24 -93 28 -31 5 -45 13 -48 26 -4 15 -9 17 -19 9 -19 -17 -51 4 -74 49 -19 39
-53 57 -83 45 -8 -3 -18 0 -22 6 -5 8 -11 7 -22 -2 -10 -8 -46 -12 -112 -10
-53 1 -105 -3 -117 -9 -15 -8 -31 -6 -65 6 -48 18 -114 35 -141 38 -10 1 -18
7 -18 14 0 10 -18 11 -74 6 l-74 -6 -34 36 c-32 35 -81 57 -91 40z m2919
-1089 c16 -4 24 -12 22 -23 -2 -9 -7 -15 -11 -13 -4 1 -17 2 -29 2 -13 0 -29
4 -37 9 -19 12 -6 45 15 37 9 -3 27 -9 40 -12z"/>
<path d="M2822 3234 c-19 -19 -35 -45 -36 -57 -2 -12 -6 -29 -9 -37 -14 -40
-16 -51 -11 -65 9 -21 27 -19 22 3 -7 26 18 58 34 44 21 -17 44 44 38 100 l-5
47 -33 -35z"/>
<path d="M445 2873 c-4 -21 -11 -53 -15 -71 -5 -19 -5 -43 -1 -55 5 -12 6 -27
4 -34 -2 -7 14 -25 37 -40 22 -15 62 -45 88 -66 56 -45 137 -88 231 -122 l67
-25 55 22 c39 15 77 21 139 21 75 0 96 -4 179 -37 52 -21 151 -53 220 -72 148
-40 270 -79 326 -105 94 -41 642 -197 775 -220 63 -11 142 -26 175 -34 33 -8
135 -32 226 -54 148 -36 304 -85 380 -121 19 -9 38 -35 63 -89 20 -42 36 -81
36 -87 0 -6 11 -25 24 -42 l24 -33 52 61 c29 33 51 62 49 63 -49 27 -50 28
-63 15 -7 -8 -15 -20 -18 -28 -3 -10 -18 -2 -51 29 -37 34 -51 57 -66 104 -32
104 -14 115 96 59 65 -33 87 -57 108 -119 l13 -37 39 40 c21 21 64 68 94 103
109 129 133 151 193 175 l60 24 45 -31 c25 -17 49 -35 53 -40 13 -20 66 13 81
51 18 43 73 102 95 102 9 0 30 -13 47 -29 39 -38 103 -71 136 -71 22 0 28 7
38 41 16 52 70 112 127 139 24 12 44 23 44 24 0 7 -32 66 -35 66 -3 0 -11 -12
-19 -28 -23 -45 -84 -109 -135 -141 -55 -36 -104 -40 -150 -13 -37 21 -46 57
-38 148 l6 64 -36 -36 c-105 -105 -356 -261 -433 -269 -14 -1 -50 -14 -80 -29
-88 -44 -106 -47 -135 -24 -14 11 -23 23 -20 28 6 9 -49 -10 -92 -33 -18 -9
-46 -17 -64 -17 -43 0 -177 84 -185 116 -5 20 -9 22 -20 13 -8 -6 -14 -17 -14
-23 -1 -31 -53 -67 -105 -72 -87 -10 -115 -10 -115 -3 0 5 -28 9 -62 9 -58 1
-87 6 -223 42 -47 12 -50 15 -47 43 3 25 2 27 -11 17 -12 -10 -16 -10 -20 2
-5 11 -13 13 -36 6 -16 -4 -32 -6 -35 -3 -3 3 -11 1 -18 -5 -26 -21 -85 -18
-90 4 -2 12 -16 18 -49 19 -25 2 -54 7 -65 13 -10 5 -31 15 -46 23 -16 7 -28
19 -29 28 0 11 -2 12 -6 4 -7 -18 -33 -16 -33 3 0 8 -4 13 -9 9 -5 -3 -12 -1
-16 4 -3 6 -12 8 -20 5 -8 -4 -17 1 -21 9 -4 11 -15 14 -40 10 -37 -6 -46 8
-17 27 15 9 14 10 -9 6 -15 -4 -30 -1 -33 4 -4 6 -15 8 -26 5 -13 -5 -19 -2
-19 10 0 12 -6 15 -20 10 -23 -7 -53 12 -44 27 4 6 -2 7 -15 3 -18 -5 -24 -2
-28 15 -3 11 -11 19 -18 16 -7 -2 -22 2 -34 11 -12 8 -36 13 -54 12 -42 -3
-97 11 -98 25 0 6 0 30 1 54 2 44 -9 53 -30 27 -34 -41 -132 2 -151 66 -7 21
-15 39 -19 39 -4 0 -31 22 -61 50 -41 38 -62 50 -86 50 -18 0 -50 9 -70 20
-21 11 -62 24 -92 30 -29 5 -56 12 -61 15 -5 3 -33 7 -62 9 -30 3 -74 12 -98
20 -57 20 -120 20 -146 1 -20 -15 -88 -11 -111 7 -7 5 -27 8 -45 7 -48 -4 -99
10 -133 36 -16 12 -40 25 -52 29 -19 6 -23 3 -28 -31z"/>
<path d="M2118 2863 c7 -3 16 -2 19 1 4 3 -2 6 -13 5 -11 0 -14 -3 -6 -6z"/>
<path d="M3883 2853 c-7 -2 -13 -9 -13 -15 0 -12 50 -2 65 13 10 10 -30 12
-52 2z"/>
<path d="M2181 2846 c3 -3 28 -10 55 -16 62 -12 218 -48 264 -60 19 -5 52 -13
73 -18 20 -6 49 -18 64 -27 16 -11 53 -19 97 -21 129 -8 338 -54 369 -82 18
-16 19 -15 15 13 l-3 30 -240 52 c-132 29 -289 64 -350 78 -144 32 -357 64
-344 51z"/>
<path d="M3150 2551 c11 -22 60 -55 123 -85 20 -9 37 -22 37 -28 0 -7 16 3 35
22 42 41 44 50 8 50 -35 0 -161 33 -191 49 -22 12 -23 11 -12 -8z"/>
<path d="M703 2419 c-41 -20 -42 -21 -27 -45 9 -13 21 -21 28 -17 8 5 8 3 0
-8 -17 -21 -11 -215 9 -261 20 -47 150 -179 202 -206 22 -11 104 -43 182 -71
78 -28 181 -68 230 -90 129 -57 130 -57 138 -22 3 17 24 49 45 73 37 42 39 43
101 43 35 1 73 6 84 13 18 10 17 11 -14 12 l-34 0 5 50 c4 41 2 53 -17 70 -12
11 -29 20 -38 20 -9 0 -19 4 -22 10 -8 13 -129 80 -154 85 -12 2 -26 7 -33 11
-6 4 -21 8 -32 10 -12 2 -41 8 -66 14 -25 7 -76 9 -113 6 -60 -5 -72 -3 -98
16 -23 18 -44 22 -111 23 -109 1 -199 28 -222 66 -34 58 -10 144 57 200 l22
18 -40 1 c-22 0 -59 -9 -82 -21z"/>
<path d="M4798 2230 c28 -25 56 -41 80 -45 20 -3 55 -10 77 -15 22 -5 56 -12
75 -15 19 -4 43 -9 54 -12 17 -5 17 -3 3 23 -9 16 -18 37 -21 47 -6 18 -7 17
-32 -2 -43 -34 -100 -28 -190 19 -43 22 -80 40 -83 40 -3 0 14 -18 37 -40z"/>
<path d="M5116 2237 c3 -10 9 -15 12 -12 3 3 0 11 -7 18 -10 9 -11 8 -5 -6z"/>
<path d="M5230 2095 c0 -2 23 -26 52 -52 28 -26 79 -74 112 -106 103 -100 129
-122 196 -173 36 -26 73 -59 83 -71 29 -36 356 -274 401 -292 29 -11 -23 33
-70 60 -30 17 -54 34 -54 39 0 9 56 -5 140 -35 23 -8 59 -16 79 -16 21 -1 28
-3 16 -6 -11 -3 -28 -12 -37 -20 -16 -15 -15 -17 20 -33 20 -9 78 -29 127 -44
50 -15 97 -31 105 -35 8 -4 32 -7 53 -5 31 3 37 0 37 -16 0 -11 7 -20 15 -20
8 0 15 5 15 10 0 14 26 12 38 -3 6 -7 7 -18 3 -26 -5 -7 -11 -9 -14 -4 -6 9
-134 10 -142 1 -11 -10 190 -39 290 -41 132 -2 402 10 418 20 17 11 91 10 100
-2 5 -6 7 -3 3 7 -3 11 2 21 14 28 16 8 19 7 17 -11 -2 -24 -49 -49 -92 -49
-15 0 -36 -5 -47 -11 -11 -6 -42 -12 -68 -14 -89 -4 -161 -88 -117 -134 10
-11 10 -14 0 -18 -21 -8 -14 -33 12 -45 28 -13 30 -19 13 -36 -9 -9 -4 -12 25
-12 37 0 50 -16 23 -26 -8 -3 -12 -12 -9 -20 3 -8 0 -14 -7 -14 -6 0 -9 -4 -6
-9 4 -5 -13 -16 -36 -24 l-43 -15 60 -2 c33 -1 69 -1 79 0 14 1 17 -3 13 -15
-4 -9 -1 -18 8 -21 12 -5 12 -8 0 -20 -7 -8 -18 -14 -24 -14 -24 0 -8 -18 34
-39 25 -12 45 -26 45 -30 0 -16 -13 -19 -36 -10 -19 7 -26 5 -31 -7 -3 -9 0
-20 8 -25 11 -6 11 -13 3 -27 -14 -22 -11 -90 5 -120 9 -18 9 -22 -2 -22 -8 0
-13 -9 -12 -20 2 -30 15 -37 22 -12 6 25 33 30 33 7 0 -8 -4 -15 -10 -15 -5 0
-10 -9 -10 -19 0 -11 -5 -21 -11 -23 -8 -3 -8 -10 2 -26 18 -29 32 -28 24 1
-5 19 -5 20 5 4 13 -21 -2 -47 -27 -47 -11 0 -14 -7 -10 -21 3 -13 1 -19 -6
-16 -7 2 -29 -4 -49 -14 -40 -20 -75 -27 -48 -9 13 8 12 10 -3 10 -10 0 -20
-7 -23 -15 -8 -19 -33 -19 -59 -2 -39 26 -61 29 -30 3 17 -13 41 -33 55 -44
14 -11 22 -24 18 -28 -4 -4 -13 -2 -20 3 -20 16 -88 21 -88 7 0 -9 -12 -11
-37 -8 -21 2 -32 2 -25 -2 18 -9 15 -34 -5 -34 -13 0 -14 -3 -5 -12 19 -19 14
-27 -15 -27 -51 -2 -63 -4 -63 -13 0 -4 -4 -8 -10 -8 -5 0 -10 7 -10 15 0 18
-14 19 -39 4 -15 -10 -22 -8 -39 9 -11 11 -17 23 -14 27 4 3 -1 3 -9 0 -9 -3
-22 1 -29 10 -7 8 -17 15 -22 15 -5 0 11 -23 36 -51 51 -56 53 -76 6 -40 -17
12 -30 17 -30 11 0 -5 -7 -10 -16 -10 -9 0 -12 -5 -8 -12 5 -8 2 -9 -10 -5
-10 4 -22 7 -27 7 -5 0 -9 8 -10 18 0 10 -3 12 -6 5 -2 -7 5 -26 17 -43 18
-25 19 -30 6 -30 -9 0 -16 4 -16 10 0 15 -60 42 -77 35 -9 -3 -24 2 -34 11
-14 12 -22 13 -39 4 -16 -9 -25 -9 -36 1 -11 9 -14 8 -14 -4 0 -21 -25 -28
-71 -21 -25 4 -44 2 -54 -6 -13 -10 -19 -10 -33 4 -23 20 -32 20 -46 1 -6 -9
-20 -15 -31 -14 -11 0 -75 0 -143 0 -121 -2 -225 11 -250 32 -7 5 -15 7 -18 4
-3 -3 -19 -1 -35 5 -22 7 -33 7 -44 -2 -11 -9 -19 -9 -28 -2 -7 6 -22 11 -32
11 -35 0 -85 8 -92 15 -3 3 -19 6 -35 6 -16 0 -31 6 -34 15 -4 8 -12 15 -20
15 -8 0 -14 4 -14 9 0 9 -33 22 -65 25 -49 5 -102 19 -143 38 -36 17 -45 19
-52 8 -7 -12 -11 -12 -25 0 -9 7 -42 14 -73 15 -133 5 -187 37 -198 119 l-7
48 -24 -26 c-29 -31 -37 -33 -30 -5 9 32 -55 86 -82 70 -7 -5 -29 -5 -49 0
-20 4 -40 5 -44 3 -16 -10 -114 45 -141 80 -33 43 -57 44 -167 8 -8 -2 -31 -4
-52 -3 -26 2 -39 -3 -46 -15 -9 -16 -12 -15 -42 9 -18 16 -44 27 -60 27 -16 0
-35 6 -42 14 -9 9 -21 11 -43 5 -19 -6 -31 -5 -33 1 -2 5 -10 10 -17 10 -7 0
-33 11 -56 25 -24 14 -62 30 -84 35 -38 10 -70 22 -106 40 -9 5 -21 4 -26 -1
-5 -5 -24 -4 -48 5 -22 8 -60 20 -85 26 -93 26 -132 44 -140 65 -5 13 -24 26
-49 34 -23 6 -41 16 -41 20 0 12 -72 20 -91 10 -12 -6 -25 -2 -42 11 -14 11
-32 20 -41 20 -9 0 -44 11 -78 25 -34 14 -70 25 -80 25 -10 0 -18 4 -18 9 0 4
-16 11 -36 14 -20 3 -44 12 -53 20 -9 7 -36 19 -60 26 -24 7 -50 18 -58 24
-49 39 -63 58 -63 86 0 23 -4 29 -15 25 -10 -4 -15 0 -15 11 0 12 -5 15 -21
10 -27 -9 -69 13 -69 35 0 9 -18 32 -41 50 -34 29 -38 36 -25 45 13 10 10 14
-14 28 -16 10 -31 25 -35 35 -3 9 -42 40 -86 67 -44 28 -91 61 -105 74 -33 32
-83 41 -254 45 -162 4 -181 8 -262 44 -45 21 -59 32 -63 54 -4 15 -11 28 -17
28 -6 0 -7 -8 -3 -17 3 -10 11 -40 17 -68 8 -32 23 -63 44 -85 18 -19 60 -65
94 -102 34 -36 98 -92 142 -125 45 -32 118 -85 162 -117 122 -90 238 -157 366
-211 63 -27 212 -98 330 -158 188 -95 254 -122 520 -213 455 -157 600 -215
871 -350 135 -68 263 -129 285 -138 21 -8 70 -26 107 -40 l68 -26 1674 0 1675
0 0 678 0 677 -42 22 c-69 36 -95 39 -129 14 -19 -14 -37 -20 -49 -16 -12 4
-20 2 -20 -4 0 -6 5 -11 10 -11 6 0 10 -7 10 -15 0 -11 7 -14 25 -9 21 5 25 3
25 -14 0 -18 -6 -21 -41 -20 -26 0 -39 4 -36 12 3 8 -12 10 -54 6 -59 -6 -79
1 -79 27 0 14 -39 33 -67 33 -8 0 -17 -8 -20 -19 -4 -14 -24 -22 -91 -35 -48
-9 -117 -24 -155 -32 -74 -17 -162 -17 -189 0 -13 8 -18 24 -18 53 0 23 -5 45
-11 48 -6 4 -8 13 -5 20 2 7 -1 18 -7 24 -8 8 -2 12 21 17 34 7 54 24 28 24
-23 0 -19 27 5 33 11 3 23 15 26 26 6 23 6 23 46 26 24 2 28 -1 23 -17 -6 -25
3 -50 16 -42 7 4 7 9 0 13 -6 3 15 7 47 8 65 1 120 24 117 49 -1 18 16 30 57
39 23 5 26 9 21 30 -5 20 0 28 26 44 18 11 39 17 46 14 8 -3 14 0 14 6 0 6 11
11 25 11 18 0 25 5 25 19 0 22 27 36 33 18 3 -8 13 -4 29 11 24 21 77 30 92
15 10 -11 66 -12 66 -3 0 5 -12 17 -26 27 l-26 19 34 26 c18 14 56 37 83 52
l50 26 -80 -6 c-44 -4 -88 -11 -99 -16 -11 -6 -21 -6 -25 -1 -8 12 -59 10
-101 -5 -19 -7 -54 -14 -76 -16 -23 -2 -52 -11 -65 -19 -13 -8 -41 -18 -61
-21 -21 -4 -40 -12 -44 -18 -5 -7 -2 -9 9 -5 9 3 18 -1 21 -10 5 -12 15 -14
42 -8 21 3 41 2 49 -5 13 -11 9 -50 -6 -50 -4 0 -15 -16 -24 -34 -22 -45 -78
-76 -119 -65 -16 5 -32 12 -35 16 -3 5 -22 14 -42 21 -40 14 -89 -1 -89 -28 0
-8 -12 -24 -27 -34 -20 -15 -30 -17 -43 -8 -10 6 -23 7 -31 2 -8 -6 -16 -4
-21 3 -6 9 -10 9 -17 -2 -13 -20 -123 -5 -150 20 -22 21 -41 18 -41 -7 0 -12
-4 -12 -20 -4 -14 7 -20 7 -20 0 0 -15 -22 -12 -65 10 -22 11 -45 20 -52 20
-7 0 -13 6 -13 14 0 8 -7 16 -15 20 -8 3 -15 12 -15 20 0 12 -20 26 -37 26 -2
0 -2 -12 1 -27 6 -26 4 -28 -24 -29 -22 -1 -28 2 -21 9 6 6 11 14 11 18 0 9
-48 4 -79 -8 l-24 -10 24 -17 24 -16 -32 6 c-18 3 -40 3 -50 0 -15 -6 -15 -8
-3 -17 11 -7 6 -8 -17 -4 -21 4 -33 3 -33 -4 0 -6 -10 -11 -21 -11 -17 0 -20
5 -16 21 6 21 -12 49 -31 49 -5 0 -15 7 -22 15 -18 22 -48 18 -74 -10 -17 -18
-25 -22 -29 -12 -5 14 -73 17 -94 4 -7 -4 -29 10 -55 36 -50 51 -176 116 -188
97 -6 -9 -13 -9 -28 -1 -11 6 -26 11 -33 11 -21 0 7 -25 56 -49 25 -12 45 -29
45 -37 0 -8 -4 -14 -9 -14 -8 0 -61 38 -71 51 -9 12 -82 39 -109 40 -14 0 -20
3 -13 6 9 3 5 10 -12 19 -14 8 -38 21 -53 29 -16 8 -37 15 -48 15 -28 1 -59
26 -52 43 4 10 0 13 -13 10 -12 -3 -22 3 -30 18 -7 12 -26 34 -43 48 -34 29
-117 83 -117 76z m328 -237 c8 -10 3 -13 -19 -14 -26 -1 -27 0 -11 12 9 7 18
14 18 14 1 0 6 -6 12 -12z m232 -48 c0 -5 8 -10 17 -10 9 0 14 -3 10 -6 -8 -8
-47 5 -47 17 0 5 5 9 10 9 6 0 10 -4 10 -10z m90 -96 c0 -9 -44 14 -48 25 -3
8 5 7 22 -4 14 -10 26 -19 26 -21z m290 -4 c0 -5 -4 -10 -10 -10 -5 0 -10 5
-10 10 0 6 5 10 10 10 6 0 10 -4 10 -10z m-50 -59 c19 -5 47 -12 63 -15 15 -4
27 -11 27 -17 0 -15 -42 -6 -100 20 -49 21 -45 26 10 12z m1105 -55 c3 -3 2
-4 -1 -1 -4 2 -12 -2 -20 -9 -13 -14 -64 -10 -64 4 0 5 -10 10 -22 12 -13 2 5
3 40 2 34 0 65 -4 67 -8z m-628 -8 c15 -22 17 -71 1 -65 -7 2 -12 9 -11 15 1
6 -8 9 -21 8 -17 -2 -23 1 -19 10 7 19 -12 17 -32 -2 -15 -16 -18 -15 -38 5
-19 19 -20 23 -7 31 22 14 116 12 127 -2z m73 2 c0 -5 -7 -10 -16 -10 -8 0
-12 5 -9 10 3 6 10 10 16 10 5 0 9 -4 9 -10z m100 -11 c0 -5 -7 -9 -15 -9 -15
0 -20 12 -9 23 8 8 24 -1 24 -14z m-47 -3 c4 -10 0 -12 -14 -9 -22 6 -26 23
-5 23 8 0 16 -6 19 -14z m64 -11 c0 -8 -7 -15 -15 -15 -12 0 -12 3 -2 15 7 8
13 15 15 15 1 0 2 -7 2 -15z m130 -1 c-3 -3 -12 -4 -19 -1 -8 3 -5 6 6 6 11 1
17 -2 13 -5z m-406 -55 c12 -20 -40 -41 -61 -25 -14 11 -47 28 -80 40 -8 3 18
4 59 2 47 -2 76 -8 82 -17z m256 -55 c-3 -3 -12 -4 -19 -1 -8 3 -5 6 6 6 11 1
17 -2 13 -5z m537 -195 c-4 -7 1 -7 16 1 18 10 24 9 31 -1 12 -19 -10 -29 -57
-25 -53 5 -52 5 -24 21 30 17 44 19 34 4z m-227 -525 c-3 -3 -12 -4 -19 -1 -8
3 -5 6 6 6 11 1 17 -2 13 -5z m63 -414 c0 -5 -4 -10 -10 -10 -5 0 -10 5 -10
10 0 6 5 10 10 10 6 0 10 -4 10 -10z m-160 -120 c0 -5 -2 -10 -4 -10 -3 0 -8
5 -11 10 -3 6 -1 10 4 10 6 0 11 -4 11 -10z"/>
<path d="M5616 2005 c-17 -13 -17 -14 2 -26 11 -7 18 -18 15 -25 -5 -13 39
-48 81 -64 14 -5 26 -14 26 -20 0 -14 -11 -12 -34 5 -11 8 -27 15 -35 14 -10
0 -7 -4 7 -10 13 -5 30 -16 38 -24 19 -18 41 -19 47 -2 3 10 9 10 26 0 25 -16
31 -16 31 -3 0 6 -29 25 -65 42 -36 18 -60 35 -54 39 14 9 3 29 -16 29 -9 0
-12 -6 -8 -16 5 -14 3 -15 -17 -4 -16 9 -19 14 -11 20 9 5 9 9 -3 13 -28 11
-18 28 12 21 29 -7 28 -3 -3 14 -15 7 -25 7 -39 -3z"/>
<path d="M5246 1971 c-3 -5 1 -14 8 -20 12 -10 13 -8 9 8 -6 23 -9 25 -17 12z"/>
<path d="M7834 1959 c-9 -16 2 -22 21 -11 15 8 16 10 1 15 -8 3 -18 2 -22 -4z"/>
<path d="M4815 1951 c-18 -17 -129 -51 -167 -51 -21 0 -55 7 -74 15 -27 11
-35 12 -31 2 15 -40 28 -134 22 -165 -11 -60 -51 -124 -100 -162 -12 -10 -9
-2 9 23 34 45 17 50 -35 11 -19 -14 -58 -37 -88 -51 -47 -21 -66 -24 -130 -20
-42 2 -91 9 -110 15 -42 14 -31 2 24 -27 27 -14 33 -21 20 -21 -11 0 -43 15
-70 33 -39 25 -57 47 -84 99 -20 39 -36 88 -39 117 -2 28 -7 51 -11 50 -3 0
-49 -50 -101 -112 -134 -157 -172 -195 -178 -177 -5 16 -59 70 -70 70 -4 0
-36 -25 -72 -55 -35 -30 -67 -55 -72 -55 -4 0 -8 -32 -10 -72 l-3 -72 -40 -23
c-30 -17 -50 -22 -82 -18 -24 3 -43 2 -43 -3 0 -9 47 -27 254 -98 210 -72 250
-93 319 -167 60 -65 75 -66 31 -1 -44 64 -56 100 -39 114 17 14 11 32 -9 24
-15 -6 -64 31 -55 41 4 3 25 -2 48 -11 63 -25 143 -10 222 42 25 16 27 16 60
-7 67 -48 101 -85 132 -144 18 -33 53 -82 79 -108 45 -48 47 -49 89 -42 24 4
55 16 69 27 29 21 70 17 91 -8 6 -8 15 -14 20 -14 18 0 69 -54 64 -68 -3 -8 3
-16 15 -19 13 -3 20 -14 20 -29 0 -28 19 -42 31 -23 6 9 9 -3 9 -33 0 -52 7
-57 45 -32 21 14 24 14 33 -1 7 -14 25 -17 95 -17 79 -1 90 2 127 27 54 38 69
78 79 206 8 114 30 171 67 177 10 1 30 19 43 38 14 20 31 33 40 32 10 -2 27
14 47 47 19 32 38 51 52 53 12 2 20 8 16 13 -3 5 6 25 20 44 l27 34 -31 60
c-20 41 -31 79 -34 123 -3 49 -8 64 -22 67 -12 2 -14 5 -4 11 9 6 8 13 -5 34
-22 33 -11 33 31 1 26 -20 33 -22 38 -10 3 9 -8 25 -30 41 -22 17 -31 30 -24
34 8 5 6 13 -7 25 -10 10 -23 30 -28 44 l-11 25 -23 -32 c-26 -37 -92 -75
-115 -66 -8 3 -57 -4 -109 -16 -51 -12 -107 -20 -123 -17 l-29 4 33 2 c36 1
38 6 17 48 -26 52 -35 54 -100 27 -33 -13 -64 -30 -70 -37 -12 -15 -70 -17
-69 -2 1 11 16 20 127 70 96 45 102 67 11 40 -8 -2 -10 11 -6 41 4 42 -3 54
-23 35z m171 -284 l27 -24 -22 -22 c-13 -13 -25 -21 -27 -18 -3 2 -25 1 -49
-4 -51 -9 -95 2 -95 25 0 23 70 66 107 66 19 0 43 -9 59 -23z m-1009 -108 c21
-18 16 -26 -30 -54 -53 -31 -96 -32 -120 -4 -24 28 -13 55 31 78 33 17 40 18
71 5 19 -8 40 -19 48 -25z m679 16 c16 -14 32 -25 35 -25 4 0 10 -17 13 -37 4
-21 15 -60 26 -88 10 -27 21 -63 25 -78 5 -25 9 -28 31 -23 15 4 40 2 58 -3
17 -6 58 -13 91 -15 33 -2 63 -5 67 -5 4 -1 3 -13 -3 -28 -8 -22 -7 -30 6 -40
9 -6 23 -9 30 -7 20 8 65 -92 65 -143 0 -37 -6 -49 -38 -81 -89 -89 -208 -64
-363 75 -83 75 -128 124 -176 194 -35 50 -52 99 -34 99 6 0 11 11 11 23 0 25
49 132 82 180 24 33 37 34 74 2z m-262 -157 c14 -13 43 -59 65 -103 41 -80 52
-134 29 -132 -30 3 -195 -27 -214 -39 -19 -11 -22 -9 -42 31 -12 25 -28 75
-37 112 -15 64 -15 69 3 93 44 59 149 80 196 38z"/>
<path d="M5725 1930 c3 -5 13 -10 21 -10 8 0 14 5 14 10 0 6 -9 10 -21 10 -11
0 -17 -4 -14 -10z"/>
<path d="M5620 1875 c0 -2 10 -10 23 -16 20 -11 21 -11 8 4 -13 16 -31 23 -31
12z"/>
<path d="M5835 1840 c3 -5 13 -10 21 -10 8 0 12 5 9 10 -3 6 -13 10 -21 10 -8
0 -12 -4 -9 -10z"/>
<path d="M6105 1730 c3 -5 8 -10 11 -10 2 0 4 5 4 10 0 6 -5 10 -11 10 -5 0
-7 -4 -4 -10z"/>
<path d="M1558 1719 c-10 -5 -18 -17 -18 -25 0 -19 16 -10 30 17 12 22 11 22
-12 8z"/>
<path d="M6695 1720 c-17 -7 -15 -9 10 -8 17 0 41 4 55 8 23 7 22 8 -10 8 -19
0 -44 -3 -55 -8z"/>
<path d="M6275 1670 c3 -5 10 -10 16 -10 5 0 9 5 9 10 0 6 -7 10 -16 10 -8 0
-12 -4 -9 -10z"/>
<path d="M7018 1493 c7 -3 16 -2 19 1 4 3 -2 6 -13 5 -11 0 -14 -3 -6 -6z"/>
<path d="M7030 1464 c0 -12 6 -15 23 -10 12 3 28 6 35 6 6 0 12 5 12 10 0 6
-16 10 -35 10 -26 0 -35 -4 -35 -16z"/>
<path d="M6142 1358 c2 -7 22 -22 44 -32 21 -11 45 -26 52 -33 7 -7 22 -13 31
-13 10 0 35 -7 54 -15 20 -8 44 -15 53 -15 13 0 14 3 4 15 -7 8 -21 15 -31 15
-26 0 -111 35 -159 65 -45 28 -53 30 -48 13z"/>
<path d="M3225 1320 c11 -5 27 -9 35 -9 9 0 8 4 -5 9 -11 5 -27 9 -35 9 -9 0
-8 -4 5 -9z"/>
<path d="M6870 929 c-22 -6 -20 -7 13 -8 38 -1 47 3 25 11 -7 3 -24 1 -38 -3z"/>
</g>
</svg>
