<svg width="256" height="256" viewBox="0 0 256 256" fill="none" xmlns="http://www.w3.org/2000/svg">
<g clip-path="url(#clip0_1500_5574)">
<path d="M242.702 171.302C218.435 228.686 153.796 260.833 97.74 252.161C88.6187 250.75 63.6117 246.547 41.4722 226.717C-1.14768 188.544 -10.2625 112.957 24.1183 59.6878C49.1409 20.9171 93.9976 -1.05987 136.62 0.0394873C145.801 0.276639 180.986 1.7354 211.908 27.3432C216.449 31.1046 226.466 40.0419 235.495 54.2214C256.695 87.5164 258.517 133.904 242.702 171.302Z" fill="url(#paint0_linear_1500_5574)"/>
<path d="M110.787 114.124C110.759 112.668 109.585 111.471 108.145 111.471H53.7252C52.2663 111.471 50.833 112.731 50.833 114.206V246.087C50.833 246.797 51.2375 247.478 51.7345 247.979C52.2315 248.48 52.9683 248.76 53.6702 248.759L110.57 248.601C111.278 248.6 111.971 248.31 112.466 247.798C112.961 247.286 113.24 246.579 113.227 245.863L110.787 114.122L110.787 114.124Z" fill="url(#paint1_linear_1500_5574)"/>
<g opacity="0.5">
<g opacity="0.5">
<path opacity="0.5" d="M70.7093 127.011L55.2061 126.99L55.0835 118.955H70.6013L70.7093 127.011Z" fill="white"/>
<path opacity="0.5" d="M88.087 127.008L72.5993 126.987L72.4932 118.955H87.9954L88.087 127.008Z" fill="white"/>
<path opacity="0.5" d="M105.446 127.004L89.974 126.983L89.8853 118.955H105.372L105.446 127.004Z" fill="white"/>
</g>
<g opacity="0.5">
<path opacity="0.5" d="M70.9036 141.436L55.4278 141.445L55.3052 133.462L70.7956 133.456L70.9036 141.436Z" fill="white"/>
<path opacity="0.5" d="M88.2499 141.424L72.7898 141.434L72.6836 133.455L88.1593 133.448L88.2499 141.424Z" fill="white"/>
<path opacity="0.5" d="M105.58 141.413L90.1347 141.423L90.0459 133.448L105.506 133.441L105.58 141.413Z" fill="white"/>
</g>
<g opacity="0.5">
<path opacity="0.5" d="M71.0963 155.761L55.6471 155.778L55.5244 147.822L70.9892 147.809L71.0963 155.761Z" fill="white"/>
<path opacity="0.5" d="M88.4124 155.743L72.9788 155.759L72.8735 147.807L88.3218 147.794L88.4124 155.743Z" fill="white"/>
<path opacity="0.5" d="M105.712 155.724L90.2943 155.741L90.2056 147.793L105.638 147.78L105.712 155.724Z" fill="white"/>
</g>
<g opacity="0.5">
<path opacity="0.5" d="M71.2885 170.036L55.8659 170.059L55.7441 162.131L71.1814 162.112L71.2885 170.036Z" fill="white"/>
<path opacity="0.5" d="M88.5753 170.011L73.1682 170.033L73.063 162.109L88.4847 162.091L88.5753 170.011Z" fill="white"/>
<path opacity="0.5" d="M105.844 169.986L90.4526 170.009L90.3647 162.088L105.771 162.069L105.844 169.986Z" fill="white"/>
</g>
<g opacity="0.5">
<path opacity="0.5" d="M71.4799 184.263L56.0847 184.292L55.9639 176.391L71.3737 176.365L71.4799 184.263Z" fill="white"/>
<path opacity="0.5" d="M88.7369 184.23L73.3573 184.259L73.2529 176.362L88.6472 176.336L88.7369 184.23Z" fill="white"/>
<path opacity="0.5" d="M105.976 184.197L90.6118 184.227L90.5239 176.334L105.903 176.308L105.976 184.197Z" fill="white"/>
</g>
<g opacity="0.5">
<path opacity="0.5" d="M71.6711 198.439L56.3025 198.475L56.1816 190.601L71.5649 190.569L71.6711 198.439Z" fill="white"/>
<path opacity="0.5" d="M88.8988 198.4L73.5448 198.436L73.4404 190.565L88.8091 190.534L88.8988 198.4Z" fill="white"/>
<path opacity="0.5" d="M106.108 198.36L90.7695 198.396L90.6816 190.53L106.035 190.498L106.108 198.36Z" fill="white"/>
</g>
<g opacity="0.5">
<path opacity="0.5" d="M71.8614 212.568L56.5193 212.609L56.3994 204.763L71.7562 204.725L71.8614 212.568Z" fill="white"/>
<path opacity="0.5" d="M89.0588 212.521L73.7323 212.563L73.6279 204.72L88.9701 204.682L89.0588 212.521Z" fill="white"/>
<path opacity="0.5" d="M106.239 212.475L90.9268 212.517L90.8398 204.678L106.166 204.639L106.239 212.475Z" fill="white"/>
</g>
<g opacity="0.5">
<path opacity="0.5" d="M72.0521 226.647L56.7356 226.695L56.6157 218.876L71.9469 218.832L72.0521 226.647Z" fill="white"/>
<path opacity="0.5" d="M89.2193 226.594L73.9184 226.642L73.8149 218.826L89.1305 218.782L89.2193 226.594Z" fill="white"/>
<path opacity="0.5" d="M106.37 226.541L91.0845 226.589L90.9976 218.776L106.298 218.732L106.37 226.541Z" fill="white"/>
</g>
<g opacity="0.5">
<path opacity="0.5" d="M72.2405 240.679L56.9514 240.733L56.8315 232.94L72.1361 232.89L72.2405 240.679Z" fill="white"/>
<path opacity="0.5" d="M89.3783 240.618L74.104 240.673L74.0015 232.883L89.2905 232.834L89.3783 240.618Z" fill="white"/>
<path opacity="0.5" d="M106.5 240.559L91.2408 240.612L91.1538 232.827L106.427 232.777L106.5 240.559Z" fill="white"/>
</g>
</g>
<path d="M75.5636 143.663C75.5297 142.516 74.0791 141.573 72.2999 141.573H5.05648C3.25347 141.573 1.4834 142.566 1.4834 143.729V247.631C1.4834 248.19 1.98312 248.726 2.59724 249.121C3.21137 249.516 4.12111 249.737 4.98876 249.735L75.2945 249.611C76.1695 249.609 77.0261 249.381 77.6375 248.978C78.2498 248.575 78.5948 248.018 78.5784 247.454L75.5636 143.663V143.663Z" fill="url(#paint2_linear_1500_5574)"/>
<g opacity="0.5">
<g opacity="0.5">
<path opacity="0.5" d="M26.0417 153.817L6.88582 153.8L6.73389 147.469H25.909L26.0417 153.817Z" fill="white"/>
<path opacity="0.5" d="M47.5141 153.813L28.3765 153.797L28.2456 147.469H47.4015L47.5141 153.813Z" fill="white"/>
<path opacity="0.5" d="M68.9636 153.81L49.8462 153.794L49.7363 147.469H68.8721L68.9636 153.81Z" fill="white"/>
</g>
<g opacity="0.5">
<path opacity="0.5" d="M26.2813 165.181L7.15834 165.188L7.00732 158.899L26.1486 158.894L26.2813 165.181Z" fill="white"/>
<path opacity="0.5" d="M47.7151 165.172L28.6123 165.18L28.4814 158.893L47.6035 158.888L47.7151 165.172Z" fill="white"/>
<path opacity="0.5" d="M69.1279 165.162L50.0443 165.171L49.9336 158.887L69.0364 158.883L69.1279 165.162Z" fill="white"/>
</g>
<g opacity="0.5">
<path opacity="0.5" d="M26.5203 176.467L7.43031 176.48L7.2793 170.212L26.3876 170.202L26.5203 176.467Z" fill="white"/>
<path opacity="0.5" d="M47.9166 176.452L28.8468 176.465L28.7168 170.201L47.805 170.191L47.9166 176.452Z" fill="white"/>
<path opacity="0.5" d="M69.2932 176.437L50.2417 176.45L50.1318 170.189L69.2017 170.179L69.2932 176.437Z" fill="white"/>
</g>
<g opacity="0.5">
<path opacity="0.5" d="M26.7575 187.713L7.70137 187.732L7.55127 181.486L26.6257 181.47L26.7575 187.713Z" fill="white"/>
<path opacity="0.5" d="M48.1171 187.693L29.0802 187.711L28.9502 181.468L48.0063 181.453L48.1171 187.693Z" fill="white"/>
<path opacity="0.5" d="M69.4562 187.674L50.4385 187.691L50.3296 181.452L69.3656 181.436L69.4562 187.674Z" fill="white"/>
</g>
<g opacity="0.5">
<path opacity="0.5" d="M26.9946 198.922L7.97139 198.945L7.82129 192.72L26.8628 192.7L26.9946 198.922Z" fill="white"/>
<path opacity="0.5" d="M48.3175 198.896L29.3136 198.919L29.1836 192.697L48.2068 192.677L48.3175 198.896Z" fill="white"/>
<path opacity="0.5" d="M69.6191 198.87L50.6343 198.893L50.5254 192.675L69.5285 192.655L69.6191 198.87Z" fill="white"/>
</g>
<g opacity="0.5">
<path opacity="0.5" d="M27.2307 210.091L8.24049 210.118L8.09131 203.916L27.0999 203.89L27.2307 210.091Z" fill="white"/>
<path opacity="0.5" d="M48.5175 210.06L29.5456 210.087L29.4165 203.887L48.4068 203.863L48.5175 210.06Z" fill="white"/>
<path opacity="0.5" d="M69.7819 210.028L50.8292 210.056L50.7212 203.86L69.6913 203.834L69.7819 210.028Z" fill="white"/>
</g>
<g opacity="0.5">
<path opacity="0.5" d="M27.4659 221.221L8.50856 221.254L8.35938 215.073L27.335 215.042L27.4659 221.221Z" fill="white"/>
<path opacity="0.5" d="M48.7151 221.186L29.7771 221.218L29.6489 215.039L48.6053 215.01L48.7151 221.186Z" fill="white"/>
<path opacity="0.5" d="M69.9438 221.149L51.024 221.181L50.916 215.006L69.8532 214.975L69.9438 221.149Z" fill="white"/>
</g>
<g opacity="0.5">
<path opacity="0.5" d="M27.7001 232.314L8.77571 232.352L8.62744 226.191L27.5701 226.156L27.7001 232.314Z" fill="white"/>
<path opacity="0.5" d="M48.9136 232.272L30.0075 232.31L29.8794 226.152L48.8037 226.117L48.9136 232.272Z" fill="white"/>
<path opacity="0.5" d="M70.1047 232.231L51.2169 232.267L51.1099 226.113L70.015 226.078L70.1047 232.231Z" fill="white"/>
</g>
<g opacity="0.5">
<path opacity="0.5" d="M27.9346 243.369L9.04231 243.412L8.89404 237.272L27.8047 237.232L27.9346 243.369Z" fill="white"/>
<path opacity="0.5" d="M49.1106 243.322L30.2375 243.364L30.1094 237.227L49.0008 237.188L49.1106 243.322Z" fill="white"/>
<path opacity="0.5" d="M70.266 243.274L51.4112 243.316L51.3032 237.183L70.1763 237.143L70.266 243.274Z" fill="white"/>
</g>
</g>
<path d="M163.973 162.935C163.953 162.339 163.059 161.859 161.963 161.859H95.4945C94.3843 161.859 93.2046 162.353 93.2046 162.958V247.402C93.2046 247.853 93.6741 248.286 94.2608 248.604C94.8474 248.923 95.7133 249.101 96.5425 249.1L163.738 248.999C164.575 248.998 165.392 248.815 165.977 248.489C166.562 248.164 166.891 247.724 166.876 247.269L163.973 162.934V162.935Z" fill="url(#paint3_linear_1500_5574)"/>
<g opacity="0.77">
<g style="mix-blend-mode:overlay" opacity="0.77">
<path d="M125.801 167.843L104.058 167.802L104.066 166.322L125.785 166.358L125.801 167.843Z" fill="white"/>
</g>
<g style="mix-blend-mode:overlay" opacity="0.77">
<path d="M125.861 173.298L104.028 173.244L104.036 171.75L125.844 171.801L125.861 173.298Z" fill="white"/>
</g>
<g style="mix-blend-mode:overlay" opacity="0.77">
<path d="M125.921 178.798L103.998 178.73L104.006 177.225L125.904 177.289L125.921 178.798Z" fill="white"/>
</g>
<g style="mix-blend-mode:overlay" opacity="0.77">
<path d="M125.982 184.343L103.968 184.262L103.976 182.744L125.965 182.822L125.982 184.343Z" fill="white"/>
</g>
<g style="mix-blend-mode:overlay" opacity="0.77">
<path d="M126.042 189.935L103.938 189.84L103.946 188.31L126.026 188.401L126.042 189.935Z" fill="white"/>
</g>
<g style="mix-blend-mode:overlay" opacity="0.77">
<path d="M126.167 201.259L103.875 201.136L103.884 199.579L126.149 199.699L126.167 201.259Z" fill="white"/>
</g>
<g style="mix-blend-mode:overlay" opacity="0.77">
<path d="M126.356 218.608L103.781 218.439L103.789 216.843L126.339 217.008L126.356 218.608Z" fill="white"/>
</g>
<g style="mix-blend-mode:overlay" opacity="0.77">
<path d="M126.104 195.574L103.906 195.465L103.915 193.92L126.087 194.026L126.104 195.574Z" fill="white"/>
</g>
<g style="mix-blend-mode:overlay" opacity="0.77">
<path d="M126.229 206.993L103.844 206.855L103.853 205.285L126.211 205.421L126.229 206.993Z" fill="white"/>
</g>
<g style="mix-blend-mode:overlay" opacity="0.77">
<path d="M126.292 212.776L103.813 212.622L103.821 211.039L126.275 211.189L126.292 212.776Z" fill="white"/>
</g>
<g style="mix-blend-mode:overlay" opacity="0.77">
<path d="M126.42 224.489L103.749 224.305L103.757 222.696L126.403 222.875L126.42 224.489Z" fill="white"/>
</g>
<g style="mix-blend-mode:overlay" opacity="0.77">
<path d="M126.485 230.422L103.716 230.222L103.725 228.598L126.467 228.794L126.485 230.422Z" fill="white"/>
</g>
<g style="mix-blend-mode:overlay" opacity="0.77">
<path d="M126.55 236.405L103.684 236.189L103.692 234.552L126.532 234.763L126.55 236.405Z" fill="white"/>
</g>
<g style="mix-blend-mode:overlay" opacity="0.77">
<path d="M126.616 242.439L103.651 242.207L103.659 240.556L126.599 240.784L126.616 242.439Z" fill="white"/>
</g>
<g style="mix-blend-mode:overlay" opacity="0.77">
<path d="M154.308 167.897L132.429 167.856L132.405 166.37L154.26 166.408L154.308 167.897Z" fill="white"/>
</g>
<g style="mix-blend-mode:overlay" opacity="0.77">
<path d="M154.486 173.369L132.515 173.315L132.492 171.817L154.437 171.868L154.486 173.369Z" fill="white"/>
</g>
<g style="mix-blend-mode:overlay" opacity="0.77">
<path d="M154.664 178.887L132.603 178.818L132.579 177.308L154.616 177.373L154.664 178.887Z" fill="white"/>
</g>
<g style="mix-blend-mode:overlay" opacity="0.77">
<path d="M154.845 184.45L132.691 184.368L132.667 182.845L154.795 182.923L154.845 184.45Z" fill="white"/>
</g>
<g style="mix-blend-mode:overlay" opacity="0.77">
<path d="M155.027 190.061L132.781 189.964L132.756 188.429L154.977 188.521L155.027 190.061Z" fill="white"/>
</g>
<g style="mix-blend-mode:overlay" opacity="0.77">
<path d="M155.396 201.422L132.961 201.297L132.937 199.736L155.344 199.857L155.396 201.422Z" fill="white"/>
</g>
<g style="mix-blend-mode:overlay" opacity="0.77">
<path d="M155.96 218.829L133.238 218.66L133.212 217.057L155.908 217.223L155.96 218.829Z" fill="white"/>
</g>
<g style="mix-blend-mode:overlay" opacity="0.77">
<path d="M155.211 195.717L132.871 195.607L132.846 194.058L155.161 194.165L155.211 195.717Z" fill="white"/>
</g>
<g style="mix-blend-mode:overlay" opacity="0.77">
<path d="M155.582 207.175L133.053 207.036L133.027 205.461L155.531 205.597L155.582 207.175Z" fill="white"/>
</g>
<g style="mix-blend-mode:overlay" opacity="0.77">
<path d="M155.77 212.977L133.144 212.823L133.12 211.235L155.719 211.385L155.77 212.977Z" fill="white"/>
</g>
<g style="mix-blend-mode:overlay" opacity="0.77">
<path d="M156.152 224.731L133.331 224.545L133.306 222.93L156.099 223.111L156.152 224.731Z" fill="white"/>
</g>
<g style="mix-blend-mode:overlay" opacity="0.77">
<path d="M156.345 230.683L133.426 230.482L133.4 228.853L156.292 229.049L156.345 230.683Z" fill="white"/>
</g>
<g style="mix-blend-mode:overlay" opacity="0.77">
<path d="M156.54 236.687L133.522 236.47L133.495 234.827L156.486 235.04L156.54 236.687Z" fill="white"/>
</g>
<g style="mix-blend-mode:overlay" opacity="0.77">
<path d="M156.736 242.743L133.618 242.51L133.591 240.853L156.682 241.082L156.736 242.743Z" fill="white"/>
</g>
</g>
<path d="M125.728 252.041C87.526 257.354 48.0518 257.413 7.16817 251.656C2.18654 250.955 -1.04516 246.009 0.309386 241.143L2.5929 232.94C3.30587 230.378 5.53813 228.533 8.17951 228.33C48.3492 225.251 87.59 223.874 124.173 227.37C126.639 227.605 128.778 229.178 129.728 231.477L132.983 239.359C135.293 244.952 131.701 251.21 125.728 252.04V252.041Z" fill="url(#paint4_linear_1500_5574)"/>
<path d="M125.728 252.041C87.526 257.354 48.0518 257.413 7.16817 251.656C2.18654 250.955 -1.04516 246.009 0.309386 241.143L2.5929 232.94C3.30587 230.378 5.53813 228.533 8.17951 228.33C48.3492 225.251 87.59 223.874 124.173 227.37C126.639 227.605 128.778 229.178 129.728 231.477L132.983 239.359C135.293 244.952 131.701 251.21 125.728 252.04V252.041Z" stroke="white"/>
<path d="M66.7319 88.4677L77.7605 144.107C77.9006 144.813 78.4451 145.37 79.1481 145.518C80.7671 145.857 83.8798 146.077 87.3275 144.059C87.992 143.67 88.3444 142.904 88.1952 142.147L77.1885 86.1054L66.7319 88.4687V88.4677Z" fill="url(#paint5_linear_1500_5574)"/>
<path d="M56.5024 52.2221L73.5807 138.382C73.7976 139.477 74.6405 140.338 75.7288 140.566C78.2365 141.092 83.0561 141.433 88.3956 138.307C89.4244 137.705 89.9698 136.52 89.7392 135.347L72.6947 48.5628L56.5015 52.2221H56.5024Z" fill="url(#paint6_linear_1500_5574)"/>
<path d="M49.0742 31.5733L69.3668 131.272C69.6597 132.748 70.7955 133.909 72.2626 134.216C75.6426 134.925 82.1399 135.385 89.3373 131.172C90.7248 130.36 91.4597 128.762 91.1486 127.18L70.9017 26.6409L49.0742 31.5733Z" fill="url(#paint7_linear_1500_5574)"/>
<path d="M49.0742 31.5733L69.3668 131.272C69.6597 132.748 70.7955 133.909 72.2626 134.216C75.6426 134.925 82.1399 135.385 89.3373 131.172C90.7248 130.36 91.4597 128.762 91.1486 127.18L70.9017 26.6409L49.0742 31.5733Z" stroke="white"/>
<path d="M47.1403 31.2562L47.7928 32.4365C48.2303 33.2279 49.1282 33.6425 50.0114 33.4614L70.887 29.1724C71.848 28.9748 72.5381 28.1264 72.5381 27.141V25.3955C72.5381 24.0672 71.3117 23.0809 70.0212 23.3723L48.4921 28.2266C47.1467 28.5299 46.4694 30.0466 47.1394 31.2572L47.1403 31.2562Z" fill="url(#paint8_linear_1500_5574)"/>
<path d="M53.1514 49.4701L75.0118 45.0239L76.6968 45.1655C77.4994 45.2326 78.2032 45.728 78.541 46.4625C78.541 47.4543 78.1382 48.4029 77.4271 49.0904L76.0689 50.4012L54.2176 54.8464L51.3475 53.7406C50.9383 53.5825 50.6024 53.2774 50.4057 52.883C49.97 52.007 50.3151 50.9417 51.1818 50.4922L53.1514 49.4701Z" fill="url(#paint9_linear_1500_5574)"/>
<path d="M55.3488 92.6813L52.4521 67.9559C52.2397 66.1415 53.4652 64.4713 55.2536 64.1385L78.4476 59.8248C80.1517 59.5076 81.7854 60.6474 82.0847 62.3617L90.8188 112.41C90.8188 112.41 76.6308 118.439 58.6226 118.439C58.6226 118.439 55.3488 111.314 50.4376 111.862C45.5265 112.41 30.2466 118.987 32.9758 149.678C35.7042 180.369 57.5316 176.532 57.5316 176.532L66.8085 218.732C66.8085 218.732 19.5987 210.489 14.9676 157.898C12.1084 125.433 31.9352 104.715 39.7376 97.8977C41.5626 96.3029 43.7656 95.2091 46.1287 94.6925L55.3488 92.6795V92.6813Z" fill="url(#paint10_linear_1500_5574)"/>
<path d="M32.6856 227.006L41.1077 195.186C42.2654 190.813 46.2074 187.768 50.7131 187.768H55.6746C60.1446 187.768 64.0426 190.817 65.1381 195.169L73.1629 227.044C73.6764 229.083 72.1415 231.064 70.0456 231.064H35.7929C33.6814 231.064 32.1438 229.055 32.6856 227.006Z" fill="url(#paint11_linear_1500_5574)"/>
<path d="M32.6856 227.006L41.1077 195.186C42.2654 190.813 46.2074 187.768 50.7131 187.768H55.6746C60.1446 187.768 64.0426 190.817 65.1381 195.169L73.1629 227.044C73.6764 229.083 72.1415 231.064 70.0456 231.064H35.7929C33.6814 231.064 32.1438 229.055 32.6856 227.006Z" stroke="white"/>
<path d="M61.0791 200.921C61.0791 204.856 57.9032 208.046 53.9851 208.046C50.067 208.046 46.8911 204.856 46.8911 200.921C46.8911 196.986 50.067 193.796 53.9851 193.796C57.9032 193.796 61.0791 196.986 61.0791 200.921Z" fill="url(#paint12_linear_1500_5574)"/>
<path d="M121.896 172.97C115.522 167.742 103.264 164.201 89.1824 164.201C75.1005 164.201 62.8427 167.742 56.469 172.97H51.8022V181.19C51.8022 190.574 68.5383 198.18 89.1824 198.18C109.826 198.18 126.562 190.574 126.562 181.19V172.97H121.896Z" fill="url(#paint13_linear_1500_5574)"/>
<path d="M89.1824 189.96C109.827 189.96 126.562 182.353 126.562 172.97C126.562 163.587 109.827 155.981 89.1824 155.981C68.5379 155.981 51.8022 163.587 51.8022 172.97C51.8022 182.353 68.5379 189.96 89.1824 189.96Z" fill="url(#paint14_linear_1500_5574)"/>
<path d="M89.1827 185.575C106.512 185.575 120.56 179.809 120.56 172.696C120.56 165.583 106.512 159.817 89.1827 159.817C71.8536 159.817 57.8057 165.583 57.8057 172.696C57.8057 179.809 71.8536 185.575 89.1827 185.575Z" fill="#91B3FA"/>
<path d="M89.1827 162.01C105.611 162.01 119.083 167.193 120.439 173.793C120.513 173.432 120.56 173.067 120.56 172.697C120.56 165.584 106.512 159.818 89.1827 159.818C71.8536 159.818 57.8057 165.584 57.8057 172.697C57.8057 173.067 57.8523 173.432 57.9265 173.793C59.2829 167.193 72.7542 162.01 89.1827 162.01Z" fill="url(#paint15_linear_1500_5574)"/>
<path d="M56.1681 97.6128C63.552 97.6128 69.5379 91.9694 69.5379 85.0079C69.5379 78.0464 63.552 72.403 56.1681 72.403C48.7842 72.403 42.7983 78.0464 42.7983 85.0079C42.7983 91.9694 48.7842 97.6128 56.1681 97.6128Z" fill="url(#paint16_linear_1500_5574)"/>
<path d="M62.5352 92.2246C66.0515 88.6931 66.0515 82.9674 62.5352 79.4359C59.0188 75.9044 53.3178 75.9044 49.8014 79.4359C46.2851 82.9674 46.2851 88.6931 49.8014 92.2246C53.3178 95.7562 59.0188 95.7562 62.5352 92.2246Z" fill="url(#paint17_linear_1500_5574)"/>
<path d="M103.957 238.972C103.589 238.972 103.263 238.709 103.193 238.332C103.115 237.908 103.395 237.501 103.817 237.423C105.962 237.028 108.098 236.587 110.165 236.111C110.586 236.013 111 236.279 111.095 236.699C111.191 237.119 110.93 237.537 110.511 237.634C108.422 238.114 106.265 238.56 104.097 238.959C104.05 238.968 104.002 238.972 103.956 238.972H103.957Z" fill="#BDD0FB"/>
<path d="M68.9743 241.947C35.6204 241.947 7.74959 234.94 7.39448 234.849C6.97804 234.744 6.72727 234.318 6.83344 233.9C6.9396 233.483 7.36061 233.231 7.77887 233.336C8.23009 233.451 53.4108 244.804 97.4666 238.463C97.8922 238.407 98.2857 238.698 98.3461 239.125C98.4075 239.552 98.1118 239.947 97.6872 240.009C88.0113 241.401 78.2768 241.947 68.9734 241.947H68.9743Z" fill="#BDD0FB"/>
<path d="M86.6391 108.572C86.2657 108.572 85.9371 108.302 85.873 107.922L85.2067 103.936C85.1353 103.51 85.4209 103.108 85.8447 103.036C86.2721 102.971 86.6693 103.252 86.7407 103.677L87.407 107.662C87.4784 108.088 87.1928 108.49 86.769 108.562C86.7251 108.57 86.6821 108.573 86.64 108.573L86.6391 108.572Z" fill="#BDD0FB"/>
<path d="M84.8798 98.0513C84.5073 98.0513 84.1778 97.781 84.1137 97.4005L78.5116 63.8968C78.442 63.4776 78.0558 63.189 77.6403 63.2524L75.3284 63.5686C74.8992 63.6192 74.5111 63.3278 74.4534 62.9004C74.3958 62.473 74.6932 62.0795 75.1188 62.0207L77.4307 61.7045C78.6937 61.5363 79.8359 62.382 80.0464 63.6385L85.6486 97.1413C85.72 97.5668 85.4344 97.9694 85.0107 98.0411C84.9668 98.0476 84.9237 98.0522 84.8816 98.0522L84.8798 98.0513Z" fill="#BDD0FB"/>
<path d="M177.91 111.524C195.394 93.9649 195.394 65.4958 177.91 47.9365C160.427 30.3773 132.08 30.3773 114.596 47.9365C97.1128 65.4958 97.1128 93.9649 114.596 111.524C132.08 129.083 160.427 129.083 177.91 111.524Z" fill="url(#paint18_linear_1500_5574)"/>
<path d="M177.91 111.524C195.394 93.9649 195.394 65.4958 177.91 47.9365C160.427 30.3773 132.08 30.3773 114.596 47.9365C97.1128 65.4958 97.1128 93.9649 114.596 111.524C132.08 129.083 160.427 129.083 177.91 111.524Z" stroke="white"/>
<path d="M176.858 110.467C193.76 93.4915 193.76 65.9692 176.858 48.994C159.955 32.0188 132.552 32.0188 115.649 48.994C98.7473 65.9692 98.7473 93.4915 115.649 110.467C132.552 127.442 159.955 127.442 176.858 110.467Z" fill="url(#paint19_linear_1500_5574)"/>
<path d="M176.858 110.467C193.76 93.4915 193.76 65.9692 176.858 48.994C159.955 32.0188 132.552 32.0188 115.649 48.994C98.7473 65.9692 98.7473 93.4915 115.649 110.467C132.552 127.442 159.955 127.442 176.858 110.467Z" stroke="white"/>
<path d="M106.356 78.0606C106.348 78.0606 106.34 78.0606 106.331 78.0606C106.079 78.0469 105.886 77.8309 105.899 77.5781C105.987 75.8702 106.185 74.155 106.486 72.4802C106.531 72.2311 106.767 72.0647 107.017 72.1098C107.266 72.1548 107.431 72.3938 107.386 72.6438C107.092 74.2809 106.899 75.9575 106.812 77.6259C106.799 77.8713 106.598 78.0616 106.356 78.0616V78.0606Z" fill="#BDD0FB"/>
<path d="M110.565 62.1338C110.495 62.1338 110.425 62.1182 110.359 62.0842C110.133 61.9702 110.043 61.6935 110.156 61.4674C117.076 47.6988 130.908 39.1457 146.253 39.1457C148.701 39.1457 151.153 39.3672 153.543 39.8048C153.792 39.8498 153.957 40.0888 153.911 40.3388C153.866 40.5888 153.628 40.7552 153.379 40.7083C151.044 40.2809 148.647 40.064 146.253 40.064C131.254 40.064 117.736 48.424 110.973 61.881C110.892 62.041 110.731 62.1338 110.565 62.1338Z" fill="#BDD0FB"/>
<path d="M173.101 106.694C187.406 92.326 187.406 69.0314 173.101 54.6637C158.795 40.2961 135.6 40.2961 121.295 54.6637C106.989 69.0314 106.989 92.326 121.295 106.694C135.6 121.061 158.795 121.061 173.101 106.694Z" fill="#EFF4FF"/>
<path d="M172.505 78.1103C171.933 76.6561 170.806 75.4217 169.266 74.7516C166.183 73.4105 162.602 74.8325 161.266 77.9292L157.91 85.7111C158.662 86.0834 159.276 86.7103 159.564 87.5982C160.165 87.6203 160.776 87.7306 161.366 87.9319C163.258 88.579 165.318 89.7987 167.277 90.0506C167.898 90.1306 168.5 90.3447 169.035 90.6582L172.43 82.7853C173.098 81.2383 173.078 79.5645 172.505 78.1103Z" fill="url(#paint20_linear_1500_5574)"/>
<path d="M169.145 90.4036L165.859 98.0219C164.524 101.118 160.943 102.541 157.859 101.2C156.319 100.529 155.192 99.295 154.62 97.8408C154.047 96.3866 154.028 94.7119 154.695 93.1658L157.981 85.5475L169.145 90.4036Z" fill="url(#paint21_linear_1500_5574)"/>
<path d="M154.542 56.1802L145.957 56.4155V68.639L154.875 68.3945C156.552 68.3485 158.055 67.6242 159.126 66.4881C160.197 65.3519 160.835 63.8049 160.789 62.12C160.697 58.7475 157.9 56.0874 154.542 56.1802Z" fill="url(#paint22_linear_1500_5574)"/>
<path d="M146.611 68.6215L138.347 68.8485C134.989 68.9404 132.192 66.2812 132.101 62.9087C132.055 61.2238 132.693 59.6768 133.764 58.5407C134.835 57.4046 136.338 56.6802 138.015 56.6343L146.279 56.4072L146.611 68.6215Z" fill="url(#paint23_linear_1500_5574)"/>
<path d="M143.23 91.6059L135.469 88.0817C135.438 88.1433 135.409 88.2067 135.375 88.2674C134.913 89.0588 134.236 89.5791 133.47 89.8401C132.75 92.2686 131.842 94.6475 130.681 96.8959C130.667 96.9234 130.649 96.9483 130.634 96.9758C130.855 97.8206 130.769 98.5807 130.473 99.2223L138.219 102.74C139.749 103.435 141.416 103.442 142.873 102.89C144.33 102.337 145.577 101.226 146.269 99.6902C147.653 96.6155 146.293 92.9966 143.232 91.6068L143.23 91.6059Z" fill="url(#paint24_linear_1500_5574)"/>
<path d="M130.685 99.3189L123.153 95.8986C120.091 94.5088 118.732 90.8899 120.116 87.8152C120.807 86.2792 122.054 85.1679 123.511 84.6155C124.968 84.063 126.636 84.0713 128.165 84.7653L135.698 88.1856L130.686 99.3189H130.685Z" fill="url(#paint25_linear_1500_5574)"/>
<path d="M164.932 24.3593C170.479 18.7881 170.479 9.75546 164.932 4.18428C159.385 -1.38689 150.391 -1.38689 144.844 4.18429C139.297 9.75546 139.297 18.7881 144.844 24.3593C150.391 29.9305 159.385 29.9305 164.932 24.3593Z" fill="url(#paint26_linear_1500_5574)"/>
<path d="M164.598 24.0239C169.961 18.638 169.961 9.90562 164.598 4.51967C159.235 -0.866276 150.541 -0.866273 145.178 4.51967C139.815 9.90562 139.815 18.638 145.178 24.0239C150.541 29.4099 159.235 29.4099 164.598 24.0239Z" fill="url(#paint27_linear_1500_5574)"/>
<path d="M143.225 9.81332C143.155 9.81792 143.084 9.80781 143.015 9.77839C142.781 9.68004 142.671 9.4098 142.77 9.17448C144.701 4.55186 148.992 1.46245 153.968 1.11132C154.762 1.05525 155.562 1.07087 156.346 1.1582C156.598 1.18577 156.78 1.41373 156.753 1.66651C156.725 1.92021 156.499 2.10405 156.246 2.07463C155.516 1.99466 154.772 1.97904 154.033 2.03143C149.405 2.35774 145.414 5.23114 143.617 9.53113C143.548 9.6975 143.393 9.80137 143.226 9.81332H143.225Z" fill="white"/>
<path opacity="0.78" d="M163.426 22.8038C167.965 18.2453 167.965 10.8544 163.426 6.29591C158.887 1.73739 151.528 1.73739 146.989 6.29591C142.45 10.8544 142.45 18.2453 146.989 22.8038C151.528 27.3623 158.887 27.3623 163.426 22.8038Z" fill="white"/>
<path d="M195.545 33.7658C202.995 26.2835 202.995 14.1523 195.545 6.66996C188.095 -0.812355 176.016 -0.812352 168.566 6.66996C161.116 14.1523 161.116 26.2835 168.566 33.7658C176.016 41.2481 188.095 41.2481 195.545 33.7658Z" fill="url(#paint28_linear_1500_5574)"/>
<path d="M195.097 33.3154C202.299 26.0818 202.299 14.3539 195.097 7.1204C187.894 -0.113157 176.217 -0.113163 169.014 7.12039C161.812 14.3539 161.812 26.0818 169.014 33.3154C176.217 40.549 187.894 40.549 195.097 33.3154Z" fill="url(#paint29_linear_1500_5574)"/>
<path d="M166.684 13.355C166.612 13.3568 166.54 13.3421 166.471 13.309C166.237 13.1969 166.137 12.9156 166.249 12.6803C169.105 6.65036 175.005 2.80813 181.646 2.65187C182.704 2.62705 183.768 2.69783 184.807 2.86328C185.063 2.90373 185.238 3.14548 185.198 3.40285C185.158 3.66022 184.919 3.83947 184.661 3.79534C183.677 3.64 182.67 3.57198 181.668 3.59588C175.383 3.74387 169.8 7.3802 167.097 13.0856C167.019 13.252 166.856 13.3513 166.684 13.355Z" fill="white"/>
<path opacity="0.78" d="M193.505 31.6973C199.6 25.5751 199.6 15.649 193.505 9.52686C187.409 3.40467 177.525 3.40467 171.43 9.52685C165.334 15.649 165.334 25.5751 171.43 31.6973C177.525 37.8195 187.409 37.8194 193.505 31.6973Z" fill="white"/>
<path d="M148.125 195.737L148.098 179.864H133.711L133.737 194.78C133.737 202.776 131.176 210.56 126.434 216.982L107.482 242.641C106.492 243.982 105.957 245.607 105.957 247.276V247.287C105.957 251.583 109.425 255.066 113.703 255.066H168.313C172.591 255.066 176.059 251.583 176.059 247.287C176.059 245.61 175.52 243.98 174.522 242.636L154.886 216.195C150.496 210.286 148.126 203.11 148.126 195.737H148.125Z" fill="url(#paint30_linear_1500_5574)"/>
<path d="M113.702 253.121C110.498 253.121 107.893 250.504 107.893 247.287C107.893 246.032 108.299 244.798 109.036 243.799L127.988 218.14C132.944 211.43 135.673 203.134 135.673 194.78L135.65 181.809H146.164L146.187 195.74C146.187 203.476 148.724 211.154 153.331 217.358L172.968 243.799C173.711 244.8 174.12 246.039 174.12 247.287C174.12 250.504 171.514 253.121 168.311 253.121H113.701H113.702Z" fill="#BDD0FB"/>
<path d="M148.528 182.716H133.305C132.075 182.716 131.079 181.715 131.079 180.48C131.079 179.291 132.004 178.311 133.186 178.246L148.409 177.425C149.684 177.356 150.755 178.375 150.755 179.658V180.48C150.755 181.715 149.759 182.716 148.529 182.716H148.528Z" fill="url(#paint31_linear_1500_5574)"/>
<path d="M109.037 243.8C108.299 244.798 107.894 246.032 107.894 247.287C107.894 250.504 110.499 253.121 113.703 253.121H168.313C171.516 253.121 174.122 250.503 174.122 247.287C174.122 246.039 173.713 244.8 172.97 243.799L164.2 231.991H117.759L109.037 243.8Z" fill="#7D97F4"/>
<path d="M182.679 255.062C179.649 255.062 177.194 252.595 177.194 249.553V210.133H189.363L188.163 249.553C188.163 252.595 185.707 255.062 182.678 255.062H182.679Z" fill="url(#paint32_linear_1500_5574)"/>
<path d="M182.679 253.771C180.363 253.771 178.479 251.879 178.479 249.554V210.134H188.038L186.879 249.534V249.555C186.879 251.88 184.995 253.772 182.68 253.772L182.679 253.771Z" fill="url(#paint33_linear_1500_5574)"/>
<path d="M189.359 211.08H177.027C176.03 211.08 175.223 210.268 175.223 209.268C175.223 208.305 175.973 207.511 176.93 207.459L189.262 206.794C190.295 206.738 191.163 207.564 191.163 208.603V209.268C191.163 210.269 190.355 211.08 189.359 211.08Z" fill="url(#paint34_linear_1500_5574)"/>
<path d="M178.479 228.122V249.553C178.479 251.878 180.363 253.77 182.679 253.77C184.994 253.77 186.878 251.878 186.878 249.553V249.533L187.508 228.121H178.479V228.122Z" fill="#7D97F4"/>
<path d="M165.957 255.455C162.927 255.455 160.472 252.989 160.472 249.946V210.527H172.641L171.441 249.946C171.441 252.989 168.985 255.455 165.956 255.455H165.957Z" fill="url(#paint35_linear_1500_5574)"/>
<path d="M165.956 254.163C163.641 254.163 161.757 252.272 161.757 249.946V210.527H171.316L170.156 249.927V249.946C170.156 252.272 168.273 254.163 165.957 254.163H165.956Z" fill="url(#paint36_linear_1500_5574)"/>
<path d="M172.637 211.473H160.305C159.308 211.473 158.501 210.662 158.501 209.662C158.501 208.699 159.251 207.904 160.208 207.853L172.54 207.187C173.573 207.131 174.441 207.957 174.441 208.996V209.662C174.441 210.663 173.633 211.473 172.637 211.473Z" fill="url(#paint37_linear_1500_5574)"/>
<path d="M161.757 228.515V249.946C161.757 252.272 163.641 254.163 165.956 254.163C168.272 254.163 170.156 252.272 170.156 249.946V249.927L170.786 228.515H161.757Z" fill="#7D97F4"/>
<path d="M206.356 123.473C206.356 123.473 206.38 123.489 206.399 123.521L206.581 123.529C206.6 123.557 206.797 123.604 206.797 123.66V123.664L206.624 123.722C206.624 123.781 206.542 123.857 206.559 123.939L206.518 123.975C206.722 125.189 207.83 128.511 209.043 132.811C209.054 132.846 209.051 132.886 209.063 132.921C211.782 142.568 215.708 157.088 216.893 163.812C216.893 163.812 218.991 164.857 222.256 165.375H222.264C226.98 166.411 234.099 167.358 240.723 165.617C240.723 165.617 236.121 137.465 231.808 112.181C231.808 112.181 228.656 108.321 216.445 107.549C216.382 107.546 216.32 107.764 216.256 107.761C215.272 107.705 214.282 107.893 213.294 107.893H212.164C211.657 107.893 210.743 108.072 209.676 108.525C209.645 108.537 209.582 108.425 209.582 108.442C209.582 108.442 209.573 108.349 209.57 108.349C209.57 108.349 209.385 108.432 209.303 108.468C209.181 108.519 209.055 108.57 208.925 108.634C208.898 108.65 208.867 108.661 208.839 108.673C208.827 108.682 208.812 108.684 208.8 108.691C208.718 108.734 208.632 108.776 208.541 108.82C208.522 108.829 208.505 108.836 208.49 108.843C208.388 108.895 208.286 108.949 208.18 109.004C208.164 109.013 208.246 109.02 208.231 109.032C208.109 109.095 207.953 109.162 207.826 109.229C207.713 109.287 207.626 109.351 207.618 109.418L207.603 109.316C207.544 109.347 207.481 109.383 207.423 109.418C207.423 109.418 207.411 109.422 207.407 109.426C206.755 109.809 206.1 110.254 205.492 110.774C205.489 110.777 205.489 110.782 205.484 110.786C205.476 110.798 205.465 110.813 205.457 110.825C202.722 115.389 201.451 122.865 206.355 123.475L206.356 123.473Z" fill="#0D7483"/>
<path d="M177.78 131.037C190.087 129.729 195.865 120.207 200.439 114.151C206.479 106.156 213.146 107.537 213.146 107.537L209.065 125.179C199.934 139.792 186.873 140.487 178.093 138.817C177.196 135.85 177.344 133.131 177.78 131.038V131.037Z" fill="#50C7D7"/>
<path d="M159.294 128.286L163.772 129.384C169.229 131.035 173.839 131.456 177.781 131.037C177.345 133.131 177.197 135.849 178.094 138.816C172.505 137.752 168.65 135.731 168.65 135.731C158.372 132.725 159.296 128.286 159.296 128.286L159.294 128.286Z" fill="#50C7D7"/>
<path d="M149.161 136.868C149.196 135.955 149.642 135.108 150.373 134.564L157.512 129.263C157.512 129.263 157.367 128.205 155.381 127.978C153.396 127.751 153.292 125.611 153.292 125.611C153.292 125.611 156.05 126.096 160.123 126.945C162.453 127.431 164.079 128.937 165.046 130.139L163.695 133.385C159.166 136.151 154.268 137.732 149.101 138.454L149.161 136.867V136.868Z" fill="url(#paint38_linear_1500_5574)"/>
<path d="M212.043 107.442C212.086 107.438 212.126 107.438 212.165 107.438C212.177 107.434 212.184 107.434 212.196 107.43L212.043 107.442Z" fill="url(#paint39_linear_1500_5574)"/>
<path d="M209.566 107.308L209.582 107.316V107.3C209.582 107.3 209.574 107.309 209.566 107.309V107.308Z" fill="url(#paint40_linear_1500_5574)"/>
<path d="M216.784 244.912C216.784 244.912 217.423 248.544 217.736 252.14C217.858 253.546 216.779 254.766 215.376 254.824C210.609 255.024 200.409 255.412 196.75 255.247C196.2 255.222 195.841 254.657 196.044 254.143C196.214 253.713 196.543 253.365 196.963 253.171L213.809 245.394L216.784 244.911V244.912Z" fill="url(#paint41_linear_1500_5574)"/>
<path d="M217.307 242.777L216.794 247.122C216.794 247.122 213.843 248.502 211.828 246.949L213.049 242.106L217.307 242.777Z" fill="url(#paint42_linear_1500_5574)"/>
<path d="M216.921 161.091C217.143 162.226 218.111 217.713 212.206 242.579C212.11 242.984 212.314 243.402 212.699 243.56C213.605 243.932 215.381 244.47 217.509 244.542C218.168 244.564 218.759 244.134 218.945 243.499C220.632 237.73 228.722 208.824 229.777 181.212C230.956 150.357 229.777 180.161 229.777 180.161L229.085 161.089L216.922 161.091H216.921Z" fill="#0D7483"/>
<path d="M236.163 246.807C236.163 246.807 237.18 248.641 238.165 253.514C238.342 254.393 237.73 255.236 236.84 255.323C235.266 255.479 232.842 255.679 230.9 255.665C230.005 255.659 229.307 254.877 229.415 253.984C229.63 252.206 230.3 249.287 232.369 247.013L236.162 246.807H236.163Z" fill="url(#paint43_linear_1500_5574)"/>
<path d="M237.056 241.218L235.857 247.789C235.857 247.789 234.671 248.675 232.325 248.032L232.897 240.963L237.056 241.218Z" fill="url(#paint44_linear_1500_5574)"/>
<path d="M240.296 162.795C245.126 192.07 239.248 235.152 237.266 243.584C237.144 244.1 236.73 244.495 236.209 244.582C235.324 244.729 233.868 244.849 232.431 244.43C231.936 244.286 231.588 243.837 231.568 243.321C231.301 236.504 231.78 194.654 227.28 178.114C227.052 177.276 226.542 176.545 225.837 176.041L217.102 169.804L216.432 159.724L240.295 162.795H240.296Z" fill="#0D7483"/>
<path d="M234.413 125.216L239.965 111.14C239.965 111.14 253.485 120.366 255.709 132.063C253.154 132.253 248.506 132.92 243.955 135.227C242.956 129.704 234.413 125.216 234.413 125.216Z" fill="#50C7D7"/>
<path d="M224.181 95.5208L228.786 108.898C228.862 109.119 228.772 109.365 228.568 109.478C227.312 110.175 222.789 112.19 217.339 108.719C216.771 108.358 216.384 107.768 216.298 107.099L214.806 95.5217H224.181V95.5208Z" fill="url(#paint45_linear_1500_5574)"/>
<path d="M232.922 109.634L227.426 104.946L219.205 125.105L225.2 205.21L243.919 205.772C244.051 205.776 244.18 205.726 244.273 205.631C244.366 205.536 244.417 205.408 244.412 205.275L241.799 128.21C241.799 128.21 241.728 111.557 239.965 111.141C238.203 110.724 232.922 109.635 232.922 109.635V109.634Z" fill="#50C7D7"/>
<path d="M206.765 123.529L206.798 123.659V123.663L206.625 123.722L206.56 123.938L206.943 123.974L208.861 139.88V139.888L214.974 206.25C214.99 206.384 214.825 206.501 214.927 206.584C215.028 206.663 215.048 206.698 215.177 206.679L225.256 205.213L222.287 165.378L222.27 165.319L219.29 124.069L216.596 107.505V107.497L216.097 104.947L213.332 107.351L213.27 107.354L212.48 107.398L212.154 107.413C211.651 107.547 209.588 108.328 209.588 108.328C209.588 108.34 208.868 108.651 208.522 108.817C208.503 108.825 208.497 108.832 208.482 108.841C208.38 108.892 208.283 108.947 208.177 109.003C208.161 109.011 208.253 109.018 208.237 109.03C208.025 109.149 207.831 109.278 207.831 109.416V109.424L206.799 123.473V123.521L206.765 123.529L206.765 123.529Z" fill="#50C7D7"/>
<path d="M216.08 124.941V126.902L208.861 126.466V124.288L216.08 124.941Z" fill="url(#paint46_linear_1500_5574)"/>
<path d="M219.647 129.744C219.678 129.744 219.711 129.737 219.74 129.72L226.057 126.314C226.112 126.284 226.149 126.231 226.158 126.169L227.024 120.319L229.329 119.908C229.401 119.895 229.461 119.843 229.482 119.772L231.919 111.821C231.951 111.717 231.892 111.607 231.789 111.574C231.685 111.542 231.576 111.601 231.544 111.705L229.142 119.541L226.816 119.956C226.733 119.97 226.669 120.037 226.656 120.121L225.785 126.014L219.555 129.375C219.46 129.426 219.423 129.546 219.474 129.641C219.51 129.707 219.578 129.745 219.647 129.745V129.744Z" fill="url(#paint47_linear_1500_5574)"/>
<path d="M218.147 127.785C218.172 127.785 218.197 127.779 218.221 127.766C218.291 127.726 218.316 127.636 218.276 127.565L214.961 121.729L215.508 118.431C215.518 118.368 215.488 118.306 215.432 118.276L212.765 116.851L213.442 107.364C213.448 107.282 213.387 107.211 213.306 107.206C213.223 107.203 213.154 107.261 213.148 107.342L212.464 116.926C212.459 116.984 212.49 117.04 212.542 117.067L215.199 118.488L214.661 121.732C214.656 121.766 214.661 121.801 214.679 121.83L218.019 127.712C218.047 127.76 218.096 127.786 218.147 127.786V127.785Z" fill="url(#paint48_linear_1500_5574)"/>
<path d="M222.581 138.049C222.581 138.049 237.76 146.665 242.883 139.308C243.946 137.781 244.2 136.262 243.938 134.815C248.488 132.508 253.137 131.841 255.691 131.651C256.361 135.178 256.007 138.929 253.944 142.72C244.972 159.203 220.572 141.809 220.572 141.809L222.581 138.05V138.049Z" fill="#50C7D7"/>
<path d="M224.405 148.95L216.12 119.893C216.026 119.563 215.746 119.322 215.406 119.283C213.905 119.107 209.556 118.613 204.534 118.186C198.486 117.672 191.461 117.256 187.263 117.61C186.666 117.66 186.306 118.294 186.571 118.833C188.958 123.683 198.777 143.413 203.693 149.875C203.856 150.09 204.108 150.215 204.376 150.212L223.598 150.033C224.157 150.027 224.558 149.488 224.404 148.949L224.405 148.95Z" fill="url(#paint49_linear_1500_5574)"/>
<path d="M203.676 115.668L197.669 114.662C197.349 114.609 197.087 114.916 197.189 115.225L197.784 117.034C197.836 117.192 197.972 117.306 198.136 117.328L203.916 118.104C204.215 118.144 204.461 117.871 204.393 117.576L204.025 115.996C203.985 115.826 203.847 115.696 203.676 115.668Z" fill="url(#paint50_linear_1500_5574)"/>
<path d="M208.173 120.775L207.678 118.186C207.629 117.927 207.415 117.73 207.153 117.704L195.021 116.467C194.613 116.426 194.286 116.802 194.381 117.203L195.153 120.428C195.214 120.686 195.438 120.873 195.702 120.886L207.557 121.485C207.943 121.505 208.245 121.156 208.172 120.775H208.173Z" fill="url(#paint51_linear_1500_5574)"/>
<path d="M222.403 141.929C222.403 141.929 223.557 137.163 223.092 135.473C222.626 133.782 221.724 131.607 218.718 132.091C215.711 132.574 212.165 133.846 212.165 133.846C212.165 133.846 212.344 136.048 214.628 135.337L213.212 136.439C213.212 136.439 213.414 138.202 215.344 137.26L214.026 138.721C214.026 138.721 214.855 140.17 216.275 139.24C217.695 138.311 218.375 142.504 222.402 141.93L222.403 141.929Z" fill="url(#paint52_linear_1500_5574)"/>
<path d="M236.871 142.327C238.281 142.327 239.575 142.117 240.561 141.574C240.656 141.522 240.691 141.402 240.639 141.307C240.586 141.211 240.467 141.177 240.372 141.229C236.328 143.459 226.343 139.64 226.243 139.602C226.216 139.592 224.275 138.915 223.582 137.556C223.533 137.46 223.415 137.421 223.319 137.471C223.223 137.521 223.184 137.639 223.233 137.736C224 139.238 226.024 139.943 226.109 139.972C226.422 140.093 232.264 142.327 236.871 142.327Z" fill="#7D97F4"/>
<path d="M242.346 149.838C242.451 149.838 242.538 149.837 242.541 149.73C242.545 149.622 242.46 149.572 242.352 149.568C230.824 149.169 224.262 143.891 224.197 143.837C224.114 143.767 223.99 143.791 223.921 143.875C223.852 143.959 223.864 144.005 223.948 144.074C224.014 144.129 230.679 149.838 242.338 149.838H242.346Z" fill="#7D97F4"/>
<path d="M212.02 82.8414C212.02 82.8414 209.798 90.9542 210.147 94.995C210.495 99.0357 210.006 101.76 214.736 101.904C219.466 102.048 223.025 99.18 224.562 94.8837C224.562 94.8837 226.986 88.2563 225.887 85.8435C224.788 83.4306 212.021 82.8405 212.021 82.8405L212.02 82.8414Z" fill="url(#paint53_linear_1500_5574)"/>
<path d="M230.87 83.2918C229.863 82.6622 229.207 82.8791 228.824 83.1971C228.716 83.2863 228.583 83.2891 228.476 83.2367C228.466 83.1172 227.701 74.8242 216.445 76.283C215.276 76.4346 214.131 75.8601 213.548 74.8306C212.217 72.4766 209.692 69.0158 207.785 72.3975C205.073 77.2077 204.269 83.5189 211.951 84.8278C212.405 84.905 212.864 84.9666 213.324 85.0162C216.496 85.8012 220.107 86.0485 221.445 86.3877C223.681 86.9539 221.972 92.1786 221.972 92.1786L222.556 92.0949L223.8 91.9166C223.98 91.8909 224.156 92.0958 224.171 92.2788L224.46 95.8489C224.473 96.0033 224.594 96.1421 224.746 96.1587C225.315 96.2212 226.789 96.1651 229.057 94.494C231.274 92.8606 230.21 92.0315 229.531 91.7144C229.338 91.6243 229.301 91.3715 229.445 91.2143C232.471 87.9043 232.623 84.3893 230.871 83.2936L230.87 83.2918Z" fill="url(#paint54_linear_1500_5574)"/>
<path d="M222.538 92.9939C222.538 92.9939 223.106 87.9338 225.479 88.989C227.852 90.0442 225.127 94.6172 223.403 95.052L222.539 92.9939H222.538Z" fill="url(#paint55_linear_1500_5574)"/>
<path d="M209.956 83.2964C209.995 83.2909 210.03 83.2707 210.057 83.2385C210.111 83.1705 210.099 83.0721 210.031 83.0179C208.414 81.7329 207.525 80.2465 207.39 78.6012C207.156 75.7397 209.301 73.3315 209.323 73.3076C209.381 73.2432 209.377 73.1439 209.313 73.0851C209.248 73.0263 209.149 73.0318 209.091 73.0952C208.999 73.1972 206.833 75.6248 207.078 78.6242C207.22 80.3614 208.148 81.9222 209.837 83.2643C209.872 83.2927 209.916 83.3029 209.956 83.2964Z" fill="#91B3FA"/>
<path d="M224.854 57.5578C234.169 48.2023 234.169 33.0342 224.854 23.6788C215.539 14.3234 200.436 14.3234 191.121 23.6788C181.806 33.0342 181.806 48.2023 191.121 57.5578C200.436 66.9132 215.539 66.9132 224.854 57.5578Z" fill="url(#paint56_linear_1500_5574)"/>
<path d="M224.294 56.9949C233.299 47.9503 233.299 33.2862 224.294 24.2417C215.288 15.1972 200.687 15.1971 191.682 24.2417C182.676 33.2862 182.676 47.9503 191.682 56.9949C200.687 66.0394 215.288 66.0394 224.294 56.9949Z" fill="url(#paint57_linear_1500_5574)"/>
<path d="M187.866 34.2317C187.802 34.2409 187.735 34.2354 187.668 34.2133C187.443 34.137 187.322 33.8916 187.398 33.6655C190.034 25.8109 196.743 20.202 204.907 19.0273C206.21 18.8398 207.531 18.7699 208.835 18.8196C209.073 18.8287 209.258 19.0291 209.249 19.2681C209.24 19.5062 209.042 19.6937 208.802 19.6836C207.55 19.6358 206.281 19.7029 205.029 19.8831C197.189 21.0109 190.746 26.3983 188.213 33.9412C188.159 34.1012 188.022 34.2087 187.866 34.2317Z" fill="white"/>
<path opacity="0.78" d="M222.356 54.9069C229.978 47.2519 229.978 34.8407 222.356 27.1858C214.734 19.5308 202.376 19.5308 194.754 27.1858C187.132 34.8407 187.132 47.2519 194.754 54.9069C202.376 62.5619 214.734 62.5619 222.356 54.9069Z" fill="white"/>
</g>
<defs>
<linearGradient id="paint0_linear_1500_5574" x1="274.611" y1="256.994" x2="86.1484" y2="92.7987" gradientUnits="userSpaceOnUse">
<stop stop-color="#DAE3FE"/>
<stop offset="1" stop-color="#E9EFFD"/>
</linearGradient>
<linearGradient id="paint1_linear_1500_5574" x1="75.635" y1="118.389" x2="68.1726" y2="30.1586" gradientUnits="userSpaceOnUse">
<stop stop-color="#FEBBBA"/>
<stop offset="1" stop-color="#FF928E"/>
</linearGradient>
<linearGradient id="paint2_linear_1500_5574" x1="38.0855" y1="197.911" x2="-16.1284" y2="260.528" gradientUnits="userSpaceOnUse">
<stop stop-color="#FF928E"/>
<stop offset="1" stop-color="#FE7062"/>
</linearGradient>
<linearGradient id="paint3_linear_1500_5574" x1="138.981" y1="191.535" x2="81.9169" y2="277.997" gradientUnits="userSpaceOnUse">
<stop stop-color="#FF928E"/>
<stop offset="1" stop-color="#FE7062"/>
</linearGradient>
<linearGradient id="paint4_linear_1500_5574" x1="17.8154" y1="225.348" x2="24.6289" y2="271.231" gradientUnits="userSpaceOnUse">
<stop stop-color="#8383F1"/>
<stop offset="1" stop-color="#4F4FB4"/>
</linearGradient>
<linearGradient id="paint5_linear_1500_5574" x1="66.7319" y1="115.921" x2="88.23" y2="115.921" gradientUnits="userSpaceOnUse">
<stop stop-color="#09005D"/>
<stop offset="1" stop-color="#1A0F91"/>
</linearGradient>
<linearGradient id="paint6_linear_1500_5574" x1="100.758" y1="187.803" x2="98.1424" y2="178.949" gradientUnits="userSpaceOnUse">
<stop stop-color="#4F52FF"/>
<stop offset="1" stop-color="#4042E2"/>
</linearGradient>
<linearGradient id="paint7_linear_1500_5574" x1="54.6906" y1="26.7784" x2="127.693" y2="70.8053" gradientUnits="userSpaceOnUse">
<stop stop-color="#8383F1"/>
<stop offset="1" stop-color="#4F4FB4"/>
</linearGradient>
<linearGradient id="paint8_linear_1500_5574" x1="55.0012" y1="59.5555" x2="64.9436" y2="-5.05563" gradientUnits="userSpaceOnUse">
<stop stop-color="#09005D"/>
<stop offset="1" stop-color="#1A0F91"/>
</linearGradient>
<linearGradient id="paint9_linear_1500_5574" x1="126.767" y1="176.954" x2="99.7615" y2="122.25" gradientUnits="userSpaceOnUse">
<stop stop-color="#4F52FF"/>
<stop offset="1" stop-color="#4042E2"/>
</linearGradient>
<linearGradient id="paint10_linear_1500_5574" x1="28" y1="202" x2="4.60769" y2="149.476" gradientUnits="userSpaceOnUse">
<stop stop-color="#1BB2C7"/>
<stop offset="1" stop-color="#63D1DF"/>
</linearGradient>
<linearGradient id="paint11_linear_1500_5574" x1="37.9981" y1="187.823" x2="68.8945" y2="232.71" gradientUnits="userSpaceOnUse">
<stop stop-color="#8383F1"/>
<stop offset="1" stop-color="#4F4FB4"/>
</linearGradient>
<linearGradient id="paint12_linear_1500_5574" x1="70.1134" y1="178.818" x2="20.0159" y2="246.884" gradientUnits="userSpaceOnUse">
<stop stop-color="#09005D"/>
<stop offset="1" stop-color="#1A0F91"/>
</linearGradient>
<linearGradient id="paint13_linear_1500_5574" x1="92.3784" y1="218.676" x2="89.8195" y2="185.785" gradientUnits="userSpaceOnUse">
<stop stop-color="#09005D"/>
<stop offset="1" stop-color="#1A0F91"/>
</linearGradient>
<linearGradient id="paint14_linear_1500_5574" x1="87.7052" y1="191.312" x2="90.264" y2="159.81" gradientUnits="userSpaceOnUse">
<stop stop-color="#09005D"/>
<stop offset="1" stop-color="#1A0F91"/>
</linearGradient>
<linearGradient id="paint15_linear_1500_5574" x1="90.2865" y1="153.286" x2="89.2397" y2="171.526" gradientUnits="userSpaceOnUse">
<stop stop-color="#4F52FF"/>
<stop offset="1" stop-color="#4042E2"/>
</linearGradient>
<linearGradient id="paint16_linear_1500_5574" x1="42.7983" y1="85.0079" x2="69.537" y2="85.0079" gradientUnits="userSpaceOnUse">
<stop stop-color="#4F52FF"/>
<stop offset="1" stop-color="#4042E2"/>
</linearGradient>
<linearGradient id="paint17_linear_1500_5574" x1="47.1637" y1="85.8307" x2="65.171" y2="85.8307" gradientUnits="userSpaceOnUse">
<stop stop-color="#09005D"/>
<stop offset="1" stop-color="#1A0F91"/>
</linearGradient>
<linearGradient id="paint18_linear_1500_5574" x1="135.302" y1="27.3036" x2="177.131" y2="117.587" gradientUnits="userSpaceOnUse">
<stop stop-color="#CF70D7"/>
<stop offset="1" stop-color="#93379A"/>
</linearGradient>
<linearGradient id="paint19_linear_1500_5574" x1="135.666" y1="29.0474" x2="176.104" y2="116.328" gradientUnits="userSpaceOnUse">
<stop stop-color="#CF70D7"/>
<stop offset="1" stop-color="#93379A"/>
</linearGradient>
<linearGradient id="paint20_linear_1500_5574" x1="160.589" y1="79.5033" x2="171.769" y2="84.3247" gradientUnits="userSpaceOnUse">
<stop stop-color="#E1473D"/>
<stop offset="1" stop-color="#E9605A"/>
</linearGradient>
<linearGradient id="paint21_linear_1500_5574" x1="124.143" y1="28.8506" x2="188.517" y2="139.347" gradientUnits="userSpaceOnUse">
<stop stop-color="#4F52FF"/>
<stop offset="1" stop-color="#4042E2"/>
</linearGradient>
<linearGradient id="paint22_linear_1500_5574" x1="153.123" y1="56.2288" x2="153.457" y2="68.443" gradientUnits="userSpaceOnUse">
<stop stop-color="#E1473D"/>
<stop offset="1" stop-color="#E9605A"/>
</linearGradient>
<linearGradient id="paint23_linear_1500_5574" x1="121.767" y1="30.235" x2="186.141" y2="140.731" gradientUnits="userSpaceOnUse">
<stop stop-color="#4F52FF"/>
<stop offset="1" stop-color="#4042E2"/>
</linearGradient>
<linearGradient id="paint24_linear_1500_5574" x1="141.617" y1="90.8723" x2="136.569" y2="101.989" gradientUnits="userSpaceOnUse">
<stop stop-color="#E1473D"/>
<stop offset="1" stop-color="#E9605A"/>
</linearGradient>
<linearGradient id="paint25_linear_1500_5574" x1="100.295" y1="42.7442" x2="164.67" y2="153.24" gradientUnits="userSpaceOnUse">
<stop stop-color="#4F52FF"/>
<stop offset="1" stop-color="#4042E2"/>
</linearGradient>
<linearGradient id="paint26_linear_1500_5574" x1="137.085" y1="38.2533" x2="154.641" y2="14.8317" gradientUnits="userSpaceOnUse">
<stop stop-color="#FF928E"/>
<stop offset="1" stop-color="#FE7062"/>
</linearGradient>
<linearGradient id="paint27_linear_1500_5574" x1="164.157" y1="-2.15733" x2="113.577" y2="86.8856" gradientUnits="userSpaceOnUse">
<stop stop-color="#FF928E"/>
<stop offset="1" stop-color="#FE7062"/>
</linearGradient>
<linearGradient id="paint28_linear_1500_5574" x1="156.671" y1="51.257" x2="181.687" y2="20.9403" gradientUnits="userSpaceOnUse">
<stop stop-color="#FF928E"/>
<stop offset="1" stop-color="#FE7062"/>
</linearGradient>
<linearGradient id="paint29_linear_1500_5574" x1="195.507" y1="-1.25553" x2="122.082" y2="115.009" gradientUnits="userSpaceOnUse">
<stop stop-color="#FF928E"/>
<stop offset="1" stop-color="#FE7062"/>
</linearGradient>
<linearGradient id="paint30_linear_1500_5574" x1="160.96" y1="180.747" x2="104.93" y2="365.988" gradientUnits="userSpaceOnUse">
<stop stop-color="#4F52FF"/>
<stop offset="1" stop-color="#4042E2"/>
</linearGradient>
<linearGradient id="paint31_linear_1500_5574" x1="131.078" y1="180.069" x2="150.754" y2="180.069" gradientUnits="userSpaceOnUse">
<stop stop-color="#4F52FF"/>
<stop offset="1" stop-color="#4042E2"/>
</linearGradient>
<linearGradient id="paint32_linear_1500_5574" x1="179.424" y1="235.748" x2="208.993" y2="189.837" gradientUnits="userSpaceOnUse">
<stop stop-color="#4F52FF"/>
<stop offset="1" stop-color="#4042E2"/>
</linearGradient>
<linearGradient id="paint33_linear_1500_5574" x1="178.479" y1="231.952" x2="188.037" y2="231.952" gradientUnits="userSpaceOnUse">
<stop stop-color="#DAE3FE"/>
<stop offset="1" stop-color="#E9EFFD"/>
</linearGradient>
<linearGradient id="paint34_linear_1500_5574" x1="175.223" y1="208.935" x2="191.163" y2="208.935" gradientUnits="userSpaceOnUse">
<stop stop-color="#4F52FF"/>
<stop offset="1" stop-color="#4042E2"/>
</linearGradient>
<linearGradient id="paint35_linear_1500_5574" x1="163.648" y1="233.928" x2="197.31" y2="195.475" gradientUnits="userSpaceOnUse">
<stop stop-color="#4F52FF"/>
<stop offset="1" stop-color="#4042E2"/>
</linearGradient>
<linearGradient id="paint36_linear_1500_5574" x1="161.757" y1="232.345" x2="171.315" y2="232.345" gradientUnits="userSpaceOnUse">
<stop stop-color="#DAE3FE"/>
<stop offset="1" stop-color="#E9EFFD"/>
</linearGradient>
<linearGradient id="paint37_linear_1500_5574" x1="158.5" y1="209.328" x2="174.441" y2="209.328" gradientUnits="userSpaceOnUse">
<stop stop-color="#4F52FF"/>
<stop offset="1" stop-color="#4042E2"/>
</linearGradient>
<linearGradient id="paint38_linear_1500_5574" x1="135.997" y1="117.932" x2="208.719" y2="173.33" gradientUnits="userSpaceOnUse">
<stop stop-color="#FEBBBA"/>
<stop offset="1" stop-color="#FF928E"/>
</linearGradient>
<linearGradient id="paint39_linear_1500_5574" x1="212.196" y1="107.436" x2="212.042" y2="107.436" gradientUnits="userSpaceOnUse">
<stop stop-color="#09005D"/>
<stop offset="1" stop-color="#1A0F91"/>
</linearGradient>
<linearGradient id="paint40_linear_1500_5574" x1="209.592" y1="107.332" x2="209.611" y2="107.361" gradientUnits="userSpaceOnUse">
<stop stop-color="#53EAC9"/>
<stop offset="1" stop-color="#45AED8"/>
</linearGradient>
<linearGradient id="paint41_linear_1500_5574" x1="197.781" y1="138.397" x2="202.444" y2="196.906" gradientUnits="userSpaceOnUse">
<stop stop-color="#09005D"/>
<stop offset="1" stop-color="#1A0F91"/>
</linearGradient>
<linearGradient id="paint42_linear_1500_5574" x1="217.307" y1="244.897" x2="211.827" y2="244.897" gradientUnits="userSpaceOnUse">
<stop stop-color="#FEBBBA"/>
<stop offset="1" stop-color="#FF928E"/>
</linearGradient>
<linearGradient id="paint43_linear_1500_5574" x1="287.965" y1="155.986" x2="260.04" y2="205.572" gradientUnits="userSpaceOnUse">
<stop stop-color="#09005D"/>
<stop offset="1" stop-color="#1A0F91"/>
</linearGradient>
<linearGradient id="paint44_linear_1500_5574" x1="237.055" y1="244.615" x2="232.324" y2="244.615" gradientUnits="userSpaceOnUse">
<stop stop-color="#FEBBBA"/>
<stop offset="1" stop-color="#FF928E"/>
</linearGradient>
<linearGradient id="paint45_linear_1500_5574" x1="242.967" y1="113.953" x2="236.284" y2="110.431" gradientUnits="userSpaceOnUse">
<stop stop-color="#FEBBBA"/>
<stop offset="1" stop-color="#FF928E"/>
</linearGradient>
<linearGradient id="paint46_linear_1500_5574" x1="217.077" y1="129.034" x2="191.497" y2="110.704" gradientUnits="userSpaceOnUse">
<stop stop-color="#9CFFFB"/>
<stop offset="1" stop-color="#9BFFFA"/>
</linearGradient>
<linearGradient id="paint47_linear_1500_5574" x1="228.619" y1="122.772" x2="225.302" y2="120.396" gradientUnits="userSpaceOnUse">
<stop stop-color="#DAE3FE"/>
<stop offset="1" stop-color="#E9EFFD"/>
</linearGradient>
<linearGradient id="paint48_linear_1500_5574" x1="218.294" y1="117.495" x2="212.463" y2="117.495" gradientUnits="userSpaceOnUse">
<stop stop-color="#DAE3FE"/>
<stop offset="1" stop-color="#E9EFFD"/>
</linearGradient>
<linearGradient id="paint49_linear_1500_5574" x1="255.677" y1="65.4926" x2="241.263" y2="84.9375" gradientUnits="userSpaceOnUse">
<stop stop-color="#5B5BC2"/>
<stop offset="1" stop-color="#1A0F91"/>
</linearGradient>
<linearGradient id="paint50_linear_1500_5574" x1="197.657" y1="102.588" x2="201.84" y2="120.877" gradientUnits="userSpaceOnUse">
<stop stop-color="#4F52FF"/>
<stop offset="1" stop-color="#4042E2"/>
</linearGradient>
<linearGradient id="paint51_linear_1500_5574" x1="199.829" y1="110.262" x2="201.829" y2="122.216" gradientUnits="userSpaceOnUse">
<stop stop-color="#4F52FF"/>
<stop offset="1" stop-color="#4042E2"/>
</linearGradient>
<linearGradient id="paint52_linear_1500_5574" x1="223.202" y1="137.003" x2="212.165" y2="137.003" gradientUnits="userSpaceOnUse">
<stop stop-color="#FEBBBA"/>
<stop offset="1" stop-color="#FF928E"/>
</linearGradient>
<linearGradient id="paint53_linear_1500_5574" x1="212.294" y1="89.6144" x2="233.335" y2="101.357" gradientUnits="userSpaceOnUse">
<stop stop-color="#FEBBBA"/>
<stop offset="1" stop-color="#FF928E"/>
</linearGradient>
<linearGradient id="paint54_linear_1500_5574" x1="205.67" y1="69.8648" x2="246.738" y2="109.371" gradientUnits="userSpaceOnUse">
<stop stop-color="#09005D"/>
<stop offset="1" stop-color="#1A0F91"/>
</linearGradient>
<linearGradient id="paint55_linear_1500_5574" x1="214.202" y1="86.1958" x2="235.243" y2="97.9388" gradientUnits="userSpaceOnUse">
<stop stop-color="#FEBBBA"/>
<stop offset="1" stop-color="#FF928E"/>
</linearGradient>
<linearGradient id="paint56_linear_1500_5574" x1="181.046" y1="82.9403" x2="207.614" y2="41.5685" gradientUnits="userSpaceOnUse">
<stop stop-color="#FF928E"/>
<stop offset="1" stop-color="#FE7062"/>
</linearGradient>
<linearGradient id="paint57_linear_1500_5574" x1="221.509" y1="11.9626" x2="147.599" y2="167.279" gradientUnits="userSpaceOnUse">
<stop stop-color="#FF928E"/>
<stop offset="1" stop-color="#FE7062"/>
</linearGradient>
<clipPath id="clip0_1500_5574">
<rect width="256" height="256" fill="white"/>
</clipPath>
</defs>
</svg>
