<svg width="272" height="256" viewBox="0 0 272 256" fill="none" xmlns="http://www.w3.org/2000/svg">
<g clip-path="url(#clip0_1503_3644)">
<path d="M219.48 51.1719H51.3848V218.316H219.48V51.1719Z" fill="#AFEBF3"/>
<path d="M1.48537 256H270.515C271.335 256 272 255.336 272 254.517C272 253.699 271.335 253.035 270.515 253.035H1.48537C0.665019 253.035 0 253.699 0 254.517C0 255.336 0.665019 256 1.48537 256Z" fill="#2D5B98"/>
<path d="M58.9475 205.824H89.0129V226.28C89.0129 234.562 82.2766 241.286 73.9796 241.286C65.6826 241.286 58.9463 234.562 58.9463 226.28V205.824H58.9475Z" fill="#5896FA"/>
<path d="M58.9474 221.284H57.2812V253.036H58.9474V221.284Z" fill="#0E0E0E"/>
<path d="M90.6789 221.284H89.0127V253.036H90.6789V221.284Z" fill="#0E0E0E"/>
<path d="M77.9284 221.284H76.2622V253.036H77.9284V221.284Z" fill="#0E0E0E"/>
<path d="M89.0905 241.286H57.2812V242.949H89.0905V241.286Z" fill="#0E0E0E"/>
<path d="M97.3925 172.029C99.2067 174.637 95.5552 176.885 94.986 180.501C94.4169 184.117 98.566 186.15 94.1657 190.884C91.4559 193.8 89.1671 189.927 86.9646 194.396C84.762 198.865 86.4973 199.618 84.0217 201.226C79.7052 204.029 73.1011 197.834 75.3219 193.37C77.5426 188.906 82.0364 189.306 79.9576 185.633C77.8788 181.96 77.1058 180.378 80.6906 178.491C85.1273 176.156 89.0361 178.301 89.3941 174.884C89.7508 171.467 94.9933 168.578 97.3937 172.029H97.3925Z" fill="#FFCA59"/>
<path d="M78.4275 205.619L77.6812 205.471C81.1786 187.823 92.7751 175.466 92.8928 175.343L93.445 175.866C93.3297 175.987 81.8824 188.194 78.4287 205.619H78.4275Z" fill="#0E0E0E"/>
<path d="M39.2495 165.508C37.3733 169.324 42.6595 171.566 44.14 176.237C45.6206 180.908 40.1681 182.558 46.9445 187.94C51.1191 191.254 51.9916 189.182 53.5268 196.597C54.8774 203.125 59.8469 196.913 63.5627 200.745C68.3574 205.688 75.8498 194.838 72.0114 189.378C68.173 183.917 63.6938 185.329 65.7046 180.051C67.7154 174.775 65.3175 170.798 60.1939 169.021C53.852 166.82 51.5717 172.133 50.4104 167.682C49.2502 163.232 41.7299 160.462 39.2495 165.509V165.508Z" fill="#ED5A24"/>
<path d="M71.1134 206.153C63.0276 183.775 45.424 169.933 45.248 169.795L45.873 168.992C46.0526 169.131 63.8868 183.156 72.0721 205.808L71.1134 206.153Z" fill="#0E0E0E"/>
<path d="M93.1451 144.204C128.654 144.204 157.44 115.471 157.44 80.026C157.44 44.5815 128.654 15.848 93.1451 15.848C57.6362 15.848 28.8506 44.5815 28.8506 80.026C28.8506 115.471 57.6362 144.204 93.1451 144.204Z" stroke="url(#paint0_linear_1503_3644)" stroke-width="8.73" stroke-miterlimit="10"/>
<path d="M109.424 75.8142C109.492 75.3139 109.539 74.8064 109.539 74.2867C109.539 68.0398 104.466 62.9764 98.2081 62.9764C93.5129 62.9764 89.4851 65.8267 87.7668 69.8884C86.3676 68.6443 84.5291 67.8824 82.5085 67.8824C78.1349 67.8824 74.5902 71.4207 74.5902 75.7864H73.1121C68.9072 75.7864 65.4668 79.2205 65.4668 83.4178C65.4668 87.6151 68.9072 91.0493 73.1121 91.0493H108.859C113.064 91.0493 116.505 87.6151 116.505 83.4178C116.505 79.4107 113.366 76.1074 109.424 75.8154V75.8142Z" fill="white"/>
<path d="M116.456 112.927H68.5939C66.9833 112.927 65.6777 114.23 65.6777 115.838V155.919C65.6777 157.527 66.9833 158.83 68.5939 158.83H116.456C118.066 158.83 119.372 157.527 119.372 155.919V115.838C119.372 114.23 118.066 112.927 116.456 112.927Z" fill="url(#paint1_linear_1503_3644)"/>
<path d="M116.456 112.927H68.5939C66.9833 112.927 65.6777 114.23 65.6777 115.838V155.919C65.6777 157.527 66.9833 158.83 68.5939 158.83H116.456C118.066 158.83 119.372 157.527 119.372 155.919V115.838C119.372 114.23 118.066 112.927 116.456 112.927Z" stroke="white"/>
<path d="M108.78 140.643H76.4112C75.3518 140.643 74.4854 139.778 74.4854 138.72C74.4854 137.663 75.3518 136.798 76.4112 136.798H108.78C109.839 136.798 110.706 137.663 110.706 138.72C110.706 139.778 109.839 140.643 108.78 140.643Z" fill="white"/>
<path d="M108.78 146.834H76.4112C75.3518 146.834 74.4854 145.969 74.4854 144.912C74.4854 143.854 75.3518 142.989 76.4112 142.989H108.78C109.839 142.989 110.706 143.854 110.706 144.912C110.706 145.969 109.839 146.834 108.78 146.834Z" fill="white"/>
<path d="M82.4559 145.082C82.4559 145.457 82.1525 145.759 81.7775 145.759C81.4025 145.759 81.0991 145.457 81.0991 145.082C81.0991 144.708 81.4025 144.405 81.7775 144.405C82.1525 144.405 82.4559 144.708 82.4559 145.082Z" fill="#80B2FF"/>
<path d="M84.7796 145.082C84.7796 145.457 84.4762 145.759 84.1012 145.759C83.7262 145.759 83.4229 145.457 83.4229 145.082C83.4229 144.708 83.7262 144.405 84.1012 144.405C84.4762 144.405 84.7796 144.708 84.7796 145.082Z" fill="#80B2FF"/>
<path d="M87.1048 145.082C87.1048 145.457 86.8014 145.759 86.4264 145.759C86.0514 145.759 85.748 145.457 85.748 145.082C85.748 144.708 86.0514 144.405 86.4264 144.405C86.8014 144.405 87.1048 144.708 87.1048 145.082Z" fill="#80B2FF"/>
<path d="M89.429 145.082C89.429 145.457 89.1256 145.759 88.7506 145.759C88.3757 145.759 88.0723 145.457 88.0723 145.082C88.0723 144.708 88.3757 144.405 88.7506 144.405C89.1256 144.405 89.429 144.708 89.429 145.082Z" fill="#80B2FF"/>
<path d="M91.7542 145.082C91.7542 145.457 91.4508 145.759 91.0758 145.759C90.7008 145.759 90.3975 145.457 90.3975 145.082C90.3975 144.708 90.7008 144.405 91.0758 144.405C91.4508 144.405 91.7542 144.708 91.7542 145.082Z" fill="#80B2FF"/>
<path d="M94.079 145.082C94.079 145.457 93.7756 145.759 93.4006 145.759C93.0256 145.759 92.7222 145.457 92.7222 145.082C92.7222 144.708 93.0256 144.405 93.4006 144.405C93.7756 144.405 94.079 144.708 94.079 145.082Z" fill="#80B2FF"/>
<path d="M96.4031 145.082C96.4031 145.457 96.0997 145.759 95.7248 145.759C95.3498 145.759 95.0464 145.457 95.0464 145.082C95.0464 144.708 95.3498 144.405 95.7248 144.405C96.0997 144.405 96.4031 144.708 96.4031 145.082Z" fill="#80B2FF"/>
<path d="M98.7283 145.082C98.7283 145.457 98.4249 145.759 98.0499 145.759C97.675 145.759 97.3716 145.457 97.3716 145.082C97.3716 144.708 97.675 144.405 98.0499 144.405C98.4249 144.405 98.7283 144.708 98.7283 145.082Z" fill="#80B2FF"/>
<path d="M101.054 145.082C101.054 145.457 100.75 145.759 100.375 145.759C100 145.759 99.6968 145.457 99.6968 145.082C99.6968 144.708 100 144.405 100.375 144.405C100.75 144.405 101.054 144.708 101.054 145.082Z" fill="#80B2FF"/>
<path d="M92.6072 131.418C96.7163 131.418 100.047 128.093 100.047 123.992C100.047 119.89 96.7163 116.565 92.6072 116.565C88.4981 116.565 85.167 119.89 85.167 123.992C85.167 128.093 88.4981 131.418 92.6072 131.418Z" fill="white"/>
<path d="M92.6168 123.692C93.3425 123.692 94.0135 123.339 94.4419 122.8C94.7586 122.41 94.9443 121.907 94.9443 121.35C94.9443 120.067 93.9007 119.007 92.6155 119.007C91.3304 119.007 90.2686 120.067 90.2686 121.35C90.2686 121.908 90.4542 122.41 90.771 122.8C91.1993 123.339 91.8692 123.692 92.6155 123.692H92.6168Z" fill="#005CEA"/>
<path d="M96.7417 127.868C96.7417 129.347 88.4702 129.347 88.4702 127.868L88.4726 126.145C88.7991 123.791 96.0694 123.691 96.7429 126.145V127.868H96.7417Z" fill="#005CEA"/>
<path d="M78.0166 144.558V144.455C78.0166 144.038 77.6768 143.699 77.2593 143.699C76.8418 143.699 76.502 144.038 76.502 144.455V144.558H76.3867V145.921C76.3867 146.156 78.1367 146.156 78.1367 145.921V144.558H78.0166ZM76.7714 144.455C76.7714 144.193 76.9328 143.956 77.2593 143.956C77.5857 143.956 77.752 144.179 77.752 144.455V144.558H76.7714V144.455ZM77.3879 145.245V145.638C77.3879 145.709 77.3272 145.76 77.2569 145.76C77.1865 145.76 77.1355 145.709 77.1355 145.638V145.245C77.0651 145.205 77.0141 145.133 77.0141 145.042C77.0141 144.912 77.1258 144.8 77.2569 144.8C77.3879 144.8 77.4996 144.912 77.4996 145.042C77.4996 145.133 77.4486 145.203 77.3879 145.245Z" fill="#5896FA"/>
<path d="M77.2605 138.581C77.4134 138.581 77.5554 138.506 77.6452 138.393C77.7119 138.311 77.7508 138.206 77.7508 138.087C77.7508 137.817 77.5311 137.593 77.2593 137.593C76.9875 137.593 76.7642 137.817 76.7642 138.087C76.7642 138.204 76.803 138.311 76.8697 138.393C76.9595 138.507 77.1015 138.581 77.2593 138.581H77.2605Z" fill="#5896FA"/>
<path d="M78.1307 139.462C78.1307 139.774 76.376 139.774 76.376 139.462L76.3857 139.098C76.4549 138.602 77.9887 138.58 78.1307 139.098V139.462Z" fill="#5896FA"/>
<path d="M88.5986 139.285H81.5055C81.1948 139.285 80.9399 139.031 80.9399 138.72C80.9399 138.41 81.1948 138.156 81.5055 138.156H88.5986C88.9093 138.156 89.1641 138.41 89.1641 138.72C89.1641 139.031 88.9093 139.285 88.5986 139.285Z" fill="#80B2FF"/>
<path d="M97.954 139.285H90.8609C90.5502 139.285 90.2954 139.031 90.2954 138.72C90.2954 138.41 90.5502 138.156 90.8609 138.156H97.954C98.2647 138.156 98.5195 138.41 98.5195 138.72C98.5195 139.031 98.2647 139.285 97.954 139.285Z" fill="#80B2FF"/>
<path d="M94.9674 149.539H88.5405C87.629 149.539 86.8901 150.276 86.8901 151.186C86.8901 152.095 87.629 152.832 88.5405 152.832H94.9674C95.8789 152.832 96.6179 152.095 96.6179 151.186C96.6179 150.276 95.8789 149.539 94.9674 149.539Z" fill="#1251B3"/>
<path d="M26.7184 77.2448C23.0317 81.1877 17.1473 84.4184 10.8514 85.7957C10.849 86.216 10.8393 88.5406 10.7908 99.2597C10.7264 113.558 24.3593 120.545 26.4757 121.617C28.5266 120.675 42.3306 113.699 42.3949 99.4002C42.4435 88.6823 42.4532 86.3565 42.4556 85.9362C36.1719 84.5032 30.37 81.2204 26.7184 77.2448Z" fill="white"/>
<path d="M26.681 79.8298C23.0707 83.1356 18.0685 85.7351 12.5675 87.1512L12.5129 99.2658C12.4886 104.809 14.6936 109.824 19.0709 114.171C21.9457 117.028 24.9699 118.8 26.5038 119.596C26.5693 119.562 26.6421 119.524 26.7137 119.488V79.8589C26.7028 79.8492 26.6919 79.8407 26.6822 79.831L26.681 79.8298Z" fill="#7E3883"/>
<path d="M26.7114 79.8577V119.487C28.306 118.658 31.2064 116.947 33.9829 114.237C38.3978 109.929 40.6489 104.934 40.6732 99.3905L40.7278 87.2759C35.2559 85.815 30.2901 83.1828 26.7114 79.8577Z" fill="url(#paint2_linear_1503_3644)"/>
<path d="M26.7114 79.8577V119.487C28.306 118.658 31.2064 116.947 33.9829 114.237C38.3978 109.929 40.6489 104.934 40.6732 99.3905L40.7278 87.2759C35.2559 85.815 30.2901 83.1828 26.7114 79.8577Z" stroke="white"/>
<path d="M20.3208 97.3192V106.705C20.3208 107.75 33.1042 107.75 33.1042 106.705V97.3192H20.3208ZM27.3593 102.303V104.963C27.3593 105.318 27.0705 105.611 26.7161 105.611C26.3618 105.611 26.0669 105.316 26.0669 104.963V102.297C25.5196 102.051 25.1349 101.498 25.1349 100.861C25.1349 99.9902 25.8448 99.2876 26.7174 99.2876C27.5899 99.2876 28.2937 99.9902 28.2937 100.861C28.2937 101.503 27.9151 102.056 27.3617 102.303H27.3593Z" fill="white"/>
<path d="M31.9841 96.6505H30.6905V96.0182C30.6905 93.8281 28.9054 92.0474 26.7125 92.0474C24.5197 92.0474 22.7346 93.8293 22.7346 96.0182V96.6505H21.4409V96.0182C21.4409 93.1158 23.8061 90.7549 26.7137 90.7549C29.6214 90.7549 31.9854 93.1158 31.9854 96.0182V96.6505H31.9841Z" fill="white"/>
<path d="M121.334 0H98.2432V28.7706H121.334V0Z" fill="#296ACC"/>
<path d="M124.329 2.97021H101.238V31.7408H124.329V2.97021Z" fill="white" stroke="url(#paint3_linear_1503_3644)" stroke-width="6.34" stroke-miterlimit="10"/>
<path d="M128.131 5.88831H105.04V34.6589H128.131V5.88831Z" fill="white" stroke="url(#paint4_linear_1503_3644)" stroke-width="6.34" stroke-miterlimit="10"/>
<path d="M130.898 8.85852H107.807V37.6291H130.898V8.85852Z" fill="url(#paint5_linear_1503_3644)"/>
<path d="M127.305 13.5815H115.361V15.4531H127.305V13.5815Z" fill="#005CEA"/>
<path d="M127.306 17.9787H111.83V19.8502H127.306V17.9787Z" fill="#005CEA"/>
<path d="M127.306 22.3747H111.83V24.2462H127.306V22.3747Z" fill="#005CEA"/>
<path d="M127.306 26.7706H111.83V28.6421H127.306V26.7706Z" fill="#005CEA"/>
<path d="M127.306 31.1666H111.83V33.0381H127.306V31.1666Z" fill="#005CEA"/>
<path d="M55.5334 33.1294C56.5389 28.7472 53.795 24.381 49.4048 23.3774C45.0146 22.3737 40.6405 25.1126 39.6351 29.4948C38.6296 33.8771 41.3734 38.2432 45.7636 39.2469C50.1538 40.2505 54.5279 37.5117 55.5334 33.1294Z" fill="white"/>
<path d="M60.454 39.0573C61.511 37.3069 62.1724 35.4148 62.4527 33.5057L63.0607 33.5941L64.2609 33.7698H64.2767C64.6007 31.5869 64.4903 29.3774 63.9612 27.2673L62.176 27.7082C61.6967 25.7991 60.8533 23.9785 59.6519 22.3759L61.1312 21.2784C59.8655 19.5631 58.2405 18.0635 56.3013 16.897L55.3487 18.4742C53.589 17.4142 51.6996 16.7589 49.787 16.4791L50.054 14.6596C47.866 14.3362 45.6489 14.4525 43.5385 14.9746L43.9802 16.7565C42.0665 17.2337 40.2438 18.0768 38.6383 19.2761L37.5388 17.7994C35.8204 19.0629 34.3181 20.6849 33.1494 22.6206L34.7294 23.5715C33.6688 25.3279 33.0111 27.214 32.7307 29.1231L31.4408 28.9341L30.9141 28.8614L30.908 28.8578C30.584 31.0418 30.7005 33.2549 31.2235 35.3615L33.0086 34.9205C33.488 36.8296 34.3363 38.6527 35.5389 40.2565L34.0596 41.354C35.3253 43.0692 36.9441 44.5652 38.8834 45.7318L39.836 44.1546C41.5956 45.2133 43.4912 45.8735 45.4037 46.1533L45.1938 47.5669L45.1367 47.9727C47.3248 48.2962 49.5358 48.1762 51.6462 47.6542L51.2044 45.8723C53.117 45.3938 54.9434 44.5471 56.5561 43.3503L57.6556 44.8269C59.3679 43.5598 60.8666 41.9439 62.0353 40.0082L60.4552 39.0573H60.454ZM43.3783 38.2869C39.5181 35.9635 38.2766 30.9631 40.6054 27.1098C42.9293 23.2626 47.9388 22.0246 51.7991 24.3479C55.6533 26.6689 56.8947 31.6681 54.5696 35.5153C52.242 39.3686 47.2325 40.6078 43.3783 38.2869Z" fill="url(#paint6_linear_1503_3644)"/>
<path d="M60.454 39.0573C61.511 37.3069 62.1724 35.4148 62.4527 33.5057L63.0607 33.5941L64.2609 33.7698H64.2767C64.6007 31.5869 64.4903 29.3774 63.9612 27.2673L62.176 27.7082C61.6967 25.7991 60.8533 23.9785 59.6519 22.3759L61.1312 21.2784C59.8655 19.5631 58.2405 18.0635 56.3013 16.897L55.3487 18.4742C53.589 17.4142 51.6996 16.7589 49.787 16.4791L50.054 14.6596C47.866 14.3362 45.6489 14.4525 43.5385 14.9746L43.9802 16.7565C42.0665 17.2337 40.2438 18.0768 38.6383 19.2761L37.5388 17.7994C35.8204 19.0629 34.3181 20.6849 33.1494 22.6206L34.7294 23.5715C33.6688 25.3279 33.0111 27.214 32.7307 29.1231L31.4408 28.9341L30.9141 28.8614L30.908 28.8578C30.584 31.0418 30.7005 33.2549 31.2235 35.3615L33.0086 34.9205C33.488 36.8296 34.3363 38.6527 35.5389 40.2565L34.0596 41.354C35.3253 43.0692 36.9441 44.5652 38.8834 45.7318L39.836 44.1546C41.5956 45.2133 43.4912 45.8735 45.4037 46.1533L45.1938 47.5669L45.1367 47.9727C47.3248 48.2962 49.5358 48.1762 51.6462 47.6542L51.2044 45.8723C53.117 45.3938 54.9434 44.5471 56.5561 43.3503L57.6556 44.8269C59.3679 43.5598 60.8666 41.9439 62.0353 40.0082L60.4552 39.0573H60.454ZM43.3783 38.2869C39.5181 35.9635 38.2766 30.9631 40.6054 27.1098C42.9293 23.2626 47.9388 22.0246 51.7991 24.3479C55.6533 26.6689 56.8947 31.6681 54.5696 35.5153C52.242 39.3686 47.2325 40.6078 43.3783 38.2869Z" stroke="white"/>
<path d="M29.9309 37.9767C29.3362 37.0791 28.5839 36.3378 27.738 35.7733L27.9176 35.5044L28.2732 34.975L28.2768 34.9678C27.3096 34.3209 26.232 33.8739 25.1071 33.6474L24.9141 34.5947C23.896 34.3899 22.839 34.3803 21.8026 34.5886L21.6145 33.6389C20.5114 33.8521 19.4301 34.2846 18.4362 34.9411L18.9726 35.7503C18.0698 36.3463 17.3307 37.0949 16.7652 37.9392L15.9582 37.4013C15.3102 38.3668 14.8636 39.4461 14.6354 40.5654L15.5844 40.758C15.3793 41.7743 15.3696 42.8294 15.5784 43.8638L14.627 44.0516C14.8405 45.1527 15.2738 46.232 15.9315 47.2241L16.7422 46.6887C17.3392 47.5899 18.0892 48.3276 18.935 48.8921L18.554 49.4615L18.3998 49.6952L18.3962 49.6977C19.3634 50.3445 20.4447 50.7903 21.566 51.018L21.7589 50.0708C22.7771 50.2755 23.8377 50.284 24.8729 50.0756L25.061 51.0253C26.1641 50.8121 27.2429 50.3821 28.2368 49.7243L27.7004 48.9151C28.6033 48.3192 29.3447 47.5693 29.9103 46.7238L30.5364 47.1429L30.7173 47.2617C31.3653 46.2962 31.8082 45.2193 32.0364 44.1001L31.0874 43.9075C31.2925 42.8911 31.301 41.8324 31.0947 40.7967L32.0461 40.609C31.8289 39.5103 31.3981 38.4334 30.7403 37.4413L29.9297 37.9767H29.9309ZM25.7053 45.9086C23.7261 47.2156 21.0636 46.6754 19.7542 44.6997C18.446 42.7264 18.9884 40.0699 20.9677 38.7617C22.9445 37.4558 25.6058 37.9973 26.914 39.9706C28.2234 41.9463 27.6822 44.604 25.7053 45.9098V45.9086Z" fill="#1251B3"/>
<path d="M163.313 41.7816H143.487C143.07 41.7816 142.731 42.1194 142.731 42.5362V53.7654C142.731 54.1821 143.07 54.52 143.487 54.52H163.313C163.731 54.52 164.069 54.1821 164.069 53.7654V42.5362C164.069 42.1194 163.731 41.7816 163.313 41.7816Z" fill="url(#paint7_linear_1503_3644)"/>
<path d="M163.313 41.7816H143.487C143.07 41.7816 142.731 42.1194 142.731 42.5362V53.7654C142.731 54.1821 143.07 54.52 143.487 54.52H163.313C163.731 54.52 164.069 54.1821 164.069 53.7654V42.5362C164.069 42.1194 163.731 41.7816 163.313 41.7816Z" stroke="white"/>
<path d="M164.069 44.1873H142.731V46.3858H164.069V44.1873Z" fill="#75247C"/>
<path d="M147.62 52.0756H144.483C144.284 52.0756 144.121 52.2367 144.121 52.4365C144.121 52.6352 144.282 52.7975 144.483 52.7975H147.62C147.819 52.7975 147.981 52.6364 147.981 52.4365C147.981 52.2379 147.82 52.0756 147.62 52.0756Z" fill="#D1F5FF"/>
<path d="M152.444 52.0756H149.306C149.107 52.0756 148.945 52.2367 148.945 52.4365C148.945 52.6352 149.106 52.7975 149.306 52.7975H152.444C152.643 52.7975 152.805 52.6364 152.805 52.4365C152.805 52.2379 152.644 52.0756 152.444 52.0756Z" fill="#D1F5FF"/>
<path d="M157.269 52.0756H154.132C153.933 52.0756 153.77 52.2367 153.77 52.4365C153.77 52.6352 153.931 52.7975 154.132 52.7975H157.269C157.468 52.7975 157.63 52.6364 157.63 52.4365C157.63 52.2379 157.469 52.0756 157.269 52.0756Z" fill="#D1F5FF"/>
<path d="M162.093 52.0756H158.956C158.757 52.0756 158.595 52.2367 158.595 52.4365C158.595 52.6352 158.756 52.7975 158.956 52.7975H162.093C162.292 52.7975 162.455 52.6364 162.455 52.4365C162.455 52.2379 162.293 52.0756 162.093 52.0756Z" fill="#D1F5FF"/>
<path d="M144.337 42.4284C144.117 42.4284 143.939 42.6065 143.939 42.8257V42.965C143.939 43.1843 144.117 43.3623 144.337 43.3623C144.557 43.3623 144.735 43.1843 144.735 42.965V42.8257C144.735 42.6065 144.557 42.4284 144.337 42.4284Z" fill="#D1F5FF"/>
<path d="M145.196 42.896C145.196 43.154 145.406 43.3636 145.665 43.3636H147.325C147.583 43.3636 147.793 43.154 147.793 42.896C147.793 42.638 147.583 42.4284 147.325 42.4284H145.665C145.406 42.4284 145.196 42.638 145.196 42.896Z" fill="#D1F5FF"/>
<path d="M147.122 47.5681H144.978C144.634 47.5681 144.355 47.8463 144.355 48.1895V50.0356C144.355 50.3788 144.634 50.657 144.978 50.657H147.122C147.466 50.657 147.744 50.3788 147.744 50.0356V48.1895C147.744 47.8463 147.466 47.5681 147.122 47.5681Z" fill="#75247C"/>
<path d="M155.462 86.9671V85.5122C155.462 84.8521 154.925 84.3154 154.264 84.3154H141.505C140.843 84.3154 140.306 84.8508 140.306 85.5122V111.233H173.308V86.9671H155.46H155.462Z" fill="#1251B3"/>
<path d="M174.68 87.8501H142.319L140.306 111.231H173.148L174.68 87.8501Z" fill="white"/>
<path d="M173.309 111.231H140.307L143.809 88.1408C143.911 87.4649 144.494 86.9658 145.178 86.9658H175.381C176.228 86.9658 176.876 87.7181 176.75 88.5539L173.31 111.231H173.309Z" fill="#3383FF"/>
<path d="M182.11 93.1876C185.063 90.24 185.063 85.4609 182.11 82.5133C179.157 79.5657 174.37 79.5657 171.417 82.5133C168.464 85.4609 168.464 90.24 171.417 93.1876C174.37 96.1352 179.157 96.1352 182.11 93.1876Z" fill="#005CEA"/>
<path d="M176.764 95.6742C172.441 95.6742 168.924 92.1637 168.924 87.8501C168.924 83.5365 172.441 80.026 176.764 80.026C181.086 80.026 184.603 83.5365 184.603 87.8501C184.603 92.1637 181.086 95.6742 176.764 95.6742ZM176.764 80.5784C172.746 80.5784 169.479 83.8405 169.479 87.8501C169.479 91.8596 172.746 95.123 176.764 95.123C180.782 95.123 184.049 91.8596 184.049 87.8501C184.049 83.8405 180.782 80.5784 176.764 80.5784Z" fill="white"/>
<path d="M173.124 86.4849V91.8294C173.124 92.4241 180.403 92.4241 180.403 91.8294V86.4849H173.124ZM177.132 89.3231V90.8385C177.132 91.0408 176.968 91.2079 176.765 91.2079C176.563 91.2079 176.395 91.0408 176.395 90.8385V89.3207C176.083 89.1802 175.864 88.8664 175.864 88.503C175.864 88.0076 176.268 87.6066 176.764 87.6066C177.26 87.6066 177.662 88.0064 177.662 88.503C177.662 88.8688 177.446 89.1838 177.131 89.3231H177.132Z" fill="white"/>
<path d="M179.766 86.1033H179.03V85.7436C179.03 84.4971 178.013 83.482 176.764 83.482C175.515 83.482 174.498 84.4971 174.498 85.7436V86.1033H173.762V85.7436C173.762 84.0913 175.109 82.7467 176.764 82.7467C178.419 82.7467 179.766 84.0913 179.766 85.7436V86.1033Z" fill="white"/>
<path d="M150.505 27.5714C152.104 27.5714 153.401 26.2773 153.401 24.6811C153.401 23.0848 152.104 21.7908 150.505 21.7908C148.906 21.7908 147.61 23.0848 147.61 24.6811C147.61 26.2773 148.906 27.5714 150.505 27.5714Z" fill="#AAE0FF"/>
<path d="M77.3393 35.9534C77.6102 34.3802 76.5521 32.8858 74.976 32.6154C73.4 32.3451 71.9028 33.4013 71.632 34.9745C71.3611 36.5477 72.4192 38.0421 73.9953 38.3125C75.5713 38.5828 77.0685 37.5266 77.3393 35.9534Z" fill="#AAE0FF"/>
<path d="M170.807 75.4508C171.643 75.4508 172.321 74.774 172.321 73.9391C172.321 73.1041 171.643 72.4273 170.807 72.4273C169.971 72.4273 169.292 73.1041 169.292 73.9391C169.292 74.774 169.971 75.4508 170.807 75.4508Z" fill="white"/>
<path d="M13.7788 77.1187C13.97 76.3059 13.4648 75.4923 12.6505 75.3015C11.8362 75.1107 11.0211 75.615 10.83 76.4278C10.6388 77.2406 11.144 78.0542 11.9583 78.245C12.7726 78.4358 13.5877 77.9315 13.7788 77.1187Z" fill="#AAE0FF"/>
<path d="M37.2472 134.477C38.6877 133.784 39.2924 132.056 38.5979 130.618C37.9034 129.18 36.1727 128.577 34.7322 129.27C33.2918 129.963 32.687 131.691 33.3815 133.129C34.076 134.566 35.8067 135.17 37.2472 134.477Z" fill="#AAE0FF"/>
<path d="M82.4538 6.77743C82.1772 6.77743 81.9526 6.55334 81.9526 6.27715V0.91575C81.9526 0.639565 82.1772 0.415466 82.4538 0.415466C82.7305 0.415466 82.9551 0.639565 82.9551 0.91575V6.27594C82.9551 6.55212 82.7305 6.77622 82.4538 6.77622V6.77743Z" fill="#AAE0FF"/>
<path d="M79.2671 3.59648C79.2671 3.32029 79.4916 3.09619 79.7683 3.09619H85.1382C85.4149 3.09619 85.6394 3.32029 85.6394 3.59648C85.6394 3.87266 85.4149 4.09676 85.1382 4.09676H79.7683C79.4916 4.09676 79.2671 3.87266 79.2671 3.59648Z" fill="#AAE0FF"/>
<path d="M139.545 75.6083C139.268 75.6083 139.043 75.3842 139.043 75.108V69.7478C139.043 69.4716 139.268 69.2475 139.545 69.2475C139.821 69.2475 140.046 69.4716 140.046 69.7478V75.108C140.046 75.3842 139.821 75.6083 139.545 75.6083Z" fill="white"/>
<path d="M136.358 72.4273C136.358 72.1511 136.582 71.927 136.859 71.927H142.229C142.506 71.927 142.73 72.1511 142.73 72.4273C142.73 72.7035 142.506 72.9276 142.229 72.9276H136.859C136.582 72.9276 136.358 72.7035 136.358 72.4273Z" fill="white"/>
<path d="M134.085 146.213C133.808 146.213 133.584 145.988 133.584 145.712V140.352C133.584 140.076 133.808 139.852 134.085 139.852C134.362 139.852 134.586 140.076 134.586 140.352V145.712C134.586 145.988 134.362 146.213 134.085 146.213Z" fill="white"/>
<path d="M130.898 143.032C130.898 142.755 131.123 142.531 131.4 142.531H136.77C137.046 142.531 137.271 142.755 137.271 143.032C137.271 143.308 137.046 143.532 136.77 143.532H131.4C131.123 143.532 130.898 143.308 130.898 143.032Z" fill="white"/>
<path d="M89.3882 107.803C90.2749 107.803 90.9937 107.086 90.9937 106.201C90.9937 105.316 90.2749 104.598 89.3882 104.598C88.5015 104.598 87.7827 105.316 87.7827 106.201C87.7827 107.086 88.5015 107.803 89.3882 107.803Z" stroke="white" stroke-width="4.23" stroke-miterlimit="10"/>
<path d="M128.851 253.019H122.567L121.918 239.382H129.501L128.851 253.019Z" fill="#0E0E0E"/>
<path d="M238.054 253.019H231.77L231.121 239.382H238.704L238.054 253.019Z" fill="#0E0E0E"/>
<path d="M232.576 215.712C231.883 217.856 231.128 220.057 230.303 222.315H125.993C125.993 222.315 112.531 167.622 125.993 157.62C126.338 157.364 126.751 157.112 127.232 156.866C145.363 147.567 218.053 145.384 232.811 157.347C232.924 157.436 233.029 157.528 233.129 157.62C238.567 162.603 243.295 182.492 232.577 215.712H232.576Z" fill="#EA7B00"/>
<path d="M165.32 222.315H126.016L129.848 183.982C136.703 186.951 154.948 202.625 165.319 222.315H165.32Z" fill="#982C20"/>
<path d="M232.576 215.712C231.883 217.856 231.128 220.057 230.303 222.315H192.416C198.931 210.254 214.731 191.984 230.072 183.574L232.577 215.712H232.576Z" fill="#982C20"/>
<path d="M245.647 183.446H231.185C228.754 183.446 226.7 185.243 226.381 187.649L221.768 222.46H137.247L132.635 187.649C132.316 185.243 130.261 183.446 127.83 183.446H113.369C110.352 183.446 108.068 186.167 108.598 189.133L116.627 247.105H242.388L250.417 189.133C250.947 186.167 248.664 183.446 245.647 183.446Z" fill="#EA7B00"/>
<path d="M220.926 203.446C227.731 205.72 226.405 220.103 220.926 222.315H138.367C132.201 220.727 131.68 201.7 140.572 203.132C194.991 213.346 197.628 197.051 220.926 203.447V203.446Z" fill="#F2B066"/>
<path d="M158 188.867C157.975 192.581 158.175 196.076 158.575 199.138H197.287L199.58 161.408C197.28 147.626 190.985 144.286 181.021 144.286C172.104 144.286 166.165 151.547 162.556 161.267C159.436 169.665 158.056 179.895 158 188.867Z" fill="#007880"/>
<path d="M158 189.596L172.009 188.754C164.232 186.212 163.613 174.297 171.519 166.883L162.555 161.266C159.435 169.664 158.055 180.623 157.999 189.594L158 189.596Z" fill="#005459"/>
<path d="M155.333 206.936H208.52V188.869H160.611L155.333 206.936Z" fill="#0E0E0E"/>
<path d="M215.316 201.203L201.03 253.019H189.89C193.416 230.969 192.626 216.635 195.944 198.326C198.854 183.297 218.779 187.273 215.316 201.203Z" fill="#0E0E0E"/>
<path d="M197.029 253.019C197.029 252.985 197.026 252.951 197.026 252.916C197.026 249.075 200.146 245.96 203.995 245.96C207.843 245.96 210.963 249.075 210.963 252.916C210.963 252.95 210.96 252.984 210.96 253.019H197.03H197.029Z" fill="#B15626"/>
<path d="M205.337 246.09L202.804 245.317C201.132 242.034 194.002 242.441 194.995 246.436C192.198 246.852 190.726 245.461 190.726 245.461L189.89 253.018H204.996L205.337 246.09Z" fill="#B15626"/>
<path d="M152.585 201.203L166.871 253.019H178.012C174.485 230.969 175.275 216.635 171.957 198.326C169.047 183.297 149.122 187.273 152.585 201.203Z" fill="#0E0E0E"/>
<path d="M170.872 253.019C170.872 252.985 170.875 252.951 170.875 252.916C170.875 249.075 167.755 245.96 163.907 245.96C160.058 245.96 156.938 249.075 156.938 252.916C156.938 252.95 156.941 252.984 156.941 253.019H170.871H170.872Z" fill="#B15626"/>
<path d="M162.564 246.09L165.097 245.317C166.769 242.034 173.899 242.441 172.906 246.436C175.703 246.852 177.175 245.461 177.175 245.461L178.012 253.018H162.905L162.564 246.09Z" fill="#B15626"/>
<path d="M175.055 145.498C180.279 148.663 181.025 158.062 178.346 161.806L163.438 172.892L178.617 180.695L176.151 188.754C176.151 188.754 160.308 187.467 152.553 179.526C145.106 171.901 163.26 149.506 175.056 145.497L175.055 145.498Z" fill="#007880"/>
<path d="M185.655 159.755C181.185 154.154 184.272 145.498 189.969 145.752C208.52 152.272 214.247 170.373 208.37 178.498C203.335 185.46 181.185 188.141 181.185 188.141V180.519L196.575 177.2C196.575 177.2 188.64 164.928 185.655 159.755Z" fill="#007880"/>
<path d="M169.398 186.209C169.11 183.656 170.606 180.464 174.455 179.767C181.176 178.548 183.61 182.229 184.244 184.862C184.409 185.547 183.786 186.273 183.208 186.209C182.63 186.144 182.225 185.82 182.125 185.298C182.007 184.669 181.673 183.891 180.952 183.485C181.646 184.845 181.356 186.209 179.464 186.209H169.397H169.398Z" fill="#F7A594"/>
<path d="M184.574 186.201L189.864 159.726H190.985C190.627 161.549 185.424 188.04 185.261 188.867H169.408L167.677 186.201H184.574Z" fill="#99C1FF"/>
<path d="M190.984 159.726H230.345L224.524 188.869H185.26L190.984 159.726Z" fill="white"/>
<path d="M179.509 147.396C179.509 150.409 188.556 152.406 191.513 149.24C191.961 148.765 192.268 148.175 192.387 147.453L194.091 139.823L183.285 135.756L182.964 136.753L179.509 147.396Z" fill="#F7A594"/>
<path d="M192.386 147.453L194.09 139.823L183.867 137.075C181.22 144.936 190.663 151.217 192.385 147.453H192.386Z" fill="#F4856D"/>
<path d="M182.487 132.825C181.918 140.324 187.855 146.928 192.837 147.264C197.819 147.6 204.679 142.044 205.247 134.545C205.816 127.045 201.181 120.582 194.896 120.106C188.611 119.631 183.055 125.325 182.487 132.825Z" fill="#F7A594"/>
<path d="M190.815 120.675C197.705 116.32 201.496 120.416 204.927 124.76C207.334 127.807 209.039 129.998 212.034 130.457C206.271 137.713 194.746 132.925 191.115 125.655C190.757 129.794 185.87 133.222 182.487 132.826C181.391 128.22 184.586 118.91 190.817 120.675H190.815Z" fill="#0E0E0E"/>
<path d="M184.286 135.87C185.92 135.605 187.03 134.067 186.765 132.436C186.5 130.804 184.959 129.696 183.325 129.961C181.69 130.225 180.58 131.763 180.845 133.395C181.111 135.026 182.651 136.135 184.286 135.87Z" fill="#F7A594"/>
</g>
<defs>
<linearGradient id="paint0_linear_1503_3644" x1="28.8506" y1="15.848" x2="177.765" y2="46.9788" gradientUnits="userSpaceOnUse">
<stop stop-color="#2CB5C8"/>
<stop offset="1" stop-color="#63D1DF"/>
</linearGradient>
<linearGradient id="paint1_linear_1503_3644" x1="72.8331" y1="112.986" x2="102.534" y2="166.698" gradientUnits="userSpaceOnUse">
<stop stop-color="#8383F1"/>
<stop offset="1" stop-color="#4F4FB4"/>
</linearGradient>
<linearGradient id="paint2_linear_1503_3644" x1="38.2855" y1="79.9081" x2="14.921" y2="102.326" gradientUnits="userSpaceOnUse">
<stop stop-color="#CF70D7"/>
<stop offset="1" stop-color="#93379A"/>
</linearGradient>
<linearGradient id="paint3_linear_1503_3644" x1="101.238" y1="2.97021" x2="128.386" y2="7.51701" gradientUnits="userSpaceOnUse">
<stop stop-color="#2F87A5"/>
<stop offset="1" stop-color="#63D1DF"/>
</linearGradient>
<linearGradient id="paint4_linear_1503_3644" x1="105.04" y1="5.88831" x2="132.188" y2="10.4351" gradientUnits="userSpaceOnUse">
<stop stop-color="#2CB5C8"/>
<stop offset="1" stop-color="#63D1DF"/>
</linearGradient>
<linearGradient id="paint5_linear_1503_3644" x1="107.807" y1="8.85852" x2="134.955" y2="13.4053" gradientUnits="userSpaceOnUse">
<stop stop-color="#2CB5C8"/>
<stop offset="1" stop-color="#63D1DF"/>
</linearGradient>
<linearGradient id="paint6_linear_1503_3644" x1="35.2226" y1="14.5224" x2="58.6683" y2="50.8327" gradientUnits="userSpaceOnUse">
<stop stop-color="#8383F1"/>
<stop offset="1" stop-color="#4F4FB4"/>
</linearGradient>
<linearGradient id="paint7_linear_1503_3644" x1="160.351" y1="41.7978" x2="157.196" y2="56.1369" gradientUnits="userSpaceOnUse">
<stop stop-color="#CF70D7"/>
<stop offset="1" stop-color="#93379A"/>
</linearGradient>
<clipPath id="clip0_1503_3644">
<rect width="272" height="256" fill="white"/>
</clipPath>
</defs>
</svg>
