<svg width="260" height="256" viewBox="0 0 260 256" fill="none" xmlns="http://www.w3.org/2000/svg">
<g clip-path="url(#clip0_1503_3251)">
<path d="M228.976 219.514C223.693 225.01 218.692 228.553 214.743 231.352C168.314 264.262 113.376 254.669 101.701 252.327C84.4589 248.867 51.1315 242.18 27.0365 214.188C-9.41868 171.838 -3.74188 105.116 24.5343 61.0724C29.706 53.0156 57.0276 8.30129 112.557 1.13068C146.163 -3.20872 185.337 5.54377 213.705 29.0231C273.253 78.3086 269.014 177.873 228.976 219.514Z" fill="url(#paint0_linear_1503_3251)"/>
<path d="M130.754 245.551C130.754 245.551 181.454 117.472 256.771 103.481C258.108 103.233 259.326 104.301 259.26 105.659C258.499 121.457 248.851 205.069 130.755 245.551H130.754Z" fill="#2CB5C8"/>
<path opacity="0.62" d="M243.239 124.256C239.393 129.744 235.363 135.088 231.278 140.392C230.258 141.719 229.216 143.028 228.185 144.347C227.147 145.659 226.131 146.989 225.074 148.287L221.915 152.19C220.858 153.487 219.823 154.803 218.739 156.078C216.587 158.641 214.455 161.223 212.287 163.773L205.712 171.363C201.251 176.355 196.794 181.351 192.197 186.219L188.775 189.895C187.648 191.134 186.453 192.308 185.296 193.517L178.312 200.738L171.149 207.783C169.952 208.954 168.767 210.139 167.547 211.286L163.852 214.69C161.384 216.955 158.941 219.247 156.431 221.466L148.8 228.004L146.884 229.628C146.24 230.163 145.614 230.72 144.955 231.237L141.013 234.353C139.703 235.396 138.374 236.416 137.056 237.448C135.736 238.478 134.414 239.505 133.085 240.523C132.983 240.601 132.838 240.581 132.759 240.48C132.685 240.382 132.7 240.242 132.792 240.163L132.798 240.158C134.068 239.068 135.345 237.989 136.625 236.912C137.906 235.836 139.176 234.75 140.465 233.686L144.32 230.481C145.591 229.396 146.822 228.264 148.083 227.168L155.632 220.57L163.025 213.799L166.725 210.416C167.343 209.854 167.932 209.26 168.538 208.685L170.352 206.955L177.605 200.029C182.323 195.293 187.119 190.629 191.675 185.731C193.976 183.304 196.303 180.903 198.526 178.403C200.768 175.922 203.029 173.458 205.254 170.961L211.851 163.403C214.028 160.864 216.167 158.294 218.327 155.74C219.414 154.469 220.453 153.159 221.515 151.867L224.686 147.979C225.746 146.687 226.767 145.361 227.809 144.054C228.843 142.74 229.89 141.436 230.914 140.114C234.996 134.817 239.02 129.467 242.853 123.994L242.856 123.99C242.929 123.885 243.074 123.86 243.178 123.933C243.283 124.007 243.309 124.152 243.236 124.256H243.239Z" fill="white"/>
<g opacity="0.79">
<path opacity="0.79" d="M118.469 172.096C118.469 172.096 143.116 58.9971 217.519 0.368521C218.489 -0.396356 219.925 0.0871971 220.221 1.28619C224.901 20.2248 249.269 141.02 118.468 172.096H118.469Z" fill="#42E8E0"/>
<path opacity="0.62" d="M209.619 32.9958C208.764 36.2773 207.77 39.5093 206.721 42.727C205.671 45.9429 204.566 49.1427 203.393 52.3163C201.04 58.6618 198.477 64.93 195.715 71.1111C195.03 72.6588 194.307 74.1895 193.605 75.73C192.899 77.2678 192.136 78.7796 191.404 80.3058C190.677 81.8346 189.891 83.3347 189.129 84.8456L187.975 87.1079L186.782 89.3486C183.602 95.3256 180.251 101.217 176.64 106.948C173.017 112.67 169.253 118.308 165.192 123.731C164.69 124.412 164.197 125.101 163.686 125.776L162.128 127.783L160.571 129.789C160.049 130.455 159.542 131.135 158.994 131.781L155.759 135.699L154.946 136.675L154.105 137.627L152.422 139.529C143.493 149.718 133.497 158.967 122.69 167.11C122.601 167.177 122.474 167.159 122.407 167.07C122.341 166.983 122.357 166.861 122.44 166.793L122.445 166.789L126.369 163.588L128.334 161.994L130.236 160.324L134.034 156.981L137.706 153.501C138.314 152.917 138.94 152.352 139.539 151.758L141.318 149.96C142.498 148.756 143.702 147.574 144.861 146.35C147.139 143.864 149.472 141.429 151.64 138.844L153.294 136.932L154.121 135.976L154.919 134.994L158.119 131.078C158.662 130.433 159.163 129.755 159.681 129.09L161.224 127.087L162.767 125.085C163.273 124.411 163.762 123.723 164.259 123.044C168.282 117.63 172.008 112.003 175.593 106.294C179.197 100.593 182.565 94.745 185.753 88.8003L186.951 86.5722L188.109 84.3225C188.875 82.8197 189.663 81.3286 190.393 79.8078C191.89 76.7852 193.336 73.7374 194.758 70.6778C197.582 64.5498 200.207 58.3284 202.629 52.0287C203.859 48.8856 205.019 45.7155 206.127 42.5275C206.684 40.9339 207.218 39.3341 207.736 37.7279C208.262 36.1254 208.764 34.5111 209.228 32.8942V32.8906C209.26 32.7836 209.372 32.7216 209.479 32.7522C209.585 32.7827 209.646 32.8915 209.619 32.9976V32.9958Z" fill="white"/>
</g>
<g opacity="0.76">
<path opacity="0.76" d="M79.8025 166.026C79.8025 166.026 70.1917 65.6967 11.929 7.31528C11.1695 6.554 9.87793 6.82364 9.49774 7.8294C3.49288 23.7183 -30.0664 125.631 79.8025 166.026Z" fill="#39B7C2"/>
<path opacity="0.62" d="M15.7597 36.288C16.7538 42.0727 18.0409 47.8178 19.5122 53.5045C20.9602 59.1984 22.5897 64.8464 24.4017 70.4333C25.3184 73.2232 26.2541 76.0068 27.2356 78.7742C27.7092 80.1637 28.2368 81.5344 28.7438 82.9122L29.5122 84.9759L30.3176 87.0251C32.4594 92.4916 34.7684 97.8943 37.294 103.193C39.8008 108.499 42.4378 113.749 45.3535 118.843C45.714 119.482 46.0645 120.127 46.4312 120.762L47.5574 122.653L48.6836 124.545C49.062 125.173 49.4251 125.811 49.8269 126.425L52.1853 130.141L52.7722 131.072L53.387 131.985L54.6175 133.809C56.2227 136.268 57.9844 138.616 59.6948 141.001C60.5693 142.18 61.487 143.326 62.3813 144.49L63.7313 146.229C64.187 146.804 64.6696 147.358 65.1334 147.926L67.943 151.317L70.8758 154.603L72.3444 156.245L73.8751 157.829L76.9301 161.006L76.9337 161.01C77.011 161.09 77.0083 161.218 76.9283 161.295C76.8501 161.371 76.7261 161.37 76.6488 161.295C68.1309 153.152 60.4345 144.126 53.7582 134.395L52.4981 132.576L51.868 131.667L51.2658 130.738L48.8714 127.016C48.4643 126.401 48.0967 125.761 47.7138 125.131L46.5732 123.235L45.4326 121.339C45.0605 120.702 44.7055 120.055 44.3406 119.414C41.388 114.305 38.715 109.04 36.1732 103.718C33.644 98.3868 31.3575 92.9455 29.2273 87.4467L28.4274 85.3848L27.6643 83.3095C27.1619 81.9236 26.6379 80.5457 26.1678 79.1481C25.6932 77.7522 25.1899 76.3663 24.7387 74.9633C24.292 73.5585 23.8273 72.159 23.3959 70.7497C19.9319 59.4815 17.0549 48.0182 15.3562 36.3429C15.34 36.2323 15.4164 36.1299 15.5269 36.1137C15.6357 36.0975 15.7364 36.1712 15.7552 36.2791L15.757 36.2871L15.7597 36.288Z" fill="white"/>
</g>
<path d="M28.1378 13.2816C27.3037 52.6525 24.5974 188.459 25.889 236.584C26.0256 241.682 29.5192 245.775 33.8775 245.942C55.4324 246.767 134.451 248.858 169.707 247.128C177.051 246.768 182.89 239.809 183.043 231.213C183.775 189.888 185.392 73.6565 181.55 20.4099C181.09 14.0303 176.81 8.95025 171.364 8.313C147.89 5.56538 68.5315 -1.14954 38.0722 1.16307C32.5787 1.58011 28.2744 6.84437 28.1378 13.2816Z" fill="url(#paint1_linear_1503_3251)"/>
<path d="M37.7557 25.3614C36.5954 57.1402 32.9355 162.859 34.0976 201.952C34.2675 207.665 38.117 212.286 42.9957 212.62C63.0838 213.995 131.619 217.027 161.083 214.267C166.389 213.77 170.552 208.75 170.839 202.533C172.332 170.113 176.619 71.6728 175.505 33.0182C175.328 26.8516 171.244 21.8156 165.992 21.2638C144.26 18.9808 71.4328 13.5494 46.395 15.1474C41.6951 15.4476 37.9561 19.8589 37.7557 25.3605V25.3614Z" fill="#7D97F4"/>
<path d="M91.6396 8.97274C91.6396 10.1807 92.4441 11.1775 93.4759 11.2404C98.5667 11.5523 112.909 12.4349 119.318 12.8699C120.582 12.9562 121.574 11.6269 121.334 10.1726L121.294 9.92456C121.13 8.93229 120.426 8.18539 119.566 8.09372C115.234 7.62904 102.16 6.34106 93.4984 6.70328C92.4576 6.74642 91.6396 7.75577 91.6396 8.97364V8.97274Z" fill="url(#paint2_linear_1503_3251)"/>
<path d="M101.658 92.0117C118.262 92.0117 131.722 78.5513 131.722 61.9469C131.722 45.3426 118.262 31.8821 101.658 31.8821C85.0532 31.8821 71.5928 45.3426 71.5928 61.9469C71.5928 78.5513 85.0532 92.0117 101.658 92.0117Z" fill="url(#paint3_linear_1503_3251)"/>
<path d="M110.862 50.5861C110.862 55.6769 106.735 61.1731 101.644 61.1731C96.5531 61.1731 92.4258 55.6769 92.4258 50.5861C92.4258 45.4953 96.5531 41.884 101.644 41.884C106.735 41.884 110.862 45.4953 110.862 50.5861Z" fill="white"/>
<path d="M90.2052 80.7732H112.707C115.076 80.7732 117.173 79.2425 117.895 76.9865L119.106 73.2017C119.992 70.4307 118.551 67.4305 115.819 66.4319C106.661 63.0838 97.1924 63.5135 87.4926 66.7411C84.7755 67.6453 83.2674 70.552 84.0169 73.3158L84.949 76.7528C85.5925 79.1257 87.7469 80.7732 90.2061 80.7732H90.2052Z" fill="white"/>
<g opacity="0.71">
<path opacity="0.65" d="M159.322 122.959H49.595C49.2599 122.959 48.9883 123.231 48.9883 123.566V139.421C48.9883 139.756 49.2599 140.027 49.595 140.027H159.322C159.657 140.027 159.929 139.756 159.929 139.421V123.566C159.929 123.231 159.657 122.959 159.322 122.959Z" fill="white"/>
<path opacity="0.65" d="M158.723 150.807H48.9963C48.6613 150.807 48.3896 151.078 48.3896 151.413V167.268C48.3896 167.603 48.6613 167.875 48.9963 167.875H158.723C159.059 167.875 159.33 167.603 159.33 167.268V151.413C159.33 151.078 159.059 150.807 158.723 150.807Z" fill="white"/>
<path opacity="0.65" d="M137.301 179.328H67.1296C66.7161 179.328 66.3809 179.663 66.3809 180.077V200.339C66.3809 200.753 66.7161 201.088 67.1296 201.088H137.301C137.714 201.088 138.049 200.753 138.049 200.339V180.077C138.049 179.663 137.714 179.328 137.301 179.328Z" fill="white"/>
</g>
<path opacity="0.75" d="M118.903 126.825H54.9814C54.3857 126.825 53.9028 127.308 53.9028 127.903V135.229C53.9028 135.824 54.3857 136.307 54.9814 136.307H118.903C119.499 136.307 119.982 135.824 119.982 135.229V127.903C119.982 127.308 119.499 126.825 118.903 126.825Z" fill="white"/>
<g opacity="0.75">
<path opacity="0.75" d="M57.687 162.462C59.6732 161.639 60.6165 159.362 59.7937 157.376C58.971 155.389 56.6939 154.446 54.7077 155.269C52.7215 156.092 51.7783 158.369 52.601 160.355C53.4237 162.341 55.7008 163.284 57.687 162.462Z" fill="white"/>
<path opacity="0.75" d="M66.8786 162.957C69.0285 162.957 70.7713 161.215 70.7713 159.065C70.7713 156.915 69.0285 155.172 66.8786 155.172C64.7287 155.172 62.9858 156.915 62.9858 159.065C62.9858 161.215 64.7287 162.957 66.8786 162.957Z" fill="white"/>
<path opacity="0.75" d="M80.9465 160.45C81.4404 158.357 80.1445 156.261 78.0521 155.767C75.9597 155.273 73.8631 156.569 73.3693 158.661C72.8754 160.754 74.1713 162.85 76.2637 163.344C78.3561 163.838 80.4527 162.542 80.9465 160.45Z" fill="white"/>
<path opacity="0.75" d="M87.8394 163.657C89.9893 163.657 91.7321 161.914 91.7321 159.764C91.7321 157.614 89.9893 155.871 87.8394 155.871C85.6896 155.871 83.9468 157.614 83.9468 159.764C83.9468 161.914 85.6896 163.657 87.8394 163.657Z" fill="white"/>
<path opacity="0.75" d="M98.5201 163.556C100.67 163.556 102.413 161.813 102.413 159.663C102.413 157.513 100.67 155.771 98.5201 155.771C96.3703 155.771 94.6274 157.513 94.6274 159.663C94.6274 161.813 96.3703 163.556 98.5201 163.556Z" fill="white"/>
<path opacity="0.75" d="M109.2 163.756C111.35 163.756 113.093 162.014 113.093 159.864C113.093 157.714 111.35 155.971 109.2 155.971C107.05 155.971 105.308 157.714 105.308 159.864C105.308 162.014 107.05 163.756 109.2 163.756Z" fill="white"/>
</g>
<path d="M153.654 172.571L165.58 175.552L162.599 197.913C162.599 197.913 167.071 202.386 168.562 208.348C170.053 214.311 171.427 239.349 171.427 239.349L174.256 241.059L174.601 242.487L166.368 253.557L167.733 244.746C167.95 243.348 167.574 240.511 167.693 240.452C163.22 228.526 153.654 194.93 153.654 194.93V172.569V172.571Z" fill="url(#paint4_linear_1503_3251)"/>
<path d="M150.169 242.642C150.299 242.64 150.426 242.65 150.555 242.642C149.979 235.453 147.345 203.81 144.709 191.951C141.728 178.534 149.182 151.701 149.182 151.701L162.599 165.118L155.145 190.461C160.253 198.123 154.312 242.993 154.44 242.974L154.432 243.073L156.377 245.747L156.14 247.197L144.259 254.209L148.934 246.617C149.676 245.411 150.086 244.045 150.169 242.642Z" fill="url(#paint5_linear_1503_3251)"/>
<path d="M165.26 92.1959C165.26 92.1959 191.383 121.638 165.26 136.733L162.599 134.806C162.599 134.806 175.568 122.387 162.599 107.184L165.26 92.1959Z" fill="url(#paint6_linear_1503_3251)"/>
<path d="M143.476 255.308H147.268C147.978 255.308 148.647 254.983 149.08 254.42C150.262 252.884 152.711 249.887 153.882 249.809C155.459 249.704 155.257 255.308 155.257 255.308H156.141L157.26 248.344C157.541 246.592 156.67 244.856 155.096 244.035C155.096 244.035 154.736 246.7 152.782 247.878C150.828 249.058 144.831 253.278 144.831 253.278C144.831 253.278 144.097 253.173 143.29 253.32C142.093 253.536 142.261 255.308 143.476 255.308Z" fill="url(#paint7_linear_1503_3251)"/>
<path d="M166.074 254.876L169.568 253.405C170.223 253.13 170.714 252.57 170.894 251.883C171.389 250.01 172.483 246.297 173.532 245.772C174.944 245.063 176.931 250.307 176.931 250.307L177.746 249.965L176.077 243.111C175.657 241.387 174.18 240.125 172.412 239.978C172.412 239.978 173.113 242.574 171.77 244.418C170.426 246.262 166.535 252.479 166.535 252.479C166.535 252.479 165.818 252.668 165.13 253.115C164.111 253.778 164.952 255.347 166.073 254.875L166.074 254.876Z" fill="url(#paint8_linear_1503_3251)"/>
<path d="M145.766 129.014C145.766 129.014 146.204 131.702 145.562 139.089C144.919 146.476 141.849 163.82 142.474 180.415C142.474 180.415 151.203 182.449 166.369 181.485C166.369 181.485 172.769 155.576 171.21 145.726C169.65 135.876 161.193 128.811 161.193 128.811L145.766 129.014Z" fill="url(#paint9_linear_1503_3251)"/>
<path d="M152.215 79.6514L151.148 92.1959H161.285L158.765 73.0471L152.215 79.6514Z" fill="url(#paint10_linear_1503_3251)"/>
<path d="M164.287 90.4613C160.789 90.268 152.967 89.9112 147.426 90.2132C144.509 90.3723 142.065 92.4656 141.468 95.3256L140.116 101.802C139.613 104.215 139.689 106.712 140.336 109.09L145.764 129.015C145.764 129.015 150.592 131.917 161.191 128.812C161.191 128.812 170.498 106.615 166.688 92.4162C166.393 91.3133 165.426 90.5251 164.285 90.4622L164.287 90.4613Z" fill="url(#paint11_linear_1503_3251)"/>
<path d="M141.734 94.1634C140.241 98.0966 138.892 102.22 137.444 106.083C136.707 108.017 135.96 109.911 135.161 111.651C134.757 112.518 134.313 113.314 133.906 114.037C133.498 114.751 133.038 115.346 132.798 115.62C132.752 115.661 132.909 115.692 132.961 115.694C132.993 115.698 131.952 115.865 131.633 115.918L130.385 115.911C128.597 115.819 126.571 115.504 124.539 115.109C120.441 114.345 116.181 113.272 111.805 112.46L111.772 112.454C110.935 112.298 110.13 112.851 109.975 113.689C109.873 114.241 110.08 114.78 110.472 115.127C112.237 116.68 114.106 117.956 116.046 119.197C117.022 119.794 118.015 120.379 119.025 120.94C120.055 121.465 121.087 121.994 122.159 122.484C124.318 123.425 126.549 124.291 129.119 124.848C129.794 124.961 130.461 125.079 131.155 125.172C131.935 125.199 132.642 125.268 133.493 125.219C133.945 125.174 134.399 125.118 134.852 125.052C135.094 125.01 135.271 125.006 135.564 124.925C135.874 124.831 136.184 124.727 136.49 124.613C137.128 124.384 137.54 124.107 138.059 123.818C138.49 123.534 138.882 123.238 139.263 122.934C140.667 121.738 141.539 120.549 142.309 119.41C143.075 118.271 143.683 117.13 144.228 116.011C145.323 113.776 146.177 111.562 146.871 109.333C148.276 104.866 149.228 100.476 149.629 95.8127C149.822 93.5792 148.167 91.6126 145.933 91.4203C144.085 91.2612 142.419 92.3667 141.791 94.0196L141.738 94.1634H141.734Z" fill="url(#paint12_linear_1503_3251)"/>
<path d="M113.181 114.465L111.373 110.171L101.853 107.799C101.853 107.799 101.092 109.449 105.089 110.171C105.089 110.171 103.661 111.749 104.423 113.606C105.185 115.462 113.277 117.323 113.182 114.465H113.181Z" fill="url(#paint13_linear_1503_3251)"/>
<path d="M147.923 65.1628C147.561 65.3758 144.71 75.4343 147.099 79.6505C149.489 83.8677 156.786 79.1445 158.764 73.0462C160.741 66.9487 157.564 59.4761 147.923 65.1619V65.1628Z" fill="url(#paint14_linear_1503_3251)"/>
<path d="M166.837 73.0471C168.474 81.0661 173.897 78.8722 177.738 82.4395C183.964 88.2224 192.87 82.2606 201.528 87.7406C207.778 91.6971 210.79 101.818 207.791 109.989C203.636 121.307 189.439 125.961 182.081 122.514C175.05 119.22 176.051 109.353 166.59 105.539C162.573 103.921 160.59 104.972 158.185 102.573C153.974 98.3734 155.11 90.2222 155.548 87.0818C156.498 80.268 158.782 79.0349 157.691 76.0401C155.567 70.2159 145.661 71.4175 144.836 67.3055C144.085 63.5612 151.264 56.4633 158.021 57.5823C168.474 59.3125 166.108 69.4743 166.838 73.0471H166.837Z" fill="url(#paint15_linear_1503_3251)"/>
<path opacity="0.6" d="M204.668 108.072C204.792 108.072 204.904 107.989 204.934 107.863C206.273 102.306 205.666 97.7496 203.129 94.3189C198.919 88.625 190.737 88.0614 190.655 88.0561C190.527 88.0345 190.375 88.1612 190.366 88.3131C190.357 88.4641 190.471 88.5935 190.622 88.6025C190.702 88.607 198.635 89.158 202.691 94.6478C205.125 97.9419 205.701 102.345 204.402 107.735C204.367 107.882 204.457 108.03 204.604 108.065C204.626 108.07 204.647 108.072 204.668 108.072Z" fill="white"/>
<path opacity="0.72" d="M177.872 113.159C177.882 113.159 177.895 113.157 177.907 113.154C177.979 113.135 178.023 113.06 178.005 112.987C176.701 107.985 174.413 104.511 171.206 102.662C168.873 101.315 166.688 101.19 164.761 101.08C162.902 100.973 161.297 100.88 160.005 99.7315C157.335 97.3568 157.489 91.6468 160.464 82.7603C160.489 82.6884 160.449 82.6111 160.378 82.5869C160.306 82.5626 160.229 82.6022 160.205 82.6732C157.191 91.6728 157.062 97.48 159.823 99.9346C161.185 101.147 162.835 101.242 164.745 101.352C166.642 101.461 168.792 101.585 171.069 102.898C174.211 104.709 176.455 108.127 177.739 113.056C177.756 113.117 177.811 113.159 177.872 113.159H177.872Z" fill="white"/>
<path opacity="0.72" d="M162.965 71.0563C162.979 71.0563 162.994 71.0545 163.009 71.0491C163.081 71.0248 163.119 70.9466 163.095 70.8756C162.059 67.7927 159.073 68.2502 155.909 68.7374C153.907 69.0456 151.837 69.362 150.081 68.8425C148.77 68.4542 147.992 67.852 147.767 67.053C147.383 65.6922 148.729 64.176 148.742 64.1598C148.794 64.104 148.788 64.0169 148.733 63.9665C148.677 63.9162 148.59 63.9207 148.539 63.9764C148.479 64.0429 147.08 65.6194 147.503 67.1258C147.756 68.021 148.596 68.687 150.003 69.1032C151.818 69.6407 153.919 69.3189 155.951 69.0061C159.126 68.5189 161.872 68.0956 162.835 70.9619C162.854 71.0194 162.908 71.0545 162.965 71.0545V71.0563Z" fill="white"/>
<path d="M193.135 39.912C193.135 25.7982 205.091 14.3583 219.437 14.3601C233.36 14.3619 244.348 25.1996 244.348 38.5665C244.348 51.9334 233.36 63.3481 219.437 64.0816C205.09 64.8375 193.135 54.0258 193.135 39.912Z" fill="url(#paint16_linear_1503_3251)"/>
<path d="M195.535 39.8491C195.535 27.0583 206.37 16.6907 219.373 16.6916C231.991 16.6934 241.949 26.5154 241.949 38.6294C241.949 50.7434 231.991 61.0886 219.373 61.7537C206.37 62.4386 195.535 52.6399 195.535 39.8491Z" fill="url(#paint17_linear_1503_3251)"/>
<path d="M211.649 38.3984H209.513V29.885C209.513 26.5415 212.016 23.7157 215.335 23.3121L219.703 22.7809C221.584 22.5526 223.475 23.1413 224.892 24.3979C226.309 25.6535 227.123 27.4601 227.123 29.3538V36.786H224.986V29.3538C224.986 28.0712 224.435 26.8471 223.476 25.9968C222.516 25.1466 221.234 24.7466 219.96 24.9021L215.592 25.4333C213.343 25.7065 211.648 27.6209 211.648 29.885V38.3984H211.649Z" fill="white"/>
<path d="M208.882 36.4867L227.608 35.4495C228.368 35.4072 229.008 36.013 229.008 36.7743V51.6099C229.008 52.3424 228.414 52.9365 227.682 52.9365H209.406C208.689 52.9365 208.102 52.3684 208.079 51.653L207.629 37.8556C207.605 37.1347 208.162 36.5271 208.882 36.4876V36.4867Z" fill="white"/>
<path d="M221.37 48.6869L220.237 45.4279C220.1 45.036 220.194 44.5983 220.485 44.3026C221.066 43.7139 221.412 42.8933 221.371 41.9918C221.299 40.4018 220.001 39.1139 218.411 39.0527C216.651 38.9853 215.203 40.3919 215.203 42.1365C215.203 43.1045 215.648 43.9674 216.346 44.5336C216.707 44.8266 216.856 45.3093 216.704 45.7488L215.682 48.6869C215.433 49.4015 215.964 50.1475 216.72 50.1475H220.332C221.089 50.1475 221.619 49.4015 221.371 48.6869H221.37Z" fill="url(#paint18_linear_1503_3251)"/>
<g opacity="0.3">
<path opacity="0.3" d="M63.6162 227.857C63.8427 228.334 63.6935 228.924 63.2558 229.214C62.2986 229.85 61.3009 230.452 60.2906 231.003C59.799 231.271 59.1923 231.07 58.9362 230.553L58.9272 230.534C58.6845 230.021 58.8759 229.396 59.3613 229.131C60.3212 228.607 61.2685 228.036 62.1781 227.431C62.6455 227.12 63.2666 227.266 63.5641 227.759C63.5829 227.79 63.6009 227.823 63.6162 227.856V227.857ZM55.7589 231.869C55.776 231.906 55.7922 231.945 55.8056 231.984C55.9926 232.532 55.7212 233.135 55.199 233.33C54.1267 233.731 53.0275 234.087 51.9327 234.39C51.397 234.538 50.8497 234.203 50.705 233.638C50.563 233.074 50.8829 232.498 51.4177 232.351C52.4594 232.063 53.5029 231.724 54.5222 231.344C55.0057 231.163 55.5351 231.396 55.7589 231.869ZM47.2518 233.962C47.3012 234.067 47.3354 234.183 47.3498 234.307C47.4154 234.884 47.0235 235.408 46.4725 235.477C45.3445 235.617 44.1959 235.706 43.0598 235.744C42.5052 235.762 42.0424 235.304 42.0226 234.723C42.0037 234.141 42.4378 233.654 42.9924 233.636C44.0718 233.601 45.1612 233.516 46.2335 233.383C46.6667 233.329 47.0684 233.573 47.2527 233.962H47.2518ZM38.5056 234.004C38.5883 234.177 38.6251 234.378 38.6045 234.584C38.546 235.163 38.0517 235.581 37.4998 235.518C36.3692 235.389 35.2295 235.207 34.1141 234.977C33.5703 234.865 33.2144 234.311 33.3195 233.739C33.4247 233.168 33.9514 232.796 34.4961 232.908C35.5557 233.126 36.6379 233.3 37.712 233.422C38.0661 233.463 38.3573 233.692 38.5047 234.004H38.5056ZM29.9661 231.996C30.0812 232.239 30.1072 232.53 30.0174 232.807C29.8376 233.358 29.2669 233.65 28.7429 233.461C27.6697 233.073 26.5965 232.63 25.5548 232.147C25.047 231.911 24.816 231.289 25.0398 230.756C25.2627 230.224 25.855 229.983 26.3628 230.219C27.3533 230.679 28.3726 231.099 29.3927 231.468C29.6533 231.563 29.8529 231.758 29.9661 231.998V231.996ZM22.0585 228.055C22.2077 228.37 22.2041 228.757 22.0145 229.078C21.7232 229.573 21.1049 229.725 20.633 229.419C19.6659 228.79 18.7123 228.109 17.7991 227.397C17.3533 227.049 17.2598 226.388 17.5906 225.921C17.9204 225.454 18.5496 225.357 18.9945 225.705C19.8627 226.383 20.7678 227.029 21.6873 227.627C21.8527 227.735 21.9776 227.884 22.0585 228.055ZM3.52889 194.54C3.59091 194.671 3.62776 194.817 3.63315 194.972C3.6709 196.105 3.75719 197.25 3.88751 198.378C3.95492 198.956 3.56305 199.481 3.01298 199.55C2.46292 199.619 1.96229 199.207 1.89488 198.629C1.75646 197.441 1.66659 196.234 1.62614 195.043C1.60637 194.46 2.03959 193.973 2.59414 193.954C3.0004 193.94 3.35902 194.181 3.52889 194.541V194.54ZM15.1791 222.377C15.3643 222.769 15.304 223.257 14.9958 223.586C14.6066 224 13.9711 224.004 13.5765 223.595C12.7658 222.756 11.9803 221.87 11.2415 220.961C10.8829 220.516 10.9296 219.853 11.3511 219.475C11.7727 219.097 12.4063 219.15 12.7667 219.593C13.4687 220.456 14.2138 221.297 14.9841 222.094C15.0659 222.178 15.1315 222.274 15.1791 222.376V222.377ZM4.82047 203.627C4.85013 203.689 4.87439 203.756 4.89237 203.826C5.171 204.921 5.49816 206.019 5.86487 207.088C6.05272 207.637 5.78218 208.241 5.26088 208.436C4.73957 208.632 4.16165 208.348 3.97649 207.799C3.59091 206.674 3.24667 205.519 2.95276 204.366C2.80986 203.803 3.12803 203.225 3.66371 203.077C4.13288 202.947 4.61284 203.187 4.82136 203.628L4.82047 203.627ZM9.67577 215.23C9.90137 215.708 9.75307 216.296 9.31715 216.587C8.84977 216.899 8.2296 216.753 7.93031 216.262C7.32002 215.256 6.74209 214.209 6.2136 213.148C6.21001 213.142 6.20731 213.134 6.20371 213.128C5.96104 212.616 6.15158 211.992 6.63604 211.726C7.12768 211.457 7.73347 211.657 7.99142 212.174C8.49295 213.18 9.04212 214.175 9.62274 215.132C9.64161 215.164 9.65959 215.197 9.67577 215.23Z" fill="url(#paint19_linear_1503_3251)"/>
<path opacity="0.3" d="M3.91709 187.148C4.00517 187.334 4.04202 187.549 4.01147 187.77C3.93597 188.308 3.87035 188.856 3.81553 189.4C3.75711 189.979 3.26277 190.397 2.7118 190.335C2.16084 190.273 1.75998 189.752 1.8193 189.173C1.87682 188.602 1.94603 188.025 2.02512 187.459C2.10601 186.883 2.61563 186.486 3.1639 186.572C3.50185 186.625 3.77598 186.849 3.91709 187.148Z" fill="url(#paint20_linear_1503_3251)"/>
</g>
<g opacity="0.3">
<path opacity="0.3" d="M19.835 159.735C20.0507 160.191 19.9266 160.756 19.5195 161.061C19.0988 161.376 18.6764 161.705 18.2657 162.041C17.8279 162.397 17.1979 162.314 16.8563 161.854C16.5139 161.392 16.5939 160.731 17.0307 160.374C17.463 160.022 17.907 159.674 18.3501 159.342C18.8013 159.005 19.4278 159.116 19.7505 159.59C19.7819 159.637 19.8098 159.686 19.8332 159.735H19.835Z" fill="url(#paint21_linear_1503_3251)"/>
<path opacity="0.3" d="M77.5808 174.931C77.7866 175.366 77.9861 175.806 78.1794 176.251C78.4095 176.782 78.1875 177.406 77.6832 177.647C77.179 177.888 76.5804 177.651 76.353 177.122C75.9072 176.095 75.4219 175.088 74.906 174.12C74.6354 173.611 74.8071 172.97 75.2906 172.686C75.7742 172.402 76.3863 172.585 76.6577 173.093C76.9768 173.692 77.2878 174.31 77.5817 174.93L77.5808 174.931ZM80.0453 181.466C80.0704 181.519 80.0911 181.575 80.1082 181.633C80.4309 182.76 80.7122 183.915 80.9441 185.063C81.0591 185.633 80.7122 186.192 80.1702 186.311C79.6273 186.43 79.0935 186.064 78.9802 185.495C78.76 184.403 78.4931 183.308 78.1866 182.236C78.0266 181.678 78.3277 181.091 78.858 180.925C79.3334 180.776 79.8314 181.015 80.0462 181.467L80.0453 181.466ZM73.7609 168.446C73.9721 168.892 73.8589 169.445 73.4679 169.755C73.0257 170.105 72.3965 170.012 72.0613 169.547C71.4213 168.657 70.7365 167.785 70.0246 166.952C69.6543 166.518 69.6875 165.852 70.0992 165.464C70.5117 165.076 71.1463 165.113 71.5175 165.547C72.2662 166.423 72.9879 167.343 73.662 168.28C73.7007 168.334 73.733 168.39 73.7609 168.448V168.446ZM81.6047 190.361C81.6613 190.48 81.6973 190.614 81.7072 190.755C81.7863 191.927 81.8195 193.118 81.8042 194.292C81.797 194.874 81.3414 195.338 80.7868 195.329C80.2322 195.32 79.7891 194.841 79.7963 194.259C79.8107 193.143 79.7792 192.014 79.7037 190.9C79.6642 190.319 80.0812 189.816 80.634 189.776C81.0519 189.745 81.4285 189.989 81.6047 190.36V190.361ZM67.8423 161.877C68.0149 162.243 67.9771 162.696 67.7111 163.027C67.3534 163.471 66.7197 163.525 66.2964 163.149C65.4866 162.429 64.6354 161.735 63.7681 161.086C63.316 160.748 63.209 160.09 63.5299 159.616C63.8508 159.142 64.4772 159.031 64.9293 159.369C65.8434 160.052 66.7386 160.782 67.5916 161.541C67.6994 161.637 67.7839 161.752 67.8432 161.877H67.8423ZM60.6978 156.828C60.8362 157.12 60.8443 157.475 60.6897 157.786C60.4335 158.302 59.8269 158.5 59.3352 158.23C58.3924 157.711 57.4181 157.228 56.4393 156.794C55.9279 156.569 55.687 155.95 55.9018 155.413C56.1166 154.876 56.7044 154.625 57.2159 154.852C58.2459 155.309 59.2714 155.817 60.2637 156.363C60.4587 156.47 60.607 156.635 60.6978 156.828V156.828ZM52.6787 153.531C52.7839 153.753 52.8153 154.014 52.7497 154.273C52.6068 154.835 52.0568 155.168 51.5211 155.016C50.4928 154.725 49.4422 154.476 48.3978 154.277C47.8522 154.172 47.4891 153.624 47.587 153.051C47.685 152.478 48.2063 152.098 48.7528 152.202C49.852 152.413 50.9575 152.674 52.0397 152.981C52.3291 153.062 52.5556 153.27 52.6796 153.532L52.6787 153.531ZM44.1707 152.148C44.2435 152.301 44.2813 152.476 44.2741 152.66C44.2516 153.241 43.7842 153.693 43.2306 153.667C42.1682 153.619 41.0914 153.618 40.0309 153.664C39.4772 153.688 39.008 153.235 38.9838 152.654C38.9595 152.073 39.3891 151.581 39.9428 151.557C41.06 151.508 42.1934 151.509 43.3124 151.561C43.6917 151.578 44.0125 151.814 44.1707 152.148ZM35.5827 152.76C35.6241 152.846 35.6537 152.94 35.6708 153.04C35.7706 153.613 35.4101 154.162 34.8646 154.265C33.8211 154.464 32.7722 154.712 31.7457 155.002C31.211 155.154 30.6591 154.819 30.5135 154.259C30.3679 153.697 30.6834 153.118 31.2182 152.966C32.2985 152.66 33.4022 152.399 34.5015 152.191C34.9518 152.105 35.3877 152.35 35.5818 152.76H35.5827ZM27.3425 155.336C27.3515 155.356 27.3605 155.376 27.3686 155.396C27.5852 155.932 27.3461 156.551 26.8365 156.776C26.1157 157.095 25.3966 157.441 24.6974 157.805C24.4439 157.938 24.1932 158.071 23.9442 158.208C23.4534 158.478 22.8459 158.277 22.5888 157.761C22.3183 157.244 22.5196 156.608 23.0103 156.339C23.2728 156.195 23.5361 156.054 23.8031 155.914C24.5383 155.531 25.296 155.167 26.0537 154.832C26.5444 154.615 27.1089 154.839 27.3434 155.336L27.3425 155.336Z" fill="url(#paint22_linear_1503_3251)"/>
<path opacity="0.3" d="M81.2578 199.418C81.3468 199.606 81.3836 199.823 81.3513 200.045C81.2695 200.61 81.1751 201.182 81.0699 201.748C80.9639 202.32 80.4372 202.692 79.8934 202.579C79.3496 202.467 78.9937 201.913 79.0998 201.341C79.1995 200.804 79.2894 200.259 79.3667 199.724C79.4494 199.149 79.9617 198.755 80.51 198.844C80.8461 198.898 81.1176 199.121 81.2578 199.419V199.418Z" fill="url(#paint23_linear_1503_3251)"/>
</g>
<path d="M70.2312 203.566C70.3138 203.374 70.2716 203.149 70.126 203.004L65.9736 198.877C66.4886 196.13 66.591 193.276 66.2324 190.417L70.623 186.6C70.7767 186.466 70.8334 186.244 70.7623 186.047L68.3437 179.311C68.2727 179.114 68.0911 178.986 67.8916 178.991L62.1878 179.149C60.659 176.752 58.7868 174.675 56.671 172.965L57.1986 166.994C57.2175 166.784 57.1069 166.586 56.9245 166.499L50.6832 163.52C50.5007 163.433 50.2859 163.477 50.1484 163.63L46.2288 167.981C43.6124 167.433 40.8944 167.319 38.1737 167.689L34.5282 163.068C34.4006 162.906 34.1894 162.847 34.0015 162.92L27.5931 165.444C27.4061 165.518 27.2839 165.709 27.2902 165.919L27.4547 171.91C25.1762 173.51 23.2034 175.471 21.5801 177.689L15.8943 177.121C15.6948 177.102 15.5061 177.217 15.4234 177.408L12.602 183.957C12.5193 184.148 12.5616 184.374 12.7072 184.519L16.8596 188.646C16.3446 191.393 16.2422 194.246 16.6008 197.105L12.2102 200.923C12.0565 201.057 11.9998 201.279 12.0708 201.476L14.4895 208.213C14.5605 208.409 14.7421 208.538 14.9416 208.533L20.6454 208.374C22.1742 210.772 24.0464 212.849 26.1613 214.559L25.6337 220.53C25.6148 220.739 25.7254 220.938 25.9078 221.025L32.1491 224.004C32.3315 224.091 32.5464 224.047 32.6839 223.894L36.6035 219.543C39.2199 220.09 41.9379 220.204 44.6586 219.835L48.3041 224.456C48.4317 224.617 48.6438 224.677 48.8308 224.603L55.2392 222.079C55.4262 222.006 55.5484 221.815 55.543 221.605L55.3785 215.613C57.657 214.013 59.6298 212.052 61.2531 209.834L66.9389 210.402C67.1384 210.422 67.3271 210.307 67.4098 210.115L70.2312 203.567V203.566Z" fill="url(#paint24_linear_1503_3251)"/>
<path opacity="0.7" d="M47.5823 190.559C49.0779 193.719 48.1845 197.641 45.3497 199.707C42.2336 201.977 37.9346 201.157 35.7658 197.879C34.7143 196.291 34.3152 194.37 34.6388 192.47C34.9632 190.57 35.9726 188.917 37.4816 187.818C40.5978 185.548 44.8967 186.367 47.0655 189.645C47.2605 189.941 47.4331 190.247 47.5814 190.56L47.5823 190.559ZM36.6844 196.21C36.7995 196.454 36.9325 196.691 37.0835 196.918C38.7463 199.431 42.043 200.06 44.432 198.32C46.821 196.579 47.4124 193.118 45.7488 190.605C44.086 188.092 40.7892 187.464 38.4002 189.204C37.2426 190.047 36.4687 191.314 36.2197 192.771C36.0175 193.956 36.1829 195.15 36.6844 196.21Z" fill="white"/>
<path opacity="0.7" d="M56.4219 185.795C56.6789 186.338 56.9108 186.897 57.1176 187.471C57.1823 187.652 57.2443 187.834 57.3045 188.017C57.5975 188.919 57.8213 189.844 57.9732 190.778C57.975 190.79 57.9777 190.803 57.9795 190.815C57.9849 190.851 57.9912 190.887 57.9966 190.924C58.0074 190.994 58.0182 191.065 58.028 191.135C58.0541 191.321 57.9615 191.496 57.8105 191.575C57.7737 191.594 57.7332 191.607 57.6901 191.615C57.4708 191.649 57.2668 191.489 57.2335 191.259C57.0645 190.073 56.7733 188.898 56.3662 187.767C54.3493 182.147 49.7789 178.302 44.5614 177.139C41.66 176.493 38.5583 176.677 35.5851 177.849C35.0638 178.054 34.5559 178.285 34.0634 178.542C30.7513 180.265 28.1286 183.11 26.5845 186.695C24.8103 190.814 24.671 195.415 26.1917 199.651C29.3339 208.4 38.6545 212.845 46.9728 209.569C47.486 209.367 47.9867 209.138 48.4747 208.885C50.5878 207.786 52.4465 206.212 53.9133 204.27C53.9511 204.22 53.9978 204.181 54.0491 204.155C54.1839 204.085 54.3511 204.098 54.4769 204.203C54.6504 204.349 54.6809 204.613 54.5425 204.795C53.0029 206.834 51.0507 208.486 48.8333 209.64C48.3219 209.906 47.7952 210.146 47.2569 210.358C38.5232 213.799 28.7362 209.125 25.4403 199.946C23.8432 195.499 23.9906 190.669 25.8529 186.346C27.4743 182.583 30.2273 179.595 33.7039 177.786C34.2207 177.517 34.7537 177.274 35.3011 177.059C39.5317 175.392 44.1308 175.558 48.2518 177.524C51.8398 179.236 54.6908 182.137 56.4219 185.794V185.795Z" fill="white"/>
<g opacity="0.3">
<path opacity="0.3" d="M102.562 247.784C102.681 248.037 102.634 248.35 102.428 248.552C102.042 248.926 101.639 249.294 101.232 249.644C100.968 249.872 100.577 249.83 100.36 249.552C100.141 249.274 100.181 248.863 100.445 248.636C100.833 248.303 101.216 247.952 101.585 247.594C101.835 247.351 102.227 247.368 102.461 247.631C102.502 247.678 102.536 247.73 102.561 247.784H102.562Z" fill="url(#paint25_linear_1503_3251)"/>
<path opacity="0.3" d="M98.7806 250.827C98.9208 251.123 98.8273 251.488 98.5568 251.667C97.791 252.174 96.9911 252.644 96.1804 253.066C96.0096 253.155 95.837 253.242 95.6635 253.328C95.3535 253.481 94.9877 253.317 94.8376 253.015C94.6911 252.69 94.8241 252.301 95.1333 252.149C95.2995 252.067 95.464 251.984 95.6267 251.899C96.4006 251.496 97.1628 251.048 97.8935 250.564C98.1829 250.373 98.5658 250.464 98.7491 250.769C98.7599 250.789 98.7707 250.808 98.7806 250.827ZM92.9582 253.696C92.9717 253.724 92.9833 253.753 92.9923 253.783C93.0993 254.125 92.9231 254.493 92.5978 254.604C91.5542 254.964 90.4811 255.257 89.407 255.479C89.0709 255.548 88.7446 255.316 88.6781 254.964C88.6116 254.611 88.8291 254.27 89.1652 254.2C90.1899 253.989 91.2145 253.709 92.2095 253.365C92.5061 253.264 92.8233 253.41 92.9582 253.694V253.696ZM86.6441 254.995C86.6792 255.069 86.7007 255.151 86.707 255.239C86.7313 255.597 86.4742 255.908 86.1327 255.933C85.0389 256.012 83.927 256.021 82.8305 255.957C82.4881 255.937 82.2265 255.63 82.2445 255.27C82.2625 254.911 82.5546 254.636 82.8961 254.656C83.9423 254.716 85.0011 254.709 86.0446 254.634C86.3026 254.615 86.5354 254.766 86.6441 254.995ZM80.215 254.623C80.2725 254.743 80.2941 254.884 80.2707 255.026C80.2105 255.381 79.8888 255.616 79.5517 255.551C78.4695 255.346 77.391 255.069 76.3439 254.726C76.0167 254.619 75.8343 254.253 75.9349 253.911C76.0356 253.568 76.3825 253.376 76.7106 253.483C77.7083 253.809 78.7383 254.075 79.7692 254.271C79.9705 254.308 80.1314 254.445 80.2159 254.623H80.215ZM74.0636 252.613C74.1436 252.782 74.1535 252.985 74.0744 253.17C73.9342 253.498 73.5675 253.643 73.2547 253.496C72.2535 253.02 71.2711 252.477 70.3336 251.878C70.0397 251.691 69.9471 251.29 70.1242 250.983C70.3013 250.675 70.6833 250.578 70.9754 250.765C71.8697 251.336 72.8071 251.856 73.7625 252.308C73.8983 252.373 74.0016 252.483 74.0636 252.613ZM68.5603 249.098C68.6637 249.316 68.6457 249.588 68.492 249.792C68.2799 250.073 67.8907 250.121 67.6211 249.898C66.7591 249.182 65.9322 248.403 65.1619 247.582C64.922 247.324 64.9247 246.913 65.1673 246.661C65.4109 246.409 65.8037 246.412 66.0437 246.669C66.778 247.451 67.5662 248.194 68.3877 248.876C68.4623 248.938 68.519 249.014 68.5585 249.097L68.5603 249.098ZM64.0402 244.28C64.1697 244.553 64.1014 244.893 63.8632 245.085C63.5917 245.303 63.2026 245.248 62.9931 244.963C62.3271 244.05 61.7061 243.082 61.1479 242.084C60.9789 241.77 61.0733 241.374 61.3681 241.193C61.6629 241.012 62.0431 241.116 62.2166 241.426C62.7487 242.378 63.3401 243.302 63.9755 244.172C64.0007 244.206 64.0214 244.242 64.0393 244.279L64.0402 244.28ZM59.6802 235.255C59.6964 235.288 59.7098 235.324 59.7197 235.362C59.975 236.273 60.2815 237.186 60.6329 238.075C60.685 238.21 60.7381 238.342 60.7929 238.473C60.9295 238.803 60.7857 239.186 60.4711 239.328C60.1565 239.471 59.7817 239.321 59.655 238.988C59.5975 238.848 59.5409 238.709 59.486 238.567C59.1202 237.638 58.7985 236.681 58.5306 235.725C58.4344 235.38 58.6214 235.018 58.9503 234.918C59.2434 234.828 59.5489 234.975 59.6802 235.253V235.255Z" fill="url(#paint26_linear_1503_3251)"/>
</g>
<g opacity="0.3">
<path opacity="0.3" d="M108.033 215.055C108.184 215.373 108.064 215.761 107.762 215.924C107.457 216.087 107.083 215.96 106.927 215.64C106.456 214.676 105.925 213.734 105.348 212.84C105.159 212.541 105.229 212.137 105.513 211.936C105.797 211.734 106.182 211.813 106.374 212.111C106.978 213.049 107.536 214.036 108.03 215.047L108.033 215.055ZM109.312 218.108C109.321 218.129 109.33 218.15 109.339 218.172C109.713 219.237 110.032 220.335 110.282 221.438C110.361 221.788 110.156 222.139 109.824 222.221C109.49 222.305 109.156 222.086 109.076 221.738C108.837 220.685 108.534 219.637 108.176 218.622C108.057 218.285 108.221 217.91 108.542 217.786C108.842 217.67 109.173 217.813 109.312 218.108H109.312ZM104.48 209.545C104.602 209.804 104.549 210.125 104.332 210.325C104.075 210.56 103.683 210.533 103.458 210.261C102.778 209.444 102.046 208.664 101.281 207.942C101.026 207.7 101.004 207.29 101.233 207.023C101.461 206.756 101.853 206.734 102.109 206.974C102.91 207.731 103.678 208.549 104.391 209.405C104.427 209.449 104.456 209.495 104.48 209.545ZM110.781 224.583C110.813 224.65 110.833 224.723 110.842 224.801C110.964 225.929 111.019 227.075 111.008 228.208C111.004 228.568 110.724 228.855 110.381 228.851C110.04 228.846 109.765 228.551 109.768 228.191C109.779 227.11 109.725 226.017 109.61 224.942C109.572 224.584 109.817 224.263 110.156 224.224C110.423 224.193 110.668 224.344 110.781 224.583V224.583ZM99.7646 205.097C99.8625 205.304 99.8526 205.559 99.7187 205.761C99.5228 206.056 99.1363 206.127 98.855 205.921C98.011 205.301 97.123 204.727 96.2134 204.218C95.9105 204.049 95.7955 203.654 95.9563 203.337C96.1172 203.019 96.492 202.899 96.7949 203.069C97.7485 203.603 98.6797 204.203 99.565 204.854C99.6531 204.919 99.7205 205.004 99.7646 205.098V205.097ZM94.174 201.964C94.2486 202.122 94.263 202.311 94.1983 202.488C94.0752 202.824 93.7165 202.991 93.3975 202.86C92.4349 202.469 91.4417 202.136 90.4449 201.869C90.1124 201.78 89.911 201.425 89.9955 201.077C90.0791 200.728 90.4161 200.518 90.7478 200.607C91.7922 200.887 92.8339 201.235 93.8424 201.645C93.9925 201.706 94.1084 201.822 94.1749 201.963L94.174 201.964ZM88.0325 200.327C88.0856 200.438 88.1089 200.566 88.0919 200.698C88.0496 201.055 87.7386 201.306 87.3989 201.261C86.376 201.122 85.3361 201.048 84.3079 201.042C83.9664 201.039 83.6886 200.746 83.6904 200.387C83.6913 200.027 83.97 199.737 84.3124 199.74C85.3901 199.747 86.4803 199.823 87.5535 199.969C87.7674 199.998 87.9418 200.138 88.0307 200.327H88.0325Z" fill="url(#paint27_linear_1503_3251)"/>
<path opacity="0.3" d="M110.714 231.264C110.767 231.377 110.79 231.507 110.773 231.641C110.703 232.193 110.616 232.746 110.517 233.283C110.451 233.635 110.126 233.865 109.79 233.796C109.454 233.726 109.234 233.385 109.299 233.031C109.394 232.519 109.476 231.991 109.543 231.465C109.589 231.108 109.901 230.859 110.24 230.907C110.452 230.938 110.625 231.077 110.713 231.264H110.714Z" fill="url(#paint28_linear_1503_3251)"/>
</g>
<path d="M103.314 234.51C103.369 234.382 103.341 234.231 103.244 234.134L100.466 231.372C100.811 229.534 100.878 227.624 100.639 225.711L103.577 223.157C103.681 223.067 103.717 222.919 103.671 222.788L102.052 218.28C102.004 218.148 101.883 218.063 101.749 218.066L97.9319 218.172C96.9091 216.568 95.6562 215.178 94.2406 214.034L94.5938 210.039C94.6064 209.899 94.5327 209.766 94.4104 209.707L90.2337 207.714C90.1115 207.656 89.9677 207.685 89.876 207.787L87.2533 210.699C85.5024 210.332 83.6842 210.257 81.8632 210.503L79.4239 207.411C79.3385 207.302 79.1965 207.263 79.0715 207.312L74.7834 209.001C74.6584 209.05 74.5767 209.178 74.5802 209.318L74.6899 213.328C73.1646 214.398 71.8452 215.711 70.7586 217.194L66.9539 216.814C66.8209 216.801 66.6942 216.878 66.6394 217.006L64.7519 221.387C64.6971 221.515 64.7249 221.666 64.822 221.763L67.6011 224.525C67.2559 226.363 67.1885 228.273 67.4276 230.186L64.4894 232.74C64.3861 232.83 64.3492 232.978 64.396 233.109L66.0147 237.617C66.0623 237.749 66.1837 237.834 66.3176 237.831L70.1348 237.725C71.1576 239.329 72.4105 240.719 73.8262 241.863L73.4729 245.858C73.4603 245.998 73.534 246.131 73.6563 246.19L77.833 248.183C77.9552 248.242 78.099 248.212 78.1907 248.11L80.8134 245.198C82.5643 245.565 84.3825 245.64 86.2035 245.394L88.6428 248.486C88.7282 248.595 88.8702 248.634 88.9952 248.585L93.2833 246.896C93.4083 246.847 93.4901 246.719 93.4865 246.579L93.3768 242.569C94.9021 241.499 96.2215 240.187 97.3081 238.703L101.113 239.083C101.246 239.096 101.373 239.019 101.428 238.891L103.316 234.51H103.314Z" fill="url(#paint29_linear_1503_3251)"/>
<path opacity="0.7" d="M88.2356 225.773C88.6814 226.715 88.8279 227.777 88.6482 228.829C88.4271 230.124 87.7395 231.249 86.7113 231.999C84.5901 233.544 81.6618 232.986 80.1833 230.755C78.7074 228.516 79.2305 225.446 81.3526 223.9C82.3808 223.151 83.6257 222.868 84.8588 223.103C86.092 223.338 87.1651 224.063 87.8815 225.145C88.0154 225.347 88.1332 225.558 88.2356 225.774V225.773ZM80.9428 229.554C81.0174 229.711 81.1027 229.864 81.2007 230.012C82.2883 231.654 84.4418 232.065 86.003 230.927C86.7589 230.376 87.2658 229.548 87.4276 228.597C87.5903 227.644 87.3889 226.682 86.8632 225.886C86.3365 225.09 85.5473 224.557 84.6404 224.384C83.7326 224.211 82.8168 224.419 82.0609 224.971C80.6408 226.005 80.1932 227.971 80.9428 229.555V229.554Z" fill="white"/>
<path opacity="0.7" d="M94.3927 222.466C94.567 222.835 94.7261 223.216 94.8672 223.61C95.1486 224.392 95.3535 225.205 95.4784 226.027C95.4838 226.064 95.4892 226.101 95.4946 226.138C95.5359 226.425 95.3921 226.695 95.1584 226.817C95.1018 226.847 95.0389 226.867 94.9733 226.877C94.6345 226.929 94.3208 226.683 94.2686 226.328C94.159 225.559 93.9702 224.798 93.7078 224.068C93.6934 224.027 93.6781 223.987 93.6637 223.947C93.0274 222.224 92.0055 220.731 90.6977 219.566C89.9876 218.934 89.1922 218.398 88.3267 217.975C88.3195 217.971 88.3123 217.967 88.306 217.964C88.2844 217.954 88.2629 217.943 88.2413 217.932C85.7004 216.72 82.8638 216.617 80.2554 217.646C79.9175 217.779 79.5894 217.928 79.2704 218.094C77.1258 219.211 75.4289 221.052 74.4285 223.373C73.2798 226.039 73.19 229.017 74.1751 231.76C75.1601 234.5 77.1015 236.68 79.6416 237.893C82.1825 239.105 85.0191 239.208 87.6274 238.18C87.9591 238.049 88.2835 237.901 88.599 237.737C89.967 237.025 91.1705 236.006 92.1196 234.749C92.178 234.672 92.2499 234.611 92.329 234.571C92.5375 234.463 92.7955 234.483 92.9905 234.645C93.2584 234.869 93.3042 235.278 93.0912 235.56C92.0288 236.965 90.6824 238.106 89.1527 238.902C88.7994 239.087 88.4363 239.252 88.0651 239.398C85.1458 240.548 81.973 240.434 79.1301 239.078C76.2881 237.72 74.1139 235.286 73.0138 232.216C71.9119 229.148 72.0125 225.816 73.2987 222.833C74.4168 220.236 76.3169 218.175 78.7158 216.927C79.0717 216.742 79.4393 216.573 79.8168 216.425C85.4676 214.2 91.7574 216.896 94.3936 222.463L94.3927 222.466Z" fill="white"/>
</g>
<defs>
<linearGradient id="paint0_linear_1503_3251" x1="291.088" y1="331.839" x2="62.7475" y2="48.2538" gradientUnits="userSpaceOnUse">
<stop stop-color="#DAE3FE"/>
<stop offset="1" stop-color="#E9EFFD"/>
</linearGradient>
<linearGradient id="paint1_linear_1503_3251" x1="173.329" y1="-0.106046" x2="-98.9066" y2="493.807" gradientUnits="userSpaceOnUse">
<stop stop-color="#09005D"/>
<stop offset="1" stop-color="#1A0F91"/>
</linearGradient>
<linearGradient id="paint2_linear_1503_3251" x1="91.6612" y1="-141.611" x2="100.964" y2="-46.723" gradientUnits="userSpaceOnUse">
<stop stop-color="#4F52FF"/>
<stop offset="1" stop-color="#4042E2"/>
</linearGradient>
<linearGradient id="paint3_linear_1503_3251" x1="71.5919" y1="61.9469" x2="131.722" y2="61.9469" gradientUnits="userSpaceOnUse">
<stop stop-color="#4F52FF"/>
<stop offset="1" stop-color="#4042E2"/>
</linearGradient>
<linearGradient id="paint4_linear_1503_3251" x1="180.359" y1="251.587" x2="146.69" y2="164.911" gradientUnits="userSpaceOnUse">
<stop stop-color="#FEBBBA"/>
<stop offset="1" stop-color="#FF928E"/>
</linearGradient>
<linearGradient id="paint5_linear_1503_3251" x1="180.871" y1="530.39" x2="69.5888" y2="-770.226" gradientUnits="userSpaceOnUse">
<stop stop-color="#FEBBBA"/>
<stop offset="1" stop-color="#FF928E"/>
</linearGradient>
<linearGradient id="paint6_linear_1503_3251" x1="176.871" y1="114.465" x2="162.599" y2="114.465" gradientUnits="userSpaceOnUse">
<stop stop-color="#FEBBBA"/>
<stop offset="1" stop-color="#FF928E"/>
</linearGradient>
<linearGradient id="paint7_linear_1503_3251" x1="152.178" y1="254.045" x2="118.228" y2="201.958" gradientUnits="userSpaceOnUse">
<stop stop-color="#4F52FF"/>
<stop offset="1" stop-color="#4042E2"/>
</linearGradient>
<linearGradient id="paint8_linear_1503_3251" x1="182.767" y1="269.908" x2="145.097" y2="204.799" gradientUnits="userSpaceOnUse">
<stop stop-color="#4F52FF"/>
<stop offset="1" stop-color="#4042E2"/>
</linearGradient>
<linearGradient id="paint9_linear_1503_3251" x1="188.431" y1="111.422" x2="158.666" y2="151.729" gradientUnits="userSpaceOnUse">
<stop stop-color="#4F52FF"/>
<stop offset="1" stop-color="#4042E2"/>
</linearGradient>
<linearGradient id="paint10_linear_1503_3251" x1="161.285" y1="82.6211" x2="151.148" y2="82.6211" gradientUnits="userSpaceOnUse">
<stop stop-color="#FEBBBA"/>
<stop offset="1" stop-color="#FF928E"/>
</linearGradient>
<linearGradient id="paint11_linear_1503_3251" x1="279.075" y1="68.4272" x2="237.527" y2="82.07" gradientUnits="userSpaceOnUse">
<stop stop-color="#FF928E"/>
<stop offset="1" stop-color="#FE7062"/>
</linearGradient>
<linearGradient id="paint12_linear_1503_3251" x1="101.814" y1="88.4003" x2="189.479" y2="138.622" gradientUnits="userSpaceOnUse">
<stop stop-color="#FEBBBA"/>
<stop offset="1" stop-color="#FF928E"/>
</linearGradient>
<linearGradient id="paint13_linear_1503_3251" x1="93.1039" y1="103.605" x2="180.77" y2="153.826" gradientUnits="userSpaceOnUse">
<stop stop-color="#FEBBBA"/>
<stop offset="1" stop-color="#FF928E"/>
</linearGradient>
<linearGradient id="paint14_linear_1503_3251" x1="144.403" y1="82.6175" x2="164.1" y2="53.8147" gradientUnits="userSpaceOnUse">
<stop stop-color="#FEBBBA"/>
<stop offset="1" stop-color="#FF928E"/>
</linearGradient>
<linearGradient id="paint15_linear_1503_3251" x1="154.835" y1="62.0386" x2="182.739" y2="98.3141" gradientUnits="userSpaceOnUse">
<stop stop-color="#09005D"/>
<stop offset="1" stop-color="#1A0F91"/>
</linearGradient>
<linearGradient id="paint16_linear_1503_3251" x1="240.802" y1="-42.2399" x2="201.503" y2="102.865" gradientUnits="userSpaceOnUse">
<stop stop-color="#E1473D"/>
<stop offset="1" stop-color="#E9605A"/>
</linearGradient>
<linearGradient id="paint17_linear_1503_3251" x1="234.181" y1="-6.70769" x2="209.996" y2="65.2257" gradientUnits="userSpaceOnUse">
<stop stop-color="#FF928E"/>
<stop offset="1" stop-color="#FE7062"/>
</linearGradient>
<linearGradient id="paint18_linear_1503_3251" x1="225.672" y1="-25.8323" x2="214.588" y2="81.7421" gradientUnits="userSpaceOnUse">
<stop stop-color="#FF928E"/>
<stop offset="1" stop-color="#FE7062"/>
</linearGradient>
<linearGradient id="paint19_linear_1503_3251" x1="44.1016" y1="239.052" x2="17.9122" y2="186.271" gradientUnits="userSpaceOnUse">
<stop stop-color="#FF928E"/>
<stop offset="1" stop-color="#FE7062"/>
</linearGradient>
<linearGradient id="paint20_linear_1503_3251" x1="3.68823" y1="190.038" x2="2.13266" y2="186.902" gradientUnits="userSpaceOnUse">
<stop stop-color="#FF928E"/>
<stop offset="1" stop-color="#FE7062"/>
</linearGradient>
<linearGradient id="paint21_linear_1503_3251" x1="18.8239" y1="161.808" x2="17.748" y2="159.64" gradientUnits="userSpaceOnUse">
<stop stop-color="#FF928E"/>
<stop offset="1" stop-color="#FE7062"/>
</linearGradient>
<linearGradient id="paint22_linear_1503_3251" x1="67.7338" y1="201.942" x2="40.7323" y2="147.524" gradientUnits="userSpaceOnUse">
<stop stop-color="#FF928E"/>
<stop offset="1" stop-color="#FE7062"/>
</linearGradient>
<linearGradient id="paint23_linear_1503_3251" x1="80.9816" y1="202.283" x2="79.4452" y2="199.187" gradientUnits="userSpaceOnUse">
<stop stop-color="#FF928E"/>
<stop offset="1" stop-color="#FE7062"/>
</linearGradient>
<linearGradient id="paint24_linear_1503_3251" x1="48.8937" y1="166.398" x2="27.035" y2="246.389" gradientUnits="userSpaceOnUse">
<stop stop-color="#FF928E"/>
<stop offset="1" stop-color="#FE7062"/>
</linearGradient>
<linearGradient id="paint25_linear_1503_3251" x1="101.797" y1="249.399" x2="101.029" y2="247.851" gradientUnits="userSpaceOnUse">
<stop stop-color="#FF928E"/>
<stop offset="1" stop-color="#FE7062"/>
</linearGradient>
<linearGradient id="paint26_linear_1503_3251" x1="85.7924" y1="258.239" x2="71.2069" y2="228.844" gradientUnits="userSpaceOnUse">
<stop stop-color="#FF928E"/>
<stop offset="1" stop-color="#FE7062"/>
</linearGradient>
<linearGradient id="paint27_linear_1503_3251" x1="107.132" y1="230.551" x2="90.3333" y2="196.696" gradientUnits="userSpaceOnUse">
<stop stop-color="#FF928E"/>
<stop offset="1" stop-color="#FE7062"/>
</linearGradient>
<linearGradient id="paint28_linear_1503_3251" x1="110.606" y1="233.547" x2="109.442" y2="231.201" gradientUnits="userSpaceOnUse">
<stop stop-color="#FF928E"/>
<stop offset="1" stop-color="#FE7062"/>
</linearGradient>
<linearGradient id="paint29_linear_1503_3251" x1="93.4235" y1="196.378" x2="71.5657" y2="269.859" gradientUnits="userSpaceOnUse">
<stop stop-color="#FF928E"/>
<stop offset="1" stop-color="#FE7062"/>
</linearGradient>
<clipPath id="clip0_1503_3251">
<rect width="259.263" height="256" fill="white"/>
</clipPath>
</defs>
</svg>
