<svg width="320" height="256" viewBox="0 0 320 256" fill="none" xmlns="http://www.w3.org/2000/svg">
<g clip-path="url(#clip0_1500_6117)">
<path d="M313.243 253.184C312.861 254.128 312.459 255.069 312.036 255.997C212.637 255.993 113.234 255.99 13.8317 255.986C6.96188 255.966 2.47179 230.345 1.33989 225.589C-1.52395 213.571 0.0716173 199.951 7.50055 189.821C16.3682 177.729 31.0454 175.973 43.8475 170.064C57.6587 163.692 64.1091 151.616 68.5992 137.669C80.5728 100.459 84.7083 59.6735 106.753 27.394C116.006 13.8385 129.51 1.68078 145.858 0.160222C167.852 -1.88538 187.179 16.0443 196.698 35.9787C211.631 67.2559 211.403 105.553 236.042 132.054C249.389 146.407 270.121 147.307 285.832 158.623C297.935 167.34 307.628 179.443 313.253 193.275C320.968 212.245 320.924 234.218 313.239 253.187L313.243 253.184Z" fill="#E4F4F4"/>
<path d="M163.065 212.422C163.065 212.422 117.717 28.1577 60.6653 59.7247C17.1247 83.8184 137.474 171.974 149.083 216.124L163.065 212.422Z" fill="#A0D9DA"/>
<path d="M161.977 213.547L157.974 203.602L155.973 198.635C155.312 196.978 154.65 195.321 153.893 193.701L149.512 183.93L147.32 179.051L144.947 174.251L140.205 164.664C138.572 161.497 136.83 158.381 135.149 155.241L132.606 150.542C131.767 148.971 130.819 147.46 129.929 145.916L124.515 136.707C117.011 124.601 109.016 112.815 100.319 101.571C98.144 98.7615 95.9654 95.9556 93.6675 93.2452L90.2616 89.1506L86.75 85.1481C82.0247 79.8534 77.163 74.6712 71.9092 69.9152C76.9175 74.9269 81.503 80.3307 85.942 85.8333L89.2354 89.9893L92.4163 94.2305C94.5642 97.0364 96.5893 99.9343 98.6077 102.829C106.684 114.421 114.018 126.496 120.837 138.831L125.732 148.204C126.534 149.772 127.396 151.306 128.146 152.902L130.424 157.668C131.927 160.852 133.492 164.006 134.944 167.211L139.145 176.897L141.245 181.734L143.164 186.651L146.993 196.476C147.654 198.103 148.227 199.766 148.796 201.43L150.518 206.411L153.962 216.366L161.967 213.547H161.977Z" fill="white"/>
<path d="M170.859 214.062C170.859 214.062 65.067 94.834 35.0103 140.618C12.0723 175.557 136.012 194.005 161.912 222.285L170.855 214.062H170.859Z" fill="#79BBCB"/>
<path d="M170.487 215.32L163.621 209.493L160.191 206.585C159.052 205.61 157.91 204.638 156.717 203.732L149.639 198.181L146.1 195.413L142.459 192.774L135.183 187.5C132.729 185.781 130.216 184.148 127.737 182.474L124.007 179.975C122.77 179.137 121.474 178.383 120.209 177.582L112.583 172.853C102.27 166.791 91.7177 161.156 80.8521 156.202C78.1349 154.964 75.4211 153.73 72.6527 152.615L68.5206 150.904L64.3442 149.302C58.7631 147.215 53.1206 145.265 47.3521 143.785C53.0354 145.551 58.5585 147.774 64.0066 150.127L68.0808 151.927L72.1038 153.833C74.7972 155.077 77.436 156.441 80.0714 157.801C90.6097 163.259 100.783 169.366 110.68 175.867L117.983 180.916C119.194 181.769 120.435 182.573 121.614 183.463L125.173 186.116C127.536 187.895 129.933 189.627 132.268 191.438L139.179 196.995L142.633 199.77L145.981 202.671L152.67 208.477C153.798 209.429 154.876 210.438 155.946 211.454L159.175 214.485L165.629 220.54L170.477 215.313L170.487 215.32Z" fill="white"/>
<path d="M155.84 212.422C155.84 212.422 201.188 28.1577 258.24 59.7247C301.78 83.8184 181.431 171.974 169.822 216.124L155.84 212.422Z" fill="#A0D9DA"/>
<path d="M156.931 213.547L160.934 203.602L162.935 198.635C163.596 196.978 164.258 195.321 165.015 193.701L169.396 183.93L171.588 179.051L173.961 174.251L178.703 164.664C180.336 161.497 182.078 158.381 183.759 155.241L186.303 150.542C187.141 148.971 188.089 147.46 188.979 145.916L194.393 136.707C201.897 124.601 209.892 112.815 218.589 101.571C220.764 98.7615 222.943 95.9556 225.241 93.2452L228.646 89.1506L232.158 85.1481C236.883 79.8534 241.745 74.6712 246.999 69.9152C241.991 74.9269 237.405 80.3307 232.966 85.8333L229.673 89.9893L226.492 94.2305C224.344 97.0364 222.319 99.9343 220.3 102.829C212.224 114.421 204.89 126.496 198.072 138.831L193.176 148.204C192.375 149.772 191.512 151.306 190.762 152.902L188.485 157.668C186.981 160.852 185.416 164.006 183.964 167.211L179.763 176.897L177.663 181.734L175.744 186.651L171.915 196.476C171.254 198.103 170.681 199.766 170.112 201.43L168.39 206.411L164.946 216.366L156.941 213.547H156.931Z" fill="white"/>
<path d="M148.05 214.062C148.05 214.062 253.838 94.8374 283.899 140.618C306.837 175.557 182.897 194.005 156.996 222.285L148.054 214.062H148.05Z" fill="#79BBCB"/>
<path d="M148.418 215.32L155.285 209.493L158.715 206.585C159.853 205.61 160.995 204.638 162.189 203.731L169.267 198.181L172.805 195.413L176.447 192.774L183.722 187.5C186.177 185.781 188.689 184.148 191.168 182.474L194.898 179.975C196.135 179.137 197.431 178.383 198.696 177.582L206.323 172.853C216.636 166.791 227.188 161.156 238.053 156.202C240.77 154.964 243.484 153.73 246.253 152.615L250.385 150.904L254.561 149.301C260.142 147.215 265.785 145.265 271.553 143.785C265.87 145.551 260.347 147.774 254.899 150.127L250.825 151.927L246.802 153.832C244.108 155.077 241.469 156.441 238.834 157.801C228.296 163.259 218.122 169.365 208.225 175.867L200.922 180.916C199.712 181.769 198.471 182.573 197.291 183.463L193.732 186.115C191.369 187.895 188.972 189.627 186.637 191.437L179.726 196.995L176.273 199.77L172.925 202.671L166.236 208.477C165.107 209.428 164.03 210.438 162.959 211.454L159.731 214.484L153.277 220.539L148.429 215.313L148.418 215.32Z" fill="white"/>
<path d="M134.229 253.17C131.802 253.17 129.231 252.993 126.521 252.638C105.263 249.856 95.5501 233.294 86.154 217.277C77.8454 203.108 69.9972 189.726 54.7234 185.185C31.5603 178.298 17.1286 173.348 12.0453 162.734C8.95987 156.294 9.49855 148.258 13.8284 136.898C14.3057 135.647 15.724 135.037 16.9616 135.545C17.5343 135.78 17.9673 136.213 18.2128 136.738C18.4787 137.307 18.5231 137.979 18.281 138.61C14.5103 148.524 13.9 155.571 16.3445 160.675C20.5755 169.509 34.1787 174.101 56.0803 180.616C73.1576 185.696 81.8548 200.527 90.2691 214.87C99.4879 230.587 108.195 245.434 127.138 247.913C138.17 249.359 146.4 247.623 151.593 242.765C158.238 236.546 157.709 227.031 157.706 226.935L162.465 226.612C162.499 227.089 163.184 238.408 154.9 246.205C149.973 250.842 143.039 253.174 134.229 253.174V253.17Z" fill="#F15C6D"/>
<path d="M226.261 63.0556C225.057 54.4845 217.683 47.8841 208.777 47.8841H196.422L188.945 35.74C188.72 35.3786 188.482 35.0275 188.229 34.6933C185.792 31.4886 181.977 29.5793 177.903 29.5793H142.255C137.758 29.5793 133.581 31.9079 131.215 35.74L129.084 39.2039L126.865 42.8076L123.946 47.5533L123.742 47.8841H111.386C109.181 47.8841 107.074 48.2898 105.13 49.0296C98.9458 51.3718 94.4216 57.0961 93.8113 63.942C93.7636 64.467 93.7397 64.9955 93.7397 65.5308V180.391C93.7397 183.552 94.0841 186.63 94.7353 189.6C94.8069 189.93 94.8853 190.261 94.9671 190.592C95.308 191.99 95.7172 193.36 96.1979 194.7C97.1798 197.462 98.4344 200.09 99.9379 202.555C103.473 208.361 108.356 213.257 114.151 216.806C115.201 217.451 116.282 218.051 117.39 218.6C121.072 220.437 125.054 221.757 129.245 222.462C131.57 222.854 133.96 223.059 136.397 223.059H183.76C187.196 223.059 190.538 222.653 193.739 221.886C196.228 221.29 198.635 220.475 200.929 219.462C204.448 217.914 207.717 215.906 210.663 213.513C218.14 207.431 223.519 198.866 225.541 189.078C226.124 186.276 226.428 183.371 226.428 180.395V65.5308C226.428 64.6921 226.37 63.867 226.257 63.059L226.261 63.0556ZM159.99 38.1947C163.897 38.1947 167.057 41.3586 167.057 45.2623C167.057 49.166 163.894 52.3298 159.99 52.3298C156.086 52.3298 152.922 49.1694 152.922 45.2623C152.922 41.3552 156.086 38.1947 159.99 38.1947Z" fill="white"/>
<path d="M181.98 211.945H138.191C119.282 211.945 103.954 196.616 103.954 177.708V75.5371C103.954 74.77 104.575 74.1495 105.342 74.1495H214.826C215.593 74.1495 216.213 74.77 216.213 75.5371V177.708C216.213 186.538 212.869 194.591 207.38 200.663C201.113 207.591 192.055 211.945 181.977 211.945H181.98Z" fill="#BFDEEC"/>
<path d="M160.085 231.098C158.217 231.098 156.7 229.584 156.7 227.716V204.049C156.7 202.18 158.21 200.663 160.082 200.663C161.953 200.663 163.467 202.177 163.467 204.045V227.713C163.467 229.581 161.957 231.098 160.085 231.098Z" fill="#D64254"/>
<path d="M211.314 120.731V175.059C211.314 192.17 197.442 206.036 180.337 206.036H139.827C122.723 206.036 108.86 192.17 108.86 175.059V109.071C133.738 115.171 139.8 132.729 174.701 132.729C192.113 132.729 202.344 127.219 211.314 120.731Z" fill="#EA4956"/>
<path d="M211.314 109.729V120.731C202.341 127.219 192.113 132.729 174.701 132.729C139.8 132.729 133.735 115.171 108.86 109.071C108.86 109.071 128.43 100.466 148.259 110.513C172.516 122.794 190.995 88.5949 211.318 109.729H211.314Z" fill="#B8263E"/>
<path d="M195.382 157.913H162.046V191.25H195.382V157.913Z" fill="#F0F1F9"/>
<path d="M190.97 163.887H166.461C166.195 163.887 165.977 163.672 165.977 163.402C165.977 163.133 166.191 162.918 166.461 162.918H190.97C191.236 162.918 191.454 163.133 191.454 163.402C191.454 163.672 191.24 163.887 190.97 163.887Z" fill="#BAC0CC"/>
<path d="M190.97 168.53H166.461C166.195 168.53 165.977 168.315 165.977 168.046C165.977 167.777 166.191 167.562 166.461 167.562H190.97C191.236 167.562 191.454 167.777 191.454 168.046C191.454 168.315 191.24 168.53 190.97 168.53Z" fill="#BAC0CC"/>
<path d="M190.97 173.17H166.461C166.195 173.17 165.977 172.955 165.977 172.686C165.977 172.417 166.191 172.202 166.461 172.202H190.97C191.236 172.202 191.454 172.417 191.454 172.686C191.454 172.955 191.24 173.17 190.97 173.17Z" fill="#BAC0CC"/>
<path d="M190.97 177.81H166.461C166.195 177.81 165.977 177.596 165.977 177.326C165.977 177.057 166.191 176.842 166.461 176.842H190.97C191.236 176.842 191.454 177.057 191.454 177.326C191.454 177.596 191.24 177.81 190.97 177.81Z" fill="#BAC0CC"/>
<path d="M190.97 182.45H166.461C166.195 182.45 165.977 182.236 165.977 181.966C165.977 181.697 166.191 181.482 166.461 181.482H190.97C191.236 181.482 191.454 181.697 191.454 181.966C191.454 182.236 191.24 182.45 190.97 182.45Z" fill="#BAC0CC"/>
<path d="M190.97 187.091H166.461C166.195 187.091 165.977 186.876 165.977 186.606C165.977 186.337 166.191 186.122 166.461 186.122H190.97C191.236 186.122 191.454 186.337 191.454 186.606C191.454 186.876 191.24 187.091 190.97 187.091Z" fill="#BAC0CC"/>
<path d="M31.717 128.924L9.91096 120.919C8.00173 120.217 7.01984 118.099 7.72216 116.19L15.7273 94.384C16.4296 92.4747 18.5468 91.4929 20.456 92.1952L42.2621 100.2C43.2167 100.551 43.9395 101.257 44.335 102.113C44.7305 102.969 44.8021 103.974 44.4509 104.929L36.4458 126.735C35.7435 128.644 33.6263 129.626 31.717 128.924Z" fill="#C0D7E2"/>
<path d="M15.7001 142.578C15.2944 142.578 14.8819 142.51 14.4796 142.37C12.5431 141.695 11.5237 139.582 12.1954 137.645L17.7492 121.7C18.4242 119.763 20.538 118.744 22.4745 119.415C24.411 120.09 25.4304 122.204 24.7587 124.141L19.2049 140.086C18.6731 141.617 17.2378 142.578 15.7001 142.578Z" fill="#C0D7E2"/>
<path d="M31.1611 124.154L13.4189 117.639C12.6075 117.342 12.195 116.442 12.4916 115.634L19.0068 97.8922C19.3035 97.0808 20.2035 96.6683 21.0115 96.9649L38.7537 103.48C39.156 103.627 39.4594 103.923 39.6265 104.281C39.8004 104.646 39.8311 105.079 39.681 105.488L33.1658 123.23C32.8692 124.042 31.9691 124.454 31.1611 124.158V124.154Z" fill="white"/>
<path d="M214.515 243.778L210.86 242.567L206.64 245.257C206.64 245.257 201.048 247.248 199.115 249.679C198.174 250.862 198.726 252.884 198.726 252.884L216.434 250.426C216.434 250.426 215.828 245.642 214.515 243.778Z" fill="#19384B"/>
<path d="M215.282 243.969C209.752 246.965 206.612 244.903 206.612 244.903C206.612 244.903 200.165 215.893 198.542 210.274C198.212 209.129 197.615 206.855 197.083 203.885C196.572 201.004 196.033 197.499 195.511 193.851C195.314 192.477 195.123 191.083 194.935 189.695C193.589 179.788 192.494 170.167 192.494 170.167L193.64 169.096L199.978 163.188L208.9 172.291L209.132 190.006L209.309 203.476L209.333 205.351L215.279 243.972L215.282 243.969Z" fill="#224A8A"/>
<path d="M193.115 246.635L189.675 244.906L185.106 246.955C185.106 246.955 179.283 248.111 177.02 250.235C175.918 251.268 176.167 253.347 176.167 253.347L194.046 253.487C194.046 253.487 194.138 248.666 193.112 246.631L193.115 246.635Z" fill="#112C3A"/>
<path d="M198.014 174.609L196.064 189.211L195.512 193.364L194.21 203.125L193.64 207.383L193.913 246.457C188.008 248.619 185.202 246.123 185.202 246.123C185.202 246.123 182.355 217.563 182.243 210.69C182.215 209.013 181.704 205.068 181.65 200.203C181.626 198.052 181.622 195.726 181.636 193.357C181.694 182.239 182.086 170.122 182.086 170.122L190.504 164.303L193.637 168.609L198.011 174.612L198.014 174.609Z" fill="#19315B"/>
<path d="M165.615 137.113C165.615 137.113 162.175 129.197 158.79 131.72C155.404 134.242 162.707 140.338 162.707 140.338L165.615 137.113Z" fill="#F2B696"/>
<path d="M193.234 130.622C193.234 130.622 190.234 139.691 185.382 146.85C182.938 150.461 180.023 153.59 176.781 154.821C175.216 155.418 173.412 154.722 171.599 153.359C166.406 149.462 161.135 140.124 161.135 140.124C161.135 140.124 163.024 135.01 166.174 135.214L174.739 144.682L182.167 130.533L193.238 130.622H193.234Z" fill="white"/>
<g style="mix-blend-mode:multiply" opacity="0.5">
<path d="M209.309 202.988C204.918 203.599 200.81 203.663 197.08 203.397C196.569 200.517 196.03 197.012 195.508 193.364L194.206 203.125C189.089 202.511 184.81 201.325 181.649 200.199L181.636 193.354L187.527 189.262C187.527 189.262 190.517 189.198 194.932 189.204C195.297 189.204 195.675 189.204 196.061 189.211C199.842 189.232 204.485 189.307 209.129 189.518L209.306 202.988H209.309Z" fill="#0F2B4C"/>
</g>
<g style="mix-blend-mode:multiply">
<path d="M185.379 146.85C182.935 150.461 180.02 153.59 176.777 154.821C175.213 155.418 173.409 154.722 171.595 153.359C180.886 153.795 181.23 134.055 181.23 134.055L185.379 146.847V146.85Z" fill="#ABB6CE"/>
</g>
<path d="M216.513 193.96C216.513 193.96 204.509 197.4 191.68 196.691C191.404 196.678 191.127 196.661 190.848 196.64C186.494 196.34 182.069 195.546 178.015 193.96C178.015 193.96 178.087 191.049 178.227 186.48C178.291 184.401 178.366 181.977 178.458 179.324C179.065 161.551 180.269 133.598 181.919 130.932C183.705 128.041 186.371 125.941 190.476 124.267C191.104 124.008 191.768 123.762 192.464 123.524C193.408 123.203 194.421 122.896 195.502 122.6C195.502 122.6 196.818 122.504 198.815 122.743C199.548 122.831 200.374 122.964 201.26 123.162C203.725 123.718 206.667 124.795 209.412 126.848C210.059 127.332 211.358 138.549 212.668 151.678C212.712 152.107 212.756 152.54 212.797 152.973C213.005 155.08 213.216 157.232 213.421 159.383C213.544 160.655 213.663 161.93 213.782 163.198C213.926 164.725 214.069 166.246 214.205 167.749C215.494 181.752 216.513 193.954 216.513 193.954V193.96Z" fill="white"/>
<path d="M198.846 122.634C197.544 127.144 194.601 131.471 193.33 133.213C192.975 133.694 192.75 133.98 192.719 134.017V134.011C192.641 133.707 192.573 133.411 192.508 133.117C191.379 127.877 192.464 124.008 192.464 124.008H192.474L198.846 122.637V122.634Z" fill="#2B3A60"/>
<path d="M198.85 122.63C198.85 122.63 197.046 125.842 192.464 124.001L192.522 123.353L192.835 119.842L193.05 117.421L198.498 115.921L198.519 116.32V116.34L198.85 122.63Z" fill="#F2B696"/>
<path d="M200.353 129.238H198.314L199.333 130.966L192.723 134.014C192.859 133.844 197.127 128.453 198.815 122.743C199.548 122.831 200.373 122.964 201.26 123.162L200.353 129.234V129.238Z" fill="#D2D3D3"/>
<g style="mix-blend-mode:multiply">
<path d="M198.938 114.349C198.873 114.99 198.744 115.668 198.519 116.32V116.34L198.509 116.35C198.509 116.35 198.843 122.958 192.522 123.353L192.836 119.841C190.244 119.726 189.068 118.225 188.628 116.35L198.942 114.349H198.938Z" fill="#F2B696"/>
</g>
<path d="M198.938 114.349C198.873 114.99 198.744 115.668 198.519 116.32C198.512 116.33 198.512 116.344 198.509 116.35C197.834 118.246 196.31 119.916 193.009 119.848C192.948 119.848 192.89 119.848 192.832 119.841C190.241 119.726 189.065 118.225 188.625 116.35C187.834 112.989 189.406 108.41 189.406 108.41L190.896 105.863L197.083 105.355L197.789 107.002L198.846 111.192C198.846 111.192 199.115 112.638 198.938 114.349Z" fill="#F2B696"/>
<g style="mix-blend-mode:multiply">
<path d="M189.372 108.516C189.372 108.516 189.586 109.375 191.431 109.375C193.275 109.375 194.977 108.758 195.277 109.177C195.577 109.6 196.316 110.923 196.316 110.923L197.718 108.809L195.658 107.152L191.209 107.244L189.375 108.512L189.372 108.516Z" fill="#F2B696"/>
</g>
<path d="M195.856 108.25C195.856 108.25 192.416 109.218 189.624 108.587C186.835 107.957 187.264 103.074 190.585 102.045C193.906 101.015 201.28 101.775 202.03 104.029C203.52 108.526 200.844 113.296 198.768 115.089C198.768 115.089 196.354 113.729 195.856 108.246V108.25Z" fill="#19384B"/>
<path d="M191.676 196.691C191.4 196.678 191.124 196.661 190.844 196.64C190.418 163.321 192.303 135.91 192.505 133.117C192.569 133.411 192.638 133.711 192.716 134.011C192.716 134.011 192.716 134.017 192.716 134.021C192.747 133.983 192.972 133.697 193.326 133.216C193.111 136.217 191.247 163.532 191.673 196.691H191.676Z" fill="#D2D3D3"/>
<path d="M216.513 193.96C216.513 193.96 213.329 176.955 211.317 175.059C209.306 173.163 210.332 169.648 209.987 163.887C209.64 158.125 198.849 154.804 198.849 154.804L201.26 153.171L212.667 151.685C212.711 152.114 212.756 152.547 212.797 152.98C213.005 155.087 213.216 157.238 213.421 159.39C213.543 160.661 213.663 161.937 213.782 163.205C213.925 164.732 214.068 166.253 214.205 167.756C215.493 181.758 216.513 193.96 216.513 193.96Z" fill="#ABB6CE"/>
<path d="M188.403 113.255C188.366 113.238 188.062 113.885 188.045 113.926C187.807 114.458 187.636 115.028 187.585 115.611C187.476 116.814 188.004 117.908 188.874 118.716C190.486 120.22 193.176 119.869 194.936 118.863C195.716 118.416 196.412 117.84 197.053 117.213C197.602 116.674 198.491 115.945 198.713 115.184C198.761 115.021 198.706 114.935 198.638 114.775L197.888 112.975C197.888 112.975 194.578 115.764 188.403 113.258V113.255Z" fill="#19384B"/>
<path d="M199.79 149.929C199.79 149.929 191.536 147.403 191.253 151.613C190.974 155.827 200.349 154.235 200.349 154.235L199.787 149.929H199.79Z" fill="#F2B696"/>
<g style="mix-blend-mode:multiply">
<path d="M204.011 135.783C204.011 135.783 208.941 144.259 207.414 146.325C205.961 148.289 199.003 149.274 199.003 149.274L206.316 151.998L212.204 151.855L215.48 146.908L212.391 139.22L204.011 135.783Z" fill="#ABB6CE"/>
</g>
<path d="M196.961 113.691C197.767 113.691 198.42 113.038 198.42 112.232C198.42 111.426 197.767 110.773 196.961 110.773C196.155 110.773 195.501 111.426 195.501 112.232C195.501 113.038 196.155 113.691 196.961 113.691Z" fill="#F2B696"/>
<path d="M209.412 126.854C209.412 126.854 223.414 142.302 220.748 152.292C219.077 158.544 198.849 154.808 198.849 154.808C198.849 154.808 196.998 151.709 199.003 149.274L211.692 147.87L204.015 135.784L209.415 126.854H209.412Z" fill="white"/>
<path d="M189.678 129.797L191.069 129.05L189.678 128.324L190.473 124.267C191.1 124.008 191.765 123.762 192.46 123.524L192.47 124.001H192.46C192.46 124.001 191.25 128.32 192.716 134.007L189.678 129.797Z" fill="#D2D3D3"/>
<path d="M211.281 178.964L197.047 179.725L197.429 186.871L211.663 186.11L211.281 178.964Z" fill="#DAE3EA"/>
<path d="M185.635 179.709L185.253 186.855L178.223 186.477C178.287 184.397 178.362 181.973 178.454 179.324L185.635 179.709Z" fill="#DAE3EA"/>
<g style="mix-blend-mode:lighten" opacity="0.5">
<path d="M123.704 183.088C118.614 183.088 114.485 178.963 114.485 173.869V93.4293C114.485 88.3392 118.611 84.2105 123.704 84.2105C128.794 84.2105 132.923 88.3358 132.923 93.4293V173.869C132.923 176.416 131.89 178.717 130.223 180.388C128.556 182.055 126.251 183.088 123.704 183.088Z" fill="white"/>
</g>
<path d="M66.3402 69.5133C68.9306 59.0301 62.5322 48.4317 52.049 45.8413C41.5658 43.2508 30.9674 49.6492 28.377 60.1324C25.7865 70.6157 32.1849 81.214 42.6681 83.8045C53.1514 86.3949 63.7497 79.9965 66.3402 69.5133Z" fill="#3AB6D1"/>
<path d="M58.8723 58.6882H53.4855V53.3015C53.4855 52.5003 53.1617 51.7741 52.6366 51.2525C52.1116 50.7275 51.3854 50.4036 50.5876 50.4036H44.1235C42.5211 50.4036 41.2222 51.7025 41.2222 53.3049V58.6917H35.8354C34.233 58.6917 32.9341 59.9906 32.9341 61.593V68.0571C32.9341 69.6595 34.233 70.9584 35.8354 70.9584H41.2222V76.3452C41.2222 77.9476 42.5211 79.2465 44.1235 79.2465H50.5876C52.19 79.2465 53.489 77.9476 53.489 76.3452V70.9584H58.8757C59.6769 70.9584 60.4031 70.6345 60.9247 70.1095C61.4498 69.5845 61.7736 68.8583 61.7736 68.0605V61.5964C61.7736 59.994 60.4747 58.6951 58.8723 58.6951V58.6882Z" fill="white"/>
<path d="M274.1 178.492H252.962V195.887H274.1V178.492Z" fill="#19315B"/>
<path d="M153.13 208.481V247.241C153.13 248.874 152.462 250.358 151.392 251.428C150.318 252.502 148.841 253.167 147.205 253.167H81.7662C78.4967 253.167 75.8442 250.511 75.8442 247.238V208.477C75.8442 205.208 78.4933 202.548 81.7662 202.548H147.202C150.471 202.548 153.13 205.204 153.13 208.477V208.481Z" fill="#FDC12F"/>
<path d="M140.192 202.555H129.248V253.167H140.192V202.555Z" fill="#DF9F26"/>
<path d="M99.7267 202.555H88.7827V253.167H99.7267V202.555Z" fill="#DF9F26"/>
<path d="M137.581 197.196V202.552H133.534V197.196C133.534 196.245 133.162 195.348 132.487 194.68C131.812 194.005 130.922 193.633 129.971 193.633H98.738C96.7674 193.633 95.1719 195.232 95.1719 197.196V202.552H91.125V197.196C91.125 193.002 94.5446 189.59 98.738 189.59H129.971C132 189.59 133.909 190.377 135.347 191.816C136.783 193.251 137.581 195.167 137.581 197.199V197.196Z" fill="#FDC12F"/>
<path d="M124.26 224.955H117.394V218.088C117.394 217.717 117.237 217.382 116.981 217.147C116.753 216.936 116.446 216.806 116.112 216.806H112.863C112.154 216.806 111.581 217.379 111.581 218.088V224.955H104.715C104.005 224.955 103.433 225.527 103.433 226.236V229.486C103.433 230.195 104.005 230.767 104.715 230.767H111.581V237.634C111.581 238.343 112.154 238.916 112.863 238.916H116.112C116.821 238.916 117.394 238.343 117.394 237.634V230.767H124.26C124.632 230.767 124.966 230.611 125.201 230.355C125.413 230.127 125.542 229.82 125.542 229.486V226.236C125.542 225.527 124.969 224.955 124.26 224.955Z" fill="white"/>
<path d="M278.512 253.221H248.554C242.349 253.221 237.32 248.193 237.32 241.988V198.546C237.32 192.341 242.349 187.312 248.554 187.312H278.512C280.67 187.312 282.688 187.922 284.4 188.976C287.608 190.953 289.746 194.499 289.746 198.546V241.988C289.746 248.193 284.717 253.221 278.512 253.221Z" fill="#224A8A"/>
<path d="M283.766 200.592H243.3V241.057H283.766V200.592Z" fill="#6C93CC"/>
<path d="M279.763 167.838H247.306V181.762H279.763V167.838Z" fill="#3760AD"/>
<path d="M275.048 214.137H269.661V208.75C269.661 207.949 269.337 207.223 268.812 206.701C268.287 206.176 267.561 205.852 266.763 205.852H260.299C258.697 205.852 257.398 207.151 257.398 208.753V214.14H252.011C250.409 214.14 249.11 215.439 249.11 217.041V223.506C249.11 225.108 250.409 226.407 252.011 226.407H257.398V231.794C257.398 233.396 258.697 234.695 260.299 234.695H266.763C268.366 234.695 269.665 233.396 269.665 231.794V226.407H275.051C275.853 226.407 276.579 226.083 277.101 225.558C277.622 225.033 277.949 224.307 277.949 223.509V217.045C277.949 215.443 276.65 214.144 275.048 214.144V214.137Z" fill="white"/>
<path d="M277.029 170.722H250.037V178.878H277.029V170.722Z" fill="#6C93CC"/>
<path d="M129.96 43.5747C129.96 50.7616 124.127 56.5847 116.944 56.5847C111.833 56.5847 107.408 53.6391 105.287 49.3467C104.418 47.6045 103.934 45.651 103.934 43.5747C103.934 36.3878 116.944 14.1999 116.944 14.1999C116.944 14.1999 122.999 24.5165 126.844 33.3603C128.644 37.489 129.96 41.2905 129.96 43.5747Z" fill="#EA4956"/>
<path d="M129.96 43.5747C129.96 50.7616 124.127 56.5847 116.944 56.5847C111.833 56.5847 107.408 53.6391 105.287 49.3467C107.616 51.0582 110.486 52.0605 113.602 52.0605C121.413 52.0605 127.734 45.7294 127.734 37.9289C127.734 36.739 127.407 35.1707 126.841 33.3604C128.641 37.4891 129.957 41.2905 129.957 43.5747H129.96Z" fill="#B8263E"/>
<path d="M58.5553 231.388C57.7848 221.225 52.5481 225.998 55.013 216.759C57.478 207.519 50.8843 207.366 51.3309 198.28C51.7776 189.194 44.0793 188.117 44.0793 188.117V188.577L44.0043 188.117C44.0043 188.117 36.3026 189.194 36.7526 198.28C37.1993 207.366 30.6056 207.519 33.0705 216.759C35.5355 225.998 30.2988 221.225 29.5283 231.388C28.7577 241.551 44.0043 241.551 44.0043 241.551L44.0793 241.469V241.551C44.0793 241.551 59.3258 241.551 58.5553 231.388Z" fill="#3AB6D1"/>
<path d="M42.2554 243.928L44.0794 190.797L45.9034 243.928C45.9374 244.933 45.1499 245.779 44.1441 245.813C43.1384 245.847 42.2929 245.059 42.2588 244.054C42.2588 244.013 42.2588 243.968 42.2588 243.928H42.2554Z" fill="#8BD4E0"/>
<path d="M44.0793 253.167C40.0802 253.167 36.8413 249.928 36.8413 245.929V241.463H51.3173V245.929C51.3173 246.928 51.1162 247.879 50.748 248.745C49.6502 251.343 47.0761 253.167 44.0793 253.167Z" fill="#F5BC2B"/>
<path d="M285.456 72.6086V122.04C285.456 125.515 282.64 128.327 279.166 128.327C275.692 128.327 272.879 125.515 272.879 122.04V72.6086H285.456Z" fill="#D9EBF4"/>
<path d="M279.166 124.655C276.906 124.655 275.072 122.821 275.072 120.561V83.1945H283.258V120.561C283.258 121.495 282.944 122.354 282.419 123.043C281.672 124.021 280.493 124.652 279.163 124.652L279.166 124.655Z" fill="#EA4956"/>
<path d="M286.039 78.0192H272.293C270.8 78.0192 269.586 76.8089 269.586 75.3122C269.586 73.8189 270.796 72.6052 272.293 72.6052H286.039C286.786 72.6052 287.465 72.9086 287.952 73.3961C288.443 73.8871 288.743 74.5621 288.743 75.3088C288.743 76.8021 287.533 78.0158 286.036 78.0158L286.039 78.0192Z" fill="#C3E0ED"/>
<g style="mix-blend-mode:screen" opacity="0.5">
<path d="M277.628 123.459C276.677 123.459 275.903 122.688 275.903 121.734V81.3637C275.903 80.4125 276.674 79.6386 277.628 79.6386C278.092 79.6386 278.515 79.8227 278.825 80.1227C279.149 80.4364 279.354 80.8762 279.354 81.3637V121.734C279.354 122.685 278.583 123.459 277.628 123.459Z" fill="white"/>
</g>
<g style="mix-blend-mode:multiply">
<path d="M285.453 78.0192H272.876V81.7354H285.453V78.0192Z" fill="#C3E0ED"/>
</g>
<path d="M220.921 23.7324L207.714 46.8204C204.57 52.3162 197.564 54.2254 192.068 51.0786C190.558 50.2161 189.317 49.0603 188.379 47.7238C185.904 44.202 185.526 39.4187 187.806 35.4332L201.014 12.3452C204.158 6.84593 211.164 4.94012 216.66 8.08693C216.977 8.26763 217.28 8.46196 217.57 8.66652C218.739 9.48476 219.718 10.4973 220.478 11.636C221.429 13.0509 222.05 14.6601 222.302 16.3341C222.674 18.7956 222.251 21.4004 220.914 23.7324H220.921Z" fill="#D9EBF4"/>
<path d="M214.317 35.2764L207.713 46.8204C204.57 52.3162 197.567 54.2221 192.071 51.0787C186.572 47.9318 184.666 40.9291 187.81 35.4332L194.414 23.8892L214.317 35.2764Z" fill="#FDC12F"/>
<g style="mix-blend-mode:multiply">
<path d="M220.921 23.7323L207.713 46.8204C204.57 52.3162 197.564 54.2254 192.068 51.0786C190.557 50.216 189.316 49.0603 188.379 47.7238C188.672 47.9318 188.979 48.1261 189.299 48.3068C194.795 51.4536 201.798 49.5444 204.945 44.0486L218.153 20.9606C219.489 18.6286 219.912 16.0238 219.54 13.5623C219.288 11.8883 218.667 10.2791 217.716 8.86425C217.672 8.79606 217.624 8.73128 217.576 8.6665C218.746 9.48474 219.724 10.4973 220.485 11.636C221.436 13.0509 222.056 14.6601 222.309 16.3341C222.68 18.7956 222.258 21.4004 220.921 23.7323Z" fill="#D9EBF4"/>
</g>
<path d="M201.594 149.264C201.454 149.264 201.335 149.158 201.318 149.019C201.301 148.865 201.41 148.729 201.563 148.712L211.215 147.645L204.959 137.795C204.877 137.665 204.915 137.495 205.044 137.413C205.174 137.331 205.344 137.369 205.426 137.498L212.159 148.098L201.625 149.264C201.625 149.264 201.604 149.264 201.594 149.264Z" fill="#A9A8A8"/>
<path d="M174.797 145.163L167.917 137.556C167.814 137.444 167.821 137.267 167.937 137.164C168.05 137.062 168.227 137.069 168.329 137.185L174.677 144.201L179.648 134.73C179.72 134.594 179.887 134.543 180.023 134.614C180.16 134.686 180.211 134.853 180.139 134.989L174.797 145.163Z" fill="#A9A8A8"/>
<path d="M184.4 235.81C184.196 235.81 184.015 235.656 183.988 235.448C183.964 235.271 181.656 217.563 181.56 211.955C181.465 206.37 181.237 197.891 181.237 197.806C181.23 197.578 181.41 197.387 181.642 197.38H181.652C181.877 197.38 182.062 197.557 182.068 197.786C182.068 197.871 182.3 206.357 182.392 211.941C182.488 217.502 184.789 235.166 184.813 235.343C184.844 235.571 184.683 235.779 184.455 235.81C184.438 235.81 184.417 235.813 184.4 235.813V235.81Z" fill="#A9C2E1"/>
<path d="M204.577 235.414C204.372 235.445 204.175 235.319 204.117 235.114C204.069 234.941 199.258 217.744 198.362 212.207C197.472 206.694 196.036 198.335 196.023 198.249C195.985 198.024 196.135 197.81 196.36 197.769H196.371C196.592 197.735 196.8 197.885 196.838 198.106C196.851 198.191 198.29 206.554 199.18 212.071C200.066 217.563 204.863 234.716 204.914 234.886C204.976 235.108 204.846 235.336 204.628 235.397C204.611 235.401 204.594 235.408 204.573 235.408L204.577 235.414Z" fill="#A9C2E1"/>
</g>
<defs>
<clipPath id="clip0_1500_6117">
<rect width="319.022" height="256" fill="white"/>
</clipPath>
</defs>
</svg>
