<svg width="256" height="256" viewBox="0 0 256 256" fill="none" xmlns="http://www.w3.org/2000/svg">
<g clip-path="url(#clip0_1500_5902)">
<path d="M223.401 218.223C218.212 223.684 213.303 227.206 209.423 229.989C163.827 262.699 109.874 253.164 98.4068 250.836C81.4746 247.398 48.7446 240.751 25.0805 212.929C-10.7192 170.837 -5.14427 104.521 22.6245 60.7447C27.7048 52.7376 54.5353 8.29528 109.069 1.16777C142.073 -3.14537 180.544 5.55436 208.404 28.8903C266.885 77.8764 262.722 176.836 223.4 218.223H223.401Z" fill="url(#paint0_linear_1500_5902)"/>
<path d="M79.7954 159.587C79.7954 159.587 80.6193 124.969 64.671 115.704C48.7235 106.439 18.402 100.647 17.2647 50.9394C16.5989 21.839 15.8791 9.11531 15.3965 3.56746C15.2086 1.40298 17.1327 -0.344026 19.2678 0.0576285C34.3718 2.90268 83.4361 14.6111 93.7231 48.0944C105.918 87.7884 79.7954 159.587 79.7954 159.587Z" fill="#50C7D7"/>
<path opacity="0.28" d="M30.9489 13.8878C47.5278 28.6709 66.6993 54.8351 76.9175 80.9985C78.2287 85.3107 82.0656 94.4799 83.732 110.773C85.2199 124.361 84.4806 138.72 82.6756 148.224C82.5612 148.825 81.9819 149.22 81.3811 149.106C80.348 148.91 80.4856 147.799 80.4949 147.834C82.5557 131.595 81.7001 111.383 76.9779 93.1457C70.9454 70.7525 57.4902 49.0418 43.5728 30.628L42.1407 28.815C31.3581 14.9709 29.0881 14.8686 30.0962 13.9036C30.3342 13.6758 30.7071 13.6739 30.9489 13.8887V13.8878Z" fill="white"/>
<path d="M105.424 226.144C107.581 227.202 84.9977 198.808 77.9228 154.212C74.589 133.198 74.5452 106.869 62.5723 96.7226C52.6081 88.2785 18.6989 93.6097 7.60385 95.6357C6.21731 95.8886 5.75049 97.6393 6.83014 98.5458C12.1503 103.013 23.5327 113.551 26.4983 124.172C30.4068 138.17 43.7179 147.073 55.635 149.483C67.5512 151.893 74.1807 154.232 79.9863 173.285C85.7919 192.339 99.2927 223.139 105.424 226.144Z" fill="#BDD0FB"/>
<path opacity="0.28" d="M23.2089 101.55C37.3643 102.143 52.5586 108.598 60.2696 120.708L60.9977 121.864C62.679 124.573 72.2053 143.836 77.4957 159.803C77.5617 160.002 77.4539 160.216 77.2549 160.282C76.9164 160.394 76.7471 160.022 76.7797 160.056C73.0934 151.035 67.7993 139.599 63.582 131.047C59.0597 121.715 55.8952 115.395 45.5813 109.341C34.1012 102.822 23.1326 102.15 23.1661 102.157C22.9987 102.14 22.8769 101.991 22.8936 101.823C22.9104 101.662 23.0499 101.543 23.2098 101.55H23.2089Z" fill="white"/>
<path d="M65.5244 46.4172C65.5244 37.6384 72.6421 30.5211 81.4235 30.5211H216.627C224.086 30.5211 230.236 36.3656 230.616 43.8138L240.596 239.796C240.893 245.625 236.304 250.54 230.468 250.646L75.5073 253.463C70.0234 253.562 65.5244 249.145 65.5244 243.661V46.4172Z" fill="url(#paint1_linear_1500_5902)"/>
<path d="M98.1549 250.131H98.1502L80.8107 249.907C75.0125 249.832 70.2959 245.055 70.2959 239.258V213.084C70.2959 212.88 70.4614 212.714 70.666 212.714C70.8706 212.714 71.0361 212.88 71.0361 213.084V239.258C71.0361 244.651 75.4254 249.097 80.82 249.167L98.1586 249.391C98.3632 249.394 98.5269 249.561 98.5241 249.766C98.5213 249.969 98.3558 250.131 98.154 250.131H98.1549Z" fill="#91B3FA"/>
<path d="M70.6659 205.346C70.4614 205.346 70.2959 205.18 70.2959 204.976V200.737C70.2959 200.533 70.4614 200.367 70.6659 200.367C70.8704 200.367 71.0359 200.533 71.0359 200.737V204.976C71.0359 205.18 70.8704 205.346 70.6659 205.346Z" fill="#91B3FA"/>
<path d="M76.6007 33.5382C76.5839 30.7294 79.0548 28.5556 81.839 28.9331C100.302 31.436 163.792 39.179 216.285 35.1494C218.679 34.9653 220.756 36.7793 220.884 39.1762L231.348 236.032C231.492 238.731 229.43 241.039 226.731 241.198C204.654 242.505 113.731 247.554 81.3006 244.158C79.3263 243.951 77.8282 242.29 77.817 240.306L76.6007 33.5372V33.5382Z" fill="url(#paint2_linear_1500_5902)"/>
<path d="M78.7758 38.4714C78.76 35.7686 81.1379 33.6766 83.8161 34.0392C101.584 36.4482 162.684 43.8993 213.2 40.0222C215.503 39.8456 217.503 41.5907 217.625 43.8974L227.696 233.341C227.833 235.938 225.85 238.16 223.252 238.313C202.006 239.57 114.508 244.43 83.2981 241.162C81.3982 240.963 79.9569 239.364 79.9457 237.455L78.7749 38.4723L78.7758 38.4714Z" fill="#BDD0FB"/>
<g opacity="0.6">
<path opacity="0.6" d="M207.64 56.6128C207.872 56.6128 208.056 56.4232 208.049 56.1916L207.994 54.3089C207.988 54.0774 207.792 53.8849 207.561 53.8803L156.473 52.97C156.241 52.9663 156.115 53.1411 156.192 53.3596L157.198 56.2158C157.275 56.4343 157.527 56.6128 157.759 56.6128H207.641H207.64Z" fill="white"/>
</g>
<g opacity="0.6">
<path opacity="0.6" d="M156.472 60.5411C156.24 60.5374 156.114 60.7121 156.191 60.9306L157.197 63.7869C157.275 64.0054 157.527 64.1839 157.758 64.1839H207.64C207.871 64.1839 208.056 63.9942 208.049 63.7627L207.994 61.8799C207.988 61.6484 207.792 61.456 207.561 61.4513L156.473 60.5411H156.472Z" fill="white"/>
</g>
<g opacity="0.6">
<path opacity="0.6" d="M156.472 68.2228C156.24 68.2191 156.114 68.3938 156.191 68.6123L157.197 71.4685C157.275 71.687 157.527 71.8655 157.758 71.8655H207.64C207.871 71.8655 208.056 71.6758 208.049 71.4443L207.994 69.5616C207.988 69.3301 207.792 69.1376 207.561 69.133L156.473 68.2228H156.472Z" fill="white"/>
</g>
<g opacity="0.6">
<path opacity="0.6" d="M212.376 108.911C212.608 108.911 212.784 108.722 212.769 108.49L212.645 106.606C212.63 106.374 212.427 106.184 212.196 106.183L95.6319 105.264C95.4004 105.262 95.3288 105.409 95.4729 105.591L97.8554 108.581C97.9995 108.763 98.3073 108.911 98.5389 108.911H212.376Z" fill="white"/>
</g>
<g opacity="0.6">
<path opacity="0.6" d="M95.6319 117.214C95.4004 117.213 95.3288 117.359 95.4729 117.541L97.8554 120.532C97.9995 120.713 98.3073 120.861 98.5389 120.861H212.376C212.608 120.861 212.784 120.672 212.769 120.441L212.645 118.556C212.63 118.324 212.427 118.134 212.196 118.133L95.6319 117.214Z" fill="white"/>
</g>
<g opacity="0.6">
<path opacity="0.6" d="M96.1173 132.204C95.8857 132.202 95.8141 132.349 95.9582 132.53L98.3407 135.521C98.4849 135.702 98.7927 135.85 99.0242 135.85H212.861C213.093 135.85 213.27 135.662 213.255 135.43L213.13 133.545C213.115 133.314 212.913 133.123 212.681 133.122L96.1173 132.204Z" fill="white"/>
</g>
<path d="M111.021 164.478H110.995L101.354 164.386C99.9765 164.373 98.8392 163.424 98.709 162.181L97.8619 154.093C97.8126 153.618 97.9595 153.149 98.2766 152.771C98.6319 152.349 99.1694 152.083 99.7515 152.043C100.563 151.988 101.708 151.89 102.919 151.787C105.469 151.57 108.643 151.3 110.428 151.278C111.723 151.271 112.823 152.037 113.128 153.166C113.63 155.023 113.586 158.537 113.49 162.281C113.46 163.498 112.354 164.478 111.021 164.478ZM99.8017 152.782C99.4186 152.808 99.0689 152.978 98.843 153.248C98.656 153.47 98.5686 153.743 98.5975 154.016L99.4446 162.104C99.5358 162.973 100.36 163.635 101.36 163.645L111.002 163.738H111.021C111.956 163.738 112.73 163.08 112.75 162.264C112.844 158.576 112.889 155.121 112.413 153.36C112.199 152.571 111.378 152.022 110.436 152.02C108.677 152.042 105.519 152.311 102.98 152.526C101.766 152.63 100.619 152.727 99.8008 152.783L99.8017 152.782Z" fill="white"/>
<path opacity="0.6" d="M100.839 153.617C102.865 153.478 107.267 153.031 109.355 153.006C110.239 152.995 111.016 153.53 111.223 154.297C111.626 155.786 111.573 158.756 111.503 161.496C111.482 162.317 110.728 162.971 109.808 162.963L102.103 162.889C101.156 162.879 100.369 162.233 100.281 161.393L99.6036 154.929C99.5338 154.26 100.09 153.668 100.84 153.617H100.839Z" fill="white"/>
<g opacity="0.6">
<path opacity="0.6" d="M119.49 159.107C119.769 160.165 120.731 160.9 121.825 160.891L211.033 160.13C212.042 160.122 212.849 159.29 212.828 158.281C212.806 157.3 212.008 156.515 211.027 156.511L121.817 156.103C120.243 156.096 119.089 157.584 119.491 159.107H119.49Z" fill="white"/>
</g>
<path d="M111.021 185.138H110.995L101.354 185.045C99.9765 185.032 98.8392 184.083 98.709 182.841L97.8619 174.753C97.8126 174.278 97.9595 173.81 98.2766 173.431C98.6319 173.009 99.1694 172.743 99.7515 172.703C100.563 172.648 101.708 172.551 102.919 172.447C105.469 172.23 108.643 171.96 110.428 171.938C110.441 171.938 110.454 171.938 110.467 171.938C111.735 171.938 112.825 172.71 113.128 173.826C113.63 175.683 113.586 179.198 113.49 182.942C113.46 184.158 112.354 185.138 111.021 185.138ZM99.8017 173.442C99.4186 173.468 99.0689 173.639 98.843 173.908C98.656 174.13 98.5686 174.404 98.5975 174.676L99.4446 182.764C99.5358 183.633 100.36 184.295 101.36 184.306L111.002 184.398H111.021C111.956 184.398 112.73 183.739 112.75 182.923C112.844 179.236 112.889 175.781 112.413 174.02C112.199 173.231 111.366 172.664 110.436 172.679C108.678 172.701 105.519 172.97 102.981 173.186C101.767 173.289 100.62 173.387 99.8017 173.442Z" fill="white"/>
<path opacity="0.6" d="M100.839 174.277C102.865 174.139 107.267 173.691 109.355 173.666C110.239 173.655 111.016 174.19 111.223 174.957C111.626 176.446 111.573 179.416 111.503 182.156C111.482 182.977 110.728 183.632 109.808 183.623L102.103 183.549C101.156 183.54 100.369 182.894 100.281 182.053L99.6036 175.589C99.5338 174.921 100.09 174.328 100.84 174.277H100.839Z" fill="white"/>
<g opacity="0.6">
<path opacity="0.6" d="M119.49 179.767C119.769 180.825 120.731 181.56 121.825 181.551L211.033 180.79C212.042 180.782 212.849 179.95 212.828 178.941C212.806 177.96 212.008 177.175 211.027 177.171L121.817 176.763C120.243 176.756 119.089 178.244 119.491 179.767H119.49Z" fill="white"/>
</g>
<path d="M111.021 205.798H110.995L101.354 205.706C99.9766 205.693 98.8392 204.745 98.709 203.502L97.8619 195.414C97.8126 194.939 97.9595 194.47 98.2776 194.092C98.6328 193.67 99.1703 193.404 99.7524 193.364C100.564 193.309 101.709 193.212 102.92 193.109C105.47 192.891 108.644 192.621 110.429 192.599C110.442 192.599 110.455 192.599 110.468 192.599C111.736 192.599 112.826 193.371 113.129 194.487C113.631 196.344 113.587 199.859 113.491 203.603C113.461 204.819 112.355 205.799 111.022 205.799L111.021 205.798ZM99.8017 194.102C99.4186 194.128 99.0689 194.299 98.843 194.568C98.656 194.79 98.5686 195.064 98.5975 195.336L99.4446 203.424C99.5358 204.293 100.36 204.955 101.36 204.965L111.002 205.058H111.021C111.956 205.058 112.73 204.399 112.75 203.583C112.844 199.896 112.889 196.441 112.413 194.68C112.199 193.891 111.366 193.321 110.436 193.339C108.678 193.361 105.519 193.63 102.981 193.846C101.767 193.949 100.62 194.047 99.8017 194.102Z" fill="white"/>
<path opacity="0.6" d="M100.839 194.937C102.865 194.799 107.267 194.352 109.355 194.326C110.239 194.315 111.016 194.85 111.223 195.617C111.626 197.106 111.573 200.076 111.503 202.816C111.482 203.637 110.728 204.292 109.808 204.283L102.103 204.209C101.156 204.2 100.369 203.553 100.281 202.713L99.6036 196.249C99.5338 195.581 100.09 194.988 100.84 194.937H100.839Z" fill="white"/>
<g opacity="0.6">
<path opacity="0.6" d="M119.49 200.428C119.769 201.486 120.731 202.22 121.825 202.211L211.033 201.45C212.042 201.442 212.849 200.61 212.828 199.601C212.806 198.62 212.008 197.835 211.027 197.831L121.817 197.423C120.243 197.416 119.089 198.905 119.491 200.428H119.49Z" fill="white"/>
</g>
<path d="M111.021 226.458H110.995L101.354 226.365C99.9766 226.352 98.8392 225.405 98.709 224.161L97.8619 216.073C97.8126 215.598 97.9595 215.129 98.2776 214.751C98.6328 214.329 99.1703 214.063 99.7524 214.023C100.564 213.969 101.709 213.871 102.92 213.768C105.47 213.55 108.644 213.28 110.429 213.258C110.442 213.258 110.455 213.258 110.468 213.258C111.736 213.258 112.826 214.03 113.129 215.147C113.631 217.003 113.587 220.518 113.491 224.262C113.461 225.478 112.355 226.458 111.022 226.458H111.021ZM99.8017 214.763C99.4186 214.789 99.0689 214.959 98.843 215.228C98.656 215.451 98.5686 215.724 98.5975 215.996L99.4446 224.084C99.5358 224.954 100.36 225.616 101.36 225.625L111.002 225.718H111.021C111.956 225.718 112.73 225.06 112.75 224.243C112.844 220.556 112.889 217.101 112.413 215.34C112.199 214.551 111.366 213.979 110.436 213.999C108.678 214.022 105.519 214.29 102.981 214.506C101.767 214.609 100.62 214.707 99.8017 214.763Z" fill="white"/>
<path opacity="0.6" d="M100.839 215.597C102.865 215.459 107.267 215.012 109.355 214.987C110.239 214.975 111.016 215.51 111.223 216.277C111.626 217.767 111.573 220.736 111.503 223.476C111.482 224.297 110.728 224.952 109.808 224.943L102.103 224.869C101.156 224.86 100.369 224.214 100.281 223.373L99.6036 216.909C99.5338 216.241 100.09 215.649 100.84 215.597H100.839Z" fill="white"/>
<g opacity="0.6">
<path opacity="0.6" d="M119.49 221.088C119.769 222.146 120.731 222.88 121.825 222.871L211.033 222.11C212.042 222.102 212.849 221.27 212.828 220.261C212.806 219.28 212.008 218.496 211.027 218.491L121.817 218.084C120.243 218.076 119.089 219.565 119.491 221.088H119.49Z" fill="white"/>
</g>
<path d="M157.41 3.80084C152.526 0.40351 148.28 0.471382 145.29 1.35279C142.564 2.15703 140.796 4.78917 141.055 7.62028L142.344 21.6884L157.684 23.0496C157.684 23.0496 166.987 10.4616 157.409 3.79991L157.41 3.80084ZM150.664 15.1504C148.552 15.1504 146.84 13.4378 146.84 11.3263C146.84 9.21481 148.553 7.5022 150.664 7.5022C152.776 7.5022 154.489 9.21481 154.489 11.3263C154.489 13.4378 152.776 15.1504 150.664 15.1504Z" fill="url(#paint3_linear_1500_5902)"/>
<path d="M143.877 15.7705C143.688 15.7705 143.526 15.6264 143.509 15.4339L143.303 13.1932C143.284 12.9896 143.434 12.8102 143.638 12.7906C143.845 12.7711 144.022 12.9217 144.04 13.1253L144.246 15.3661C144.265 15.5697 144.115 15.7491 143.911 15.7686C143.9 15.7696 143.888 15.7705 143.877 15.7705ZM143.474 11.3802C143.285 11.3802 143.124 11.2361 143.106 11.0436L142.95 9.3431C142.702 6.6468 144.399 4.13553 146.985 3.3722C148.816 2.83201 150.703 2.75484 152.591 3.14162C152.791 3.18253 152.92 3.37871 152.879 3.57861C152.839 3.7785 152.644 3.90681 152.442 3.86683C150.673 3.50423 148.907 3.57675 147.194 4.0816C144.946 4.74452 143.471 6.92852 143.686 9.27522L143.842 10.9757C143.861 11.1794 143.711 11.3588 143.508 11.3783C143.496 11.3793 143.484 11.3802 143.473 11.3802H143.474Z" fill="#91B3FA"/>
<path d="M121.408 30.7805V23.7069C121.408 21.2654 123.432 19.3101 125.872 19.3929L174.648 21.0636C176.813 21.138 178.566 22.846 178.695 25.0077L179.103 31.8042L121.407 30.7796L121.408 30.7805Z" fill="url(#paint4_linear_1500_5902)"/>
<path d="M139.595 22.0594H137.497C137.293 22.0594 137.127 21.8939 137.127 21.6894C137.127 21.4848 137.293 21.3193 137.497 21.3193H139.595C139.8 21.3193 139.965 21.4848 139.965 21.6894C139.965 21.8939 139.8 22.0594 139.595 22.0594Z" fill="#91B3FA"/>
<path d="M124.048 28.5593C123.843 28.5593 123.678 28.3938 123.678 28.1893V25.3275C123.678 23.1165 125.477 21.3184 127.688 21.3184H135.4C135.604 21.3184 135.77 21.4839 135.77 21.6884C135.77 21.8929 135.604 22.0584 135.4 22.0584H127.688C125.884 22.0584 124.418 23.5247 124.418 25.3275V28.1893C124.418 28.3938 124.252 28.5593 124.048 28.5593Z" fill="#91B3FA"/>
<path d="M101.534 32.5666C101.652 30.1176 103.672 28.1921 106.125 28.1921L191.419 28.1893C194.486 28.1893 197.108 30.3956 197.631 33.4173L197.704 33.8338C198.276 37.1428 195.728 40.1701 192.369 40.1701H104.862C102.851 40.1701 101.249 38.4891 101.345 36.4817L101.533 32.5656L101.534 32.5666Z" fill="#7D97F4"/>
<path d="M137.22 89.7284C145.861 81.0874 145.861 67.0776 137.22 58.4367C128.579 49.7957 114.569 49.7957 105.928 58.4367C97.2871 67.0776 97.2871 81.0874 105.928 89.7284C114.569 98.3694 128.579 98.3694 137.22 89.7284Z" fill="#91B3FA"/>
<path d="M134.246 67.9689H126.893V61.6363C126.893 60.1496 125.687 58.9446 124.201 58.9446H118.812C117.325 58.9446 116.119 60.1496 116.119 61.6363V67.9689H108.766C107.279 67.9689 106.074 69.1738 106.074 70.6605V76.9215C106.074 78.4082 107.279 79.6131 108.766 79.6131H116.119V85.9457C116.119 87.4324 117.325 88.6373 118.812 88.6373H124.201C125.687 88.6373 126.893 87.4324 126.893 85.9457V79.6131H134.246C135.733 79.6131 136.938 78.4082 136.938 76.9215V70.6605C136.938 69.1738 135.733 67.9689 134.246 67.9689Z" fill="white"/>
<path d="M46.3063 98.8944C46.3063 98.8944 42.793 100.603 42.1467 102.566C41.6287 104.141 37.7434 104.344 37.3594 107.442C37.1613 109.041 35.9775 110.322 34.3845 110.566C30.4165 111.174 24.3012 113.234 23.3229 120.122C22.5762 125.379 25.2572 127.373 28.0703 128.063C30.1366 128.569 31.5101 130.579 31.0916 132.665C30.6908 134.666 31.2888 136.978 34.7556 138.807C42.5242 142.905 50.2818 129.098 50.2818 129.098L51.8719 104.989L46.3072 98.8926L46.3063 98.8944Z" fill="url(#paint5_linear_1500_5902)"/>
<path d="M88.5754 93.1793C88.5754 93.1793 73.065 117.708 54.6216 122.445C54.6216 122.445 58.2158 132.679 60.9889 133.851C60.9889 133.851 83.6802 114.921 89.5109 96.6649L88.5754 93.1793Z" fill="url(#paint6_linear_1500_5902)"/>
<path d="M14.375 250.063L13.8719 254.194C13.7762 254.978 13.1596 255.598 12.3747 255.688C11.0496 255.839 8.92375 255.994 6.84441 255.774C5.93121 255.677 5.33885 254.753 5.6169 253.878C6.12371 252.283 7.05179 249.889 8.38903 248.48H12.9736C13.8208 248.48 14.4783 249.221 14.375 250.063Z" fill="url(#paint7_linear_1500_5902)"/>
<path d="M50.2807 201.662L51.0544 206.213C51.0544 206.213 48.4636 232.454 48.0024 242.95C47.9298 244.596 48.3557 246.222 49.2196 247.625L53.7252 254.94L42.274 248.185L42.0461 246.787L43.9209 244.211L41.4658 214.815C41.3217 213.088 41.6779 211.356 42.4925 209.827L44.861 205.378L50.2807 201.663V201.662Z" fill="url(#paint8_linear_1500_5902)"/>
<path d="M54.4796 256H50.825C50.1406 256 49.4961 255.686 49.0786 255.144C47.9394 253.664 45.5793 250.777 44.4503 250.701C42.9308 250.6 43.1252 256 43.1252 256H42.2733L41.1946 249.29C40.9231 247.602 41.7628 245.929 43.2795 245.138C43.2795 245.138 43.6264 247.706 45.5095 248.841C47.3926 249.977 53.1722 254.045 53.1722 254.045C53.1722 254.045 53.8798 253.943 54.6573 254.084C55.8104 254.292 55.6495 255.999 54.4778 255.999L54.4796 256Z" fill="url(#paint9_linear_1500_5902)"/>
<path d="M34.5975 203.823C34.5975 203.823 19.4181 232.612 17.0049 239.185C14.5917 245.758 13.7464 251.241 13.7139 251.76C13.6637 252.572 12.6538 253.35 9.87139 253.35C8.43557 253.35 7.73254 252.775 7.38846 252.218C7.0946 251.743 7.07972 251.148 7.32709 250.647C8.20495 248.871 10.992 243.193 12.0242 240.617C13.2564 237.543 15.9067 223.608 17.3602 218.764C18.8137 213.919 20.4569 208.664 26.7869 203.824C26.7869 203.824 31.1325 199.569 34.5975 203.824V203.823Z" fill="url(#paint10_linear_1500_5902)"/>
<path d="M44.1858 156.651C48.1017 140.062 38.1821 130.679 38.1821 130.679C44.4415 124.672 55.8453 121.938 55.8453 121.938C55.8453 121.938 66.7274 129.893 65.4366 136.118C64.6797 139.767 57.7879 157.975 57.7879 157.975C57.7879 157.975 51.4151 160.99 44.1867 156.65L44.1858 156.651Z" fill="url(#paint11_linear_1500_5902)"/>
<path d="M35.505 164.864C37.0989 160.065 44.1869 156.652 44.1869 156.652C51.4144 160.992 57.7882 157.977 57.7882 157.977C57.7882 157.977 59.2175 163.439 58.2308 168.515C57.2441 173.591 51.0554 206.213 51.0554 206.213C41.3032 208.189 26.3052 204.226 26.3052 204.226C32.5171 193.2 33.9121 169.665 35.506 164.864H35.505Z" fill="url(#paint12_linear_1500_5902)"/>
<path d="M48.7314 110.977L45.5482 125.274C45.2432 126.532 46.3916 126.327 47.6647 126.087C49.7506 125.694 52.4381 124.884 53.3364 123.262C53.4275 123.096 53.4731 122.91 53.4991 122.723L54.8671 112.809C54.9759 112.023 54.55 111.259 53.8246 110.938L51.1855 109.768C50.169 109.317 48.9927 109.897 48.7314 110.978V110.977Z" fill="url(#paint13_linear_1500_5902)"/>
<path d="M38.1823 130.68C38.1823 130.68 15.9625 146.574 35.3404 163.275C35.3404 163.275 36.0797 164.111 37.5332 164.546C38.2669 164.765 40.4374 166.407 41.5384 167.263C41.8918 167.538 42.4033 167.444 42.6413 167.065C42.8273 166.768 42.8497 166.396 42.6999 166.078L39.9492 160.262C39.1857 159.549 38.0159 159.499 37.1938 160.143C36.6693 160.554 35.9003 160.382 35.6064 159.783C34.1083 156.733 31.2803 147.762 42.8571 137.624C43.2923 137.243 43.402 136.613 43.1351 136.1C42.3214 134.538 40.4616 131.435 38.1832 130.68H38.1823Z" fill="url(#paint14_linear_1500_5902)"/>
<path d="M54.8293 97.9433C54.8293 97.9433 58.2189 100.237 59.6752 106.079C61.1315 111.92 58.7648 114.015 56.3386 113.887C53.9124 113.758 50.3954 113.008 47.3471 108.818C44.2997 104.627 50.388 95.1401 54.8293 97.9433Z" fill="url(#paint15_linear_1500_5902)"/>
<path d="M50.4204 106.462C50.4204 106.462 49.179 98.0911 56.1293 99.3714L57.5344 100.834C57.5344 100.834 60.9371 97.0033 57.1718 94.1071C53.4064 91.2119 48.1821 91.9529 45.2918 97.2246C42.4016 102.496 41.3526 106.2 43.7751 109.476C46.1976 112.752 48.0203 109.943 48.0203 109.943C48.0203 109.943 46.909 107.108 47.8315 105.891C48.753 104.675 49.9434 106.598 49.9434 106.598L50.4214 106.461L50.4204 106.462Z" fill="url(#paint16_linear_1500_5902)"/>
<path d="M49.4703 107.179C49.4703 107.179 48.8576 102.872 46.6578 104.103C44.458 105.334 47.4509 108.126 48.6503 109.075L49.4703 107.178V107.179Z" fill="url(#paint17_linear_1500_5902)"/>
<path d="M88.4693 98.2287C88.5167 98.7345 86.6345 99.0841 86.0356 96.9271C86.2002 95.9908 86.4922 91.8896 87.2111 91.2528C91.0359 87.8591 97.857 84.0425 97.857 84.0425C98.6196 85.2065 97.619 85.9736 97.619 85.9736L94.2145 88.271C94.5697 89.4472 95.0877 90.4866 95.1463 91.8301C95.1909 92.8473 94.8152 93.8421 94.1401 94.6138C93.4621 95.3883 92.5499 96.3878 91.7278 97.1465C90.1711 98.583 88.4693 98.2297 88.4693 98.2297V98.2287Z" fill="url(#paint18_linear_1500_5902)"/>
<path d="M90.2015 96.5078L89.916 96.3907C89.9848 96.2224 91.6101 92.2746 92.3836 91.4667C92.709 91.1264 92.8661 90.8261 92.8503 90.5732C92.8392 90.4012 92.7481 90.2375 92.5714 90.0739L89.7041 91.6071L88.4703 93.541L88.21 93.3745L89.4884 91.3737L89.5237 91.3542L92.6105 89.7039L92.6904 89.7689C92.9879 90.0116 93.1413 90.2692 93.159 90.5546C93.1804 90.9023 93 91.2705 92.6067 91.6815C91.8732 92.4476 90.2182 96.4688 90.2024 96.5087L90.2015 96.5078Z" fill="url(#paint19_linear_1500_5902)"/>
<path d="M191.9 154.425H238.292V142.214H191.9V154.425Z" fill="#91B3FA"/>
<path d="M177.555 252.004H252.637C254.495 252.004 256 250.499 256 248.642V152.446C256 150.589 254.495 149.084 252.637 149.084H177.555C175.698 149.084 174.193 150.589 174.193 152.446V248.642C174.193 250.499 175.698 252.004 177.555 252.004Z" fill="#91B3FA"/>
<path opacity="0.28" d="M185.663 235.939H244.53C245.146 235.939 245.646 235.439 245.646 234.823V171.601C245.646 170.985 245.146 170.486 244.53 170.486H185.663C185.046 170.486 184.547 170.985 184.547 171.601V234.823C184.547 235.439 185.046 235.939 185.663 235.939Z" fill="white"/>
<path d="M245.38 146.138H184.812C184.486 146.138 184.222 145.874 184.222 145.549V128.062C184.222 127.447 184.721 126.948 185.336 126.948H244.856C245.47 126.948 245.97 127.447 245.97 128.062V145.549C245.97 145.874 245.706 146.138 245.38 146.138Z" fill="url(#paint20_linear_1500_5902)"/>
<path opacity="0.6" d="M239.074 143.619H241.291V129.688H239.074V143.619Z" fill="#91B3FA"/>
<path opacity="0.6" d="M234.513 143.619H236.729V129.688H234.513V143.619Z" fill="#91B3FA"/>
<path opacity="0.6" d="M229.952 143.619H232.169V129.688H229.952V143.619Z" fill="#91B3FA"/>
<path opacity="0.6" d="M225.39 143.619H227.607V129.688H225.39V143.619Z" fill="#91B3FA"/>
<path opacity="0.6" d="M220.83 143.619H223.046V129.688H220.83V143.619Z" fill="#91B3FA"/>
<path opacity="0.6" d="M216.269 143.619H218.486V129.688H216.269V143.619Z" fill="#91B3FA"/>
<path opacity="0.6" d="M211.707 143.619H213.924V129.688H211.707V143.619Z" fill="#91B3FA"/>
<path opacity="0.6" d="M207.147 143.619H209.363V129.688H207.147V143.619Z" fill="#91B3FA"/>
<path opacity="0.6" d="M202.585 143.619H204.802V129.688H202.585V143.619Z" fill="#91B3FA"/>
<path opacity="0.6" d="M198.025 143.619H200.242V129.688H198.025V143.619Z" fill="#91B3FA"/>
<path opacity="0.6" d="M193.464 143.619H195.68V129.688H193.464V143.619Z" fill="#91B3FA"/>
<path opacity="0.6" d="M188.902 143.619H191.119V129.688H188.902V143.619Z" fill="#91B3FA"/>
<path d="M157.265 254.325C166.268 256.33 182.81 256.148 192.308 253.874C195.426 253.127 197.62 250.334 197.62 247.128V150.507H151.607V247.246C151.607 250.638 153.955 253.586 157.265 254.325Z" fill="url(#paint21_linear_1500_5902)"/>
<path d="M198.709 160.625H150.499C150.173 160.625 149.909 160.361 149.909 160.035V145.546C149.909 144.931 150.408 144.432 151.023 144.432H198.185C198.799 144.432 199.299 144.931 199.299 145.546V160.035C199.299 160.361 199.035 160.625 198.709 160.625Z" fill="url(#paint22_linear_1500_5902)"/>
<path opacity="0.6" d="M193.784 158.498H195.557V146.744H193.784V158.498Z" fill="white"/>
<path opacity="0.6" d="M190.136 158.498H191.909V146.744H190.136V158.498Z" fill="white"/>
<path opacity="0.6" d="M186.488 158.498H188.261V146.744H186.488V158.498Z" fill="white"/>
<path opacity="0.6" d="M182.839 158.498H184.612V146.744H182.839V158.498Z" fill="white"/>
<path opacity="0.6" d="M179.19 158.498H180.963V146.744H179.19V158.498Z" fill="white"/>
<path opacity="0.6" d="M175.542 158.498H177.315V146.744H175.542V158.498Z" fill="white"/>
<path opacity="0.6" d="M171.894 158.498H173.667V146.744H171.894V158.498Z" fill="white"/>
<path opacity="0.6" d="M168.246 158.498H170.019V146.744H168.246V158.498Z" fill="white"/>
<path opacity="0.6" d="M164.598 158.498H166.371V146.744H164.598V158.498Z" fill="white"/>
<path opacity="0.6" d="M160.949 158.498H162.723V146.744H160.949V158.498Z" fill="white"/>
<path opacity="0.6" d="M157.302 158.498H159.075V146.744H157.302V158.498Z" fill="white"/>
<path opacity="0.6" d="M153.653 158.498H155.426V146.744H153.653V158.498Z" fill="white"/>
<path opacity="0.39" d="M161.946 231.956H188.15C189.736 231.956 191.021 230.671 191.021 229.085V178.879C191.021 177.293 189.736 176.007 188.15 176.007H161.946C160.36 176.007 159.074 177.293 159.074 178.879V229.085C159.074 230.671 160.36 231.956 161.946 231.956Z" fill="white"/>
<path d="M118.619 216.356L145.176 219.431C139.666 229.7 137.287 241.089 137.487 252.696L114.715 250.059C105.445 248.986 98.7389 240.524 99.812 231.255C100.885 221.987 109.349 215.282 118.619 216.355V216.356Z" fill="white"/>
<path d="M145.177 219.431L167.346 221.998C176.616 223.071 183.322 231.533 182.249 240.801C181.176 250.07 172.712 256.775 163.442 255.702L137.487 252.697C137.286 241.09 139.667 229.701 145.177 219.432V219.431Z" fill="url(#paint23_linear_1500_5902)"/>
</g>
<defs>
<linearGradient id="paint0_linear_1500_5902" x1="285.547" y1="328.842" x2="59.7008" y2="48.3011" gradientUnits="userSpaceOnUse">
<stop stop-color="#DAE3FE"/>
<stop offset="1" stop-color="#E9EFFD"/>
</linearGradient>
<linearGradient id="paint1_linear_1500_5902" x1="86.8822" y1="256.617" x2="211.517" y2="41.859" gradientUnits="userSpaceOnUse">
<stop stop-color="#09005D"/>
<stop offset="1" stop-color="#1A0F91"/>
</linearGradient>
<linearGradient id="paint2_linear_1500_5902" x1="76.6007" y1="137.102" x2="231.356" y2="137.102" gradientUnits="userSpaceOnUse">
<stop stop-color="#4F52FF"/>
<stop offset="1" stop-color="#4042E2"/>
</linearGradient>
<linearGradient id="paint3_linear_1500_5902" x1="172.494" y1="-16.3767" x2="110.321" y2="65.4258" gradientUnits="userSpaceOnUse">
<stop stop-color="#09005D"/>
<stop offset="1" stop-color="#1A0F91"/>
</linearGradient>
<linearGradient id="paint4_linear_1500_5902" x1="254.841" y1="-159.067" x2="195.604" y2="-53.5293" gradientUnits="userSpaceOnUse">
<stop stop-color="#09005D"/>
<stop offset="1" stop-color="#1A0F91"/>
</linearGradient>
<linearGradient id="paint5_linear_1500_5902" x1="52.4866" y1="84.8328" x2="42.0674" y2="110.974" gradientUnits="userSpaceOnUse">
<stop stop-color="#09005D"/>
<stop offset="1" stop-color="#1A0F91"/>
</linearGradient>
<linearGradient id="paint6_linear_1500_5902" x1="76.9693" y1="104.784" x2="48.9262" y2="143.551" gradientUnits="userSpaceOnUse">
<stop stop-color="#FEBBBA"/>
<stop offset="1" stop-color="#FF928E"/>
</linearGradient>
<linearGradient id="paint7_linear_1500_5902" x1="14.3862" y1="252.181" x2="5.54808" y2="252.181" gradientUnits="userSpaceOnUse">
<stop stop-color="#09005D"/>
<stop offset="1" stop-color="#1A0F91"/>
</linearGradient>
<linearGradient id="paint8_linear_1500_5902" x1="51.7305" y1="287.027" x2="39.0175" y2="138.41" gradientUnits="userSpaceOnUse">
<stop stop-color="#FEBBBA"/>
<stop offset="1" stop-color="#FF928E"/>
</linearGradient>
<linearGradient id="paint9_linear_1500_5902" x1="55.4468" y1="250.568" x2="41.1463" y2="250.568" gradientUnits="userSpaceOnUse">
<stop stop-color="#09005D"/>
<stop offset="1" stop-color="#1A0F91"/>
</linearGradient>
<linearGradient id="paint10_linear_1500_5902" x1="26.1471" y1="289.239" x2="13.4305" y2="140.582" gradientUnits="userSpaceOnUse">
<stop stop-color="#FEBBBA"/>
<stop offset="1" stop-color="#FF928E"/>
</linearGradient>
<linearGradient id="paint11_linear_1500_5902" x1="156.214" y1="9.72816" x2="80.3184" y2="104.153" gradientUnits="userSpaceOnUse">
<stop stop-color="#FF928E"/>
<stop offset="1" stop-color="#FE7062"/>
</linearGradient>
<linearGradient id="paint12_linear_1500_5902" x1="-2.84739" y1="147.437" x2="165.542" y2="273.753" gradientUnits="userSpaceOnUse">
<stop stop-color="#09005D"/>
<stop offset="1" stop-color="#1A0F91"/>
</linearGradient>
<linearGradient id="paint13_linear_1500_5902" x1="53.1253" y1="140.535" x2="50.7372" y2="123.06" gradientUnits="userSpaceOnUse">
<stop stop-color="#FEBBBA"/>
<stop offset="1" stop-color="#FF928E"/>
</linearGradient>
<linearGradient id="paint14_linear_1500_5902" x1="43.2793" y1="149.05" x2="27.4081" y2="149.05" gradientUnits="userSpaceOnUse">
<stop stop-color="#FEBBBA"/>
<stop offset="1" stop-color="#FF928E"/>
</linearGradient>
<linearGradient id="paint15_linear_1500_5902" x1="57.4161" y1="119.449" x2="44.1781" y2="79.0139" gradientUnits="userSpaceOnUse">
<stop stop-color="#FEBBBA"/>
<stop offset="1" stop-color="#FF928E"/>
</linearGradient>
<linearGradient id="paint16_linear_1500_5902" x1="59.2933" y1="86.8927" x2="43.995" y2="110.514" gradientUnits="userSpaceOnUse">
<stop stop-color="#09005D"/>
<stop offset="1" stop-color="#1A0F91"/>
</linearGradient>
<linearGradient id="paint17_linear_1500_5902" x1="52.5783" y1="121.033" x2="39.337" y2="80.5997" gradientUnits="userSpaceOnUse">
<stop stop-color="#FEBBBA"/>
<stop offset="1" stop-color="#FF928E"/>
</linearGradient>
<linearGradient id="paint18_linear_1500_5902" x1="80.3369" y1="107.219" x2="52.2935" y2="145.987" gradientUnits="userSpaceOnUse">
<stop stop-color="#FEBBBA"/>
<stop offset="1" stop-color="#FF928E"/>
</linearGradient>
<linearGradient id="paint19_linear_1500_5902" x1="88.209" y1="93.1058" x2="93.159" y2="93.1058" gradientUnits="userSpaceOnUse">
<stop stop-color="#F9B776"/>
<stop offset="1" stop-color="#F47960"/>
</linearGradient>
<linearGradient id="paint20_linear_1500_5902" x1="198.942" y1="94.0469" x2="244.207" y2="213.772" gradientUnits="userSpaceOnUse">
<stop stop-color="#4F52FF"/>
<stop offset="1" stop-color="#4042E2"/>
</linearGradient>
<linearGradient id="paint21_linear_1500_5902" x1="195.752" y1="147.296" x2="118.931" y2="337.072" gradientUnits="userSpaceOnUse">
<stop stop-color="#FF928E"/>
<stop offset="1" stop-color="#FE7062"/>
</linearGradient>
<linearGradient id="paint22_linear_1500_5902" x1="171.84" y1="71.6004" x2="177.079" y2="225.507" gradientUnits="userSpaceOnUse">
<stop stop-color="#E1473D"/>
<stop offset="1" stop-color="#E9605A"/>
</linearGradient>
<linearGradient id="paint23_linear_1500_5902" x1="190.405" y1="212.791" x2="110.323" y2="274.427" gradientUnits="userSpaceOnUse">
<stop stop-color="#4F52FF"/>
<stop offset="1" stop-color="#4042E2"/>
</linearGradient>
<clipPath id="clip0_1500_5902">
<rect width="256" height="256" fill="white"/>
</clipPath>
</defs>
</svg>
