<svg width="256" height="256" viewBox="0 0 256 256" fill="none" xmlns="http://www.w3.org/2000/svg">
<g clip-path="url(#clip0_1503_3411)">
<path d="M242.23 175.121C218.465 231.541 155.158 263.148 100.258 254.622C91.3253 253.235 66.8346 249.103 45.1511 229.606C3.40897 192.075 -5.51764 117.757 28.1536 65.3833C52.6608 27.2649 96.5927 5.65667 138.336 6.73736C147.328 6.9705 181.786 8.40501 212.071 33.5817C216.519 37.28 226.329 46.0672 235.171 60.0082C255.934 92.7442 257.718 138.352 242.229 175.121H242.23Z" fill="url(#paint0_linear_1503_3411)"/>
<path d="M1.41047 164.594C5.46802 147.384 18.7374 133.874 35.6291 129.743C47.2423 126.902 58.3845 128.426 67.8024 133.03C70.9261 134.556 74.6377 132.828 75.5035 129.41C83.8283 96.5322 113.128 72.2433 147.997 72.2433C189.345 72.2433 222.862 106.394 222.862 148.521C222.862 149.639 222.84 151.167 222.821 152.633C222.967 155.783 224.317 157.121 226.333 157.457C242.533 159.174 255.264 172.781 255.97 189.564C256.782 208.834 241.388 224.799 222.457 224.799H47.3518C17.3766 224.799 -6.09368 196.421 1.41047 164.594Z" fill="url(#paint1_linear_1503_3411)"/>
<path opacity="0.21" d="M14.9721 171.044C18.5954 155.677 30.4423 143.614 45.5252 139.926C55.8945 137.39 65.8424 138.751 74.251 142.861C77.0397 144.224 80.3538 142.681 81.1267 139.629C88.56 110.273 114.721 88.5861 145.854 88.5861C182.771 88.5861 212.699 119.078 212.699 156.692C212.699 157.691 212.679 159.055 212.662 160.363C212.793 163.175 213.998 164.37 215.798 164.67C230.261 166.204 241.629 178.353 242.26 193.338C242.984 210.544 229.24 224.798 212.337 224.798H55.9911C29.2269 224.798 8.2712 199.461 14.9712 171.044H14.9721Z" fill="#AFEBF3"/>
<path d="M35.3034 245.414C35.3034 246.824 36.4654 247.978 37.886 247.978H177.553C178.974 247.978 180.136 246.824 180.136 245.414L181.298 165.657C181.298 164.247 179.626 161.493 176.561 161.701L40.0629 158.191C38.2807 158.145 36.5574 158.826 35.2951 160.077C34.0327 161.327 33.3427 163.036 33.3841 164.805L35.3024 245.414H35.3034Z" fill="url(#paint2_linear_1503_3411)"/>
<path d="M37.8532 242.954C37.8532 244.29 38.9527 245.382 40.2969 245.382H174.185C175.529 245.382 176.629 244.29 176.629 242.954L177.725 170.55C177.597 166.192 173.752 164.627 171.422 164.719L40.6015 161.231C39.3492 161.198 38.1384 161.678 37.2515 162.556C36.3645 163.435 35.8769 164.638 35.9082 165.882L37.8541 242.954H37.8532Z" fill="#7D97F4"/>
<path d="M175.181 208.557H175.178C174.978 208.554 174.82 208.392 174.823 208.196L174.91 202.324C174.913 202.129 175.073 201.974 175.268 201.974H175.271C175.471 201.977 175.629 202.139 175.626 202.335L175.539 208.207C175.536 208.401 175.376 208.557 175.181 208.557Z" fill="white"/>
<path d="M175.394 194.168H175.388C175.19 194.165 175.032 194.003 175.036 193.807L175.368 171.317C175.362 169.981 174.954 168.914 174.155 168.155C172.665 166.736 170.297 166.808 170.198 166.812L128.385 165.698C128.187 165.693 128.032 165.529 128.036 165.333C128.042 165.137 128.194 164.969 128.404 164.988L170.193 166.102C170.453 166.087 172.973 166.044 174.651 167.642C175.595 168.54 176.077 169.779 176.085 171.322L175.753 193.819C175.75 194.013 175.59 194.169 175.395 194.169L175.394 194.168Z" fill="white"/>
<path d="M24.4927 254.599L188.115 254.599C188.402 254.599 188.635 254.368 188.635 254.083V248.108C188.635 247.823 188.402 247.591 188.115 247.591L24.4927 247.591C24.2056 247.591 23.9729 247.823 23.9729 248.108V254.083C23.9729 254.368 24.2056 254.599 24.4927 254.599Z" fill="url(#paint3_linear_1503_3411)"/>
<path d="M95.9395 241.851H44.3893C42.4885 241.851 40.9482 240.319 40.9482 238.431V171.566C40.9482 169.626 42.5703 168.074 44.5218 168.148L96.072 170.108C97.9205 170.179 99.3815 171.688 99.3815 173.526V238.431C99.3815 240.32 97.8404 241.851 95.9404 241.851H95.9395Z" fill="#91B3FA"/>
<path opacity="0.51" d="M85.687 194.378H51.5402C51.2694 194.378 51.0498 194.596 51.0498 194.865V198.4C51.0498 198.669 51.2694 198.887 51.5402 198.887H85.687C85.9579 198.887 86.1774 198.669 86.1774 198.4V194.865C86.1774 194.596 85.9579 194.378 85.687 194.378Z" fill="white"/>
<path opacity="0.51" d="M85.7559 201.579H51.6091C51.3382 201.579 51.1187 201.797 51.1187 202.066V205.601C51.1187 205.87 51.3382 206.088 51.6091 206.088H85.7559C86.0268 206.088 86.2463 205.87 86.2463 205.601V202.066C86.2463 201.797 86.0268 201.579 85.7559 201.579Z" fill="white"/>
<path opacity="0.51" d="M85.9615 208.932H51.8146C51.5438 208.932 51.3242 209.15 51.3242 209.419V212.954C51.3242 213.223 51.5438 213.441 51.8146 213.441H85.9615C86.2324 213.441 86.4519 213.223 86.4519 212.954V209.419C86.4519 209.15 86.2324 208.932 85.9615 208.932Z" fill="white"/>
<path opacity="0.51" d="M86.0313 216.133H51.8844C51.6136 216.133 51.394 216.351 51.394 216.62V220.155C51.394 220.424 51.6136 220.642 51.8844 220.642H86.0313C86.3021 220.642 86.5217 220.424 86.5217 220.155V216.62C86.5217 216.351 86.3021 216.133 86.0313 216.133Z" fill="white"/>
<path opacity="0.51" d="M160.572 194.373H111.05C110.779 194.373 110.56 194.591 110.56 194.86V198.395C110.56 198.664 110.779 198.882 111.05 198.882H160.572C160.843 198.882 161.063 198.664 161.063 198.395V194.86C161.063 194.591 160.843 194.373 160.572 194.373Z" fill="white"/>
<path opacity="0.51" d="M160.729 201.579H111.206C110.935 201.579 110.716 201.797 110.716 202.066V205.601C110.716 205.87 110.935 206.088 111.206 206.088H160.729C160.999 206.088 161.219 205.87 161.219 205.601V202.066C161.219 201.797 160.999 201.579 160.729 201.579Z" fill="white"/>
<path opacity="0.51" d="M140.151 208.932H111.206C110.935 208.932 110.716 209.15 110.716 209.419V212.954C110.716 213.223 110.935 213.441 111.206 213.441H140.151C140.422 213.441 140.641 213.223 140.641 212.954V209.419C140.641 209.15 140.422 208.932 140.151 208.932Z" fill="white"/>
<g opacity="0.51">
<path opacity="0.51" d="M137.37 177.566H136.601C136.219 177.566 135.909 177.258 135.909 176.879V174.266C135.909 173.33 135.146 172.573 134.205 172.573H129.438C128.497 172.573 127.734 173.33 127.734 174.266V176.879C127.734 177.258 127.424 177.566 127.042 177.566H126.273C125.891 177.566 125.581 177.258 125.581 176.879V174.266C125.581 172.149 127.308 170.433 129.438 170.433H134.205C136.335 170.433 138.062 172.149 138.062 174.266V176.879C138.062 177.258 137.752 177.566 137.37 177.566Z" fill="white"/>
<path opacity="0.51" d="M138.323 178.182H125.319C124.522 178.182 123.876 178.824 123.876 179.616V189.533C123.876 190.325 124.522 190.967 125.319 190.967H138.323C139.12 190.967 139.766 190.325 139.766 189.533V179.616C139.766 178.824 139.12 178.182 138.323 178.182ZM133.681 187.768C133.762 188.102 133.507 188.423 133.161 188.423H130.48C130.134 188.423 129.88 188.102 129.961 187.768L130.586 185.18C129.847 184.741 129.364 183.921 129.414 182.993C129.477 181.79 130.458 180.806 131.667 180.732C133.069 180.645 134.232 181.748 134.232 183.122C134.232 183.996 133.76 184.762 133.056 185.18L133.681 187.768Z" fill="white"/>
</g>
<path d="M175.223 61.7883C175.172 61.7883 175.12 61.7765 175.073 61.7499C174.923 61.6677 174.869 61.4802 174.952 61.3312C175.152 60.9746 175.345 60.6162 175.533 60.2542C175.611 60.1033 175.798 60.0448 175.95 60.1216C176.102 60.1993 176.162 60.3849 176.084 60.5367C175.893 60.9033 175.697 61.2681 175.495 61.6293C175.439 61.7307 175.333 61.7874 175.223 61.7874L175.223 61.7883Z" fill="#91B3FA"/>
<path d="M138.988 82.9815C138.805 82.9815 138.623 82.9805 138.44 82.9778C138.269 82.9751 138.133 82.8361 138.134 82.666C138.137 82.4978 138.275 82.3625 138.444 82.3625H138.449C139.25 82.3735 140.059 82.3597 140.86 82.3241C141.019 82.3131 141.175 82.4475 141.183 82.6176C141.191 82.7876 141.058 82.9312 140.887 82.9385C140.258 82.9668 139.619 82.9815 138.989 82.9815H138.988ZM134.506 82.741C134.495 82.741 134.483 82.741 134.472 82.7392C133.664 82.6523 132.848 82.5408 132.049 82.4073C131.881 82.3789 131.766 82.2199 131.795 82.0525C131.824 81.8852 131.984 81.7709 132.152 81.8002C132.94 81.9319 133.743 82.0416 134.541 82.1275C134.711 82.1458 134.834 82.2976 134.816 82.4667C134.798 82.6249 134.664 82.741 134.508 82.741H134.506ZM144.801 82.5764C144.649 82.5764 144.517 82.4649 144.495 82.3113C144.471 82.1431 144.589 81.9876 144.758 81.9639C145.551 81.8532 146.351 81.717 147.135 81.5597C147.301 81.5268 147.466 81.6347 147.5 81.8011C147.533 81.9675 147.424 82.1303 147.257 82.1641C146.461 82.3232 145.65 82.4612 144.844 82.5737C144.83 82.5755 144.815 82.5764 144.801 82.5764ZM128.244 81.5817C128.217 81.5817 128.19 81.578 128.163 81.5707C127.379 81.3623 126.59 81.1282 125.819 80.8749C125.656 80.8219 125.569 80.6473 125.622 80.4864C125.676 80.3255 125.85 80.2377 126.013 80.2907C126.772 80.5403 127.549 80.7707 128.323 80.9764C128.488 81.0203 128.586 81.1885 128.542 81.3531C128.505 81.4912 128.38 81.5817 128.243 81.5817H128.244ZM151.023 81.2132C150.889 81.2132 150.767 81.1273 150.727 80.9947C150.677 80.832 150.77 80.6601 150.934 80.6107C151.701 80.3794 152.47 80.1234 153.22 79.8491C153.38 79.7906 153.559 79.872 153.617 80.032C153.676 80.192 153.594 80.3684 153.433 80.4269C152.673 80.7058 151.892 80.9655 151.113 81.2004C151.083 81.2096 151.053 81.2132 151.023 81.2132ZM122.234 79.4825C122.192 79.4825 122.15 79.4743 122.109 79.456C121.365 79.1296 120.622 78.7776 119.901 78.41C119.749 78.3323 119.69 78.1467 119.767 77.9959C119.845 77.845 120.031 77.7856 120.184 77.8624C120.894 78.2244 121.625 78.5709 122.359 78.8928C122.515 78.9613 122.586 79.1433 122.517 79.2987C122.465 79.4139 122.352 79.4825 122.234 79.4825ZM156.959 78.9147C156.844 78.9147 156.733 78.8507 156.679 78.7401C156.605 78.5874 156.67 78.4027 156.824 78.3296C157.544 77.9849 158.265 77.6137 158.965 77.226C159.115 77.1437 159.303 77.1968 159.386 77.3458C159.469 77.4939 159.416 77.6823 159.266 77.7645C158.556 78.1577 157.824 78.5344 157.093 78.8845C157.049 78.9056 157.003 78.9147 156.958 78.9147H156.959ZM116.623 76.4891C116.566 76.4891 116.508 76.4736 116.456 76.4407C115.773 76.0045 115.093 75.5428 114.437 75.0683C114.299 74.9687 114.268 74.7757 114.369 74.6386C114.47 74.5015 114.663 74.4713 114.801 74.5709C115.447 75.0381 116.116 75.4925 116.79 75.9223C116.934 76.0137 116.976 76.2048 116.884 76.3474C116.825 76.4388 116.725 76.4891 116.623 76.4891ZM162.468 75.7321C162.369 75.7321 162.273 75.6855 162.213 75.5995C162.115 75.4596 162.151 75.2676 162.292 75.1716C162.951 74.72 163.606 74.2427 164.237 73.7536C164.372 73.6493 164.566 73.6731 164.672 73.8075C164.777 73.9419 164.753 74.1348 164.618 74.24C163.977 74.7364 163.313 75.2201 162.644 75.6791C162.59 75.7156 162.529 75.7339 162.469 75.7339L162.468 75.7321ZM111.545 72.672C111.471 72.672 111.399 72.6464 111.34 72.5952C110.733 72.0622 110.134 71.5026 109.556 70.9312C109.434 70.8114 109.434 70.6167 109.555 70.496C109.675 70.3753 109.871 70.3753 109.993 70.4951C110.561 71.0574 111.153 71.6087 111.751 72.1344C111.879 72.2468 111.891 72.4416 111.778 72.5687C111.716 72.6372 111.631 72.672 111.546 72.672H111.545ZM167.423 71.7476C167.341 71.7476 167.259 71.7147 167.198 71.6507C167.08 71.5273 167.086 71.3326 167.211 71.2155C167.794 70.6688 168.367 70.0992 168.916 69.5223C169.033 69.3988 169.229 69.3934 169.354 69.5095C169.478 69.6265 169.483 69.8212 169.366 69.9447C168.81 70.5307 168.227 71.1086 167.636 71.6635C167.576 71.7193 167.5 71.7476 167.423 71.7476ZM107.109 68.1271C107.02 68.1271 106.933 68.0896 106.871 68.0164C106.352 67.3975 105.843 66.7538 105.36 66.1038C105.259 65.9666 105.288 65.7746 105.426 65.6731C105.564 65.5726 105.758 65.6018 105.859 65.738C106.335 66.379 106.836 67.0126 107.348 67.6233C107.457 67.754 107.44 67.9479 107.308 68.0567C107.25 68.1042 107.18 68.128 107.11 68.128L107.109 68.1271ZM171.711 67.0665C171.645 67.0665 171.577 67.0455 171.521 67.0016C171.386 66.8974 171.362 66.7035 171.467 66.57C171.96 65.9401 172.439 65.29 172.891 64.6372C172.989 64.4974 173.182 64.4617 173.322 64.5577C173.463 64.6546 173.499 64.8457 173.402 64.9856C172.943 65.6484 172.457 66.3086 171.956 66.9476C171.895 67.0254 171.803 67.0665 171.711 67.0665ZM103.419 62.9668C103.314 62.9668 103.211 62.9138 103.153 62.8178C102.733 62.123 102.33 61.4098 101.955 60.6967C101.876 60.5458 101.935 60.3602 102.087 60.2816C102.237 60.203 102.425 60.2615 102.504 60.4123C102.873 61.1145 103.27 61.8167 103.684 62.5015C103.772 62.6468 103.724 62.8361 103.578 62.9239C103.528 62.954 103.473 62.9678 103.419 62.9678V62.9668ZM100.571 57.3038C100.449 57.3038 100.333 57.2315 100.284 57.1118C99.9778 56.362 99.6907 55.595 99.4312 54.8324C99.377 54.6715 99.4634 54.4969 99.6254 54.4421C99.7864 54.3872 99.963 54.4741 100.018 54.635C100.274 55.3856 100.556 56.1408 100.859 56.8795C100.924 57.0368 100.847 57.2169 100.689 57.2809C100.651 57.2964 100.612 57.3038 100.572 57.3038H100.571Z" fill="#91B3FA"/>
<path d="M98.6316 51.2566C98.4908 51.2566 98.3638 51.1606 98.3307 51.0189C98.2359 50.6157 98.1467 50.2125 98.0639 49.8075C98.0298 49.6411 98.1384 49.4784 98.3058 49.4445C98.4733 49.4107 98.6371 49.5177 98.6711 49.685C98.753 50.0836 98.8404 50.4813 98.9343 50.8781C98.9729 51.0436 98.8699 51.2091 98.7033 51.2484C98.6794 51.2539 98.6555 51.2566 98.6325 51.2566H98.6316Z" fill="#91B3FA"/>
<path d="M103.883 19.8684C103.827 19.8684 103.77 19.8528 103.719 19.8208C103.574 19.7303 103.531 19.5401 103.622 19.3966C103.843 19.0482 104.07 18.7017 104.302 18.358C104.398 18.2172 104.59 18.1788 104.732 18.2739C104.874 18.3689 104.911 18.56 104.816 18.7008C104.587 19.04 104.364 19.381 104.145 19.7248C104.087 19.8181 103.986 19.8684 103.883 19.8684Z" fill="#91B3FA"/>
<path d="M178.747 30.1797C178.613 30.1797 178.49 30.0928 178.45 29.9584C178.214 29.1566 177.949 28.3511 177.663 27.5648C177.605 27.4048 177.687 27.2284 177.848 27.1708C178.009 27.1122 178.187 27.1954 178.245 27.3554C178.536 28.1536 178.804 28.971 179.045 29.7856C179.093 29.9493 178.999 30.1203 178.836 30.1678C178.806 30.176 178.778 30.1797 178.748 30.1797H178.747ZM176.347 23.9671C176.231 23.9671 176.121 23.9031 176.067 23.7925C175.702 23.0373 175.309 22.2857 174.899 21.557C174.815 21.4089 174.868 21.2215 175.018 21.1383C175.167 21.056 175.357 21.1081 175.44 21.2572C175.856 21.9959 176.255 22.7593 176.626 23.5264C176.7 23.68 176.635 23.8638 176.481 23.9369C176.438 23.958 176.392 23.9671 176.347 23.9671ZM172.964 18.2226C172.866 18.2226 172.77 18.1769 172.71 18.091C172.228 17.4071 171.718 16.7278 171.193 16.0732C171.087 15.9397 171.109 15.7468 171.243 15.6407C171.378 15.5346 171.572 15.5566 171.678 15.6901C172.211 16.3557 172.729 17.0441 173.218 17.739C173.316 17.878 173.282 18.07 173.141 18.1678C173.087 18.2053 173.025 18.2236 172.964 18.2236V18.2226ZM107.045 15.5365C106.975 15.5365 106.905 15.5136 106.847 15.4652C106.715 15.3564 106.697 15.1625 106.806 15.0318C107.35 14.3817 107.922 13.7362 108.509 13.1154C108.626 12.9911 108.822 12.9856 108.947 13.1017C109.072 13.2188 109.078 13.4135 108.961 13.5369C108.383 14.1486 107.818 14.784 107.283 15.4249C107.221 15.4981 107.134 15.5365 107.045 15.5365ZM168.695 13.0944C168.615 13.0944 168.534 13.0633 168.473 13.0012C167.889 12.4032 167.278 11.8135 166.654 11.2494C166.528 11.1351 166.519 10.9404 166.634 10.8142C166.749 10.688 166.945 10.6789 167.072 10.7941C167.705 11.3673 168.326 11.9662 168.917 12.5724C169.037 12.694 169.033 12.8896 168.911 13.0076C168.851 13.0652 168.773 13.0944 168.695 13.0944ZM111.721 10.773C111.635 10.773 111.549 10.7374 111.489 10.6679C111.376 10.5399 111.389 10.3452 111.518 10.2336C112.163 9.67407 112.832 9.12824 113.507 8.60984C113.643 8.50652 113.838 8.53121 113.942 8.66561C114.046 8.80001 114.021 8.99384 113.885 9.09715C113.22 9.60732 112.561 10.1449 111.926 10.6962C111.867 10.7474 111.794 10.7721 111.721 10.7721V10.773ZM163.662 8.70858C163.597 8.70858 163.533 8.68846 163.477 8.64824C162.801 8.14995 162.102 7.66629 161.397 7.21006C161.254 7.11772 161.213 6.92663 161.307 6.78401C161.4 6.64138 161.592 6.60115 161.736 6.69441C162.451 7.15703 163.161 7.64801 163.847 8.15452C163.984 8.25601 164.012 8.44892 163.91 8.58515C163.849 8.66652 163.756 8.70949 163.661 8.70949L163.662 8.70858ZM117.104 6.80961C117.001 6.80961 116.9 6.75841 116.841 6.66423C116.751 6.51978 116.795 6.33052 116.94 6.24001C117.664 5.79201 118.413 5.35955 119.166 4.95543C119.317 4.87406 119.504 4.93075 119.585 5.07978C119.666 5.22972 119.61 5.41623 119.46 5.49669C118.719 5.89441 117.981 6.32046 117.267 6.76115C117.216 6.79315 117.159 6.80778 117.103 6.80778L117.104 6.80961ZM157.981 5.18858C157.933 5.18858 157.885 5.17761 157.839 5.15475C157.092 4.77166 156.323 4.40778 155.553 4.0704C155.397 4.00183 155.325 3.8208 155.394 3.66446C155.462 3.50903 155.645 3.43772 155.802 3.50629C156.584 3.84732 157.366 4.2176 158.124 4.60618C158.276 4.68389 158.335 4.86949 158.257 5.02035C158.202 5.12641 158.093 5.18675 157.981 5.18675V5.18858ZM123.06 3.76138C122.938 3.76138 122.823 3.69006 122.773 3.57212C122.708 3.41486 122.783 3.23475 122.941 3.16983C123.728 2.84526 124.537 2.53897 125.347 2.26195C125.51 2.20709 125.685 2.29212 125.741 2.45212C125.796 2.61303 125.71 2.78857 125.549 2.84343C124.752 3.1168 123.955 3.4176 123.179 3.7376C123.141 3.75315 123.1 3.76138 123.06 3.76138H123.06ZM151.801 2.62857C151.77 2.62857 151.737 2.624 151.705 2.61395C150.906 2.35612 150.087 2.12023 149.272 1.91177C149.106 1.86972 149.006 1.70149 149.049 1.53692C149.091 1.37234 149.263 1.2736 149.426 1.31566C150.253 1.52777 151.085 1.76732 151.897 2.0288C152.06 2.08092 152.149 2.25463 152.095 2.41646C152.053 2.54629 151.932 2.62949 151.801 2.62949V2.62857ZM129.432 1.71429C129.291 1.71429 129.164 1.61829 129.131 1.47749C129.093 1.312 129.196 1.14652 129.362 1.1072C130.195 0.912459 131.044 0.740573 131.884 0.597944C132.056 0.570516 132.213 0.682059 132.242 0.849373C132.271 1.01669 132.157 1.17577 131.989 1.20503C131.161 1.34583 130.325 1.51497 129.505 1.70697C129.481 1.71246 129.457 1.7152 129.433 1.7152L129.432 1.71429ZM145.286 1.09349C145.27 1.09349 145.255 1.09257 145.239 1.08983C144.407 0.962745 143.561 0.860345 142.723 0.784459C142.552 0.768916 142.426 0.618973 142.442 0.44983C142.458 0.280687 142.605 0.15543 142.779 0.170973C143.629 0.247773 144.488 0.352001 145.332 0.480916C145.501 0.506516 145.617 0.663773 145.591 0.832002C145.568 0.984688 145.436 1.09349 145.286 1.09349ZM136.054 0.715887C135.893 0.715887 135.757 0.591545 135.746 0.429716C135.734 0.259659 135.862 0.112458 136.033 0.101487C136.884 0.0420584 137.748 0.00822982 138.603 0.000915527H138.606C138.776 0.000915527 138.914 0.137144 138.916 0.306287C138.918 0.476344 138.78 0.615316 138.609 0.617145C137.766 0.624459 136.914 0.657373 136.077 0.715887C136.069 0.715887 136.062 0.715887 136.055 0.715887H136.054Z" fill="#91B3FA"/>
<path d="M179.925 35.4203C179.775 35.4203 179.643 35.3115 179.619 35.1597C179.557 34.7575 179.488 34.357 179.412 33.9556C179.38 33.7883 179.491 33.6274 179.659 33.5963C179.827 33.567 179.989 33.6758 180.021 33.8422C180.097 34.2491 180.167 34.656 180.231 35.0637C180.258 35.232 180.142 35.3892 179.973 35.4157C179.956 35.4185 179.941 35.4194 179.925 35.4194V35.4203Z" fill="#91B3FA"/>
<path d="M170.801 40.5705C170.817 40.3602 170.698 40.1627 170.503 40.0786L164.95 37.6814C164.521 34.9047 163.643 32.1755 162.306 29.6073L165.369 24.4233C165.477 24.2414 165.457 24.0119 165.319 23.8519L160.599 18.368C160.461 18.208 160.235 18.1522 160.039 18.229L154.41 20.4343C152.064 18.7236 149.487 17.4391 146.793 16.5879L145.27 10.7657C145.217 10.5618 145.039 10.4137 144.828 10.3972L137.588 9.83678C137.376 9.82032 137.177 9.93918 137.093 10.133L134.68 15.6507C131.886 16.0768 129.14 16.949 126.555 18.2784L121.338 15.2329C121.155 15.1259 120.924 15.146 120.763 15.2832L115.245 19.9744C115.083 20.1115 115.027 20.3355 115.106 20.5312L117.325 26.1239C115.603 28.4553 114.311 31.0153 113.454 33.6933L107.594 35.2064C107.389 35.2594 107.24 35.4359 107.223 35.6462L106.659 42.8407C106.643 43.051 106.762 43.2485 106.957 43.3326L112.51 45.7298C112.939 48.5065 113.817 51.2357 115.154 53.8039L112.09 58.9879C111.982 59.1698 112.002 59.3993 112.14 59.5593L116.861 65.0432C116.999 65.2032 117.225 65.259 117.421 65.1813L123.05 62.976C125.396 64.6867 127.973 65.9712 130.667 66.8224L132.19 72.6446C132.243 72.8485 132.421 72.9966 132.632 73.0131L139.872 73.5735C140.084 73.59 140.283 73.4711 140.367 73.2773L142.78 67.7596C145.574 67.3335 148.32 66.4613 150.905 65.1319L156.122 68.1774C156.305 68.2844 156.536 68.2643 156.697 68.1271L162.215 63.4359C162.376 63.2988 162.433 63.0757 162.355 62.8791L160.136 57.2864C161.858 54.955 163.149 52.3941 164.007 49.717L169.866 48.2039C170.071 48.1509 170.22 47.9744 170.237 47.7641L170.801 40.5696V40.5705Z" fill="#91B3FA"/>
<path opacity="0.7" d="M138.716 48.5769C137.298 48.5769 135.918 48.1435 134.737 47.3133C131.625 45.1255 130.886 40.8301 133.087 37.738C134.154 36.2404 135.744 35.2448 137.564 34.9357C139.384 34.6267 141.216 35.04 142.723 36.0996C144.23 37.1602 145.232 38.7392 145.543 40.5476C145.854 42.3561 145.439 44.1773 144.371 45.6749C143.305 47.1725 141.715 48.1682 139.895 48.4772C139.501 48.544 139.106 48.5769 138.714 48.5769H138.716ZM138.743 35.7586C138.404 35.7586 138.062 35.7878 137.721 35.8454C136.146 36.1133 134.769 36.9746 133.847 38.2711C131.94 40.9472 132.58 44.6656 135.274 46.5591C136.578 47.477 138.164 47.8336 139.74 47.5666C141.315 47.2987 142.69 46.4375 143.614 45.141C144.538 43.8445 144.898 42.2683 144.628 40.7031C144.358 39.1378 143.491 37.77 142.187 36.853C141.165 36.1344 139.971 35.7586 138.743 35.7586Z" fill="white"/>
<path opacity="0.7" d="M138.604 59.5821C138.131 59.5821 137.656 59.5638 137.178 59.5273C132.388 59.157 128.03 56.9545 124.907 53.3257C122.094 50.0589 120.587 45.9885 120.587 41.7362C120.587 41.2653 120.606 40.7926 120.643 40.319C121.016 35.5593 123.232 31.2283 126.884 28.1252C130.534 25.0221 135.183 23.5172 139.973 23.8875C144.763 24.2578 149.122 26.4603 152.245 30.0891C153.078 31.0573 153.808 32.1133 154.413 33.2251L153.596 33.664C153.023 32.6089 152.33 31.6077 151.539 30.6889C148.577 27.2484 144.444 25.1593 139.902 24.8082C135.359 24.4598 130.95 25.8843 127.488 28.8265C124.026 31.7696 121.924 35.8765 121.57 40.3904C121.535 40.8402 121.518 41.2882 121.518 41.7344C121.518 45.7673 122.947 49.6274 125.615 52.7259C128.576 56.1664 132.709 58.2546 137.252 58.6066C141.798 58.9586 146.203 57.5314 149.666 54.5883C152.015 52.5906 153.774 50.0032 154.75 47.1049L155.631 47.3984C154.602 50.4548 152.748 53.184 150.269 55.2905C146.982 58.0845 142.886 59.583 138.605 59.583L138.604 59.5821Z" fill="white"/>
<path d="M210.161 71.8921C210.108 71.8921 210.054 71.8784 210.004 71.8491C209.857 71.7623 209.808 71.5739 209.895 71.4276C210.103 71.0784 210.303 70.7218 210.487 70.3671C210.565 70.2162 210.752 70.1577 210.905 70.2345C211.057 70.3122 211.116 70.4978 211.038 70.6496C210.849 71.0144 210.644 71.3819 210.429 71.7413C210.371 71.8382 210.268 71.8921 210.162 71.8921H210.161Z" fill="#91B3FA"/>
<path d="M190.17 82.1943C190.162 82.1943 190.153 82.1943 190.145 82.1943C189.305 82.1284 188.461 82.0132 187.637 81.8514C187.47 81.8185 187.36 81.6567 187.393 81.4893C187.426 81.3229 187.59 81.2141 187.757 81.2471C188.558 81.4043 189.378 81.5168 190.194 81.5808C190.364 81.5945 190.492 81.7426 190.478 81.9117C190.465 82.0736 190.33 82.1952 190.17 82.1952V82.1943ZM194.221 82.1293C194.066 82.1293 193.931 82.0132 193.914 81.856C193.895 81.6868 194.017 81.5351 194.187 81.5159C195.002 81.4253 195.818 81.2864 196.611 81.1026C196.777 81.0624 196.945 81.1666 196.983 81.333C197.022 81.4985 196.919 81.664 196.751 81.7024C195.934 81.8916 195.094 82.0343 194.255 82.1284C194.243 82.1293 194.232 82.1303 194.22 82.1303L194.221 82.1293ZM183.813 80.704C183.775 80.704 183.735 80.6967 183.696 80.6811C182.918 80.3666 182.149 80.0027 181.411 79.5986C181.261 79.5163 181.207 79.3289 181.289 79.1808C181.372 79.0317 181.56 78.9778 181.71 79.0601C182.427 79.4523 183.174 79.8061 183.93 80.1115C184.088 80.1755 184.165 80.3556 184.1 80.5129C184.051 80.6327 183.936 80.7049 183.813 80.7049V80.704ZM200.524 80.4279C200.405 80.4279 200.292 80.3602 200.24 80.2459C200.17 80.0905 200.24 79.9085 200.397 79.8391C201.144 79.5072 201.878 79.1277 202.58 78.7117C202.726 78.624 202.917 78.6724 203.005 78.8178C203.093 78.9641 203.045 79.1524 202.898 79.2402C202.176 79.669 201.419 80.0594 200.651 80.4013C200.609 80.4196 200.567 80.4279 200.525 80.4279H200.524ZM178.217 77.3641C178.147 77.3641 178.076 77.3403 178.019 77.2928C177.375 76.7588 176.754 76.1792 176.174 75.5703C176.056 75.4468 176.062 75.2521 176.185 75.1351C176.309 75.018 176.506 75.0235 176.623 75.146C177.187 75.7376 177.79 76.2999 178.416 76.8192C178.548 76.928 178.565 77.1218 178.456 77.2526C178.395 77.3257 178.307 77.3632 178.217 77.3632V77.3641ZM206.006 76.8996C205.921 76.8996 205.835 76.8649 205.775 76.7972C205.66 76.6701 205.672 76.4754 205.799 76.3629L205.982 76.1993C206.526 75.7056 207.051 75.178 207.539 74.6331C207.652 74.5051 207.848 74.4942 207.976 74.6075C208.104 74.7209 208.116 74.9147 208.002 75.0418C207.5 75.6032 206.961 76.1463 206.399 76.6546L206.213 76.8219C206.154 76.874 206.08 76.8996 206.006 76.8996H206.006ZM173.898 72.4964C173.796 72.4964 173.696 72.4462 173.637 72.3547C173.184 71.6507 172.767 70.912 172.399 70.1586C172.324 70.0059 172.389 69.8212 172.542 69.7472C172.697 69.6731 172.882 69.7371 172.956 69.8898C173.313 70.6212 173.718 71.339 174.159 72.0228C174.251 72.1655 174.209 72.3566 174.065 72.448C174.013 72.4809 173.955 72.4964 173.898 72.4964Z" fill="#91B3FA"/>
<path d="M171.264 66.5444C171.127 66.5444 171.002 66.453 170.965 66.3149C170.859 65.9145 170.762 65.5058 170.679 65.0999C170.645 64.9335 170.753 64.7707 170.921 64.7369C171.089 64.7031 171.252 64.81 171.286 64.9773C171.367 65.3714 171.461 65.7691 171.564 66.1577C171.609 66.3222 171.51 66.4905 171.344 66.5344C171.318 66.5417 171.291 66.5444 171.265 66.5444H171.264Z" fill="#91B3FA"/>
<path d="M173.816 49.8396C173.76 49.8396 173.703 49.824 173.651 49.792C173.507 49.7015 173.463 49.5113 173.555 49.3678C173.777 49.0167 174.013 48.6684 174.255 48.331C174.354 48.1929 174.548 48.1609 174.686 48.2597C174.826 48.3584 174.857 48.5504 174.758 48.6885C174.523 49.0158 174.293 49.355 174.077 49.696C174.018 49.7893 173.918 49.8396 173.815 49.8396H173.816Z" fill="#91B3FA"/>
<path d="M211.443 52.8329C211.322 52.8329 211.208 52.7625 211.157 52.6455C210.844 51.9104 210.482 51.1854 210.084 50.4905C209.999 50.3433 210.051 50.155 210.2 50.0709C210.348 49.9867 210.537 50.0379 210.622 50.1861C211.032 50.901 211.404 51.648 211.728 52.405C211.795 52.5614 211.721 52.7424 211.563 52.8091C211.524 52.8256 211.483 52.8338 211.442 52.8338L211.443 52.8329ZM208.063 47.4021C207.976 47.4021 207.888 47.3655 207.828 47.2942C207.669 47.1095 207.507 46.9275 207.342 46.7465C206.964 46.3351 206.565 45.9337 206.156 45.5534C206.031 45.4373 206.024 45.2425 206.141 45.1182C206.258 44.9938 206.454 44.9874 206.579 45.1035C207 45.4949 207.41 45.9072 207.799 46.3314C207.969 46.517 208.137 46.7045 208.299 46.8946C208.409 47.0245 208.394 47.2183 208.264 47.3289C208.206 47.3783 208.134 47.4021 208.063 47.4021ZM177.119 45.8231C177.037 45.8231 176.955 45.7911 176.895 45.728C176.777 45.6046 176.781 45.4098 176.905 45.2928C177.03 45.1739 177.157 45.056 177.286 44.9399C177.77 44.501 178.279 44.0795 178.8 43.6864C178.936 43.5831 179.13 43.6096 179.233 43.7449C179.337 43.8802 179.311 44.0731 179.174 44.1755C178.668 44.5577 178.173 44.9673 177.703 45.3934C177.578 45.5067 177.455 45.6219 177.332 45.7371C177.273 45.7938 177.195 45.8222 177.119 45.8222V45.8231ZM203.213 43.2128C203.157 43.2128 203.099 43.1972 203.048 43.1652C202.368 42.7383 201.656 42.346 200.932 42.0004C200.777 41.9264 200.713 41.7435 200.786 41.5899C200.86 41.4363 201.044 41.3714 201.199 41.4455C201.945 41.8011 202.678 42.2043 203.378 42.6441C203.523 42.7355 203.566 42.9248 203.475 43.0693C203.416 43.1616 203.316 43.2128 203.213 43.2128H203.213ZM182.375 42.1495C182.26 42.1495 182.151 42.0873 182.097 41.9785C182.02 41.8258 182.083 41.6411 182.237 41.5662C182.977 41.2004 183.748 40.874 184.528 40.5943C184.69 40.5376 184.867 40.6199 184.925 40.7799C184.983 40.9399 184.899 41.1163 184.738 41.1739C183.979 41.4455 183.23 41.7627 182.512 42.1175C182.467 42.1394 182.421 42.1495 182.374 42.1495H182.375ZM197.327 40.6592C197.3 40.6592 197.273 40.6555 197.247 40.6491C196.47 40.4443 195.672 40.2816 194.876 40.1664C194.706 40.1417 194.589 39.9854 194.613 39.818C194.638 39.6498 194.794 39.5291 194.964 39.5575C195.784 39.6763 196.604 39.8427 197.405 40.0539C197.571 40.0978 197.669 40.266 197.625 40.4306C197.588 40.5687 197.463 40.6592 197.326 40.6592H197.327ZM188.495 40.2084C188.345 40.2084 188.213 40.1006 188.189 39.9488C188.163 39.7806 188.278 39.6233 188.447 39.5968C189.263 39.4688 190.097 39.3856 190.927 39.3508C191.098 39.3472 191.242 39.4752 191.249 39.6452C191.256 39.8153 191.124 39.9588 190.952 39.9652C190.146 39.9991 189.337 40.0795 188.544 40.2039C188.527 40.2066 188.511 40.2075 188.495 40.2075V40.2084Z" fill="#91B3FA"/>
<path d="M212.877 57.8285C212.727 57.8285 212.595 57.7197 212.571 57.568C212.509 57.1702 212.434 56.7689 212.349 56.3757C212.313 56.2093 212.419 56.0457 212.586 56.01C212.756 55.9744 212.918 56.0804 212.954 56.2459C213.042 56.6509 213.119 57.0642 213.183 57.4729C213.21 57.6411 213.094 57.7984 212.925 57.8249C212.908 57.8276 212.893 57.8285 212.877 57.8285Z" fill="#91B3FA"/>
<path d="M208.19 60.3246C208.198 60.2167 208.137 60.1152 208.037 60.0722L205.185 58.8407C204.965 57.4144 204.514 56.0119 203.827 54.6935L205.401 52.0302C205.456 51.9369 205.446 51.819 205.375 51.7367L202.951 48.9198C202.88 48.8375 202.764 48.8091 202.663 48.8485L199.772 49.9813C198.566 49.1026 197.243 48.4425 195.859 48.0055L195.077 45.0149C195.049 44.9097 194.958 44.8338 194.849 44.8256L191.13 44.5376C191.022 44.5294 190.92 44.5906 190.876 44.6894L189.637 47.5237C188.202 47.7422 186.791 48.1911 185.464 48.8731L182.783 47.3088C182.69 47.2539 182.571 47.264 182.488 47.3344L179.653 49.7445C179.571 49.8149 179.542 49.9301 179.582 50.0306L180.722 52.9033C179.837 54.101 179.173 55.4158 178.733 56.7918L175.724 57.5689C175.618 57.5963 175.542 57.6869 175.533 57.7947L175.243 61.4903C175.235 61.5982 175.297 61.6997 175.396 61.7426L178.248 62.9742C178.468 64.4005 178.92 65.803 179.606 67.1214L178.032 69.7847C177.977 69.878 177.987 69.9959 178.058 70.0782L180.483 72.8951C180.554 72.9774 180.67 73.0057 180.771 72.9664L183.662 71.8336C184.867 72.7122 186.191 73.3723 187.575 73.8094L188.357 76.8C188.385 76.9051 188.476 76.981 188.585 76.9893L192.304 77.2773C192.412 77.2855 192.514 77.2242 192.557 77.1255L193.797 74.2912C195.232 74.0718 196.644 73.6238 197.97 72.9417L200.65 74.5061C200.744 74.5609 200.863 74.5509 200.946 74.4805L203.781 72.0713C203.863 72.0009 203.892 71.8857 203.852 71.7852L202.712 68.9125C203.597 67.7147 204.261 66.3991 204.701 65.024L207.71 64.2469C207.816 64.2194 207.892 64.1289 207.901 64.021L208.191 60.3255L208.19 60.3246Z" fill="#91B3FA"/>
<path opacity="0.7" d="M191.707 64.662C190.932 64.662 190.178 64.4252 189.533 63.9717C187.833 62.7758 187.429 60.4288 188.631 58.7401C189.215 57.9218 190.083 57.3778 191.077 57.2087C192.071 57.0395 193.073 57.2654 193.896 57.8441C194.719 58.4238 195.267 59.2859 195.437 60.2743C195.607 61.2626 195.38 62.2574 194.798 63.0757C194.214 63.894 193.347 64.438 192.352 64.6071C192.137 64.6437 191.922 64.662 191.707 64.662ZM191.719 58.0791C190.826 58.0791 189.945 58.4951 189.39 59.2731C188.483 60.5467 188.788 62.3168 190.069 63.2174C190.69 63.6544 191.447 63.8245 192.195 63.6965C192.945 63.5694 193.6 63.1589 194.039 62.5426C194.478 61.9255 194.65 61.1749 194.521 60.4306C194.393 59.6855 193.98 59.0345 193.36 58.5984C192.861 58.2473 192.287 58.0791 191.718 58.0791H191.719Z" fill="white"/>
<path opacity="0.7" d="M191.652 70.315C191.403 70.315 191.152 70.3049 190.901 70.2857C188.38 70.091 186.087 68.9317 184.443 67.0226C182.92 65.2535 182.174 63.0793 182.175 60.9143C182.175 58.2583 183.298 55.6178 185.484 53.76C189.449 50.3881 195.437 50.8516 198.83 54.7931C198.856 54.8242 198.883 54.8553 198.909 54.8864C199.277 55.3252 199.604 55.7961 199.884 56.2889C199.885 56.2907 199.887 56.2926 199.888 56.2944C199.892 56.3017 199.896 56.309 199.9 56.3163C199.907 56.3291 199.914 56.3419 199.922 56.3547C199.925 56.362 199.93 56.3694 199.934 56.3758C199.946 56.3977 199.958 56.4206 199.97 56.4425L199.153 56.8814C198.866 56.3538 198.52 55.8528 198.124 55.392C195.957 52.8759 192.618 51.9323 189.584 52.6738C188.332 52.9801 187.133 53.5726 186.087 54.4603C184.117 56.1362 183.105 58.517 183.104 60.9124C183.104 62.8644 183.776 64.8256 185.149 66.421C188.208 69.9749 193.608 70.3936 197.185 67.3527C198.361 66.3534 199.241 65.0578 199.729 63.6078L200.611 63.9012C200.069 65.5104 199.094 66.9458 197.789 68.0539C196.059 69.5241 193.903 70.3131 191.651 70.3131L191.652 70.315Z" fill="white"/>
<path d="M131.334 103.338C132.098 102.628 133.13 102.274 134.172 102.367C145.321 103.364 166.122 98.027 179.717 84.2048C180.661 83.2448 182.382 83.7879 183.464 84.5906C198.583 95.8199 223.645 98.1449 232.345 98.6203C234.145 98.7191 235.605 100.106 235.791 101.888C243.702 177.823 193.948 205.339 183.629 210.197C182.501 210.728 181.174 210.651 180.114 209.995C128.684 178.161 130.884 136.763 130.173 106.089C130.149 105.05 130.57 104.048 131.334 103.338Z" fill="url(#paint4_linear_1503_3411)"/>
<path opacity="0.61" d="M182.238 204.681C182.008 204.681 181.779 204.617 181.578 204.49C161.861 191.965 149.01 176.992 142.292 158.714C136.291 142.389 135.998 125.766 135.738 111.101L135.703 109.146C135.697 108.819 135.821 108.512 136.05 108.279C136.282 108.045 136.593 107.915 136.925 107.915C149.136 107.915 167.464 102.557 180.906 90.5883C181.318 90.2208 181.929 90.1769 182.393 90.4813C197.163 100.219 218.231 103.056 229.475 103.879C230.073 103.923 230.545 104.387 230.598 104.982C233.212 134.611 227.01 159.665 212.166 179.45C201.079 194.225 187.932 201.924 182.794 204.549C182.62 204.637 182.43 204.681 182.239 204.681H182.238ZM182.564 204.106L182.678 204.327L182.564 204.106C187.67 201.498 200.739 193.845 211.764 179.152C226.533 159.469 232.702 134.529 230.099 105.026C230.068 104.676 229.79 104.402 229.438 104.376C218.145 103.548 196.981 100.698 182.116 90.8964C181.843 90.7163 181.483 90.7428 181.24 90.9595C167.699 103.016 149.231 108.413 136.935 108.413C136.727 108.413 136.543 108.489 136.407 108.628C136.272 108.764 136.2 108.945 136.204 109.136L136.239 111.092C136.497 125.719 136.79 142.298 142.762 158.544C149.442 176.715 162.227 191.607 181.848 204.07C182.063 204.207 182.338 204.22 182.564 204.105V204.106Z" fill="white"/>
<path opacity="0.61" d="M200.216 132.003H197.89C196.735 132.003 195.798 131.073 195.798 129.925V122.025C195.798 119.197 193.492 116.905 190.646 116.905H176.235C173.389 116.905 171.082 119.197 171.082 122.025V129.925C171.082 131.072 170.147 132.003 168.991 132.003H166.665C165.51 132.003 164.574 131.073 164.574 129.925V122.025C164.574 115.626 169.794 110.438 176.234 110.438H190.645C197.085 110.438 202.305 115.626 202.305 122.025V129.925C202.305 131.072 201.369 132.003 200.214 132.003H200.216Z" fill="white"/>
<path opacity="0.61" d="M203.098 133.867H163.784C161.376 133.867 159.422 135.808 159.422 138.202V168.184C159.422 170.577 161.376 172.518 163.784 172.518H203.098C205.507 172.518 207.46 170.577 207.46 168.184V138.202C207.46 135.808 205.507 133.867 203.098 133.867ZM189.066 162.845C189.31 163.856 188.54 164.826 187.495 164.826H179.388C178.343 164.826 177.573 163.856 177.817 162.845L179.708 155.021C177.475 153.694 176.015 151.215 176.165 148.409C176.358 144.774 179.322 141.8 182.976 141.574C187.211 141.313 190.729 144.649 190.729 148.802C190.729 151.445 189.303 153.756 187.175 155.021L189.066 162.846V162.845Z" fill="white"/>
<path d="M32.7439 124.066C32.7439 124.066 35.9283 124.233 36.3184 130.743C36.3184 130.743 28.9348 137.32 18.9611 138.885C18.2122 139.003 20.0082 133.807 20.2777 133.103C21.5622 129.754 25.6068 127.596 32.7439 124.066Z" fill="url(#paint5_linear_1503_3411)"/>
<path d="M68.6036 116.412H61.8843C61.8843 116.412 41.2607 93.7791 27.7346 91.4962C27.7346 91.4962 18.3195 103.439 28.2361 125.754C29.0338 127.549 31.265 128.347 32.9294 127.29C33.4272 126.974 33.7851 126.551 34.0013 126.021L33.2036 106.967C33.2036 106.967 50.7955 122.256 53.8529 125.206C56.9104 128.156 72.4533 126.358 68.6027 116.411L68.6036 116.412Z" fill="#7D97F4"/>
<path d="M3.64247 163.931C6.45791 161.479 10.9442 158.728 17.4216 157.94L19.6123 159.271C19.6123 159.271 18.2156 161.318 15.6642 163.481C13.3189 164.834 9.69843 166.667 6.69621 167.065C3.77772 167.451 3.34713 165.699 3.64339 163.931H3.64247Z" fill="url(#paint6_linear_1503_3411)"/>
<path d="M20.2786 133.103C22.0129 133.66 22.7766 136.102 27.1782 134.488C31.4364 132.925 34.6023 130.91 36.2309 129.748C36.2668 130.063 36.298 130.392 36.3192 130.743C36.3192 130.743 28.5344 138.101 18.5608 139.666C17.8118 139.784 17.2184 139.041 17.4889 138.337C17.9729 137.074 18.846 135.158 20.2795 133.102L20.2786 133.103Z" fill="#91B3FA"/>
<path d="M1.5209 166.025C2.07571 165.398 2.78417 164.678 3.64168 163.931C3.34542 165.699 3.77509 167.451 6.6945 167.065C9.69672 166.667 13.3181 164.834 15.6625 163.481C12.7238 165.971 8.25127 168.615 2.60659 168.46C1.35253 168.425 0.691909 166.96 1.51998 166.025H1.5209Z" fill="#91B3FA"/>
<path d="M68.3584 121.243L36.8927 121.582C36.8927 121.582 18.9235 136.355 15.6637 158.882C15.6637 158.882 15.1227 160.539 18.3705 160.822C18.3705 160.822 29.2348 153.771 36.3185 141.305C45.0041 126.02 62.2123 132.9 62.2123 132.9C70.4792 134.713 77.0596 134.038 81.8744 126.674L68.3575 121.242L68.3584 121.243Z" fill="#7D97F4"/>
<path d="M67.6148 96.0548C67.6148 96.0548 64.227 112.924 47.6306 119.598L41.7265 118.906L40.3335 121.114L54.1816 121.552C54.1816 121.552 66.0194 116.893 72.2906 104.198C72.4976 103.779 75.9516 96.693 67.6139 96.0557L67.6148 96.0548Z" fill="url(#paint7_linear_1503_3411)"/>
<path d="M65.7997 120.967C65.7997 120.967 69.652 110.563 70.4792 100.453C70.4792 100.453 67.661 98.0462 65.9 97.0076C65.3295 96.6711 65.1142 95.9598 65.4022 95.3664C66.6977 92.7004 74.5285 82.2337 75.1155 82.0874C78.3045 81.2965 91.3815 75.1178 100.592 87.6371C104.544 93.0094 99.8076 109.548 81.8753 126.676C76.1055 127.61 70.7101 125.957 65.8006 120.967H65.7997Z" fill="url(#paint8_linear_1503_3411)"/>
<path d="M80.6421 102.732C80.6421 102.732 69.9398 115.324 56.2573 117.165C56.2573 117.165 52.7214 113.961 50.0918 115.105C47.4622 116.249 43.8564 121.297 43.8564 121.297H61.4254C61.4254 121.297 78.0374 120.716 86.3383 110.706C85.6704 107.204 83.6701 105.112 80.6421 102.733V102.732Z" fill="url(#paint9_linear_1503_3411)"/>
<path d="M86.8859 73.2562L89.2276 81.0167C89.3352 81.3723 89.2027 81.7572 88.8945 81.9675C87.7674 82.7346 84.8204 84.2605 80.7785 82.7776C80.3166 82.6084 79.9992 82.1787 79.9596 81.6905L79.4048 74.9294L86.8869 73.2553L86.8859 73.2562Z" fill="url(#paint10_linear_1503_3411)"/>
<path d="M73.1738 66.9705C73.1738 66.9705 74.3248 75.0152 77.4347 77.4893C80.5446 79.9633 86.6042 78.1 88.6505 72.0356L84.5727 61.6658L73.1738 66.9705Z" fill="url(#paint11_linear_1503_3411)"/>
<path d="M85.0327 68.3767C84.7963 68.4525 84.5488 68.3017 84.512 68.0576C84.3997 67.3152 84.1191 65.845 83.5523 64.8439C83.5523 64.8439 83.8495 63.7888 80.8675 65.3833C77.8865 66.9778 73.4084 69.3202 70.7724 67.925C68.2026 66.5655 65.5988 59.722 72.3918 60.9892C72.6503 61.0377 72.8877 60.8329 72.8684 60.5723C72.7846 59.4477 72.8969 56.8603 75.5338 56.0292C78.0015 55.2521 79.3522 56.3593 79.9088 57.0267C80.0726 57.2233 80.3762 57.2196 80.5326 57.0167C81.2714 56.0576 83.279 54.0169 86.2343 55.3106C88.6689 56.3767 89.047 57.8669 89.0065 58.7949C88.9937 59.0957 89.301 59.2996 89.5761 59.1735C90.3213 58.8324 91.5211 58.6551 92.6694 60.085C94.2574 62.0626 91.9885 63.7769 91.3077 64.2267C91.1963 64.3008 91.1264 64.4224 91.1255 64.5559C91.119 65.5844 90.958 70.069 88.6956 72.5997C88.4996 72.8192 88.138 72.7542 88.0239 72.4845L86.2822 68.3602C86.2012 68.1691 85.9868 68.0704 85.7872 68.1344L85.0309 68.3767H85.0327Z" fill="url(#paint12_linear_1503_3411)"/>
<path d="M84.9961 69.2142C84.9961 69.2142 86.0597 64.9097 87.6754 66.3067C89.291 67.7038 87.254 70.7803 85.4037 71.3673L84.9961 69.2142Z" fill="url(#paint13_linear_1503_3411)"/>
<path d="M44.7418 122.275L36.854 96.1335C36.532 95.0674 35.5788 94.3104 34.4609 94.2345L23.811 93.5104C22.728 93.4372 21.923 94.4878 22.2827 95.5054L31.1007 120.47C31.3851 121.275 32.111 121.842 32.9648 121.928L43.4528 123.086L44.7427 122.276L44.7418 122.275Z" fill="url(#paint14_linear_1503_3411)"/>
<path d="M30.1934 104.994C30.7822 106.175 31.7998 106.867 32.465 106.54C33.1303 106.213 33.1928 104.989 32.604 103.808C32.0151 102.627 30.9985 101.935 30.3323 102.262C29.6671 102.589 29.6045 103.813 30.1934 104.994Z" fill="#91B3FA"/>
<path d="M43.4516 123.085C43.4691 123.085 43.4857 123.085 43.5032 123.083L65.85 121.96C66.402 121.933 66.828 121.466 66.7995 120.916C66.7719 120.367 66.299 119.935 65.7488 119.972L43.402 121.095C42.8499 121.123 42.4248 121.591 42.4524 122.139C42.4791 122.672 42.9217 123.085 43.4516 123.085Z" fill="url(#paint15_linear_1503_3411)"/>
<path d="M70.4789 100.606C70.3933 100.606 70.3243 100.538 70.3243 100.453C70.3087 95.765 72.124 89.5607 72.1424 89.4986C72.1663 89.4172 72.2518 89.3706 72.3346 89.3943C72.4165 89.4181 72.4634 89.504 72.4395 89.5854C72.4211 89.6467 70.6187 95.8089 70.6344 100.452C70.6344 100.537 70.5654 100.606 70.4798 100.606H70.4789Z" fill="url(#paint16_linear_1503_3411)"/>
<path d="M80.6423 102.886C80.6091 102.886 80.5751 102.875 80.5466 102.853C80.4794 102.8 80.4684 102.704 80.5208 102.638C80.5696 102.576 85.4267 96.4397 87.0893 92.2542C87.1206 92.1755 87.2099 92.1344 87.2899 92.1673C87.369 92.1984 87.4086 92.288 87.3773 92.3666C85.6981 96.5952 80.8125 102.767 80.7637 102.828C80.7334 102.866 80.6874 102.886 80.6423 102.886Z" fill="url(#paint17_linear_1503_3411)"/>
<path d="M87.5282 112.321L86.6449 111.079C86.5952 111.01 86.6118 110.914 86.6817 110.864C86.7516 110.815 86.8482 110.832 86.8979 110.901L87.6367 111.94C94.529 108.937 98.7964 100.743 98.8387 100.661C98.8773 100.585 98.9703 100.555 99.0466 100.594C99.123 100.633 99.1534 100.726 99.1138 100.802C99.0705 100.886 94.7075 109.267 87.6432 112.273L87.5282 112.323V112.321Z" fill="url(#paint18_linear_1503_3411)"/>
</g>
<defs>
<linearGradient id="paint0_linear_1503_3411" x1="274.371" y1="258.324" x2="90.3413" y2="96.2769" gradientUnits="userSpaceOnUse">
<stop stop-color="#DAE3FE"/>
<stop offset="1" stop-color="#E9EFFD"/>
</linearGradient>
<linearGradient id="paint1_linear_1503_3411" x1="0" y1="72.2433" x2="275.625" y2="168.759" gradientUnits="userSpaceOnUse">
<stop stop-color="#2CB5C8"/>
<stop offset="1" stop-color="#63D1DF"/>
</linearGradient>
<linearGradient id="paint2_linear_1503_3411" x1="120.477" y1="241.847" x2="87.8634" y2="143.387" gradientUnits="userSpaceOnUse">
<stop stop-color="#09005D"/>
<stop offset="1" stop-color="#1A0F91"/>
</linearGradient>
<linearGradient id="paint3_linear_1503_3411" x1="43.7279" y1="235.97" x2="190.499" y2="271.898" gradientUnits="userSpaceOnUse">
<stop stop-color="#09005D"/>
<stop offset="1" stop-color="#1A0F91"/>
</linearGradient>
<linearGradient id="paint4_linear_1503_3411" x1="294.879" y1="26.2519" x2="252.4" y2="68.0717" gradientUnits="userSpaceOnUse">
<stop stop-color="#FF928E"/>
<stop offset="1" stop-color="#FE7062"/>
</linearGradient>
<linearGradient id="paint5_linear_1503_3411" x1="29.5264" y1="130.254" x2="18.06" y2="142.306" gradientUnits="userSpaceOnUse">
<stop stop-color="#09005D"/>
<stop offset="1" stop-color="#1A0F91"/>
</linearGradient>
<linearGradient id="paint6_linear_1503_3411" x1="14.2142" y1="160.324" x2="-7.52348" y2="176.379" gradientUnits="userSpaceOnUse">
<stop stop-color="#09005D"/>
<stop offset="1" stop-color="#1A0F91"/>
</linearGradient>
<linearGradient id="paint7_linear_1503_3411" x1="49.4901" y1="101.471" x2="64.203" y2="119.079" gradientUnits="userSpaceOnUse">
<stop stop-color="#FEBBBA"/>
<stop offset="1" stop-color="#FF928E"/>
</linearGradient>
<linearGradient id="paint8_linear_1503_3411" x1="122.989" y1="58.3571" x2="78.6777" y2="104.807" gradientUnits="userSpaceOnUse">
<stop stop-color="#FF928E"/>
<stop offset="1" stop-color="#FE7062"/>
</linearGradient>
<linearGradient id="paint9_linear_1503_3411" x1="66.7738" y1="117.409" x2="37.388" y2="76.9531" gradientUnits="userSpaceOnUse">
<stop stop-color="#FEBBBA"/>
<stop offset="1" stop-color="#FF928E"/>
</linearGradient>
<linearGradient id="paint10_linear_1503_3411" x1="84.8995" y1="84.0301" x2="83.8218" y2="74.2678" gradientUnits="userSpaceOnUse">
<stop stop-color="#FEBBBA"/>
<stop offset="1" stop-color="#FF928E"/>
</linearGradient>
<linearGradient id="paint11_linear_1503_3411" x1="79.078" y1="75.5153" x2="83.8337" y2="59.7327" gradientUnits="userSpaceOnUse">
<stop stop-color="#FEBBBA"/>
<stop offset="1" stop-color="#FF928E"/>
</linearGradient>
<linearGradient id="paint12_linear_1503_3411" x1="83.4189" y1="46.5664" x2="79.0009" y2="71.9244" gradientUnits="userSpaceOnUse">
<stop stop-color="#09005D"/>
<stop offset="1" stop-color="#1A0F91"/>
</linearGradient>
<linearGradient id="paint13_linear_1503_3411" x1="84.0613" y1="77.0167" x2="88.8161" y2="61.2341" gradientUnits="userSpaceOnUse">
<stop stop-color="#FEBBBA"/>
<stop offset="1" stop-color="#FF928E"/>
</linearGradient>
<linearGradient id="paint14_linear_1503_3411" x1="44.7418" y1="108.296" x2="22.1953" y2="108.296" gradientUnits="userSpaceOnUse">
<stop stop-color="#09005D"/>
<stop offset="1" stop-color="#1A0F91"/>
</linearGradient>
<linearGradient id="paint15_linear_1503_3411" x1="42.0053" y1="118.09" x2="60.0173" y2="123.058" gradientUnits="userSpaceOnUse">
<stop stop-color="#09005D"/>
<stop offset="1" stop-color="#1A0F91"/>
</linearGradient>
<linearGradient id="paint16_linear_1503_3411" x1="75.3773" y1="33.5392" x2="68.4956" y2="140.193" gradientUnits="userSpaceOnUse">
<stop stop-color="#E1473D"/>
<stop offset="1" stop-color="#E9605A"/>
</linearGradient>
<linearGradient id="paint17_linear_1503_3411" x1="88.0655" y1="34.3581" x2="81.1841" y2="141.011" gradientUnits="userSpaceOnUse">
<stop stop-color="#E1473D"/>
<stop offset="1" stop-color="#E9605A"/>
</linearGradient>
<linearGradient id="paint18_linear_1503_3411" x1="97.5055" y1="34.9669" x2="90.6239" y2="141.621" gradientUnits="userSpaceOnUse">
<stop stop-color="#E1473D"/>
<stop offset="1" stop-color="#E9605A"/>
</linearGradient>
<clipPath id="clip0_1503_3411">
<rect width="256" height="256" fill="white"/>
</clipPath>
</defs>
</svg>
