<?xml version="1.0" standalone="no"?>
<!DOCTYPE svg PUBLIC "-//W3C//DTD SVG 20010904//EN"
 "http://www.w3.org/TR/2001/REC-SVG-20010904/DTD/svg10.dtd">
<svg version="1.0" xmlns="http://www.w3.org/2000/svg"
 width="800.000000pt" height="800.000000pt" viewBox="0 0 800.000000 800.000000"
 preserveAspectRatio="xMidYMid meet">

<g transform="translate(0.000000,800.000000) scale(0.100000,-0.100000)"
fill="#000000" stroke="none">
<path d="M5109 7116 c-10 -9 -836 -27 -1494 -32 -390 -3 -721 -7 -735 -8 -14
-2 -44 -4 -68 -5 -27 -1 -41 -5 -37 -11 5 -8 -10 -9 -47 -4 -29 4 -49 3 -45
-2 4 -4 29 -11 55 -15 42 -6 38 -7 -33 -8 -44 -1 -102 -6 -130 -10 -31 -6 -55
-5 -66 2 -20 12 -124 -7 -149 -28 -23 -18 -102 -16 -117 4 -11 15 -12 15 -13
-1 0 -23 -52 -25 -70 -3 -11 13 -44 15 -199 15 -206 -1 -294 4 -360 19 -80 18
-135 -3 -211 -78 -72 -72 -58 -68 -247 -73 -133 -4 -125 12 -153 -308 -11
-122 -17 -147 -36 -154 -11 -4 -13 -18 -8 -58 6 -53 -2 -90 -42 -198 -13 -35
-16 -75 -15 -182 2 -155 -8 -195 -58 -224 -42 -25 -44 -36 -10 -73 39 -43 38
-61 -4 -61 -18 0 -39 -6 -45 -12 -10 -10 -15 -10 -22 2 -5 8 -10 10 -10 3 0
-6 -16 -21 -36 -32 -32 -19 -35 -24 -28 -53 3 -18 13 -38 22 -44 11 -8 12 -13
4 -18 -20 -12 -13 -28 9 -21 14 5 19 3 15 -4 -4 -5 3 -20 14 -31 24 -24 40
-19 20 5 -14 16 -3 20 19 6 8 -5 11 -16 8 -25 -4 -9 -2 -16 3 -16 5 0 22 -12
38 -27 27 -26 30 -34 35 -124 10 -163 36 -199 142 -199 120 0 125 -3 125 -88
0 -37 7 -89 15 -116 8 -27 15 -62 15 -77 0 -21 6 -30 22 -34 54 -12 319 -7
333 7 3 3 9 119 15 259 12 304 22 389 59 513 49 166 153 306 312 419 61 43
248 127 284 127 25 0 32 36 38 205 6 147 16 310 33 538 6 86 8 90 38 109 29
18 43 19 236 14 336 -9 759 -25 850 -31 84 -6 893 -14 1935 -19 570 -3 575 -3
613 -48 19 -23 50 -353 68 -719 l6 -135 52 -27 c130 -70 259 -205 327 -342 61
-124 70 -173 80 -425 5 -124 12 -275 15 -336 l6 -112 46 -7 c62 -9 85 -9 162
-1 128 14 157 24 170 59 26 71 33 74 148 76 40 1 82 6 92 11 11 6 24 29 30 52
16 57 51 260 59 340 4 37 11 72 17 78 5 5 42 16 82 25 104 21 237 94 237 129
0 6 8 17 18 24 9 7 17 19 17 25 0 8 -3 9 -8 1 -4 -6 -15 -14 -26 -17 -10 -4
-16 -13 -13 -20 2 -7 -7 -18 -21 -25 -20 -9 -23 -9 -14 0 17 17 15 38 -3 38
-8 0 -15 -4 -15 -8 0 -5 -15 -8 -32 -8 -18 0 -73 -4 -121 -9 l-88 -8 3 43 c3
39 6 45 33 52 17 5 83 9 148 11 112 2 118 3 123 24 3 12 12 24 20 27 8 3 14
19 14 36 0 23 -4 30 -20 30 -13 0 -18 5 -13 15 3 9 -2 21 -10 28 -17 12 -18
32 -3 56 7 11 5 13 -9 8 -14 -6 -16 -3 -12 13 3 13 -1 21 -15 26 -14 4 -17 9
-9 13 20 13 -98 83 -251 150 -45 20 -47 23 -69 93 -12 40 -26 77 -31 83 -14
15 -9 28 22 65 29 33 39 60 22 60 -4 0 -13 -9 -20 -20 -13 -22 -37 -26 -47
-10 -4 6 -2 17 5 25 7 9 8 15 0 20 -19 12 -10 23 46 55 67 38 64 51 -5 21 -27
-11 -57 -21 -65 -21 -28 0 -17 28 14 35 72 16 101 75 61 126 -14 19 -20 45
-22 111 -2 47 -7 90 -11 94 -4 4 -30 9 -59 12 -46 4 -53 8 -76 46 -34 54 -39
57 -98 54 -61 -2 -112 9 -118 27 -3 7 -30 29 -61 50 -48 31 -68 38 -152 48
-84 11 -99 16 -107 35 -5 12 -19 25 -31 28 -27 9 -136 5 -154 -5 -9 -5 -42 -2
-76 6 -34 8 -134 30 -224 49 l-162 34 -343 0 c-189 0 -346 -2 -348 -4z m-466
-63 c-7 -2 -21 -2 -30 0 -10 3 -4 5 12 5 17 0 24 -2 18 -5z m-354 -8 c-11 -10
-129 -15 -129 -5 0 6 27 10 67 10 36 0 64 -2 62 -5z m-1186 -32 c-7 -2 -21 -2
-30 0 -10 3 -4 5 12 5 17 0 24 -2 18 -5z m-1603 -7 c0 -3 -4 -8 -10 -11 -5 -3
-10 -1 -10 4 0 6 5 11 10 11 6 0 10 -2 10 -4z m2847 -12 c-3 -3 -12 -4 -19 -1
-8 3 -5 6 6 6 11 1 17 -2 13 -5z m-2257 -20 c-83 -17 -117 -16 -65 1 22 7 60
13 85 13 44 0 43 -1 -20 -14z m5010 -744 c0 -5 -5 -10 -11 -10 -5 0 -7 5 -4
10 3 6 8 10 11 10 2 0 4 -4 4 -10z m-6020 -370 c0 -5 -2 -10 -4 -10 -3 0 -8 5
-11 10 -3 6 -1 10 4 10 6 0 11 -4 11 -10z m6381 -133 c-7 -7 -14 -8 -21 -1 -6
6 -2 10 12 11 16 2 18 -1 9 -10z m-41 -26 c0 -14 -7 -19 -25 -17 -29 1 -32 11
-7 25 25 15 32 13 32 -8z m-65 -21 c-3 -5 -15 -10 -25 -10 -10 0 -20 -4 -22
-8 -4 -11 -68 -24 -68 -14 0 4 24 15 53 23 65 21 70 21 62 9z"/>
<path d="M2588 7053 c6 -2 18 -2 25 0 6 3 1 5 -13 5 -14 0 -19 -2 -12 -5z"/>
<path d="M2636 7051 c-4 -5 3 -7 14 -4 23 6 26 13 6 13 -8 0 -17 -4 -20 -9z"/>
<path d="M2200 6999 c0 -5 5 -7 10 -4 6 3 10 8 10 11 0 2 -4 4 -10 4 -5 0 -10
-5 -10 -11z"/>
<path d="M2363 6862 c-14 -9 -28 -146 -43 -437 -6 -110 -13 -238 -17 -284 l-6
-84 33 6 c18 4 96 7 173 7 126 0 139 2 121 14 -18 13 -182 82 -236 100 -10 3
-18 10 -18 16 0 34 75 14 249 -67 57 -27 100 -41 112 -38 40 13 179 126 217
177 62 83 84 135 90 211 3 37 3 67 1 67 -14 0 -282 79 -287 84 -8 9 18 25 32
20 6 -2 67 -19 136 -37 104 -29 137 -34 196 -30 53 4 79 1 102 -11 31 -16 33
-15 72 9 61 39 171 34 226 -10 27 -21 28 -27 26 -91 -1 -63 1 -71 27 -99 16
-16 31 -42 35 -57 4 -18 11 -25 21 -22 8 3 28 -4 45 -16 29 -21 32 -21 78 -6
54 17 294 78 397 100 39 8 102 22 140 31 127 28 398 86 504 106 117 23 165 44
207 89 39 42 84 70 174 108 122 50 220 53 220 6 0 -12 5 -14 18 -9 9 5 53 19
97 32 69 21 86 23 123 14 23 -6 52 -11 65 -11 37 0 49 -15 53 -63 4 -39 1 -48
-22 -66 -19 -15 -24 -26 -19 -41 4 -12 0 -30 -8 -44 -20 -29 -139 -100 -221
-131 -82 -31 -248 -65 -316 -65 -59 0 -309 -80 -580 -187 -91 -36 -180 -70
-197 -76 -18 -6 -33 -14 -33 -19 0 -4 262 -8 583 -8 606 0 833 -9 906 -35 80
-28 79 -29 74 88 -2 56 -8 135 -13 175 -6 40 -10 106 -10 145 0 98 -35 356
-49 370 -9 9 -147 13 -529 14 -1381 6 -1768 12 -2352 38 -58 2 -175 7 -260 10
-85 3 -193 8 -240 10 -47 3 -90 2 -97 -3z m1576 -133 c37 -13 42 -43 9 -60
l-22 -12 22 -8 c34 -13 29 -42 -6 -37 -26 4 -29 1 -29 -23 0 -21 6 -28 26 -32
81 -17 121 -32 121 -45 0 -12 -9 -13 -42 -7 -24 4 -56 7 -71 6 -16 0 -30 6
-34 14 -3 8 -9 15 -13 15 -5 0 -36 -52 -70 -115 -47 -88 -66 -115 -81 -115
-15 0 -19 5 -14 19 9 28 125 243 141 262 21 23 17 31 -13 27 -44 -5 -40 24 7
51 22 12 37 27 34 33 -4 6 -10 6 -17 -1 -14 -14 -44 -14 -53 1 -9 14 23 38 51
38 12 0 36 -5 54 -11z m344 -8 c29 -11 46 -73 26 -97 -22 -27 -140 -11 -123
17 4 6 20 8 40 4 21 -3 34 -2 34 5 0 5 -7 10 -16 10 -10 0 -14 5 -10 15 4 12
-1 15 -22 13 -35 -4 -37 23 -2 33 36 10 46 10 73 0z m437 -78 c0 -30 -3 -34
-22 -31 -17 2 -24 11 -26 31 -4 34 -32 37 -32 3 0 -51 -44 -53 -58 -3 -10 38
-26 38 -30 0 -3 -27 -8 -33 -27 -33 -13 0 -25 6 -28 13 -4 10 -7 10 -18 0 -7
-7 -34 -13 -61 -13 -40 0 -50 4 -65 26 -16 26 -16 27 6 45 25 20 86 25 111 9
8 -5 19 -5 25 0 6 5 51 10 101 12 104 3 124 -6 124 -59z m-617 27 c44 0 57 -3
57 -15 0 -21 -155 -22 -163 -1 -8 19 4 28 28 22 11 -3 46 -6 78 -6z m-375 -69
c13 -15 15 -14 29 7 15 22 53 31 53 13 0 -5 -17 -36 -38 -68 -21 -32 -54 -84
-72 -115 -37 -61 -49 -71 -71 -58 -11 7 -11 12 2 27 16 19 99 158 99 166 0 2
-11 2 -25 -1 -14 -2 -31 0 -38 6 -6 6 -29 13 -49 17 -24 5 -38 13 -38 22 0 21
130 8 148 -16z"/>
<path d="M4400 6654 c0 -10 13 -12 48 -10 57 5 54 19 -5 22 -30 1 -43 -3 -43
-12z"/>
<path d="M5480 6705 c-52 -18 -119 -42 -149 -52 -30 -11 -58 -26 -61 -34 -42
-89 -91 -149 -122 -149 -21 0 -24 28 -4 36 25 10 70 85 75 127 6 38 10 44 55
65 68 32 50 39 -31 12 -98 -32 -136 -54 -199 -111 -66 -60 -121 -85 -229 -105
-298 -56 -889 -194 -1110 -259 -13 -4 -32 3 -54 20 -44 32 -51 32 -51 -4 0
-17 -4 -33 -10 -36 -5 -3 -10 -17 -10 -30 0 -21 14 -29 128 -74 l128 -50 190
-7 c190 -7 190 -7 249 19 128 56 291 117 590 221 159 56 207 68 295 77 128 13
211 31 299 66 104 41 238 133 193 133 -4 0 -43 -20 -87 -45 -73 -42 -105 -50
-105 -26 0 5 54 39 120 76 106 59 140 85 111 85 -5 0 -53 -23 -107 -50 -89
-47 -124 -55 -124 -31 0 5 51 35 113 66 61 31 117 62 122 67 22 23 -63 -4
-163 -52 -57 -27 -108 -47 -113 -44 -22 13 -3 28 86 69 52 25 95 47 95 50 0
10 -26 4 -120 -30z"/>
<path d="M3090 6519 c0 -52 -20 -130 -45 -179 -37 -74 -128 -171 -217 -232
-45 -31 -59 -48 -40 -48 22 0 113 72 189 149 64 65 89 84 111 84 15 0 79 -23
141 -52 63 -28 118 -48 122 -44 11 11 99 211 99 224 0 6 -57 38 -127 71 -91
44 -143 63 -180 66 l-53 4 0 -43z"/>
<path d="M3357 6540 c-18 -17 -17 -19 37 -44 69 -33 76 -33 76 2 0 56 -73 83
-113 42z"/>
<path d="M7235 6430 c-3 -5 -1 -10 4 -10 6 0 11 5 11 10 0 6 -2 10 -4 10 -3 0
-8 -4 -11 -10z"/>
<path d="M3493 6329 c-9 -23 -29 -67 -45 -97 -15 -31 -28 -61 -28 -67 0 -9 53
-35 73 -35 20 0 3 22 -24 32 -20 7 -29 16 -27 27 4 17 25 19 69 7 23 -7 27 -4
37 32 16 51 15 103 -2 125 -21 27 -35 20 -53 -24z"/>
<path d="M2988 6166 c-53 -52 -94 -97 -91 -100 4 -3 91 -6 194 -6 l189 0 20
40 c11 21 20 43 20 48 0 6 -24 21 -52 35 -74 36 -169 77 -177 77 -3 -1 -50
-43 -103 -94z"/>
<path d="M3382 6095 c-7 -14 -12 -28 -12 -30 0 -3 25 -5 55 -5 63 0 69 12 23
40 -43 26 -52 25 -66 -5z"/>
<path d="M3534 6103 c-22 -35 -6 -43 84 -43 l87 1 -70 29 c-81 35 -87 36 -101
13z"/>
<path d="M2695 5354 c-45 -23 -63 -43 -75 -80 -13 -38 -7 -72 6 -39 14 34 58
63 99 64 101 2 957 -1 1085 -4 91 -3 299 -6 462 -7 164 -2 298 -5 298 -8 0 -3
16 -5 35 -5 19 0 35 3 35 6 0 3 15 6 33 6 17 0 26 -2 20 -4 -17 -6 -16 -18 3
-37 10 -10 33 -16 65 -16 48 0 49 -1 49 -30 0 -29 -1 -30 -49 -30 -46 0 -80
-18 -64 -33 3 -4 38 -7 77 -7 39 0 66 -4 59 -8 -6 -4 -13 -23 -15 -42 -3 -34
-4 -35 -53 -38 -27 -2 -56 -9 -64 -15 -11 -10 0 -13 55 -18 104 -8 103 -10
103 136 0 106 -2 126 -17 135 -14 9 -13 10 8 5 14 -4 32 -7 40 -7 8 -1 18 -6
22 -12 5 -8 8 -7 8 2 0 13 32 17 44 5 9 -9 56 -12 56 -3 0 3 12 7 26 8 l26 2
-22 -18 c-25 -20 -30 -65 -10 -101 19 -37 30 -23 30 40 0 51 2 60 16 55 8 -3
25 -1 36 5 12 6 18 7 14 1 -11 -18 22 -33 73 -35 49 -2 51 -3 51 -29 0 -26 -3
-28 -43 -28 -45 0 -85 -20 -74 -37 4 -6 33 -9 65 -7 l59 4 -1 -45 -1 -45 -51
0 c-33 0 -56 -5 -64 -15 -18 -21 2 -27 86 -23 l69 3 1 70 c3 168 4 176 15 169
6 -3 9 -15 6 -25 -3 -11 -1 -19 4 -19 5 0 9 8 9 18 0 12 6 8 20 -13 15 -25 19
-52 22 -152 4 -165 16 -124 17 58 1 136 -1 148 -22 180 -12 18 -38 44 -56 56
l-34 23 -1281 0 c-1142 0 -1284 -2 -1311 -16z m2088 -71 c-13 -2 -33 -2 -45 0
-13 2 -3 4 22 4 25 0 35 -2 23 -4z"/>
<path d="M4591 5257 c-25 -25 -6 -122 23 -111 10 4 13 22 12 60 -1 54 -14 72
-35 51z"/>
<path d="M1978 5179 c-2 -38 1 -74 5 -78 4 -4 29 -6 55 -4 55 5 81 31 82 79 0
48 -31 74 -90 74 l-48 0 -4 -71z m108 14 c4 -13 2 -35 -5 -49 -8 -19 -18 -24
-46 -24 -35 0 -35 0 -35 43 0 52 11 65 50 59 22 -3 32 -11 36 -29z"/>
<path d="M2166 5194 c-36 -79 -43 -106 -23 -98 8 3 17 14 20 25 7 27 62 26 77
-1 8 -16 40 -29 40 -17 0 19 -63 143 -73 145 -10 2 -24 -17 -41 -54z m54 -14
c0 -19 -20 -27 -33 -13 -8 7 11 33 24 33 5 0 9 -9 9 -20z"/>
<path d="M2270 5241 c0 -5 10 -11 23 -13 19 -3 23 -10 27 -66 7 -82 24 -85 28
-4 2 34 7 63 12 63 6 1 15 2 22 3 6 0 13 7 16 14 3 9 -14 12 -62 12 -36 0 -66
-4 -66 -9z"/>
<path d="M2425 5227 c-4 -13 -5 -48 -3 -78 l3 -54 57 0 c70 0 82 19 16 23 -39
3 -48 7 -48 22 0 15 9 19 43 22 23 2 42 8 42 13 0 6 -19 11 -42 13 -50 4 -59
27 -14 37 15 3 32 5 37 4 21 -4 35 2 29 11 -3 6 -31 10 -60 10 -49 0 -55 -3
-60 -23z"/>
<path d="M4934 5239 c-3 -6 0 -15 7 -20 14 -8 32 9 23 23 -7 11 -22 10 -30 -3z"/>
<path d="M4591 5111 c-21 -39 -6 -101 25 -101 12 0 14 12 12 57 -3 59 -19 78
-37 44z"/>
<path d="M5035 5098 c-8 -34 9 -82 30 -87 14 -2 17 1 12 20 -4 13 -7 39 -7 57
0 38 -27 45 -35 10z"/>
<path d="M4946 5053 c-12 -12 -6 -33 9 -33 8 0 15 6 15 14 0 17 -14 28 -24 19z"/>
<path d="M5651 4996 c-18 -22 -3 -512 16 -532 20 -19 47 -18 66 4 15 16 16 44
8 269 -5 138 -11 256 -15 262 -10 16 -61 14 -75 -3z"/>
<path d="M2048 4879 c-47 -18 -47 -60 0 -77 15 -6 35 -13 45 -16 9 -3 17 -12
17 -21 0 -21 -48 -20 -72 2 -10 9 -21 13 -25 9 -12 -11 12 -40 41 -51 35 -12
80 11 84 44 4 27 -7 37 -61 52 -22 6 -37 15 -34 22 6 19 47 20 67 2 22 -20 40
-1 19 20 -21 19 -51 24 -81 14z"/>
<path d="M2160 4878 c0 -7 14 -30 30 -52 22 -29 28 -45 23 -67 -4 -22 -2 -29
11 -29 11 0 16 9 16 29 0 16 12 44 30 66 17 21 30 42 30 46 0 18 -20 8 -42
-21 -27 -37 -31 -37 -48 -4 -17 30 -50 52 -50 32z"/>
<path d="M2358 4878 c-47 -16 -47 -59 0 -76 15 -6 35 -13 45 -16 9 -3 17 -12
17 -21 0 -21 -48 -20 -72 2 -22 19 -37 9 -22 -15 18 -29 61 -39 92 -21 52 29
38 71 -30 89 -23 7 -38 16 -35 23 6 19 47 20 67 2 21 -19 39 -3 21 19 -16 19
-51 24 -83 14z"/>
<path d="M2688 4829 c-24 -14 -22 -37 5 -60 l22 -20 -23 6 c-20 6 -23 4 -20
-12 5 -24 57 -25 72 0 9 15 7 22 -11 37 -26 21 -30 35 -8 26 9 -3 15 0 15 8 0
8 -7 17 -16 20 -19 7 -15 8 -36 -5z"/>
<path d="M2758 4829 c-3 -8 1 -27 8 -44 7 -16 15 -38 18 -48 7 -22 26 -13 26
13 0 11 5 31 12 45 13 29 1 48 -15 24 -10 -15 -12 -15 -27 4 -14 16 -18 18
-22 6z"/>
<path d="M2858 4826 c-23 -17 -23 -25 5 -54 l22 -24 -23 7 c-20 6 -23 4 -20
-12 5 -28 54 -30 69 -2 10 20 8 26 -17 47 -26 21 -26 23 -6 17 26 -7 32 19 6
29 -19 7 -15 8 -36 -8z"/>
<path d="M2935 4656 c-4 -25 -4 -49 0 -55 10 -18 25 -12 25 9 0 11 7 20 15 20
9 0 15 -9 15 -21 0 -12 5 -19 12 -17 14 5 29 74 21 95 -8 20 -24 15 -30 -7 -3
-11 -12 -20 -20 -20 -10 0 -12 6 -8 20 4 14 2 20 -9 20 -10 0 -17 -14 -21 -44z"/>
<path d="M2270 4670 c-1 -14 -3 -33 -5 -42 -5 -26 12 -32 18 -7 6 22 42 24 42
2 0 -17 15 -29 16 -12 0 8 2 27 3 42 2 34 -9 45 -17 17 -7 -27 -31 -25 -45 3
l-11 22 -1 -25z"/>
<path d="M2674 4668 c-14 -19 -11 -71 4 -75 7 -3 12 5 12 21 0 13 5 28 10 31
6 4 10 -7 10 -25 0 -39 24 -36 28 3 4 36 22 35 22 -1 0 -25 3 -28 35 -28 32 0
35 2 35 30 0 16 3 26 7 22 4 -4 8 -17 8 -28 0 -12 6 -23 13 -25 8 -3 12 6 12
26 0 17 5 31 10 31 6 0 10 -14 10 -31 0 -20 4 -29 13 -27 15 6 21 32 13 62 -5
21 -11 23 -58 22 -52 -1 -53 -1 -59 -36 -5 -27 -7 -29 -8 -9 0 14 -6 30 -13
37 -16 16 -93 15 -104 0z"/>
<path d="M3050 4665 c-14 -17 -20 -67 -13 -97 6 -24 45 -23 67 1 17 19 17 20
-2 32 -17 11 -18 15 -6 26 8 8 14 23 14 34 0 24 -41 26 -60 4z"/>
<path d="M2027 4664 c-4 -4 -7 -19 -6 -33 l0 -26 10 24 c10 26 8 47 -4 35z"/>
<path d="M2098 4640 c6 -42 24 -50 20 -9 -2 18 -8 34 -14 36 -7 2 -9 -8 -6
-27z"/>
<path d="M2152 4661 c-8 -5 -12 -20 -9 -37 l4 -29 8 33 c7 31 24 44 26 20 1
-12 2 -17 8 -43 2 -5 7 3 12 19 4 17 7 31 6 32 -11 9 -45 12 -55 5z"/>
<path d="M2228 4635 c2 -19 7 -33 11 -30 9 5 1 65 -8 65 -4 0 -5 -16 -3 -35z"/>
<path d="M2383 4663 c-19 -7 -17 -63 2 -63 8 0 15 -4 15 -10 0 -5 -5 -10 -12
-10 -6 0 -9 -2 -7 -5 3 -2 14 -2 26 1 14 4 23 16 26 37 7 46 -13 66 -50 50z
m30 -16 c3 -8 1 -20 -4 -28 -11 -19 -34 3 -26 25 8 20 23 21 30 3z"/>
<path d="M2058 4630 c5 -35 22 -30 22 6 0 13 -6 24 -13 24 -9 0 -12 -10 -9
-30z"/>
<path d="M5267 4653 c-7 -10 10 -573 17 -580 18 -18 20 37 13 289 -8 256 -14
317 -30 291z"/>
<path d="M3865 4620 c5 -15 3 -18 -9 -14 -14 5 -16 -9 -16 -110 0 -129 5 -138
54 -87 25 27 28 34 24 92 l-3 64 110 0 110 0 -3 -64 c-4 -58 -1 -65 24 -92 48
-50 54 -41 54 79 0 60 -3 112 -7 116 -5 4 -8 13 -8 19 0 9 -48 13 -168 15
-165 2 -168 2 -162 -18z"/>
<path d="M4367 4634 c-3 -3 -3 -12 0 -20 3 -8 -1 -14 -11 -14 -14 0 -16 -15
-16 -105 0 -76 4 -106 13 -112 8 -4 16 -16 20 -25 6 -16 22 -18 151 -18 152 0
176 4 176 26 0 8 5 14 11 14 15 0 5 210 -11 220 -6 4 -8 14 -4 23 6 15 -9 17
-158 17 -91 0 -167 -3 -171 -6z m267 -75 c-8 -14 10 -131 23 -144 21 -22 15
-29 -12 -11 -34 22 -201 23 -233 0 -25 -17 -29 -10 -7 12 10 11 15 36 15 82
l0 67 109 0 c60 0 107 -3 105 -6z"/>
<path d="M3621 4604 c-29 -24 -31 -29 -31 -99 0 -64 3 -77 26 -104 47 -57 54
-45 54 93 0 69 -4 127 -9 130 -5 4 -23 -6 -40 -20z"/>
<path d="M4185 4338 c-41 -23 -47 -37 -46 -106 0 -62 2 -69 31 -95 17 -15 35
-25 40 -22 11 7 12 115 2 187 -6 43 -9 46 -27 36z"/>
<path d="M3840 4231 c0 -68 4 -112 11 -117 6 -3 24 6 40 22 27 25 29 34 29 97
0 59 -3 71 -22 88 -13 10 -31 18 -40 19 -16 0 -18 -12 -18 -109z"/>
<path d="M3617 4302 c-24 -25 -27 -36 -27 -94 0 -51 5 -72 23 -99 35 -52 54
-50 58 8 7 71 -4 206 -16 210 -6 2 -23 -9 -38 -25z"/>
<path d="M4662 4307 c-31 -33 -32 -133 -2 -165 24 -25 16 -28 -20 -7 -16 9
-55 14 -111 15 -73 0 -91 -3 -120 -23 -19 -12 -35 -31 -37 -40 -3 -16 9 -17
165 -15 103 2 168 7 169 13 0 6 4 17 8 26 4 8 5 60 4 115 -3 109 -14 125 -56
81z"/>
<path d="M2582 4135 c0 -16 2 -22 5 -12 2 9 2 23 0 30 -3 6 -5 -1 -5 -18z"/>
<path d="M3898 4126 c-16 -13 -28 -31 -28 -40 0 -14 19 -16 165 -16 138 0 165
2 165 15 0 8 -20 26 -43 40 -39 22 -55 25 -138 25 -84 0 -97 -2 -121 -24z"/>
<path d="M2029 4079 c-6 -3 -9 -39 -7 -80 l3 -74 47 1 c65 0 88 23 88 85 0 40
-4 50 -22 60 -24 13 -93 18 -109 8z m95 -35 c34 -33 5 -94 -45 -94 -28 0 -29
2 -29 48 0 27 3 52 7 55 12 13 51 7 67 -9z"/>
<path d="M2273 4014 c-24 -53 -31 -80 -24 -87 7 -7 14 -2 22 16 10 22 19 27
46 27 27 0 35 -5 43 -26 9 -21 29 -30 33 -14 3 15 -58 150 -70 154 -10 4 -25
-16 -50 -70z m52 -12 c-22 -5 -29 3 -21 25 7 17 8 17 22 -2 13 -18 13 -20 -1
-23z"/>
<path d="M2195 4027 c-8 -62 -4 -97 10 -100 6 -1 11 31 13 76 3 88 -13 105
-23 24z"/>
<path d="M2649 3981 c-1 -23 -2 -47 -3 -53 -1 -17 38 -22 64 -8 17 9 21 19 18
53 -3 41 -4 42 -40 45 -38 3 -38 3 -39 -37z m48 -28 c-16 -16 -17 -15 -17 17
0 32 1 33 17 17 16 -16 16 -18 0 -34z"/>
<path d="M2750 3965 c0 -30 5 -55 10 -55 6 0 10 5 10 11 0 8 5 7 15 -1 13 -11
18 -10 30 6 15 19 15 19 30 0 10 -14 18 -17 25 -10 14 14 -19 104 -38 104 -7
0 -21 -19 -32 -42 -20 -45 -23 -44 -20 10 1 23 -3 32 -14 32 -13 0 -16 -12
-16 -55z"/>
<path d="M3863 3910 c3 -13 0 -20 -9 -20 -11 0 -14 -21 -14 -102 0 -115 7
-136 37 -120 40 22 48 42 44 111 -2 42 -9 72 -18 84 -19 21 -6 22 21 2 14 -11
47 -15 115 -15 90 1 98 2 130 29 55 45 39 51 -146 51 -160 0 -165 -1 -160 -20z"/>
<path d="M4357 3914 c-4 -4 -7 -65 -7 -135 l0 -128 34 -35 c36 -39 43 -40 224
-38 41 0 60 -3 55 -10 -3 -6 -6 -47 -5 -91 0 -76 2 -82 31 -111 44 -43 51 -26
50 109 -1 91 -4 116 -21 143 -11 17 -15 32 -9 32 12 0 14 208 2 250 l-7 25
-32 -34 c-31 -32 -32 -37 -32 -114 0 -77 2 -83 28 -103 l27 -22 -142 1 c-79 0
-143 3 -143 7 0 3 5 11 12 18 8 8 11 40 9 95 -2 78 -4 84 -35 115 -17 18 -35
30 -39 26z"/>
<path d="M5285 3910 c-3 -9 -2 -136 2 -284 6 -199 11 -270 20 -273 10 -4 11
55 6 269 -5 255 -12 327 -28 288z"/>
<path d="M2300 3870 c0 -13 -7 -20 -20 -20 -11 0 -20 7 -20 15 0 8 -4 15 -10
15 -5 0 -10 -19 -9 -42 0 -38 2 -41 11 -20 14 28 48 30 48 2 0 -11 5 -20 10
-20 6 0 10 20 10 45 0 25 -4 45 -10 45 -5 0 -10 -9 -10 -20z"/>
<path d="M2914 3877 c-9 -23 0 -102 11 -100 6 1 11 11 13 23 4 26 32 26 32 0
0 -11 7 -20 15 -20 12 0 15 13 15 55 0 44 -3 53 -15 49 -8 -4 -15 -12 -15 -20
0 -8 -7 -14 -15 -14 -8 0 -15 6 -15 14 0 21 -19 30 -26 13z"/>
<path d="M1987 3854 c-11 -11 -8 -54 3 -54 6 0 10 12 10 26 0 31 23 28 28 -4
4 -27 22 -19 22 9 0 28 23 19 32 -12 6 -22 7 -21 5 6 -2 28 -5 30 -47 33 -25
2 -49 0 -53 -4z"/>
<path d="M2110 3830 c0 -18 4 -29 10 -25 6 3 10 15 10 26 0 12 5 19 13 16 6
-2 12 -14 11 -26 -1 -29 12 -27 20 4 4 14 11 25 16 25 6 0 10 -11 10 -25 0
-14 5 -25 11 -25 6 0 9 12 7 28 -3 25 -7 27 -55 30 l-53 3 0 -31z"/>
<path d="M2347 3854 c-14 -15 -6 -41 19 -63 31 -27 46 -15 42 34 -2 24 -8 31
-28 33 -14 2 -29 0 -33 -4z m40 -20 c9 -23 -11 -38 -26 -20 -13 16 -7 36 10
36 5 0 12 -7 16 -16z"/>
<path d="M2642 3818 c3 -49 20 -56 28 -12 4 19 8 25 13 17 5 -7 6 -17 3 -22
-3 -5 1 -14 9 -21 13 -10 15 -8 15 13 0 35 18 44 22 12 5 -42 23 -33 26 13 l3
42 -61 0 -61 0 3 -42z"/>
<path d="M2780 3830 c0 -16 0 -33 0 -37 0 -19 25 -5 31 17 l6 25 4 -28 c6 -39
23 -39 27 1 4 40 22 42 22 2 0 -20 5 -30 15 -30 9 0 15 9 15 24 0 49 -9 56
-66 56 -53 0 -54 0 -54 -30z"/>
<path d="M3023 3848 c-4 -7 -9 -32 -10 -55 -3 -34 0 -43 17 -48 10 -3 28 -1
40 5 22 12 27 36 9 42 -9 3 -9 9 0 25 6 12 11 26 11 32 0 15 -57 14 -67 -1z"/>
<path d="M3854 3621 c-12 -28 -14 -57 -9 -131 3 -52 10 -99 15 -105 4 -5 9
-14 9 -20 1 -6 65 -11 166 -13 136 -2 165 0 165 12 0 7 7 19 16 27 20 17 18
218 -3 226 -7 3 -13 11 -13 19 0 15 -12 16 -218 19 l-113 2 -15 -36z m184 -41
c63 0 113 4 117 10 3 6 11 10 16 10 6 0 3 -7 -5 -16 -12 -11 -16 -35 -16 -85
l0 -69 -92 0 c-51 0 -102 -3 -113 -6 -19 -5 -20 -1 -17 63 3 58 0 71 -17 90
-26 27 -28 42 -3 20 15 -14 40 -17 130 -17z"/>
<path d="M1967 3303 c-10 -10 -8 -151 2 -157 10 -7 21 17 21 45 0 15 7 19 35
19 34 0 75 27 75 51 0 35 -21 49 -74 49 -29 0 -56 -3 -59 -7z m96 -25 c8 -25
-6 -38 -39 -38 -26 0 -34 4 -34 18 0 10 3 22 7 25 11 12 61 8 66 -5z"/>
<path d="M2127 3303 c-13 -12 -7 -119 7 -138 18 -25 78 -25 106 0 16 15 20 30
20 82 0 47 -3 64 -12 61 -8 -3 -14 -27 -16 -58 -4 -64 -16 -82 -51 -78 -25 3
-26 6 -29 71 -3 62 -9 77 -25 60z"/>
<path d="M2297 3303 c-4 -3 -7 -39 -7 -80 l0 -73 55 0 c62 0 75 17 18 22 l-38
3 -3 68 c-3 62 -9 77 -25 60z"/>
<path d="M2553 3255 c0 -33 2 -45 4 -27 2 18 2 45 0 60 -2 15 -4 0 -4 -33z"/>
<path d="M2649 3273 c-1 -5 -3 -29 -5 -55 -2 -37 0 -48 11 -48 8 0 15 7 15 15
0 8 6 15 14 15 16 0 46 26 46 40 0 27 -77 57 -81 33z m46 -33 c-3 -5 -10 -10
-16 -10 -5 0 -9 5 -9 10 0 6 7 10 16 10 8 0 12 -4 9 -10z"/>
<path d="M2746 3273 c-3 -3 -6 -25 -6 -48 0 -53 20 -73 55 -57 26 12 39 44 33
83 -4 28 -22 29 -26 2 -12 -74 -32 -89 -32 -24 0 38 -10 57 -24 44z"/>
<path d="M2846 3258 c-3 -13 -6 -38 -6 -55 0 -26 4 -33 20 -34 11 -1 25 -2 32
-3 21 -2 19 21 -2 27 -16 4 -21 13 -20 34 1 15 2 34 1 41 -2 20 -18 14 -25
-10z"/>
<path d="M3860 3192 c0 -4 6 -14 13 -21 10 -11 8 -12 -10 -6 -23 6 -23 6 -23
-109 0 -71 4 -117 11 -122 6 -3 24 6 40 22 27 26 29 33 29 98 l0 71 110 0 110
0 0 -68 c0 -59 3 -71 25 -93 24 -24 33 -40 17 -30 -5 3 -68 8 -141 11 -111 6
-136 4 -156 -9 -14 -9 -22 -22 -19 -30 3 -7 -1 -16 -8 -18 -12 -5 -15 -89 -9
-210 1 -25 18 -22 52 9 26 25 29 34 29 92 0 42 -5 70 -14 80 -13 15 -3 16 110
13 92 -2 130 0 142 10 11 9 10 5 -3 -13 -18 -22 -20 -36 -15 -97 4 -62 9 -74
30 -89 14 -10 30 -18 35 -18 11 0 17 129 8 188 -3 20 -11 37 -18 37 -8 0 -11
8 -8 20 3 11 9 20 14 20 14 0 11 212 -3 243 l-13 27 -167 0 c-93 0 -168 -4
-168 -8z"/>
<path d="M4670 3172 l-32 -30 3 -85 c4 -79 6 -88 33 -116 16 -17 33 -28 38
-25 11 7 10 255 -1 272 -6 10 -16 7 -41 -16z"/>
<path d="M5304 3166 c-10 -27 10 -592 21 -586 6 3 9 108 6 295 -3 266 -9 337
-27 291z"/>
<path d="M2641 3076 c-14 -55 -14 -66 -1 -66 6 0 10 13 10 29 0 35 17 51 22
20 2 -17 11 -22 41 -24 37 -2 37 -2 37 37 0 42 -16 51 -29 16 l-8 -23 -7 23
c-4 12 -11 22 -16 22 -5 0 -15 3 -23 6 -10 4 -17 -7 -26 -40z"/>
<path d="M2764 3096 c-12 -30 0 -61 24 -62 13 -1 26 5 29 13 4 11 8 10 19 -4
12 -16 15 -16 24 -3 12 19 13 70 0 70 -5 0 -13 -7 -18 -16 -8 -15 -10 -15 -15
0 -9 23 -25 20 -30 -6 l-4 -23 -2 23 c-1 25 -19 30 -27 8z"/>
<path d="M2067 3093 c-9 -14 -12 -82 -4 -89 4 -4 7 3 7 16 0 19 2 20 15 10 8
-7 15 -19 15 -26 0 -8 5 -14 10 -14 13 0 13 27 1 35 -5 3 -12 19 -16 35 -7 31
-20 46 -28 33z"/>
<path d="M2300 3070 c0 -37 -12 -38 -34 -5 -25 38 -36 30 -36 -27 0 -34 3 -48
9 -39 5 7 6 22 4 32 -8 29 13 23 37 -11 12 -17 26 -28 31 -25 12 8 12 105 -1
105 -5 0 -10 -13 -10 -30z"/>
<path d="M2026 3065 c-4 -16 -11 -38 -17 -47 -5 -10 -5 -18 0 -18 13 0 33 55
28 77 -3 13 -6 10 -11 -12z"/>
<path d="M2136 3074 c-9 -24 -7 -39 9 -60 13 -18 14 -15 15 29 0 46 -12 62
-24 31z"/>
<path d="M2188 3048 c-3 -24 -1 -47 3 -52 6 -6 9 -2 10 10 0 10 2 34 3 52 2
17 0 32 -4 32 -4 0 -10 -19 -12 -42z"/>
<path d="M4672 2847 c-19 -20 -22 -35 -22 -108 0 -78 2 -87 28 -119 51 -60 59
-32 46 158 -7 99 -15 109 -52 69z"/>
<path d="M2777 2803 c-11 -10 -8 -71 3 -78 6 -3 13 1 16 10 5 12 9 13 20 4 16
-13 16 -13 32 16 11 18 11 18 12 -8 0 -42 24 -28 28 16 4 45 -22 62 -45 31
-13 -18 -15 -18 -27 -1 -14 18 -28 22 -39 10z"/>
<path d="M2653 2773 c-9 -3 -13 -36 -13 -114 0 -108 0 -109 26 -115 31 -8 333
2 342 11 9 8 13 160 6 198 -5 22 -11 27 -35 27 -34 0 -39 -17 -6 -22 21 -3 22
-7 22 -98 l0 -95 -165 0 -165 0 0 95 c0 91 1 95 23 98 12 2 22 8 22 13 0 9
-36 11 -57 2z"/>
<path d="M5615 2753 c4 -10 10 -31 14 -47 8 -37 25 -43 38 -14 l11 23 7 -27
c10 -38 21 -35 29 7 10 50 26 54 26 5 0 -26 4 -39 10 -35 6 4 9 13 8 20 -5 24
17 17 22 -7 4 -16 8 -19 14 -10 5 9 12 9 27 1 36 -19 50 -4 47 48 -3 44 -5 48
-30 51 -26 3 -28 1 -28 -34 0 -42 -12 -39 -14 3 -1 16 -5 27 -11 25 -5 -2 -9
-10 -7 -18 2 -8 -4 -14 -13 -14 -8 0 -15 9 -15 20 0 13 -7 20 -20 20 -13 0
-20 -7 -20 -19 0 -28 -18 -36 -22 -9 -4 28 -28 36 -28 9 0 -27 -16 -27 -23 -1
-3 11 -11 20 -17 20 -8 0 -9 -6 -5 -17z m235 -38 c0 -19 -4 -35 -10 -35 -5 0
-10 16 -10 35 0 19 5 35 10 35 6 0 10 -16 10 -35z"/>
<path d="M2936 2684 c-7 -18 0 -34 15 -34 5 0 9 11 9 25 0 28 -15 34 -24 9z"/>
<path d="M3148 2658 c-20 -23 -28 -43 -28 -70 0 -21 3 -38 8 -39 14 -1 107 -1
120 0 7 1 12 16 12 39 -1 27 -9 46 -30 70 -16 17 -35 32 -42 32 -7 0 -25 -15
-40 -32z m52 -74 c0 -8 -4 -12 -10 -9 -5 3 -10 13 -10 21 0 8 5 12 10 9 6 -3
10 -13 10 -21z"/>
<path d="M3897 2664 c-15 -14 -26 -31 -24 -37 5 -16 316 -22 331 -6 8 8 1 19
-24 40 -33 28 -37 29 -145 29 -105 0 -112 -1 -138 -26z"/>
<path d="M2940 2604 c0 -14 4 -23 10 -19 6 3 10 15 10 26 0 10 -4 19 -10 19
-5 0 -10 -12 -10 -26z"/>
<path d="M3852 1908 c-50 -17 -76 -34 -127 -83 -35 -35 -67 -75 -71 -91 -4
-16 -13 -34 -20 -41 -17 -17 -28 -131 -18 -184 8 -41 9 -38 15 46 l6 90 0
-106 c0 -80 5 -115 18 -143 22 -46 83 -116 102 -116 7 0 13 -4 13 -8 0 -10 83
-48 123 -57 24 -5 27 -2 27 20 0 17 5 25 18 25 10 0 24 6 31 13 10 9 15 9 18
1 5 -16 85 2 96 22 9 16 37 19 37 4 0 -5 7 -10 15 -10 23 0 18 16 -10 28 -20
9 -27 8 -40 -5 -15 -15 -19 -15 -48 1 l-32 16 31 -5 c22 -4 35 -1 48 14 10 11
13 22 8 25 -5 3 -15 -1 -22 -9 -18 -21 -162 -21 -180 0 -7 9 -21 13 -31 10
-13 -4 -21 0 -26 12 -4 10 -18 34 -31 53 -13 19 -28 45 -33 58 -10 26 -29 21
-29 -8 0 -10 -6 -20 -12 -23 -7 -2 -9 -8 -5 -13 4 -5 12 -2 17 6 5 8 12 11 16
7 4 -4 0 -15 -9 -24 -13 -13 -19 -14 -31 -4 -11 10 -17 8 -31 -11 l-17 -23 7
30 c4 17 15 38 26 48 19 17 23 29 20 55 -1 6 2 12 8 12 5 0 11 -6 14 -12 2 -7
8 -10 12 -6 5 5 3 19 -3 32 -9 21 -7 32 16 73 35 64 51 84 87 112 23 19 26 23
9 19 -15 -4 -23 2 -33 23 -16 36 -43 37 -61 4 -7 -13 -16 -22 -21 -20 -4 3
-19 1 -33 -5 -26 -10 -26 -9 -10 15 9 14 21 25 27 25 7 0 28 18 48 39 41 46
79 59 123 43 17 -6 45 -8 61 -5 29 5 29 5 10 -11 -12 -9 -15 -15 -7 -16 10 0
10 -5 2 -20 -9 -16 -8 -22 4 -26 23 -9 36 4 36 36 0 23 5 31 25 36 14 4 29 3
33 0 3 -4 -4 -9 -16 -13 -27 -7 -28 -22 -2 -70 11 -21 20 -34 20 -29 0 5 7 3
15 -4 13 -11 20 -9 39 9 12 11 26 18 29 14 12 -11 8 -23 -7 -23 -27 0 -29 -22
-4 -44 28 -23 58 -76 58 -101 0 -9 7 -18 15 -21 24 -10 15 -46 -36 -146 -21
-40 -10 -52 14 -17 11 15 17 17 23 8 9 -15 -34 -52 -53 -45 -20 8 -52 -15 -46
-32 10 -26 49 -57 66 -54 23 5 21 -7 -5 -29 -23 -21 -32 -24 -23 -9 3 5 0 10
-9 10 -8 0 -21 3 -29 6 -8 3 -21 -1 -28 -9 -8 -8 -32 -17 -54 -22 -32 -6 -36
-9 -21 -14 13 -5 16 -10 8 -15 -6 -4 -21 -2 -32 4 -11 6 -30 8 -42 4 -21 -6
-21 -7 -4 -20 36 -26 166 3 251 54 54 33 53 31 26 53 -19 16 -21 22 -11 34 16
19 35 19 54 0 13 -13 17 -12 35 13 12 18 18 37 14 50 -4 18 -2 21 12 16 15 -6
16 -3 9 27 -5 19 -8 68 -7 109 1 51 -1 67 -7 50 -4 -14 -8 -19 -9 -12 -2 23
-26 7 -28 -19 -5 -58 -16 -109 -24 -109 -5 0 -9 -9 -9 -20 0 -11 5 -20 10 -20
6 0 10 5 10 10 0 6 5 10 10 10 18 0 11 -22 -9 -27 -10 -3 -23 -14 -29 -26 -8
-18 -9 -15 -7 18 2 22 -2 46 -7 53 -8 9 -6 12 6 12 10 0 16 9 17 25 2 34 3 38
13 53 4 7 5 16 2 19 -3 4 -6 1 -6 -5 0 -7 -4 -12 -9 -12 -6 0 -6 12 1 30 7 22
7 34 -2 44 -6 8 -10 20 -9 28 1 7 1 18 0 24 -2 16 -37 54 -50 54 -6 0 -11 5
-11 10 0 6 6 10 13 10 14 0 47 35 47 50 0 6 -10 5 -25 -2 -34 -15 -45 -1 -16
21 15 12 20 21 13 25 -14 8 -52 -15 -52 -31 0 -7 -4 -13 -10 -13 -5 0 -10 4
-10 9 0 5 -13 12 -30 16 -16 4 -30 11 -30 16 0 12 14 11 26 -1 7 -7 21 -6 44
3 l33 14 -33 17 c-38 19 -50 20 -50 6 0 -5 9 -10 20 -10 11 0 20 -4 20 -10 0
-14 -22 -12 -43 4 -12 10 -40 12 -93 10 -41 -3 -81 -1 -89 3 -8 5 12 9 47 11
88 3 105 19 22 20 -45 0 -91 -7 -132 -20z m251 -88 c3 -10 -1 -24 -9 -31 -11
-9 -14 -6 -14 20 0 34 15 42 23 11z m-353 -73 c0 -7 -5 -18 -11 -24 -6 -6 -9
-19 -7 -29 3 -17 4 -17 21 0 11 11 15 25 11 38 -5 17 -4 18 15 6 20 -12 20
-13 1 -33 -18 -19 -20 -23 -20 -45 0 -20 -20 -9 -34 19 -12 23 -13 33 -3 55
13 28 27 35 27 13z m70 3 c0 -5 -2 -10 -4 -10 -3 0 -8 5 -11 10 -3 6 -1 10 4
10 6 0 11 -4 11 -10z m344 -8 c3 -5 -1 -9 -9 -9 -8 0 -15 4 -15 9 0 4 4 8 9 8
6 0 12 -4 15 -8z m-480 -70 c-21 -52 -26 -53 -21 -2 3 25 6 49 6 54 1 5 8 3
16 -4 13 -11 13 -16 -1 -48z m527 41 c1 -5 3 -18 4 -30 1 -13 7 -29 14 -37 12
-14 5 -46 -10 -46 -4 0 -6 6 -3 14 3 8 -3 32 -14 55 -11 22 -17 42 -14 45 8 8
22 7 23 -1z m-496 -100 c-5 -10 -7 -22 -6 -27 1 -5 -1 -16 -4 -25 -5 -13 -7
-14 -15 -1 -15 23 -12 52 7 66 22 15 28 11 18 -13z m-44 -65 c2 -20 0 -40 -4
-44 -4 -4 -7 14 -7 41 0 56 7 57 11 3z m-1 -85 c0 -19 -3 -24 -10 -17 -6 6 -8
18 -4 27 9 24 14 21 14 -10z m110 -57 c-14 -14 -22 -2 -14 18 5 14 9 15 15 4
4 -7 4 -17 -1 -22z m510 -10 c0 -8 -7 -16 -15 -20 -15 -5 -21 14 -8 27 11 12
23 8 23 -7z m-570 -12 c0 -8 -4 -12 -10 -9 -5 3 -10 10 -10 16 0 5 5 9 10 9 6
0 10 -7 10 -16z m100 -15 c0 -6 -4 -7 -10 -4 -5 3 -10 11 -10 16 0 6 5 7 10 4
6 -3 10 -11 10 -16z m400 12 c0 -5 -8 -11 -17 -14 -10 -2 -26 -8 -35 -12 -13
-5 -18 -2 -18 10 0 9 4 14 8 11 4 -2 14 -1 22 5 19 11 40 12 40 0z m-435 -34
c10 -8 14 -17 8 -20 -5 -3 -17 3 -26 14 -19 22 -9 25 18 6z m95 9 c0 -11 -50
-35 -55 -26 -4 6 4 14 17 19 26 11 38 13 38 7z m-97 -51 c29 -8 37 -25 12 -25
-8 0 -15 4 -15 9 0 5 -12 11 -27 13 -18 2 -29 10 -32 23 -3 19 -2 19 15 3 11
-9 31 -20 47 -23z m207 4 c0 -5 4 -8 9 -4 5 3 12 1 16 -5 4 -6 -4 -10 -19 -10
-13 0 -31 -3 -40 -6 -9 -3 -16 -1 -16 5 0 6 7 11 16 11 8 0 12 5 9 10 -3 6 1
10 9 10 9 0 16 -5 16 -11z m-70 -19 c0 -5 -4 -10 -10 -10 -5 0 -10 5 -10 10 0
6 5 10 10 10 6 0 10 -4 10 -10z m-20 -30 c0 -5 -14 -10 -31 -10 -17 0 -28 4
-24 10 3 6 17 10 31 10 13 0 24 -4 24 -10z"/>
<path d="M3825 1864 c-12 -13 -12 -17 3 -34 20 -24 23 -25 16 -5 -5 11 1 15
24 15 25 0 29 -3 25 -20 -3 -11 -10 -20 -16 -20 -5 0 2 -11 17 -25 36 -34 33
-60 -14 -104 -42 -39 -48 -51 -26 -51 8 0 12 -9 11 -22 -1 -13 -3 -29 -4 -35
-3 -28 -21 -11 -22 20 l-1 32 -8 -27 c-12 -39 7 -102 41 -138 30 -31 51 -39
47 -17 -2 7 5 11 17 9 16 -3 18 -1 8 9 -15 15 -17 49 -3 49 6 0 10 5 10 11 0
6 -7 8 -17 4 -13 -4 -15 -3 -7 5 17 17 46 2 35 -18 -6 -10 -6 -24 0 -34 6 -10
7 -23 4 -28 -3 -5 5 -11 17 -13 13 -2 8 -3 -9 -1 -38 3 -53 -11 -22 -21 52
-17 152 30 177 84 34 71 2 170 -65 206 -34 18 -41 31 -23 37 12 4 2 68 -11 68
-5 0 -9 -56 -9 -125 0 -77 -4 -125 -10 -125 -5 0 -10 5 -10 11 0 5 -5 7 -11 3
-8 -4 -6 -11 4 -21 12 -12 12 -21 4 -44 -6 -16 -15 -29 -19 -29 -11 0 -10 14
3 27 19 19 -11 55 -40 48 -21 -5 -23 -4 -12 9 7 9 17 14 21 11 5 -3 11 -1 15
5 3 5 1 10 -4 10 -7 0 -11 39 -11 110 0 96 -7 129 -23 103 -2 -5 -2 -2 0 6 2
7 -2 20 -8 27 -8 10 -8 14 0 14 6 0 11 -5 11 -11 0 -5 5 -7 11 -4 17 11 -23
41 -64 48 -26 4 -41 1 -52 -9z m55 -8 c0 -2 -11 -6 -25 -8 -13 -3 -22 -1 -19
3 5 9 44 13 44 5z m166 -183 c-8 -21 4 -39 15 -22 7 12 10 12 21 0 10 -10 10
-12 1 -7 -16 9 -18 -30 -3 -39 6 -3 10 -16 10 -27 0 -12 7 -30 17 -40 15 -17
15 -18 -1 -18 -10 0 -20 9 -23 20 -3 11 -9 20 -13 20 -5 0 -6 9 -3 20 3 11 0
20 -6 20 -6 0 -11 -7 -11 -15 0 -8 -4 -15 -8 -15 -4 0 -9 30 -10 66 -2 46 1
64 8 59 6 -4 9 -14 6 -22z m-113 6 c-6 -6 -9 -27 -6 -48 3 -21 1 -31 -4 -24
-5 7 -20 17 -33 23 -25 10 -25 10 3 5 27 -5 39 9 15 18 -10 3 -10 7 1 20 7 10
18 17 24 17 8 0 8 -3 0 -11z m-26 -75 c-3 -3 -12 -4 -19 -1 -8 3 -5 6 6 6 11
1 17 -2 13 -5z m210 -16 c-3 -8 -6 -5 -6 6 -1 11 2 17 5 13 3 -3 4 -12 1 -19z
m-57 -42 c0 -2 -7 -9 -15 -16 -12 -10 -15 -10 -15 4 0 9 7 16 15 16 8 0 15 -2
15 -4z m-147 -28 c9 -31 0 -35 -23 -10 -25 26 -25 32 -1 32 11 0 21 -9 24 -22z
m181 -3 c21 -16 16 -42 -11 -52 -10 -3 -27 -13 -38 -22 -19 -15 -19 -15 -5 2
11 15 11 22 2 38 -12 19 -12 19 11 4 22 -14 37 -12 37 6 0 4 -9 11 -20 14 -11
4 -18 11 -15 16 8 12 17 11 39 -6z m-206 -25 c4 0 13 -9 20 -20 17 -28 -2 -25
-35 6 -19 18 -22 24 -10 20 10 -3 22 -6 25 -6z m125 -35 c-5 -13 -23 -22 -23
-11 0 15 14 35 21 31 4 -3 6 -12 2 -20z"/>
<path d="M4250 1785 c0 -19 -4 -23 -17 -19 -11 4 -14 2 -8 -3 6 -4 19 -25 30
-45 23 -45 35 -48 36 -10 0 24 1 25 9 7 14 -32 11 -45 -9 -45 -29 0 -36 -19
-10 -28 27 -10 60 17 55 45 -7 33 -48 103 -57 97 -5 -3 -9 2 -9 10 0 9 -4 16
-10 16 -5 0 -10 -11 -10 -25z m40 -29 c0 -11 -19 -15 -25 -6 -3 5 1 10 9 10 9
0 16 -2 16 -4z"/>
<path d="M2858 1694 c-31 -16 -45 -54 -30 -80 6 -10 43 -34 84 -54 55 -26 74
-41 76 -58 3 -17 -4 -25 -29 -36 -43 -18 -87 -4 -95 31 -5 17 -12 23 -28 21
-30 -4 -31 -34 -2 -63 22 -22 34 -25 91 -25 57 0 69 3 90 25 50 49 22 99 -76
136 -70 27 -82 44 -53 73 23 23 62 19 88 -9 13 -14 31 -25 40 -25 25 0 19 36
-10 59 -32 25 -105 28 -146 5z"/>
<path d="M4928 1703 c-1 -4 -2 -68 0 -140 3 -124 4 -133 23 -133 17 0 19 7 19
82 0 45 3 78 8 74 4 -4 16 -39 27 -79 17 -58 24 -72 40 -72 17 0 23 14 39 85
22 96 24 95 28 -10 3 -69 5 -75 26 -78 l23 -3 -3 138 -3 138 -34 0 c-36 0 -37
-1 -67 -144 -8 -36 -20 -15 -41 69 -18 72 -20 75 -50 78 -17 2 -33 -1 -35 -5z"/>
<path d="M4349 1618 c0 -2 -3 -29 -6 -60 -3 -38 -1 -58 6 -58 7 0 11 24 11 60
0 33 -2 60 -5 60 -3 0 -5 -1 -6 -2z"/>
</g>
</svg>
